%TF.GenerationSoftware,KiCad,Pcbnew,4.0.5*%
%TF.CreationDate,2018-01-19T21:54:27-07:00*%
%TF.ProjectId,Amplifier and Attenuator Module,416D706C696669657220616E64204174,6*%
%TF.FileFunction,Soldermask,Bot*%
%FSLAX46Y46*%
G04 Gerber Fmt 4.6, Leading zero omitted, Abs format (unit mm)*
G04 Created by KiCad (PCBNEW 4.0.5) date 01/19/18 21:54:27*
%MOMM*%
%LPD*%
G01*
G04 APERTURE LIST*
%ADD10C,0.100000*%
%ADD11R,1.700000X1.700000*%
%ADD12O,1.700000X1.700000*%
%ADD13C,4.500000*%
%ADD14R,9.650000X4.190000*%
G04 APERTURE END LIST*
D10*
D11*
X148442960Y-175543400D03*
D12*
X145902960Y-175543400D03*
X143362960Y-175543400D03*
X140822960Y-175543400D03*
X138282960Y-175543400D03*
X135742960Y-175543400D03*
X133202960Y-175543400D03*
X130662960Y-175543400D03*
X128122960Y-175543400D03*
X125582960Y-175543400D03*
X123042960Y-175543400D03*
X120502960Y-175543400D03*
X117962960Y-175543400D03*
X115422960Y-175543400D03*
X112882960Y-175543400D03*
D13*
X107040000Y-181508000D03*
X78215560Y-151085460D03*
X149084500Y-148430800D03*
D14*
X144677000Y-137881000D03*
X82397000Y-137851000D03*
X82397000Y-87813000D03*
X144677000Y-87843000D03*
D13*
X149084500Y-98392800D03*
X78215560Y-101047460D03*
X107040000Y-131470000D03*
D11*
X148442960Y-125505400D03*
D12*
X145902960Y-125505400D03*
X143362960Y-125505400D03*
X140822960Y-125505400D03*
X138282960Y-125505400D03*
X135742960Y-125505400D03*
X133202960Y-125505400D03*
X130662960Y-125505400D03*
X128122960Y-125505400D03*
X125582960Y-125505400D03*
X123042960Y-125505400D03*
X120502960Y-125505400D03*
X117962960Y-125505400D03*
X115422960Y-125505400D03*
X112882960Y-125505400D03*
M02*
