%TF.GenerationSoftware,KiCad,Pcbnew,4.0.5*%
%TF.CreationDate,2018-01-19T21:54:27-07:00*%
%TF.ProjectId,Amplifier and Attenuator Module,416D706C696669657220616E64204174,6*%
%TF.FileFunction,Legend,Top*%
%FSLAX46Y46*%
G04 Gerber Fmt 4.6, Leading zero omitted, Abs format (unit mm)*
G04 Created by KiCad (PCBNEW 4.0.5) date 01/19/18 21:54:27*
%MOMM*%
%LPD*%
G01*
G04 APERTURE LIST*
%ADD10C,0.100000*%
%ADD11C,0.250000*%
%ADD12C,0.300000*%
%ADD13C,0.200000*%
%ADD14C,0.120000*%
%ADD15C,0.150000*%
G04 APERTURE END LIST*
D10*
D11*
X81771918Y-125236981D02*
X81438584Y-124760790D01*
X81200489Y-125236981D02*
X81200489Y-124236981D01*
X81581442Y-124236981D01*
X81676680Y-124284600D01*
X81724299Y-124332219D01*
X81771918Y-124427457D01*
X81771918Y-124570314D01*
X81724299Y-124665552D01*
X81676680Y-124713171D01*
X81581442Y-124760790D01*
X81200489Y-124760790D01*
X82533823Y-124713171D02*
X82200489Y-124713171D01*
X82200489Y-125236981D02*
X82200489Y-124236981D01*
X82676680Y-124236981D01*
X83771918Y-124951267D02*
X84248109Y-124951267D01*
X83676680Y-125236981D02*
X84010013Y-124236981D01*
X84343347Y-125236981D01*
X84676680Y-125236981D02*
X84676680Y-124570314D01*
X84676680Y-124760790D02*
X84724299Y-124665552D01*
X84771918Y-124617933D01*
X84867156Y-124570314D01*
X84962395Y-124570314D01*
X85295728Y-125236981D02*
X85295728Y-124570314D01*
X85295728Y-124760790D02*
X85343347Y-124665552D01*
X85390966Y-124617933D01*
X85486204Y-124570314D01*
X85581443Y-124570314D01*
X86343348Y-125236981D02*
X86343348Y-124713171D01*
X86295729Y-124617933D01*
X86200491Y-124570314D01*
X86010014Y-124570314D01*
X85914776Y-124617933D01*
X86343348Y-125189362D02*
X86248110Y-125236981D01*
X86010014Y-125236981D01*
X85914776Y-125189362D01*
X85867157Y-125094124D01*
X85867157Y-124998886D01*
X85914776Y-124903648D01*
X86010014Y-124856029D01*
X86248110Y-124856029D01*
X86343348Y-124808410D01*
X86724300Y-124570314D02*
X86962395Y-125236981D01*
X87200491Y-124570314D02*
X86962395Y-125236981D01*
X86867157Y-125475076D01*
X86819538Y-125522695D01*
X86724300Y-125570314D01*
X88295729Y-125189362D02*
X88438586Y-125236981D01*
X88676682Y-125236981D01*
X88771920Y-125189362D01*
X88819539Y-125141743D01*
X88867158Y-125046505D01*
X88867158Y-124951267D01*
X88819539Y-124856029D01*
X88771920Y-124808410D01*
X88676682Y-124760790D01*
X88486205Y-124713171D01*
X88390967Y-124665552D01*
X88343348Y-124617933D01*
X88295729Y-124522695D01*
X88295729Y-124427457D01*
X88343348Y-124332219D01*
X88390967Y-124284600D01*
X88486205Y-124236981D01*
X88724301Y-124236981D01*
X88867158Y-124284600D01*
X89295729Y-125236981D02*
X89295729Y-124570314D01*
X89295729Y-124236981D02*
X89248110Y-124284600D01*
X89295729Y-124332219D01*
X89343348Y-124284600D01*
X89295729Y-124236981D01*
X89295729Y-124332219D01*
X90200491Y-124570314D02*
X90200491Y-125379838D01*
X90152872Y-125475076D01*
X90105253Y-125522695D01*
X90010014Y-125570314D01*
X89867157Y-125570314D01*
X89771919Y-125522695D01*
X90200491Y-125189362D02*
X90105253Y-125236981D01*
X89914776Y-125236981D01*
X89819538Y-125189362D01*
X89771919Y-125141743D01*
X89724300Y-125046505D01*
X89724300Y-124760790D01*
X89771919Y-124665552D01*
X89819538Y-124617933D01*
X89914776Y-124570314D01*
X90105253Y-124570314D01*
X90200491Y-124617933D01*
X90676681Y-124570314D02*
X90676681Y-125236981D01*
X90676681Y-124665552D02*
X90724300Y-124617933D01*
X90819538Y-124570314D01*
X90962396Y-124570314D01*
X91057634Y-124617933D01*
X91105253Y-124713171D01*
X91105253Y-125236981D01*
X92010015Y-125236981D02*
X92010015Y-124713171D01*
X91962396Y-124617933D01*
X91867158Y-124570314D01*
X91676681Y-124570314D01*
X91581443Y-124617933D01*
X92010015Y-125189362D02*
X91914777Y-125236981D01*
X91676681Y-125236981D01*
X91581443Y-125189362D01*
X91533824Y-125094124D01*
X91533824Y-124998886D01*
X91581443Y-124903648D01*
X91676681Y-124856029D01*
X91914777Y-124856029D01*
X92010015Y-124808410D01*
X92629062Y-125236981D02*
X92533824Y-125189362D01*
X92486205Y-125094124D01*
X92486205Y-124236981D01*
X94343349Y-125141743D02*
X94295730Y-125189362D01*
X94152873Y-125236981D01*
X94057635Y-125236981D01*
X93914777Y-125189362D01*
X93819539Y-125094124D01*
X93771920Y-124998886D01*
X93724301Y-124808410D01*
X93724301Y-124665552D01*
X93771920Y-124475076D01*
X93819539Y-124379838D01*
X93914777Y-124284600D01*
X94057635Y-124236981D01*
X94152873Y-124236981D01*
X94295730Y-124284600D01*
X94343349Y-124332219D01*
X94771920Y-125236981D02*
X94771920Y-124236981D01*
X95200492Y-125236981D02*
X95200492Y-124713171D01*
X95152873Y-124617933D01*
X95057635Y-124570314D01*
X94914777Y-124570314D01*
X94819539Y-124617933D01*
X94771920Y-124665552D01*
X96105254Y-125236981D02*
X96105254Y-124713171D01*
X96057635Y-124617933D01*
X95962397Y-124570314D01*
X95771920Y-124570314D01*
X95676682Y-124617933D01*
X96105254Y-125189362D02*
X96010016Y-125236981D01*
X95771920Y-125236981D01*
X95676682Y-125189362D01*
X95629063Y-125094124D01*
X95629063Y-124998886D01*
X95676682Y-124903648D01*
X95771920Y-124856029D01*
X96010016Y-124856029D01*
X96105254Y-124808410D01*
X96581444Y-125236981D02*
X96581444Y-124570314D01*
X96581444Y-124236981D02*
X96533825Y-124284600D01*
X96581444Y-124332219D01*
X96629063Y-124284600D01*
X96581444Y-124236981D01*
X96581444Y-124332219D01*
X97057634Y-124570314D02*
X97057634Y-125236981D01*
X97057634Y-124665552D02*
X97105253Y-124617933D01*
X97200491Y-124570314D01*
X97343349Y-124570314D01*
X97438587Y-124617933D01*
X97486206Y-124713171D01*
X97486206Y-125236981D01*
X80652870Y-126701267D02*
X81129061Y-126701267D01*
X80557632Y-126986981D02*
X80890965Y-125986981D01*
X81224299Y-126986981D01*
X81557632Y-126986981D02*
X81557632Y-126320314D01*
X81557632Y-126415552D02*
X81605251Y-126367933D01*
X81700489Y-126320314D01*
X81843347Y-126320314D01*
X81938585Y-126367933D01*
X81986204Y-126463171D01*
X81986204Y-126986981D01*
X81986204Y-126463171D02*
X82033823Y-126367933D01*
X82129061Y-126320314D01*
X82271918Y-126320314D01*
X82367156Y-126367933D01*
X82414775Y-126463171D01*
X82414775Y-126986981D01*
X82890965Y-126320314D02*
X82890965Y-127320314D01*
X82890965Y-126367933D02*
X82986203Y-126320314D01*
X83176680Y-126320314D01*
X83271918Y-126367933D01*
X83319537Y-126415552D01*
X83367156Y-126510790D01*
X83367156Y-126796505D01*
X83319537Y-126891743D01*
X83271918Y-126939362D01*
X83176680Y-126986981D01*
X82986203Y-126986981D01*
X82890965Y-126939362D01*
X83938584Y-126986981D02*
X83843346Y-126939362D01*
X83795727Y-126844124D01*
X83795727Y-125986981D01*
X84319537Y-126986981D02*
X84319537Y-126320314D01*
X84319537Y-125986981D02*
X84271918Y-126034600D01*
X84319537Y-126082219D01*
X84367156Y-126034600D01*
X84319537Y-125986981D01*
X84319537Y-126082219D01*
X84652870Y-126320314D02*
X85033822Y-126320314D01*
X84795727Y-126986981D02*
X84795727Y-126129838D01*
X84843346Y-126034600D01*
X84938584Y-125986981D01*
X85033822Y-125986981D01*
X85367156Y-126986981D02*
X85367156Y-126320314D01*
X85367156Y-125986981D02*
X85319537Y-126034600D01*
X85367156Y-126082219D01*
X85414775Y-126034600D01*
X85367156Y-125986981D01*
X85367156Y-126082219D01*
X86224299Y-126939362D02*
X86129061Y-126986981D01*
X85938584Y-126986981D01*
X85843346Y-126939362D01*
X85795727Y-126844124D01*
X85795727Y-126463171D01*
X85843346Y-126367933D01*
X85938584Y-126320314D01*
X86129061Y-126320314D01*
X86224299Y-126367933D01*
X86271918Y-126463171D01*
X86271918Y-126558410D01*
X85795727Y-126653648D01*
X86700489Y-126986981D02*
X86700489Y-126320314D01*
X86700489Y-126510790D02*
X86748108Y-126415552D01*
X86795727Y-126367933D01*
X86890965Y-126320314D01*
X86986204Y-126320314D01*
X88510014Y-126986981D02*
X88510014Y-126463171D01*
X88462395Y-126367933D01*
X88367157Y-126320314D01*
X88176680Y-126320314D01*
X88081442Y-126367933D01*
X88510014Y-126939362D02*
X88414776Y-126986981D01*
X88176680Y-126986981D01*
X88081442Y-126939362D01*
X88033823Y-126844124D01*
X88033823Y-126748886D01*
X88081442Y-126653648D01*
X88176680Y-126606029D01*
X88414776Y-126606029D01*
X88510014Y-126558410D01*
X88986204Y-126320314D02*
X88986204Y-126986981D01*
X88986204Y-126415552D02*
X89033823Y-126367933D01*
X89129061Y-126320314D01*
X89271919Y-126320314D01*
X89367157Y-126367933D01*
X89414776Y-126463171D01*
X89414776Y-126986981D01*
X90319538Y-126986981D02*
X90319538Y-125986981D01*
X90319538Y-126939362D02*
X90224300Y-126986981D01*
X90033823Y-126986981D01*
X89938585Y-126939362D01*
X89890966Y-126891743D01*
X89843347Y-126796505D01*
X89843347Y-126510790D01*
X89890966Y-126415552D01*
X89938585Y-126367933D01*
X90033823Y-126320314D01*
X90224300Y-126320314D01*
X90319538Y-126367933D01*
X91510014Y-126701267D02*
X91986205Y-126701267D01*
X91414776Y-126986981D02*
X91748109Y-125986981D01*
X92081443Y-126986981D01*
X92271919Y-126320314D02*
X92652871Y-126320314D01*
X92414776Y-125986981D02*
X92414776Y-126844124D01*
X92462395Y-126939362D01*
X92557633Y-126986981D01*
X92652871Y-126986981D01*
X92843348Y-126320314D02*
X93224300Y-126320314D01*
X92986205Y-125986981D02*
X92986205Y-126844124D01*
X93033824Y-126939362D01*
X93129062Y-126986981D01*
X93224300Y-126986981D01*
X93938587Y-126939362D02*
X93843349Y-126986981D01*
X93652872Y-126986981D01*
X93557634Y-126939362D01*
X93510015Y-126844124D01*
X93510015Y-126463171D01*
X93557634Y-126367933D01*
X93652872Y-126320314D01*
X93843349Y-126320314D01*
X93938587Y-126367933D01*
X93986206Y-126463171D01*
X93986206Y-126558410D01*
X93510015Y-126653648D01*
X94414777Y-126320314D02*
X94414777Y-126986981D01*
X94414777Y-126415552D02*
X94462396Y-126367933D01*
X94557634Y-126320314D01*
X94700492Y-126320314D01*
X94795730Y-126367933D01*
X94843349Y-126463171D01*
X94843349Y-126986981D01*
X95748111Y-126320314D02*
X95748111Y-126986981D01*
X95319539Y-126320314D02*
X95319539Y-126844124D01*
X95367158Y-126939362D01*
X95462396Y-126986981D01*
X95605254Y-126986981D01*
X95700492Y-126939362D01*
X95748111Y-126891743D01*
X96652873Y-126986981D02*
X96652873Y-126463171D01*
X96605254Y-126367933D01*
X96510016Y-126320314D01*
X96319539Y-126320314D01*
X96224301Y-126367933D01*
X96652873Y-126939362D02*
X96557635Y-126986981D01*
X96319539Y-126986981D01*
X96224301Y-126939362D01*
X96176682Y-126844124D01*
X96176682Y-126748886D01*
X96224301Y-126653648D01*
X96319539Y-126606029D01*
X96557635Y-126606029D01*
X96652873Y-126558410D01*
X96986206Y-126320314D02*
X97367158Y-126320314D01*
X97129063Y-125986981D02*
X97129063Y-126844124D01*
X97176682Y-126939362D01*
X97271920Y-126986981D01*
X97367158Y-126986981D01*
X97843349Y-126986981D02*
X97748111Y-126939362D01*
X97700492Y-126891743D01*
X97652873Y-126796505D01*
X97652873Y-126510790D01*
X97700492Y-126415552D01*
X97748111Y-126367933D01*
X97843349Y-126320314D01*
X97986207Y-126320314D01*
X98081445Y-126367933D01*
X98129064Y-126415552D01*
X98176683Y-126510790D01*
X98176683Y-126796505D01*
X98129064Y-126891743D01*
X98081445Y-126939362D01*
X97986207Y-126986981D01*
X97843349Y-126986981D01*
X98605254Y-126986981D02*
X98605254Y-126320314D01*
X98605254Y-126510790D02*
X98652873Y-126415552D01*
X98700492Y-126367933D01*
X98795730Y-126320314D01*
X98890969Y-126320314D01*
X84081442Y-128736981D02*
X84081442Y-127736981D01*
X84319537Y-127736981D01*
X84462395Y-127784600D01*
X84557633Y-127879838D01*
X84605252Y-127975076D01*
X84652871Y-128165552D01*
X84652871Y-128308410D01*
X84605252Y-128498886D01*
X84557633Y-128594124D01*
X84462395Y-128689362D01*
X84319537Y-128736981D01*
X84081442Y-128736981D01*
X85510014Y-128736981D02*
X85510014Y-128213171D01*
X85462395Y-128117933D01*
X85367157Y-128070314D01*
X85176680Y-128070314D01*
X85081442Y-128117933D01*
X85510014Y-128689362D02*
X85414776Y-128736981D01*
X85176680Y-128736981D01*
X85081442Y-128689362D01*
X85033823Y-128594124D01*
X85033823Y-128498886D01*
X85081442Y-128403648D01*
X85176680Y-128356029D01*
X85414776Y-128356029D01*
X85510014Y-128308410D01*
X86414776Y-128070314D02*
X86414776Y-128736981D01*
X85986204Y-128070314D02*
X85986204Y-128594124D01*
X86033823Y-128689362D01*
X86129061Y-128736981D01*
X86271919Y-128736981D01*
X86367157Y-128689362D01*
X86414776Y-128641743D01*
X87319538Y-128070314D02*
X87319538Y-128879838D01*
X87271919Y-128975076D01*
X87224300Y-129022695D01*
X87129061Y-129070314D01*
X86986204Y-129070314D01*
X86890966Y-129022695D01*
X87319538Y-128689362D02*
X87224300Y-128736981D01*
X87033823Y-128736981D01*
X86938585Y-128689362D01*
X86890966Y-128641743D01*
X86843347Y-128546505D01*
X86843347Y-128260790D01*
X86890966Y-128165552D01*
X86938585Y-128117933D01*
X87033823Y-128070314D01*
X87224300Y-128070314D01*
X87319538Y-128117933D01*
X87795728Y-128736981D02*
X87795728Y-127736981D01*
X88224300Y-128736981D02*
X88224300Y-128213171D01*
X88176681Y-128117933D01*
X88081443Y-128070314D01*
X87938585Y-128070314D01*
X87843347Y-128117933D01*
X87795728Y-128165552D01*
X88557633Y-128070314D02*
X88938585Y-128070314D01*
X88700490Y-127736981D02*
X88700490Y-128594124D01*
X88748109Y-128689362D01*
X88843347Y-128736981D01*
X88938585Y-128736981D01*
X89652872Y-128689362D02*
X89557634Y-128736981D01*
X89367157Y-128736981D01*
X89271919Y-128689362D01*
X89224300Y-128594124D01*
X89224300Y-128213171D01*
X89271919Y-128117933D01*
X89367157Y-128070314D01*
X89557634Y-128070314D01*
X89652872Y-128117933D01*
X89700491Y-128213171D01*
X89700491Y-128308410D01*
X89224300Y-128403648D01*
X90129062Y-128736981D02*
X90129062Y-128070314D01*
X90129062Y-128260790D02*
X90176681Y-128165552D01*
X90224300Y-128117933D01*
X90319538Y-128070314D01*
X90414777Y-128070314D01*
X91843349Y-128213171D02*
X91986206Y-128260790D01*
X92033825Y-128308410D01*
X92081444Y-128403648D01*
X92081444Y-128546505D01*
X92033825Y-128641743D01*
X91986206Y-128689362D01*
X91890968Y-128736981D01*
X91510015Y-128736981D01*
X91510015Y-127736981D01*
X91843349Y-127736981D01*
X91938587Y-127784600D01*
X91986206Y-127832219D01*
X92033825Y-127927457D01*
X92033825Y-128022695D01*
X91986206Y-128117933D01*
X91938587Y-128165552D01*
X91843349Y-128213171D01*
X91510015Y-128213171D01*
X92652872Y-128736981D02*
X92557634Y-128689362D01*
X92510015Y-128641743D01*
X92462396Y-128546505D01*
X92462396Y-128260790D01*
X92510015Y-128165552D01*
X92557634Y-128117933D01*
X92652872Y-128070314D01*
X92795730Y-128070314D01*
X92890968Y-128117933D01*
X92938587Y-128165552D01*
X92986206Y-128260790D01*
X92986206Y-128546505D01*
X92938587Y-128641743D01*
X92890968Y-128689362D01*
X92795730Y-128736981D01*
X92652872Y-128736981D01*
X93843349Y-128736981D02*
X93843349Y-128213171D01*
X93795730Y-128117933D01*
X93700492Y-128070314D01*
X93510015Y-128070314D01*
X93414777Y-128117933D01*
X93843349Y-128689362D02*
X93748111Y-128736981D01*
X93510015Y-128736981D01*
X93414777Y-128689362D01*
X93367158Y-128594124D01*
X93367158Y-128498886D01*
X93414777Y-128403648D01*
X93510015Y-128356029D01*
X93748111Y-128356029D01*
X93843349Y-128308410D01*
X94319539Y-128736981D02*
X94319539Y-128070314D01*
X94319539Y-128260790D02*
X94367158Y-128165552D01*
X94414777Y-128117933D01*
X94510015Y-128070314D01*
X94605254Y-128070314D01*
X95367159Y-128736981D02*
X95367159Y-127736981D01*
X95367159Y-128689362D02*
X95271921Y-128736981D01*
X95081444Y-128736981D01*
X94986206Y-128689362D01*
X94938587Y-128641743D01*
X94890968Y-128546505D01*
X94890968Y-128260790D01*
X94938587Y-128165552D01*
X94986206Y-128117933D01*
X95081444Y-128070314D01*
X95271921Y-128070314D01*
X95367159Y-128117933D01*
X79010014Y-130486981D02*
X78676680Y-130010790D01*
X78438585Y-130486981D02*
X78438585Y-129486981D01*
X78819538Y-129486981D01*
X78914776Y-129534600D01*
X78962395Y-129582219D01*
X79010014Y-129677457D01*
X79010014Y-129820314D01*
X78962395Y-129915552D01*
X78914776Y-129963171D01*
X78819538Y-130010790D01*
X78438585Y-130010790D01*
X79819538Y-130439362D02*
X79724300Y-130486981D01*
X79533823Y-130486981D01*
X79438585Y-130439362D01*
X79390966Y-130344124D01*
X79390966Y-129963171D01*
X79438585Y-129867933D01*
X79533823Y-129820314D01*
X79724300Y-129820314D01*
X79819538Y-129867933D01*
X79867157Y-129963171D01*
X79867157Y-130058410D01*
X79390966Y-130153648D01*
X80200490Y-129820314D02*
X80438585Y-130486981D01*
X80676681Y-129820314D01*
X81057633Y-130486981D02*
X81057633Y-129820314D01*
X81057633Y-129486981D02*
X81010014Y-129534600D01*
X81057633Y-129582219D01*
X81105252Y-129534600D01*
X81057633Y-129486981D01*
X81057633Y-129582219D01*
X81486204Y-130439362D02*
X81581442Y-130486981D01*
X81771918Y-130486981D01*
X81867157Y-130439362D01*
X81914776Y-130344124D01*
X81914776Y-130296505D01*
X81867157Y-130201267D01*
X81771918Y-130153648D01*
X81629061Y-130153648D01*
X81533823Y-130106029D01*
X81486204Y-130010790D01*
X81486204Y-129963171D01*
X81533823Y-129867933D01*
X81629061Y-129820314D01*
X81771918Y-129820314D01*
X81867157Y-129867933D01*
X82343347Y-130486981D02*
X82343347Y-129820314D01*
X82343347Y-129486981D02*
X82295728Y-129534600D01*
X82343347Y-129582219D01*
X82390966Y-129534600D01*
X82343347Y-129486981D01*
X82343347Y-129582219D01*
X82962394Y-130486981D02*
X82867156Y-130439362D01*
X82819537Y-130391743D01*
X82771918Y-130296505D01*
X82771918Y-130010790D01*
X82819537Y-129915552D01*
X82867156Y-129867933D01*
X82962394Y-129820314D01*
X83105252Y-129820314D01*
X83200490Y-129867933D01*
X83248109Y-129915552D01*
X83295728Y-130010790D01*
X83295728Y-130296505D01*
X83248109Y-130391743D01*
X83200490Y-130439362D01*
X83105252Y-130486981D01*
X82962394Y-130486981D01*
X83724299Y-129820314D02*
X83724299Y-130486981D01*
X83724299Y-129915552D02*
X83771918Y-129867933D01*
X83867156Y-129820314D01*
X84010014Y-129820314D01*
X84105252Y-129867933D01*
X84152871Y-129963171D01*
X84152871Y-130486981D01*
X85819538Y-129486981D02*
X85629061Y-129486981D01*
X85533823Y-129534600D01*
X85486204Y-129582219D01*
X85390966Y-129725076D01*
X85343347Y-129915552D01*
X85343347Y-130296505D01*
X85390966Y-130391743D01*
X85438585Y-130439362D01*
X85533823Y-130486981D01*
X85724300Y-130486981D01*
X85819538Y-130439362D01*
X85867157Y-130391743D01*
X85914776Y-130296505D01*
X85914776Y-130058410D01*
X85867157Y-129963171D01*
X85819538Y-129915552D01*
X85724300Y-129867933D01*
X85533823Y-129867933D01*
X85438585Y-129915552D01*
X85390966Y-129963171D01*
X85343347Y-130058410D01*
X86343347Y-130391743D02*
X86390966Y-130439362D01*
X86343347Y-130486981D01*
X86295728Y-130439362D01*
X86343347Y-130391743D01*
X86343347Y-130486981D01*
X88295728Y-129582219D02*
X88343347Y-129534600D01*
X88438585Y-129486981D01*
X88676681Y-129486981D01*
X88771919Y-129534600D01*
X88819538Y-129582219D01*
X88867157Y-129677457D01*
X88867157Y-129772695D01*
X88819538Y-129915552D01*
X88248109Y-130486981D01*
X88867157Y-130486981D01*
X89486204Y-129486981D02*
X89581443Y-129486981D01*
X89676681Y-129534600D01*
X89724300Y-129582219D01*
X89771919Y-129677457D01*
X89819538Y-129867933D01*
X89819538Y-130106029D01*
X89771919Y-130296505D01*
X89724300Y-130391743D01*
X89676681Y-130439362D01*
X89581443Y-130486981D01*
X89486204Y-130486981D01*
X89390966Y-130439362D01*
X89343347Y-130391743D01*
X89295728Y-130296505D01*
X89248109Y-130106029D01*
X89248109Y-129867933D01*
X89295728Y-129677457D01*
X89343347Y-129582219D01*
X89390966Y-129534600D01*
X89486204Y-129486981D01*
X90771919Y-130486981D02*
X90200490Y-130486981D01*
X90486204Y-130486981D02*
X90486204Y-129486981D01*
X90390966Y-129629838D01*
X90295728Y-129725076D01*
X90200490Y-129772695D01*
X91343347Y-129915552D02*
X91248109Y-129867933D01*
X91200490Y-129820314D01*
X91152871Y-129725076D01*
X91152871Y-129677457D01*
X91200490Y-129582219D01*
X91248109Y-129534600D01*
X91343347Y-129486981D01*
X91533824Y-129486981D01*
X91629062Y-129534600D01*
X91676681Y-129582219D01*
X91724300Y-129677457D01*
X91724300Y-129725076D01*
X91676681Y-129820314D01*
X91629062Y-129867933D01*
X91533824Y-129915552D01*
X91343347Y-129915552D01*
X91248109Y-129963171D01*
X91200490Y-130010790D01*
X91152871Y-130106029D01*
X91152871Y-130296505D01*
X91200490Y-130391743D01*
X91248109Y-130439362D01*
X91343347Y-130486981D01*
X91533824Y-130486981D01*
X91629062Y-130439362D01*
X91676681Y-130391743D01*
X91724300Y-130296505D01*
X91724300Y-130106029D01*
X91676681Y-130010790D01*
X91629062Y-129963171D01*
X91533824Y-129915552D01*
X92914776Y-130106029D02*
X93676681Y-130106029D01*
X95105252Y-129486981D02*
X95200491Y-129486981D01*
X95295729Y-129534600D01*
X95343348Y-129582219D01*
X95390967Y-129677457D01*
X95438586Y-129867933D01*
X95438586Y-130106029D01*
X95390967Y-130296505D01*
X95343348Y-130391743D01*
X95295729Y-130439362D01*
X95200491Y-130486981D01*
X95105252Y-130486981D01*
X95010014Y-130439362D01*
X94962395Y-130391743D01*
X94914776Y-130296505D01*
X94867157Y-130106029D01*
X94867157Y-129867933D01*
X94914776Y-129677457D01*
X94962395Y-129582219D01*
X95010014Y-129534600D01*
X95105252Y-129486981D01*
X96390967Y-130486981D02*
X95819538Y-130486981D01*
X96105252Y-130486981D02*
X96105252Y-129486981D01*
X96010014Y-129629838D01*
X95914776Y-129725076D01*
X95819538Y-129772695D01*
X97581443Y-130106029D02*
X98343348Y-130106029D01*
X100105253Y-130486981D02*
X99533824Y-130486981D01*
X99819538Y-130486981D02*
X99819538Y-129486981D01*
X99724300Y-129629838D01*
X99629062Y-129725076D01*
X99533824Y-129772695D01*
X100581443Y-130486981D02*
X100771919Y-130486981D01*
X100867158Y-130439362D01*
X100914777Y-130391743D01*
X101010015Y-130248886D01*
X101057634Y-130058410D01*
X101057634Y-129677457D01*
X101010015Y-129582219D01*
X100962396Y-129534600D01*
X100867158Y-129486981D01*
X100676681Y-129486981D01*
X100581443Y-129534600D01*
X100533824Y-129582219D01*
X100486205Y-129677457D01*
X100486205Y-129915552D01*
X100533824Y-130010790D01*
X100581443Y-130058410D01*
X100676681Y-130106029D01*
X100867158Y-130106029D01*
X100962396Y-130058410D01*
X101010015Y-130010790D01*
X101057634Y-129915552D01*
X76010012Y-131713171D02*
X76152869Y-131760790D01*
X76200488Y-131808410D01*
X76248107Y-131903648D01*
X76248107Y-132046505D01*
X76200488Y-132141743D01*
X76152869Y-132189362D01*
X76057631Y-132236981D01*
X75676678Y-132236981D01*
X75676678Y-131236981D01*
X76010012Y-131236981D01*
X76105250Y-131284600D01*
X76152869Y-131332219D01*
X76200488Y-131427457D01*
X76200488Y-131522695D01*
X76152869Y-131617933D01*
X76105250Y-131665552D01*
X76010012Y-131713171D01*
X75676678Y-131713171D01*
X76676678Y-132236981D02*
X76676678Y-131570314D01*
X76676678Y-131760790D02*
X76724297Y-131665552D01*
X76771916Y-131617933D01*
X76867154Y-131570314D01*
X76962393Y-131570314D01*
X77295726Y-132236981D02*
X77295726Y-131570314D01*
X77295726Y-131236981D02*
X77248107Y-131284600D01*
X77295726Y-131332219D01*
X77343345Y-131284600D01*
X77295726Y-131236981D01*
X77295726Y-131332219D01*
X78200488Y-132236981D02*
X78200488Y-131713171D01*
X78152869Y-131617933D01*
X78057631Y-131570314D01*
X77867154Y-131570314D01*
X77771916Y-131617933D01*
X78200488Y-132189362D02*
X78105250Y-132236981D01*
X77867154Y-132236981D01*
X77771916Y-132189362D01*
X77724297Y-132094124D01*
X77724297Y-131998886D01*
X77771916Y-131903648D01*
X77867154Y-131856029D01*
X78105250Y-131856029D01*
X78200488Y-131808410D01*
X78676678Y-131570314D02*
X78676678Y-132236981D01*
X78676678Y-131665552D02*
X78724297Y-131617933D01*
X78819535Y-131570314D01*
X78962393Y-131570314D01*
X79057631Y-131617933D01*
X79105250Y-131713171D01*
X79105250Y-132236981D01*
X80343345Y-132236981D02*
X80343345Y-131236981D01*
X80676679Y-131951267D01*
X81010012Y-131236981D01*
X81010012Y-132236981D01*
X81914774Y-132236981D02*
X81914774Y-131713171D01*
X81867155Y-131617933D01*
X81771917Y-131570314D01*
X81581440Y-131570314D01*
X81486202Y-131617933D01*
X81914774Y-132189362D02*
X81819536Y-132236981D01*
X81581440Y-132236981D01*
X81486202Y-132189362D01*
X81438583Y-132094124D01*
X81438583Y-131998886D01*
X81486202Y-131903648D01*
X81581440Y-131856029D01*
X81819536Y-131856029D01*
X81914774Y-131808410D01*
X82390964Y-132236981D02*
X82390964Y-131570314D01*
X82390964Y-131760790D02*
X82438583Y-131665552D01*
X82486202Y-131617933D01*
X82581440Y-131570314D01*
X82676679Y-131570314D01*
X83010012Y-132236981D02*
X83010012Y-131236981D01*
X83105250Y-131856029D02*
X83390965Y-132236981D01*
X83390965Y-131570314D02*
X83010012Y-131951267D01*
X83962393Y-132236981D02*
X83867155Y-132189362D01*
X83819536Y-132094124D01*
X83819536Y-131236981D01*
X84724299Y-132189362D02*
X84629061Y-132236981D01*
X84438584Y-132236981D01*
X84343346Y-132189362D01*
X84295727Y-132094124D01*
X84295727Y-131713171D01*
X84343346Y-131617933D01*
X84438584Y-131570314D01*
X84629061Y-131570314D01*
X84724299Y-131617933D01*
X84771918Y-131713171D01*
X84771918Y-131808410D01*
X84295727Y-131903648D01*
X85105251Y-131570314D02*
X85343346Y-132236981D01*
X85581442Y-131570314D02*
X85343346Y-132236981D01*
X85248108Y-132475076D01*
X85200489Y-132522695D01*
X85105251Y-132570314D01*
X86724299Y-131856029D02*
X87486204Y-131856029D01*
X88724299Y-131236981D02*
X88724299Y-132046505D01*
X88771918Y-132141743D01*
X88819537Y-132189362D01*
X88914775Y-132236981D01*
X89105252Y-132236981D01*
X89200490Y-132189362D01*
X89248109Y-132141743D01*
X89295728Y-132046505D01*
X89295728Y-131236981D01*
X89771918Y-131570314D02*
X89771918Y-132236981D01*
X89771918Y-131665552D02*
X89819537Y-131617933D01*
X89914775Y-131570314D01*
X90057633Y-131570314D01*
X90152871Y-131617933D01*
X90200490Y-131713171D01*
X90200490Y-132236981D01*
X90676680Y-132236981D02*
X90676680Y-131570314D01*
X90676680Y-131236981D02*
X90629061Y-131284600D01*
X90676680Y-131332219D01*
X90724299Y-131284600D01*
X90676680Y-131236981D01*
X90676680Y-131332219D01*
X91057632Y-131570314D02*
X91295727Y-132236981D01*
X91533823Y-131570314D01*
X92295728Y-132189362D02*
X92200490Y-132236981D01*
X92010013Y-132236981D01*
X91914775Y-132189362D01*
X91867156Y-132094124D01*
X91867156Y-131713171D01*
X91914775Y-131617933D01*
X92010013Y-131570314D01*
X92200490Y-131570314D01*
X92295728Y-131617933D01*
X92343347Y-131713171D01*
X92343347Y-131808410D01*
X91867156Y-131903648D01*
X92771918Y-132236981D02*
X92771918Y-131570314D01*
X92771918Y-131760790D02*
X92819537Y-131665552D01*
X92867156Y-131617933D01*
X92962394Y-131570314D01*
X93057633Y-131570314D01*
X93343347Y-132189362D02*
X93438585Y-132236981D01*
X93629061Y-132236981D01*
X93724300Y-132189362D01*
X93771919Y-132094124D01*
X93771919Y-132046505D01*
X93724300Y-131951267D01*
X93629061Y-131903648D01*
X93486204Y-131903648D01*
X93390966Y-131856029D01*
X93343347Y-131760790D01*
X93343347Y-131713171D01*
X93390966Y-131617933D01*
X93486204Y-131570314D01*
X93629061Y-131570314D01*
X93724300Y-131617933D01*
X94200490Y-132236981D02*
X94200490Y-131570314D01*
X94200490Y-131236981D02*
X94152871Y-131284600D01*
X94200490Y-131332219D01*
X94248109Y-131284600D01*
X94200490Y-131236981D01*
X94200490Y-131332219D01*
X94533823Y-131570314D02*
X94914775Y-131570314D01*
X94676680Y-131236981D02*
X94676680Y-132094124D01*
X94724299Y-132189362D01*
X94819537Y-132236981D01*
X94914775Y-132236981D01*
X95152871Y-131570314D02*
X95390966Y-132236981D01*
X95629062Y-131570314D02*
X95390966Y-132236981D01*
X95295728Y-132475076D01*
X95248109Y-132522695D01*
X95152871Y-132570314D01*
X96914776Y-132236981D02*
X96819538Y-132189362D01*
X96771919Y-132141743D01*
X96724300Y-132046505D01*
X96724300Y-131760790D01*
X96771919Y-131665552D01*
X96819538Y-131617933D01*
X96914776Y-131570314D01*
X97057634Y-131570314D01*
X97152872Y-131617933D01*
X97200491Y-131665552D01*
X97248110Y-131760790D01*
X97248110Y-132046505D01*
X97200491Y-132141743D01*
X97152872Y-132189362D01*
X97057634Y-132236981D01*
X96914776Y-132236981D01*
X97533824Y-131570314D02*
X97914776Y-131570314D01*
X97676681Y-132236981D02*
X97676681Y-131379838D01*
X97724300Y-131284600D01*
X97819538Y-131236981D01*
X97914776Y-131236981D01*
X98962396Y-131951267D02*
X99438587Y-131951267D01*
X98867158Y-132236981D02*
X99200491Y-131236981D01*
X99533825Y-132236981D01*
X100010015Y-132236981D02*
X99914777Y-132189362D01*
X99867158Y-132094124D01*
X99867158Y-131236981D01*
X100390968Y-132236981D02*
X100390968Y-131236981D01*
X100390968Y-131617933D02*
X100486206Y-131570314D01*
X100676683Y-131570314D01*
X100771921Y-131617933D01*
X100819540Y-131665552D01*
X100867159Y-131760790D01*
X100867159Y-132046505D01*
X100819540Y-132141743D01*
X100771921Y-132189362D01*
X100676683Y-132236981D01*
X100486206Y-132236981D01*
X100390968Y-132189362D01*
X101676683Y-132189362D02*
X101581445Y-132236981D01*
X101390968Y-132236981D01*
X101295730Y-132189362D01*
X101248111Y-132094124D01*
X101248111Y-131713171D01*
X101295730Y-131617933D01*
X101390968Y-131570314D01*
X101581445Y-131570314D01*
X101676683Y-131617933D01*
X101724302Y-131713171D01*
X101724302Y-131808410D01*
X101248111Y-131903648D01*
X102152873Y-132236981D02*
X102152873Y-131570314D01*
X102152873Y-131760790D02*
X102200492Y-131665552D01*
X102248111Y-131617933D01*
X102343349Y-131570314D01*
X102438588Y-131570314D01*
X102629064Y-131570314D02*
X103010016Y-131570314D01*
X102771921Y-131236981D02*
X102771921Y-132094124D01*
X102819540Y-132189362D01*
X102914778Y-132236981D01*
X103010016Y-132236981D01*
X103771922Y-132236981D02*
X103771922Y-131713171D01*
X103724303Y-131617933D01*
X103629065Y-131570314D01*
X103438588Y-131570314D01*
X103343350Y-131617933D01*
X103771922Y-132189362D02*
X103676684Y-132236981D01*
X103438588Y-132236981D01*
X103343350Y-132189362D01*
X103295731Y-132094124D01*
X103295731Y-131998886D01*
X103343350Y-131903648D01*
X103438588Y-131856029D01*
X103676684Y-131856029D01*
X103771922Y-131808410D01*
X77343347Y-133891743D02*
X77295728Y-133939362D01*
X77152871Y-133986981D01*
X77057633Y-133986981D01*
X76914775Y-133939362D01*
X76819537Y-133844124D01*
X76771918Y-133748886D01*
X76724299Y-133558410D01*
X76724299Y-133415552D01*
X76771918Y-133225076D01*
X76819537Y-133129838D01*
X76914775Y-133034600D01*
X77057633Y-132986981D01*
X77152871Y-132986981D01*
X77295728Y-133034600D01*
X77343347Y-133082219D01*
X77771918Y-133463171D02*
X78105252Y-133463171D01*
X78248109Y-133986981D02*
X77771918Y-133986981D01*
X77771918Y-132986981D01*
X78248109Y-132986981D01*
X79248109Y-133986981D02*
X78914775Y-133510790D01*
X78676680Y-133986981D02*
X78676680Y-132986981D01*
X79057633Y-132986981D01*
X79152871Y-133034600D01*
X79200490Y-133082219D01*
X79248109Y-133177457D01*
X79248109Y-133320314D01*
X79200490Y-133415552D01*
X79152871Y-133463171D01*
X79057633Y-133510790D01*
X78676680Y-133510790D01*
X79676680Y-133986981D02*
X79676680Y-132986981D01*
X80248109Y-133986981D01*
X80248109Y-132986981D01*
X81676680Y-132986981D02*
X81867157Y-132986981D01*
X81962395Y-133034600D01*
X82057633Y-133129838D01*
X82105252Y-133320314D01*
X82105252Y-133653648D01*
X82057633Y-133844124D01*
X81962395Y-133939362D01*
X81867157Y-133986981D01*
X81676680Y-133986981D01*
X81581442Y-133939362D01*
X81486204Y-133844124D01*
X81438585Y-133653648D01*
X81438585Y-133320314D01*
X81486204Y-133129838D01*
X81581442Y-133034600D01*
X81676680Y-132986981D01*
X82533823Y-133320314D02*
X82533823Y-134320314D01*
X82533823Y-133367933D02*
X82629061Y-133320314D01*
X82819538Y-133320314D01*
X82914776Y-133367933D01*
X82962395Y-133415552D01*
X83010014Y-133510790D01*
X83010014Y-133796505D01*
X82962395Y-133891743D01*
X82914776Y-133939362D01*
X82819538Y-133986981D01*
X82629061Y-133986981D01*
X82533823Y-133939362D01*
X83819538Y-133939362D02*
X83724300Y-133986981D01*
X83533823Y-133986981D01*
X83438585Y-133939362D01*
X83390966Y-133844124D01*
X83390966Y-133463171D01*
X83438585Y-133367933D01*
X83533823Y-133320314D01*
X83724300Y-133320314D01*
X83819538Y-133367933D01*
X83867157Y-133463171D01*
X83867157Y-133558410D01*
X83390966Y-133653648D01*
X84295728Y-133320314D02*
X84295728Y-133986981D01*
X84295728Y-133415552D02*
X84343347Y-133367933D01*
X84438585Y-133320314D01*
X84581443Y-133320314D01*
X84676681Y-133367933D01*
X84724300Y-133463171D01*
X84724300Y-133986981D01*
X85962395Y-133986981D02*
X85962395Y-132986981D01*
X85962395Y-133463171D02*
X86533824Y-133463171D01*
X86533824Y-133986981D02*
X86533824Y-132986981D01*
X87438586Y-133986981D02*
X87438586Y-133463171D01*
X87390967Y-133367933D01*
X87295729Y-133320314D01*
X87105252Y-133320314D01*
X87010014Y-133367933D01*
X87438586Y-133939362D02*
X87343348Y-133986981D01*
X87105252Y-133986981D01*
X87010014Y-133939362D01*
X86962395Y-133844124D01*
X86962395Y-133748886D01*
X87010014Y-133653648D01*
X87105252Y-133606029D01*
X87343348Y-133606029D01*
X87438586Y-133558410D01*
X87914776Y-133986981D02*
X87914776Y-133320314D01*
X87914776Y-133510790D02*
X87962395Y-133415552D01*
X88010014Y-133367933D01*
X88105252Y-133320314D01*
X88200491Y-133320314D01*
X88962396Y-133986981D02*
X88962396Y-132986981D01*
X88962396Y-133939362D02*
X88867158Y-133986981D01*
X88676681Y-133986981D01*
X88581443Y-133939362D01*
X88533824Y-133891743D01*
X88486205Y-133796505D01*
X88486205Y-133510790D01*
X88533824Y-133415552D01*
X88581443Y-133367933D01*
X88676681Y-133320314D01*
X88867158Y-133320314D01*
X88962396Y-133367933D01*
X89343348Y-133320314D02*
X89533824Y-133986981D01*
X89724301Y-133510790D01*
X89914777Y-133986981D01*
X90105253Y-133320314D01*
X90914777Y-133986981D02*
X90914777Y-133463171D01*
X90867158Y-133367933D01*
X90771920Y-133320314D01*
X90581443Y-133320314D01*
X90486205Y-133367933D01*
X90914777Y-133939362D02*
X90819539Y-133986981D01*
X90581443Y-133986981D01*
X90486205Y-133939362D01*
X90438586Y-133844124D01*
X90438586Y-133748886D01*
X90486205Y-133653648D01*
X90581443Y-133606029D01*
X90819539Y-133606029D01*
X90914777Y-133558410D01*
X91390967Y-133986981D02*
X91390967Y-133320314D01*
X91390967Y-133510790D02*
X91438586Y-133415552D01*
X91486205Y-133367933D01*
X91581443Y-133320314D01*
X91676682Y-133320314D01*
X92390968Y-133939362D02*
X92295730Y-133986981D01*
X92105253Y-133986981D01*
X92010015Y-133939362D01*
X91962396Y-133844124D01*
X91962396Y-133463171D01*
X92010015Y-133367933D01*
X92105253Y-133320314D01*
X92295730Y-133320314D01*
X92390968Y-133367933D01*
X92438587Y-133463171D01*
X92438587Y-133558410D01*
X91962396Y-133653648D01*
X94105254Y-133986981D02*
X93629063Y-133986981D01*
X93629063Y-132986981D01*
X94438587Y-133986981D02*
X94438587Y-133320314D01*
X94438587Y-132986981D02*
X94390968Y-133034600D01*
X94438587Y-133082219D01*
X94486206Y-133034600D01*
X94438587Y-132986981D01*
X94438587Y-133082219D01*
X95343349Y-133939362D02*
X95248111Y-133986981D01*
X95057634Y-133986981D01*
X94962396Y-133939362D01*
X94914777Y-133891743D01*
X94867158Y-133796505D01*
X94867158Y-133510790D01*
X94914777Y-133415552D01*
X94962396Y-133367933D01*
X95057634Y-133320314D01*
X95248111Y-133320314D01*
X95343349Y-133367933D01*
X96152873Y-133939362D02*
X96057635Y-133986981D01*
X95867158Y-133986981D01*
X95771920Y-133939362D01*
X95724301Y-133844124D01*
X95724301Y-133463171D01*
X95771920Y-133367933D01*
X95867158Y-133320314D01*
X96057635Y-133320314D01*
X96152873Y-133367933D01*
X96200492Y-133463171D01*
X96200492Y-133558410D01*
X95724301Y-133653648D01*
X96629063Y-133320314D02*
X96629063Y-133986981D01*
X96629063Y-133415552D02*
X96676682Y-133367933D01*
X96771920Y-133320314D01*
X96914778Y-133320314D01*
X97010016Y-133367933D01*
X97057635Y-133463171D01*
X97057635Y-133986981D01*
X97962397Y-133939362D02*
X97867159Y-133986981D01*
X97676682Y-133986981D01*
X97581444Y-133939362D01*
X97533825Y-133891743D01*
X97486206Y-133796505D01*
X97486206Y-133510790D01*
X97533825Y-133415552D01*
X97581444Y-133367933D01*
X97676682Y-133320314D01*
X97867159Y-133320314D01*
X97962397Y-133367933D01*
X98771921Y-133939362D02*
X98676683Y-133986981D01*
X98486206Y-133986981D01*
X98390968Y-133939362D01*
X98343349Y-133844124D01*
X98343349Y-133463171D01*
X98390968Y-133367933D01*
X98486206Y-133320314D01*
X98676683Y-133320314D01*
X98771921Y-133367933D01*
X98819540Y-133463171D01*
X98819540Y-133558410D01*
X98343349Y-133653648D01*
X99914778Y-133320314D02*
X100152873Y-133986981D01*
X100390969Y-133320314D01*
X101295731Y-133986981D02*
X100724302Y-133986981D01*
X101010016Y-133986981D02*
X101010016Y-132986981D01*
X100914778Y-133129838D01*
X100819540Y-133225076D01*
X100724302Y-133272695D01*
X101724302Y-133891743D02*
X101771921Y-133939362D01*
X101724302Y-133986981D01*
X101676683Y-133939362D01*
X101724302Y-133891743D01*
X101724302Y-133986981D01*
X102152873Y-133082219D02*
X102200492Y-133034600D01*
X102295730Y-132986981D01*
X102533826Y-132986981D01*
X102629064Y-133034600D01*
X102676683Y-133082219D01*
X102724302Y-133177457D01*
X102724302Y-133272695D01*
X102676683Y-133415552D01*
X102105254Y-133986981D01*
X102724302Y-133986981D01*
D12*
X70868871Y-138160314D02*
X72368871Y-137660314D01*
X70868871Y-137160314D01*
X71797443Y-136660314D02*
X71797443Y-135517457D01*
X72226014Y-133946028D02*
X72297443Y-134017457D01*
X72368871Y-134231743D01*
X72368871Y-134374600D01*
X72297443Y-134588885D01*
X72154586Y-134731743D01*
X72011729Y-134803171D01*
X71726014Y-134874600D01*
X71511729Y-134874600D01*
X71226014Y-134803171D01*
X71083157Y-134731743D01*
X70940300Y-134588885D01*
X70868871Y-134374600D01*
X70868871Y-134231743D01*
X70940300Y-134017457D01*
X71011729Y-133946028D01*
X71368871Y-132660314D02*
X72368871Y-132660314D01*
X71368871Y-133303171D02*
X72154586Y-133303171D01*
X72297443Y-133231743D01*
X72368871Y-133088885D01*
X72368871Y-132874600D01*
X72297443Y-132731743D01*
X72226014Y-132660314D01*
X71368871Y-132160314D02*
X71368871Y-131588885D01*
X70868871Y-131946028D02*
X72154586Y-131946028D01*
X72297443Y-131874600D01*
X72368871Y-131731742D01*
X72368871Y-131588885D01*
X153164871Y-138414314D02*
X154664871Y-137914314D01*
X153164871Y-137414314D01*
X154093443Y-136914314D02*
X154093443Y-135771457D01*
X154522014Y-134200028D02*
X154593443Y-134271457D01*
X154664871Y-134485743D01*
X154664871Y-134628600D01*
X154593443Y-134842885D01*
X154450586Y-134985743D01*
X154307729Y-135057171D01*
X154022014Y-135128600D01*
X153807729Y-135128600D01*
X153522014Y-135057171D01*
X153379157Y-134985743D01*
X153236300Y-134842885D01*
X153164871Y-134628600D01*
X153164871Y-134485743D01*
X153236300Y-134271457D01*
X153307729Y-134200028D01*
X153664871Y-132914314D02*
X154664871Y-132914314D01*
X153664871Y-133557171D02*
X154450586Y-133557171D01*
X154593443Y-133485743D01*
X154664871Y-133342885D01*
X154664871Y-133128600D01*
X154593443Y-132985743D01*
X154522014Y-132914314D01*
X153664871Y-132414314D02*
X153664871Y-131842885D01*
X153164871Y-132200028D02*
X154450586Y-132200028D01*
X154593443Y-132128600D01*
X154664871Y-131985742D01*
X154664871Y-131842885D01*
D13*
X155891300Y-135255600D02*
X154875300Y-136271600D01*
D12*
X75754501Y-170389571D02*
X75754501Y-168889571D01*
X76325929Y-168889571D01*
X76468787Y-168961000D01*
X76540215Y-169032429D01*
X76611644Y-169175286D01*
X76611644Y-169389571D01*
X76540215Y-169532429D01*
X76468787Y-169603857D01*
X76325929Y-169675286D01*
X75754501Y-169675286D01*
X77254501Y-170389571D02*
X77254501Y-169389571D01*
X77254501Y-169675286D02*
X77325929Y-169532429D01*
X77397358Y-169461000D01*
X77540215Y-169389571D01*
X77683072Y-169389571D01*
X78754500Y-170318143D02*
X78611643Y-170389571D01*
X78325929Y-170389571D01*
X78183072Y-170318143D01*
X78111643Y-170175286D01*
X78111643Y-169603857D01*
X78183072Y-169461000D01*
X78325929Y-169389571D01*
X78611643Y-169389571D01*
X78754500Y-169461000D01*
X78825929Y-169603857D01*
X78825929Y-169746714D01*
X78111643Y-169889571D01*
X79468786Y-169818143D02*
X80611643Y-169818143D01*
X81254500Y-169961000D02*
X81968786Y-169961000D01*
X81111643Y-170389571D02*
X81611643Y-168889571D01*
X82111643Y-170389571D01*
X82611643Y-170389571D02*
X82611643Y-169389571D01*
X82611643Y-169532429D02*
X82683071Y-169461000D01*
X82825929Y-169389571D01*
X83040214Y-169389571D01*
X83183071Y-169461000D01*
X83254500Y-169603857D01*
X83254500Y-170389571D01*
X83254500Y-169603857D02*
X83325929Y-169461000D01*
X83468786Y-169389571D01*
X83683071Y-169389571D01*
X83825929Y-169461000D01*
X83897357Y-169603857D01*
X83897357Y-170389571D01*
X84611643Y-169389571D02*
X84611643Y-170889571D01*
X84611643Y-169461000D02*
X84754500Y-169389571D01*
X85040214Y-169389571D01*
X85183071Y-169461000D01*
X85254500Y-169532429D01*
X85325929Y-169675286D01*
X85325929Y-170103857D01*
X85254500Y-170246714D01*
X85183071Y-170318143D01*
X85040214Y-170389571D01*
X84754500Y-170389571D01*
X84611643Y-170318143D01*
X78968786Y-172153857D02*
X79183072Y-172225286D01*
X79254500Y-172296714D01*
X79325929Y-172439571D01*
X79325929Y-172653857D01*
X79254500Y-172796714D01*
X79183072Y-172868143D01*
X79040214Y-172939571D01*
X78468786Y-172939571D01*
X78468786Y-171439571D01*
X78968786Y-171439571D01*
X79111643Y-171511000D01*
X79183072Y-171582429D01*
X79254500Y-171725286D01*
X79254500Y-171868143D01*
X79183072Y-172011000D01*
X79111643Y-172082429D01*
X78968786Y-172153857D01*
X78468786Y-172153857D01*
X79968786Y-172939571D02*
X79968786Y-171939571D01*
X79968786Y-171439571D02*
X79897357Y-171511000D01*
X79968786Y-171582429D01*
X80040214Y-171511000D01*
X79968786Y-171439571D01*
X79968786Y-171582429D01*
X81325929Y-172939571D02*
X81325929Y-172153857D01*
X81254500Y-172011000D01*
X81111643Y-171939571D01*
X80825929Y-171939571D01*
X80683072Y-172011000D01*
X81325929Y-172868143D02*
X81183072Y-172939571D01*
X80825929Y-172939571D01*
X80683072Y-172868143D01*
X80611643Y-172725286D01*
X80611643Y-172582429D01*
X80683072Y-172439571D01*
X80825929Y-172368143D01*
X81183072Y-172368143D01*
X81325929Y-172296714D01*
X81968786Y-172868143D02*
X82111643Y-172939571D01*
X82397358Y-172939571D01*
X82540215Y-172868143D01*
X82611643Y-172725286D01*
X82611643Y-172653857D01*
X82540215Y-172511000D01*
X82397358Y-172439571D01*
X82183072Y-172439571D01*
X82040215Y-172368143D01*
X81968786Y-172225286D01*
X81968786Y-172153857D01*
X82040215Y-172011000D01*
X82183072Y-171939571D01*
X82397358Y-171939571D01*
X82540215Y-172011000D01*
D11*
X81771918Y-175147981D02*
X81438584Y-174671790D01*
X81200489Y-175147981D02*
X81200489Y-174147981D01*
X81581442Y-174147981D01*
X81676680Y-174195600D01*
X81724299Y-174243219D01*
X81771918Y-174338457D01*
X81771918Y-174481314D01*
X81724299Y-174576552D01*
X81676680Y-174624171D01*
X81581442Y-174671790D01*
X81200489Y-174671790D01*
X82533823Y-174624171D02*
X82200489Y-174624171D01*
X82200489Y-175147981D02*
X82200489Y-174147981D01*
X82676680Y-174147981D01*
X83771918Y-174862267D02*
X84248109Y-174862267D01*
X83676680Y-175147981D02*
X84010013Y-174147981D01*
X84343347Y-175147981D01*
X84676680Y-175147981D02*
X84676680Y-174481314D01*
X84676680Y-174671790D02*
X84724299Y-174576552D01*
X84771918Y-174528933D01*
X84867156Y-174481314D01*
X84962395Y-174481314D01*
X85295728Y-175147981D02*
X85295728Y-174481314D01*
X85295728Y-174671790D02*
X85343347Y-174576552D01*
X85390966Y-174528933D01*
X85486204Y-174481314D01*
X85581443Y-174481314D01*
X86343348Y-175147981D02*
X86343348Y-174624171D01*
X86295729Y-174528933D01*
X86200491Y-174481314D01*
X86010014Y-174481314D01*
X85914776Y-174528933D01*
X86343348Y-175100362D02*
X86248110Y-175147981D01*
X86010014Y-175147981D01*
X85914776Y-175100362D01*
X85867157Y-175005124D01*
X85867157Y-174909886D01*
X85914776Y-174814648D01*
X86010014Y-174767029D01*
X86248110Y-174767029D01*
X86343348Y-174719410D01*
X86724300Y-174481314D02*
X86962395Y-175147981D01*
X87200491Y-174481314D02*
X86962395Y-175147981D01*
X86867157Y-175386076D01*
X86819538Y-175433695D01*
X86724300Y-175481314D01*
X88295729Y-175100362D02*
X88438586Y-175147981D01*
X88676682Y-175147981D01*
X88771920Y-175100362D01*
X88819539Y-175052743D01*
X88867158Y-174957505D01*
X88867158Y-174862267D01*
X88819539Y-174767029D01*
X88771920Y-174719410D01*
X88676682Y-174671790D01*
X88486205Y-174624171D01*
X88390967Y-174576552D01*
X88343348Y-174528933D01*
X88295729Y-174433695D01*
X88295729Y-174338457D01*
X88343348Y-174243219D01*
X88390967Y-174195600D01*
X88486205Y-174147981D01*
X88724301Y-174147981D01*
X88867158Y-174195600D01*
X89295729Y-175147981D02*
X89295729Y-174481314D01*
X89295729Y-174147981D02*
X89248110Y-174195600D01*
X89295729Y-174243219D01*
X89343348Y-174195600D01*
X89295729Y-174147981D01*
X89295729Y-174243219D01*
X90200491Y-174481314D02*
X90200491Y-175290838D01*
X90152872Y-175386076D01*
X90105253Y-175433695D01*
X90010014Y-175481314D01*
X89867157Y-175481314D01*
X89771919Y-175433695D01*
X90200491Y-175100362D02*
X90105253Y-175147981D01*
X89914776Y-175147981D01*
X89819538Y-175100362D01*
X89771919Y-175052743D01*
X89724300Y-174957505D01*
X89724300Y-174671790D01*
X89771919Y-174576552D01*
X89819538Y-174528933D01*
X89914776Y-174481314D01*
X90105253Y-174481314D01*
X90200491Y-174528933D01*
X90676681Y-174481314D02*
X90676681Y-175147981D01*
X90676681Y-174576552D02*
X90724300Y-174528933D01*
X90819538Y-174481314D01*
X90962396Y-174481314D01*
X91057634Y-174528933D01*
X91105253Y-174624171D01*
X91105253Y-175147981D01*
X92010015Y-175147981D02*
X92010015Y-174624171D01*
X91962396Y-174528933D01*
X91867158Y-174481314D01*
X91676681Y-174481314D01*
X91581443Y-174528933D01*
X92010015Y-175100362D02*
X91914777Y-175147981D01*
X91676681Y-175147981D01*
X91581443Y-175100362D01*
X91533824Y-175005124D01*
X91533824Y-174909886D01*
X91581443Y-174814648D01*
X91676681Y-174767029D01*
X91914777Y-174767029D01*
X92010015Y-174719410D01*
X92629062Y-175147981D02*
X92533824Y-175100362D01*
X92486205Y-175005124D01*
X92486205Y-174147981D01*
X94343349Y-175052743D02*
X94295730Y-175100362D01*
X94152873Y-175147981D01*
X94057635Y-175147981D01*
X93914777Y-175100362D01*
X93819539Y-175005124D01*
X93771920Y-174909886D01*
X93724301Y-174719410D01*
X93724301Y-174576552D01*
X93771920Y-174386076D01*
X93819539Y-174290838D01*
X93914777Y-174195600D01*
X94057635Y-174147981D01*
X94152873Y-174147981D01*
X94295730Y-174195600D01*
X94343349Y-174243219D01*
X94771920Y-175147981D02*
X94771920Y-174147981D01*
X95200492Y-175147981D02*
X95200492Y-174624171D01*
X95152873Y-174528933D01*
X95057635Y-174481314D01*
X94914777Y-174481314D01*
X94819539Y-174528933D01*
X94771920Y-174576552D01*
X96105254Y-175147981D02*
X96105254Y-174624171D01*
X96057635Y-174528933D01*
X95962397Y-174481314D01*
X95771920Y-174481314D01*
X95676682Y-174528933D01*
X96105254Y-175100362D02*
X96010016Y-175147981D01*
X95771920Y-175147981D01*
X95676682Y-175100362D01*
X95629063Y-175005124D01*
X95629063Y-174909886D01*
X95676682Y-174814648D01*
X95771920Y-174767029D01*
X96010016Y-174767029D01*
X96105254Y-174719410D01*
X96581444Y-175147981D02*
X96581444Y-174481314D01*
X96581444Y-174147981D02*
X96533825Y-174195600D01*
X96581444Y-174243219D01*
X96629063Y-174195600D01*
X96581444Y-174147981D01*
X96581444Y-174243219D01*
X97057634Y-174481314D02*
X97057634Y-175147981D01*
X97057634Y-174576552D02*
X97105253Y-174528933D01*
X97200491Y-174481314D01*
X97343349Y-174481314D01*
X97438587Y-174528933D01*
X97486206Y-174624171D01*
X97486206Y-175147981D01*
X80652870Y-176612267D02*
X81129061Y-176612267D01*
X80557632Y-176897981D02*
X80890965Y-175897981D01*
X81224299Y-176897981D01*
X81557632Y-176897981D02*
X81557632Y-176231314D01*
X81557632Y-176326552D02*
X81605251Y-176278933D01*
X81700489Y-176231314D01*
X81843347Y-176231314D01*
X81938585Y-176278933D01*
X81986204Y-176374171D01*
X81986204Y-176897981D01*
X81986204Y-176374171D02*
X82033823Y-176278933D01*
X82129061Y-176231314D01*
X82271918Y-176231314D01*
X82367156Y-176278933D01*
X82414775Y-176374171D01*
X82414775Y-176897981D01*
X82890965Y-176231314D02*
X82890965Y-177231314D01*
X82890965Y-176278933D02*
X82986203Y-176231314D01*
X83176680Y-176231314D01*
X83271918Y-176278933D01*
X83319537Y-176326552D01*
X83367156Y-176421790D01*
X83367156Y-176707505D01*
X83319537Y-176802743D01*
X83271918Y-176850362D01*
X83176680Y-176897981D01*
X82986203Y-176897981D01*
X82890965Y-176850362D01*
X83938584Y-176897981D02*
X83843346Y-176850362D01*
X83795727Y-176755124D01*
X83795727Y-175897981D01*
X84319537Y-176897981D02*
X84319537Y-176231314D01*
X84319537Y-175897981D02*
X84271918Y-175945600D01*
X84319537Y-175993219D01*
X84367156Y-175945600D01*
X84319537Y-175897981D01*
X84319537Y-175993219D01*
X84652870Y-176231314D02*
X85033822Y-176231314D01*
X84795727Y-176897981D02*
X84795727Y-176040838D01*
X84843346Y-175945600D01*
X84938584Y-175897981D01*
X85033822Y-175897981D01*
X85367156Y-176897981D02*
X85367156Y-176231314D01*
X85367156Y-175897981D02*
X85319537Y-175945600D01*
X85367156Y-175993219D01*
X85414775Y-175945600D01*
X85367156Y-175897981D01*
X85367156Y-175993219D01*
X86224299Y-176850362D02*
X86129061Y-176897981D01*
X85938584Y-176897981D01*
X85843346Y-176850362D01*
X85795727Y-176755124D01*
X85795727Y-176374171D01*
X85843346Y-176278933D01*
X85938584Y-176231314D01*
X86129061Y-176231314D01*
X86224299Y-176278933D01*
X86271918Y-176374171D01*
X86271918Y-176469410D01*
X85795727Y-176564648D01*
X86700489Y-176897981D02*
X86700489Y-176231314D01*
X86700489Y-176421790D02*
X86748108Y-176326552D01*
X86795727Y-176278933D01*
X86890965Y-176231314D01*
X86986204Y-176231314D01*
X88510014Y-176897981D02*
X88510014Y-176374171D01*
X88462395Y-176278933D01*
X88367157Y-176231314D01*
X88176680Y-176231314D01*
X88081442Y-176278933D01*
X88510014Y-176850362D02*
X88414776Y-176897981D01*
X88176680Y-176897981D01*
X88081442Y-176850362D01*
X88033823Y-176755124D01*
X88033823Y-176659886D01*
X88081442Y-176564648D01*
X88176680Y-176517029D01*
X88414776Y-176517029D01*
X88510014Y-176469410D01*
X88986204Y-176231314D02*
X88986204Y-176897981D01*
X88986204Y-176326552D02*
X89033823Y-176278933D01*
X89129061Y-176231314D01*
X89271919Y-176231314D01*
X89367157Y-176278933D01*
X89414776Y-176374171D01*
X89414776Y-176897981D01*
X90319538Y-176897981D02*
X90319538Y-175897981D01*
X90319538Y-176850362D02*
X90224300Y-176897981D01*
X90033823Y-176897981D01*
X89938585Y-176850362D01*
X89890966Y-176802743D01*
X89843347Y-176707505D01*
X89843347Y-176421790D01*
X89890966Y-176326552D01*
X89938585Y-176278933D01*
X90033823Y-176231314D01*
X90224300Y-176231314D01*
X90319538Y-176278933D01*
X91510014Y-176612267D02*
X91986205Y-176612267D01*
X91414776Y-176897981D02*
X91748109Y-175897981D01*
X92081443Y-176897981D01*
X92271919Y-176231314D02*
X92652871Y-176231314D01*
X92414776Y-175897981D02*
X92414776Y-176755124D01*
X92462395Y-176850362D01*
X92557633Y-176897981D01*
X92652871Y-176897981D01*
X92843348Y-176231314D02*
X93224300Y-176231314D01*
X92986205Y-175897981D02*
X92986205Y-176755124D01*
X93033824Y-176850362D01*
X93129062Y-176897981D01*
X93224300Y-176897981D01*
X93938587Y-176850362D02*
X93843349Y-176897981D01*
X93652872Y-176897981D01*
X93557634Y-176850362D01*
X93510015Y-176755124D01*
X93510015Y-176374171D01*
X93557634Y-176278933D01*
X93652872Y-176231314D01*
X93843349Y-176231314D01*
X93938587Y-176278933D01*
X93986206Y-176374171D01*
X93986206Y-176469410D01*
X93510015Y-176564648D01*
X94414777Y-176231314D02*
X94414777Y-176897981D01*
X94414777Y-176326552D02*
X94462396Y-176278933D01*
X94557634Y-176231314D01*
X94700492Y-176231314D01*
X94795730Y-176278933D01*
X94843349Y-176374171D01*
X94843349Y-176897981D01*
X95748111Y-176231314D02*
X95748111Y-176897981D01*
X95319539Y-176231314D02*
X95319539Y-176755124D01*
X95367158Y-176850362D01*
X95462396Y-176897981D01*
X95605254Y-176897981D01*
X95700492Y-176850362D01*
X95748111Y-176802743D01*
X96652873Y-176897981D02*
X96652873Y-176374171D01*
X96605254Y-176278933D01*
X96510016Y-176231314D01*
X96319539Y-176231314D01*
X96224301Y-176278933D01*
X96652873Y-176850362D02*
X96557635Y-176897981D01*
X96319539Y-176897981D01*
X96224301Y-176850362D01*
X96176682Y-176755124D01*
X96176682Y-176659886D01*
X96224301Y-176564648D01*
X96319539Y-176517029D01*
X96557635Y-176517029D01*
X96652873Y-176469410D01*
X96986206Y-176231314D02*
X97367158Y-176231314D01*
X97129063Y-175897981D02*
X97129063Y-176755124D01*
X97176682Y-176850362D01*
X97271920Y-176897981D01*
X97367158Y-176897981D01*
X97843349Y-176897981D02*
X97748111Y-176850362D01*
X97700492Y-176802743D01*
X97652873Y-176707505D01*
X97652873Y-176421790D01*
X97700492Y-176326552D01*
X97748111Y-176278933D01*
X97843349Y-176231314D01*
X97986207Y-176231314D01*
X98081445Y-176278933D01*
X98129064Y-176326552D01*
X98176683Y-176421790D01*
X98176683Y-176707505D01*
X98129064Y-176802743D01*
X98081445Y-176850362D01*
X97986207Y-176897981D01*
X97843349Y-176897981D01*
X98605254Y-176897981D02*
X98605254Y-176231314D01*
X98605254Y-176421790D02*
X98652873Y-176326552D01*
X98700492Y-176278933D01*
X98795730Y-176231314D01*
X98890969Y-176231314D01*
X84081442Y-178647981D02*
X84081442Y-177647981D01*
X84319537Y-177647981D01*
X84462395Y-177695600D01*
X84557633Y-177790838D01*
X84605252Y-177886076D01*
X84652871Y-178076552D01*
X84652871Y-178219410D01*
X84605252Y-178409886D01*
X84557633Y-178505124D01*
X84462395Y-178600362D01*
X84319537Y-178647981D01*
X84081442Y-178647981D01*
X85510014Y-178647981D02*
X85510014Y-178124171D01*
X85462395Y-178028933D01*
X85367157Y-177981314D01*
X85176680Y-177981314D01*
X85081442Y-178028933D01*
X85510014Y-178600362D02*
X85414776Y-178647981D01*
X85176680Y-178647981D01*
X85081442Y-178600362D01*
X85033823Y-178505124D01*
X85033823Y-178409886D01*
X85081442Y-178314648D01*
X85176680Y-178267029D01*
X85414776Y-178267029D01*
X85510014Y-178219410D01*
X86414776Y-177981314D02*
X86414776Y-178647981D01*
X85986204Y-177981314D02*
X85986204Y-178505124D01*
X86033823Y-178600362D01*
X86129061Y-178647981D01*
X86271919Y-178647981D01*
X86367157Y-178600362D01*
X86414776Y-178552743D01*
X87319538Y-177981314D02*
X87319538Y-178790838D01*
X87271919Y-178886076D01*
X87224300Y-178933695D01*
X87129061Y-178981314D01*
X86986204Y-178981314D01*
X86890966Y-178933695D01*
X87319538Y-178600362D02*
X87224300Y-178647981D01*
X87033823Y-178647981D01*
X86938585Y-178600362D01*
X86890966Y-178552743D01*
X86843347Y-178457505D01*
X86843347Y-178171790D01*
X86890966Y-178076552D01*
X86938585Y-178028933D01*
X87033823Y-177981314D01*
X87224300Y-177981314D01*
X87319538Y-178028933D01*
X87795728Y-178647981D02*
X87795728Y-177647981D01*
X88224300Y-178647981D02*
X88224300Y-178124171D01*
X88176681Y-178028933D01*
X88081443Y-177981314D01*
X87938585Y-177981314D01*
X87843347Y-178028933D01*
X87795728Y-178076552D01*
X88557633Y-177981314D02*
X88938585Y-177981314D01*
X88700490Y-177647981D02*
X88700490Y-178505124D01*
X88748109Y-178600362D01*
X88843347Y-178647981D01*
X88938585Y-178647981D01*
X89652872Y-178600362D02*
X89557634Y-178647981D01*
X89367157Y-178647981D01*
X89271919Y-178600362D01*
X89224300Y-178505124D01*
X89224300Y-178124171D01*
X89271919Y-178028933D01*
X89367157Y-177981314D01*
X89557634Y-177981314D01*
X89652872Y-178028933D01*
X89700491Y-178124171D01*
X89700491Y-178219410D01*
X89224300Y-178314648D01*
X90129062Y-178647981D02*
X90129062Y-177981314D01*
X90129062Y-178171790D02*
X90176681Y-178076552D01*
X90224300Y-178028933D01*
X90319538Y-177981314D01*
X90414777Y-177981314D01*
X91843349Y-178124171D02*
X91986206Y-178171790D01*
X92033825Y-178219410D01*
X92081444Y-178314648D01*
X92081444Y-178457505D01*
X92033825Y-178552743D01*
X91986206Y-178600362D01*
X91890968Y-178647981D01*
X91510015Y-178647981D01*
X91510015Y-177647981D01*
X91843349Y-177647981D01*
X91938587Y-177695600D01*
X91986206Y-177743219D01*
X92033825Y-177838457D01*
X92033825Y-177933695D01*
X91986206Y-178028933D01*
X91938587Y-178076552D01*
X91843349Y-178124171D01*
X91510015Y-178124171D01*
X92652872Y-178647981D02*
X92557634Y-178600362D01*
X92510015Y-178552743D01*
X92462396Y-178457505D01*
X92462396Y-178171790D01*
X92510015Y-178076552D01*
X92557634Y-178028933D01*
X92652872Y-177981314D01*
X92795730Y-177981314D01*
X92890968Y-178028933D01*
X92938587Y-178076552D01*
X92986206Y-178171790D01*
X92986206Y-178457505D01*
X92938587Y-178552743D01*
X92890968Y-178600362D01*
X92795730Y-178647981D01*
X92652872Y-178647981D01*
X93843349Y-178647981D02*
X93843349Y-178124171D01*
X93795730Y-178028933D01*
X93700492Y-177981314D01*
X93510015Y-177981314D01*
X93414777Y-178028933D01*
X93843349Y-178600362D02*
X93748111Y-178647981D01*
X93510015Y-178647981D01*
X93414777Y-178600362D01*
X93367158Y-178505124D01*
X93367158Y-178409886D01*
X93414777Y-178314648D01*
X93510015Y-178267029D01*
X93748111Y-178267029D01*
X93843349Y-178219410D01*
X94319539Y-178647981D02*
X94319539Y-177981314D01*
X94319539Y-178171790D02*
X94367158Y-178076552D01*
X94414777Y-178028933D01*
X94510015Y-177981314D01*
X94605254Y-177981314D01*
X95367159Y-178647981D02*
X95367159Y-177647981D01*
X95367159Y-178600362D02*
X95271921Y-178647981D01*
X95081444Y-178647981D01*
X94986206Y-178600362D01*
X94938587Y-178552743D01*
X94890968Y-178457505D01*
X94890968Y-178171790D01*
X94938587Y-178076552D01*
X94986206Y-178028933D01*
X95081444Y-177981314D01*
X95271921Y-177981314D01*
X95367159Y-178028933D01*
X79010014Y-180397981D02*
X78676680Y-179921790D01*
X78438585Y-180397981D02*
X78438585Y-179397981D01*
X78819538Y-179397981D01*
X78914776Y-179445600D01*
X78962395Y-179493219D01*
X79010014Y-179588457D01*
X79010014Y-179731314D01*
X78962395Y-179826552D01*
X78914776Y-179874171D01*
X78819538Y-179921790D01*
X78438585Y-179921790D01*
X79819538Y-180350362D02*
X79724300Y-180397981D01*
X79533823Y-180397981D01*
X79438585Y-180350362D01*
X79390966Y-180255124D01*
X79390966Y-179874171D01*
X79438585Y-179778933D01*
X79533823Y-179731314D01*
X79724300Y-179731314D01*
X79819538Y-179778933D01*
X79867157Y-179874171D01*
X79867157Y-179969410D01*
X79390966Y-180064648D01*
X80200490Y-179731314D02*
X80438585Y-180397981D01*
X80676681Y-179731314D01*
X81057633Y-180397981D02*
X81057633Y-179731314D01*
X81057633Y-179397981D02*
X81010014Y-179445600D01*
X81057633Y-179493219D01*
X81105252Y-179445600D01*
X81057633Y-179397981D01*
X81057633Y-179493219D01*
X81486204Y-180350362D02*
X81581442Y-180397981D01*
X81771918Y-180397981D01*
X81867157Y-180350362D01*
X81914776Y-180255124D01*
X81914776Y-180207505D01*
X81867157Y-180112267D01*
X81771918Y-180064648D01*
X81629061Y-180064648D01*
X81533823Y-180017029D01*
X81486204Y-179921790D01*
X81486204Y-179874171D01*
X81533823Y-179778933D01*
X81629061Y-179731314D01*
X81771918Y-179731314D01*
X81867157Y-179778933D01*
X82343347Y-180397981D02*
X82343347Y-179731314D01*
X82343347Y-179397981D02*
X82295728Y-179445600D01*
X82343347Y-179493219D01*
X82390966Y-179445600D01*
X82343347Y-179397981D01*
X82343347Y-179493219D01*
X82962394Y-180397981D02*
X82867156Y-180350362D01*
X82819537Y-180302743D01*
X82771918Y-180207505D01*
X82771918Y-179921790D01*
X82819537Y-179826552D01*
X82867156Y-179778933D01*
X82962394Y-179731314D01*
X83105252Y-179731314D01*
X83200490Y-179778933D01*
X83248109Y-179826552D01*
X83295728Y-179921790D01*
X83295728Y-180207505D01*
X83248109Y-180302743D01*
X83200490Y-180350362D01*
X83105252Y-180397981D01*
X82962394Y-180397981D01*
X83724299Y-179731314D02*
X83724299Y-180397981D01*
X83724299Y-179826552D02*
X83771918Y-179778933D01*
X83867156Y-179731314D01*
X84010014Y-179731314D01*
X84105252Y-179778933D01*
X84152871Y-179874171D01*
X84152871Y-180397981D01*
X85819538Y-179397981D02*
X85629061Y-179397981D01*
X85533823Y-179445600D01*
X85486204Y-179493219D01*
X85390966Y-179636076D01*
X85343347Y-179826552D01*
X85343347Y-180207505D01*
X85390966Y-180302743D01*
X85438585Y-180350362D01*
X85533823Y-180397981D01*
X85724300Y-180397981D01*
X85819538Y-180350362D01*
X85867157Y-180302743D01*
X85914776Y-180207505D01*
X85914776Y-179969410D01*
X85867157Y-179874171D01*
X85819538Y-179826552D01*
X85724300Y-179778933D01*
X85533823Y-179778933D01*
X85438585Y-179826552D01*
X85390966Y-179874171D01*
X85343347Y-179969410D01*
X86343347Y-180302743D02*
X86390966Y-180350362D01*
X86343347Y-180397981D01*
X86295728Y-180350362D01*
X86343347Y-180302743D01*
X86343347Y-180397981D01*
X88295728Y-179493219D02*
X88343347Y-179445600D01*
X88438585Y-179397981D01*
X88676681Y-179397981D01*
X88771919Y-179445600D01*
X88819538Y-179493219D01*
X88867157Y-179588457D01*
X88867157Y-179683695D01*
X88819538Y-179826552D01*
X88248109Y-180397981D01*
X88867157Y-180397981D01*
X89486204Y-179397981D02*
X89581443Y-179397981D01*
X89676681Y-179445600D01*
X89724300Y-179493219D01*
X89771919Y-179588457D01*
X89819538Y-179778933D01*
X89819538Y-180017029D01*
X89771919Y-180207505D01*
X89724300Y-180302743D01*
X89676681Y-180350362D01*
X89581443Y-180397981D01*
X89486204Y-180397981D01*
X89390966Y-180350362D01*
X89343347Y-180302743D01*
X89295728Y-180207505D01*
X89248109Y-180017029D01*
X89248109Y-179778933D01*
X89295728Y-179588457D01*
X89343347Y-179493219D01*
X89390966Y-179445600D01*
X89486204Y-179397981D01*
X90771919Y-180397981D02*
X90200490Y-180397981D01*
X90486204Y-180397981D02*
X90486204Y-179397981D01*
X90390966Y-179540838D01*
X90295728Y-179636076D01*
X90200490Y-179683695D01*
X91343347Y-179826552D02*
X91248109Y-179778933D01*
X91200490Y-179731314D01*
X91152871Y-179636076D01*
X91152871Y-179588457D01*
X91200490Y-179493219D01*
X91248109Y-179445600D01*
X91343347Y-179397981D01*
X91533824Y-179397981D01*
X91629062Y-179445600D01*
X91676681Y-179493219D01*
X91724300Y-179588457D01*
X91724300Y-179636076D01*
X91676681Y-179731314D01*
X91629062Y-179778933D01*
X91533824Y-179826552D01*
X91343347Y-179826552D01*
X91248109Y-179874171D01*
X91200490Y-179921790D01*
X91152871Y-180017029D01*
X91152871Y-180207505D01*
X91200490Y-180302743D01*
X91248109Y-180350362D01*
X91343347Y-180397981D01*
X91533824Y-180397981D01*
X91629062Y-180350362D01*
X91676681Y-180302743D01*
X91724300Y-180207505D01*
X91724300Y-180017029D01*
X91676681Y-179921790D01*
X91629062Y-179874171D01*
X91533824Y-179826552D01*
X92914776Y-180017029D02*
X93676681Y-180017029D01*
X95105252Y-179397981D02*
X95200491Y-179397981D01*
X95295729Y-179445600D01*
X95343348Y-179493219D01*
X95390967Y-179588457D01*
X95438586Y-179778933D01*
X95438586Y-180017029D01*
X95390967Y-180207505D01*
X95343348Y-180302743D01*
X95295729Y-180350362D01*
X95200491Y-180397981D01*
X95105252Y-180397981D01*
X95010014Y-180350362D01*
X94962395Y-180302743D01*
X94914776Y-180207505D01*
X94867157Y-180017029D01*
X94867157Y-179778933D01*
X94914776Y-179588457D01*
X94962395Y-179493219D01*
X95010014Y-179445600D01*
X95105252Y-179397981D01*
X96390967Y-180397981D02*
X95819538Y-180397981D01*
X96105252Y-180397981D02*
X96105252Y-179397981D01*
X96010014Y-179540838D01*
X95914776Y-179636076D01*
X95819538Y-179683695D01*
X97581443Y-180017029D02*
X98343348Y-180017029D01*
X100105253Y-180397981D02*
X99533824Y-180397981D01*
X99819538Y-180397981D02*
X99819538Y-179397981D01*
X99724300Y-179540838D01*
X99629062Y-179636076D01*
X99533824Y-179683695D01*
X100581443Y-180397981D02*
X100771919Y-180397981D01*
X100867158Y-180350362D01*
X100914777Y-180302743D01*
X101010015Y-180159886D01*
X101057634Y-179969410D01*
X101057634Y-179588457D01*
X101010015Y-179493219D01*
X100962396Y-179445600D01*
X100867158Y-179397981D01*
X100676681Y-179397981D01*
X100581443Y-179445600D01*
X100533824Y-179493219D01*
X100486205Y-179588457D01*
X100486205Y-179826552D01*
X100533824Y-179921790D01*
X100581443Y-179969410D01*
X100676681Y-180017029D01*
X100867158Y-180017029D01*
X100962396Y-179969410D01*
X101010015Y-179921790D01*
X101057634Y-179826552D01*
X76010012Y-181624171D02*
X76152869Y-181671790D01*
X76200488Y-181719410D01*
X76248107Y-181814648D01*
X76248107Y-181957505D01*
X76200488Y-182052743D01*
X76152869Y-182100362D01*
X76057631Y-182147981D01*
X75676678Y-182147981D01*
X75676678Y-181147981D01*
X76010012Y-181147981D01*
X76105250Y-181195600D01*
X76152869Y-181243219D01*
X76200488Y-181338457D01*
X76200488Y-181433695D01*
X76152869Y-181528933D01*
X76105250Y-181576552D01*
X76010012Y-181624171D01*
X75676678Y-181624171D01*
X76676678Y-182147981D02*
X76676678Y-181481314D01*
X76676678Y-181671790D02*
X76724297Y-181576552D01*
X76771916Y-181528933D01*
X76867154Y-181481314D01*
X76962393Y-181481314D01*
X77295726Y-182147981D02*
X77295726Y-181481314D01*
X77295726Y-181147981D02*
X77248107Y-181195600D01*
X77295726Y-181243219D01*
X77343345Y-181195600D01*
X77295726Y-181147981D01*
X77295726Y-181243219D01*
X78200488Y-182147981D02*
X78200488Y-181624171D01*
X78152869Y-181528933D01*
X78057631Y-181481314D01*
X77867154Y-181481314D01*
X77771916Y-181528933D01*
X78200488Y-182100362D02*
X78105250Y-182147981D01*
X77867154Y-182147981D01*
X77771916Y-182100362D01*
X77724297Y-182005124D01*
X77724297Y-181909886D01*
X77771916Y-181814648D01*
X77867154Y-181767029D01*
X78105250Y-181767029D01*
X78200488Y-181719410D01*
X78676678Y-181481314D02*
X78676678Y-182147981D01*
X78676678Y-181576552D02*
X78724297Y-181528933D01*
X78819535Y-181481314D01*
X78962393Y-181481314D01*
X79057631Y-181528933D01*
X79105250Y-181624171D01*
X79105250Y-182147981D01*
X80343345Y-182147981D02*
X80343345Y-181147981D01*
X80676679Y-181862267D01*
X81010012Y-181147981D01*
X81010012Y-182147981D01*
X81914774Y-182147981D02*
X81914774Y-181624171D01*
X81867155Y-181528933D01*
X81771917Y-181481314D01*
X81581440Y-181481314D01*
X81486202Y-181528933D01*
X81914774Y-182100362D02*
X81819536Y-182147981D01*
X81581440Y-182147981D01*
X81486202Y-182100362D01*
X81438583Y-182005124D01*
X81438583Y-181909886D01*
X81486202Y-181814648D01*
X81581440Y-181767029D01*
X81819536Y-181767029D01*
X81914774Y-181719410D01*
X82390964Y-182147981D02*
X82390964Y-181481314D01*
X82390964Y-181671790D02*
X82438583Y-181576552D01*
X82486202Y-181528933D01*
X82581440Y-181481314D01*
X82676679Y-181481314D01*
X83010012Y-182147981D02*
X83010012Y-181147981D01*
X83105250Y-181767029D02*
X83390965Y-182147981D01*
X83390965Y-181481314D02*
X83010012Y-181862267D01*
X83962393Y-182147981D02*
X83867155Y-182100362D01*
X83819536Y-182005124D01*
X83819536Y-181147981D01*
X84724299Y-182100362D02*
X84629061Y-182147981D01*
X84438584Y-182147981D01*
X84343346Y-182100362D01*
X84295727Y-182005124D01*
X84295727Y-181624171D01*
X84343346Y-181528933D01*
X84438584Y-181481314D01*
X84629061Y-181481314D01*
X84724299Y-181528933D01*
X84771918Y-181624171D01*
X84771918Y-181719410D01*
X84295727Y-181814648D01*
X85105251Y-181481314D02*
X85343346Y-182147981D01*
X85581442Y-181481314D02*
X85343346Y-182147981D01*
X85248108Y-182386076D01*
X85200489Y-182433695D01*
X85105251Y-182481314D01*
X86724299Y-181767029D02*
X87486204Y-181767029D01*
X88724299Y-181147981D02*
X88724299Y-181957505D01*
X88771918Y-182052743D01*
X88819537Y-182100362D01*
X88914775Y-182147981D01*
X89105252Y-182147981D01*
X89200490Y-182100362D01*
X89248109Y-182052743D01*
X89295728Y-181957505D01*
X89295728Y-181147981D01*
X89771918Y-181481314D02*
X89771918Y-182147981D01*
X89771918Y-181576552D02*
X89819537Y-181528933D01*
X89914775Y-181481314D01*
X90057633Y-181481314D01*
X90152871Y-181528933D01*
X90200490Y-181624171D01*
X90200490Y-182147981D01*
X90676680Y-182147981D02*
X90676680Y-181481314D01*
X90676680Y-181147981D02*
X90629061Y-181195600D01*
X90676680Y-181243219D01*
X90724299Y-181195600D01*
X90676680Y-181147981D01*
X90676680Y-181243219D01*
X91057632Y-181481314D02*
X91295727Y-182147981D01*
X91533823Y-181481314D01*
X92295728Y-182100362D02*
X92200490Y-182147981D01*
X92010013Y-182147981D01*
X91914775Y-182100362D01*
X91867156Y-182005124D01*
X91867156Y-181624171D01*
X91914775Y-181528933D01*
X92010013Y-181481314D01*
X92200490Y-181481314D01*
X92295728Y-181528933D01*
X92343347Y-181624171D01*
X92343347Y-181719410D01*
X91867156Y-181814648D01*
X92771918Y-182147981D02*
X92771918Y-181481314D01*
X92771918Y-181671790D02*
X92819537Y-181576552D01*
X92867156Y-181528933D01*
X92962394Y-181481314D01*
X93057633Y-181481314D01*
X93343347Y-182100362D02*
X93438585Y-182147981D01*
X93629061Y-182147981D01*
X93724300Y-182100362D01*
X93771919Y-182005124D01*
X93771919Y-181957505D01*
X93724300Y-181862267D01*
X93629061Y-181814648D01*
X93486204Y-181814648D01*
X93390966Y-181767029D01*
X93343347Y-181671790D01*
X93343347Y-181624171D01*
X93390966Y-181528933D01*
X93486204Y-181481314D01*
X93629061Y-181481314D01*
X93724300Y-181528933D01*
X94200490Y-182147981D02*
X94200490Y-181481314D01*
X94200490Y-181147981D02*
X94152871Y-181195600D01*
X94200490Y-181243219D01*
X94248109Y-181195600D01*
X94200490Y-181147981D01*
X94200490Y-181243219D01*
X94533823Y-181481314D02*
X94914775Y-181481314D01*
X94676680Y-181147981D02*
X94676680Y-182005124D01*
X94724299Y-182100362D01*
X94819537Y-182147981D01*
X94914775Y-182147981D01*
X95152871Y-181481314D02*
X95390966Y-182147981D01*
X95629062Y-181481314D02*
X95390966Y-182147981D01*
X95295728Y-182386076D01*
X95248109Y-182433695D01*
X95152871Y-182481314D01*
X96914776Y-182147981D02*
X96819538Y-182100362D01*
X96771919Y-182052743D01*
X96724300Y-181957505D01*
X96724300Y-181671790D01*
X96771919Y-181576552D01*
X96819538Y-181528933D01*
X96914776Y-181481314D01*
X97057634Y-181481314D01*
X97152872Y-181528933D01*
X97200491Y-181576552D01*
X97248110Y-181671790D01*
X97248110Y-181957505D01*
X97200491Y-182052743D01*
X97152872Y-182100362D01*
X97057634Y-182147981D01*
X96914776Y-182147981D01*
X97533824Y-181481314D02*
X97914776Y-181481314D01*
X97676681Y-182147981D02*
X97676681Y-181290838D01*
X97724300Y-181195600D01*
X97819538Y-181147981D01*
X97914776Y-181147981D01*
X98962396Y-181862267D02*
X99438587Y-181862267D01*
X98867158Y-182147981D02*
X99200491Y-181147981D01*
X99533825Y-182147981D01*
X100010015Y-182147981D02*
X99914777Y-182100362D01*
X99867158Y-182005124D01*
X99867158Y-181147981D01*
X100390968Y-182147981D02*
X100390968Y-181147981D01*
X100390968Y-181528933D02*
X100486206Y-181481314D01*
X100676683Y-181481314D01*
X100771921Y-181528933D01*
X100819540Y-181576552D01*
X100867159Y-181671790D01*
X100867159Y-181957505D01*
X100819540Y-182052743D01*
X100771921Y-182100362D01*
X100676683Y-182147981D01*
X100486206Y-182147981D01*
X100390968Y-182100362D01*
X101676683Y-182100362D02*
X101581445Y-182147981D01*
X101390968Y-182147981D01*
X101295730Y-182100362D01*
X101248111Y-182005124D01*
X101248111Y-181624171D01*
X101295730Y-181528933D01*
X101390968Y-181481314D01*
X101581445Y-181481314D01*
X101676683Y-181528933D01*
X101724302Y-181624171D01*
X101724302Y-181719410D01*
X101248111Y-181814648D01*
X102152873Y-182147981D02*
X102152873Y-181481314D01*
X102152873Y-181671790D02*
X102200492Y-181576552D01*
X102248111Y-181528933D01*
X102343349Y-181481314D01*
X102438588Y-181481314D01*
X102629064Y-181481314D02*
X103010016Y-181481314D01*
X102771921Y-181147981D02*
X102771921Y-182005124D01*
X102819540Y-182100362D01*
X102914778Y-182147981D01*
X103010016Y-182147981D01*
X103771922Y-182147981D02*
X103771922Y-181624171D01*
X103724303Y-181528933D01*
X103629065Y-181481314D01*
X103438588Y-181481314D01*
X103343350Y-181528933D01*
X103771922Y-182100362D02*
X103676684Y-182147981D01*
X103438588Y-182147981D01*
X103343350Y-182100362D01*
X103295731Y-182005124D01*
X103295731Y-181909886D01*
X103343350Y-181814648D01*
X103438588Y-181767029D01*
X103676684Y-181767029D01*
X103771922Y-181719410D01*
X77343347Y-183802743D02*
X77295728Y-183850362D01*
X77152871Y-183897981D01*
X77057633Y-183897981D01*
X76914775Y-183850362D01*
X76819537Y-183755124D01*
X76771918Y-183659886D01*
X76724299Y-183469410D01*
X76724299Y-183326552D01*
X76771918Y-183136076D01*
X76819537Y-183040838D01*
X76914775Y-182945600D01*
X77057633Y-182897981D01*
X77152871Y-182897981D01*
X77295728Y-182945600D01*
X77343347Y-182993219D01*
X77771918Y-183374171D02*
X78105252Y-183374171D01*
X78248109Y-183897981D02*
X77771918Y-183897981D01*
X77771918Y-182897981D01*
X78248109Y-182897981D01*
X79248109Y-183897981D02*
X78914775Y-183421790D01*
X78676680Y-183897981D02*
X78676680Y-182897981D01*
X79057633Y-182897981D01*
X79152871Y-182945600D01*
X79200490Y-182993219D01*
X79248109Y-183088457D01*
X79248109Y-183231314D01*
X79200490Y-183326552D01*
X79152871Y-183374171D01*
X79057633Y-183421790D01*
X78676680Y-183421790D01*
X79676680Y-183897981D02*
X79676680Y-182897981D01*
X80248109Y-183897981D01*
X80248109Y-182897981D01*
X81676680Y-182897981D02*
X81867157Y-182897981D01*
X81962395Y-182945600D01*
X82057633Y-183040838D01*
X82105252Y-183231314D01*
X82105252Y-183564648D01*
X82057633Y-183755124D01*
X81962395Y-183850362D01*
X81867157Y-183897981D01*
X81676680Y-183897981D01*
X81581442Y-183850362D01*
X81486204Y-183755124D01*
X81438585Y-183564648D01*
X81438585Y-183231314D01*
X81486204Y-183040838D01*
X81581442Y-182945600D01*
X81676680Y-182897981D01*
X82533823Y-183231314D02*
X82533823Y-184231314D01*
X82533823Y-183278933D02*
X82629061Y-183231314D01*
X82819538Y-183231314D01*
X82914776Y-183278933D01*
X82962395Y-183326552D01*
X83010014Y-183421790D01*
X83010014Y-183707505D01*
X82962395Y-183802743D01*
X82914776Y-183850362D01*
X82819538Y-183897981D01*
X82629061Y-183897981D01*
X82533823Y-183850362D01*
X83819538Y-183850362D02*
X83724300Y-183897981D01*
X83533823Y-183897981D01*
X83438585Y-183850362D01*
X83390966Y-183755124D01*
X83390966Y-183374171D01*
X83438585Y-183278933D01*
X83533823Y-183231314D01*
X83724300Y-183231314D01*
X83819538Y-183278933D01*
X83867157Y-183374171D01*
X83867157Y-183469410D01*
X83390966Y-183564648D01*
X84295728Y-183231314D02*
X84295728Y-183897981D01*
X84295728Y-183326552D02*
X84343347Y-183278933D01*
X84438585Y-183231314D01*
X84581443Y-183231314D01*
X84676681Y-183278933D01*
X84724300Y-183374171D01*
X84724300Y-183897981D01*
X85962395Y-183897981D02*
X85962395Y-182897981D01*
X85962395Y-183374171D02*
X86533824Y-183374171D01*
X86533824Y-183897981D02*
X86533824Y-182897981D01*
X87438586Y-183897981D02*
X87438586Y-183374171D01*
X87390967Y-183278933D01*
X87295729Y-183231314D01*
X87105252Y-183231314D01*
X87010014Y-183278933D01*
X87438586Y-183850362D02*
X87343348Y-183897981D01*
X87105252Y-183897981D01*
X87010014Y-183850362D01*
X86962395Y-183755124D01*
X86962395Y-183659886D01*
X87010014Y-183564648D01*
X87105252Y-183517029D01*
X87343348Y-183517029D01*
X87438586Y-183469410D01*
X87914776Y-183897981D02*
X87914776Y-183231314D01*
X87914776Y-183421790D02*
X87962395Y-183326552D01*
X88010014Y-183278933D01*
X88105252Y-183231314D01*
X88200491Y-183231314D01*
X88962396Y-183897981D02*
X88962396Y-182897981D01*
X88962396Y-183850362D02*
X88867158Y-183897981D01*
X88676681Y-183897981D01*
X88581443Y-183850362D01*
X88533824Y-183802743D01*
X88486205Y-183707505D01*
X88486205Y-183421790D01*
X88533824Y-183326552D01*
X88581443Y-183278933D01*
X88676681Y-183231314D01*
X88867158Y-183231314D01*
X88962396Y-183278933D01*
X89343348Y-183231314D02*
X89533824Y-183897981D01*
X89724301Y-183421790D01*
X89914777Y-183897981D01*
X90105253Y-183231314D01*
X90914777Y-183897981D02*
X90914777Y-183374171D01*
X90867158Y-183278933D01*
X90771920Y-183231314D01*
X90581443Y-183231314D01*
X90486205Y-183278933D01*
X90914777Y-183850362D02*
X90819539Y-183897981D01*
X90581443Y-183897981D01*
X90486205Y-183850362D01*
X90438586Y-183755124D01*
X90438586Y-183659886D01*
X90486205Y-183564648D01*
X90581443Y-183517029D01*
X90819539Y-183517029D01*
X90914777Y-183469410D01*
X91390967Y-183897981D02*
X91390967Y-183231314D01*
X91390967Y-183421790D02*
X91438586Y-183326552D01*
X91486205Y-183278933D01*
X91581443Y-183231314D01*
X91676682Y-183231314D01*
X92390968Y-183850362D02*
X92295730Y-183897981D01*
X92105253Y-183897981D01*
X92010015Y-183850362D01*
X91962396Y-183755124D01*
X91962396Y-183374171D01*
X92010015Y-183278933D01*
X92105253Y-183231314D01*
X92295730Y-183231314D01*
X92390968Y-183278933D01*
X92438587Y-183374171D01*
X92438587Y-183469410D01*
X91962396Y-183564648D01*
X94105254Y-183897981D02*
X93629063Y-183897981D01*
X93629063Y-182897981D01*
X94438587Y-183897981D02*
X94438587Y-183231314D01*
X94438587Y-182897981D02*
X94390968Y-182945600D01*
X94438587Y-182993219D01*
X94486206Y-182945600D01*
X94438587Y-182897981D01*
X94438587Y-182993219D01*
X95343349Y-183850362D02*
X95248111Y-183897981D01*
X95057634Y-183897981D01*
X94962396Y-183850362D01*
X94914777Y-183802743D01*
X94867158Y-183707505D01*
X94867158Y-183421790D01*
X94914777Y-183326552D01*
X94962396Y-183278933D01*
X95057634Y-183231314D01*
X95248111Y-183231314D01*
X95343349Y-183278933D01*
X96152873Y-183850362D02*
X96057635Y-183897981D01*
X95867158Y-183897981D01*
X95771920Y-183850362D01*
X95724301Y-183755124D01*
X95724301Y-183374171D01*
X95771920Y-183278933D01*
X95867158Y-183231314D01*
X96057635Y-183231314D01*
X96152873Y-183278933D01*
X96200492Y-183374171D01*
X96200492Y-183469410D01*
X95724301Y-183564648D01*
X96629063Y-183231314D02*
X96629063Y-183897981D01*
X96629063Y-183326552D02*
X96676682Y-183278933D01*
X96771920Y-183231314D01*
X96914778Y-183231314D01*
X97010016Y-183278933D01*
X97057635Y-183374171D01*
X97057635Y-183897981D01*
X97962397Y-183850362D02*
X97867159Y-183897981D01*
X97676682Y-183897981D01*
X97581444Y-183850362D01*
X97533825Y-183802743D01*
X97486206Y-183707505D01*
X97486206Y-183421790D01*
X97533825Y-183326552D01*
X97581444Y-183278933D01*
X97676682Y-183231314D01*
X97867159Y-183231314D01*
X97962397Y-183278933D01*
X98771921Y-183850362D02*
X98676683Y-183897981D01*
X98486206Y-183897981D01*
X98390968Y-183850362D01*
X98343349Y-183755124D01*
X98343349Y-183374171D01*
X98390968Y-183278933D01*
X98486206Y-183231314D01*
X98676683Y-183231314D01*
X98771921Y-183278933D01*
X98819540Y-183374171D01*
X98819540Y-183469410D01*
X98343349Y-183564648D01*
X99914778Y-183231314D02*
X100152873Y-183897981D01*
X100390969Y-183231314D01*
X101295731Y-183897981D02*
X100724302Y-183897981D01*
X101010016Y-183897981D02*
X101010016Y-182897981D01*
X100914778Y-183040838D01*
X100819540Y-183136076D01*
X100724302Y-183183695D01*
X101724302Y-183802743D02*
X101771921Y-183850362D01*
X101724302Y-183897981D01*
X101676683Y-183850362D01*
X101724302Y-183802743D01*
X101724302Y-183897981D01*
X102152873Y-182993219D02*
X102200492Y-182945600D01*
X102295730Y-182897981D01*
X102533826Y-182897981D01*
X102629064Y-182945600D01*
X102676683Y-182993219D01*
X102724302Y-183088457D01*
X102724302Y-183183695D01*
X102676683Y-183326552D01*
X102105254Y-183897981D01*
X102724302Y-183897981D01*
D12*
X101054286Y-170283000D02*
X101768572Y-170283000D01*
X100911429Y-170711571D02*
X101411429Y-169211571D01*
X101911429Y-170711571D01*
X102411429Y-170711571D02*
X102411429Y-169711571D01*
X102411429Y-169854429D02*
X102482857Y-169783000D01*
X102625715Y-169711571D01*
X102840000Y-169711571D01*
X102982857Y-169783000D01*
X103054286Y-169925857D01*
X103054286Y-170711571D01*
X103054286Y-169925857D02*
X103125715Y-169783000D01*
X103268572Y-169711571D01*
X103482857Y-169711571D01*
X103625715Y-169783000D01*
X103697143Y-169925857D01*
X103697143Y-170711571D01*
X104411429Y-169711571D02*
X104411429Y-171211571D01*
X104411429Y-169783000D02*
X104554286Y-169711571D01*
X104840000Y-169711571D01*
X104982857Y-169783000D01*
X105054286Y-169854429D01*
X105125715Y-169997286D01*
X105125715Y-170425857D01*
X105054286Y-170568714D01*
X104982857Y-170640143D01*
X104840000Y-170711571D01*
X104554286Y-170711571D01*
X104411429Y-170640143D01*
X101554286Y-172475857D02*
X101768572Y-172547286D01*
X101840000Y-172618714D01*
X101911429Y-172761571D01*
X101911429Y-172975857D01*
X101840000Y-173118714D01*
X101768572Y-173190143D01*
X101625714Y-173261571D01*
X101054286Y-173261571D01*
X101054286Y-171761571D01*
X101554286Y-171761571D01*
X101697143Y-171833000D01*
X101768572Y-171904429D01*
X101840000Y-172047286D01*
X101840000Y-172190143D01*
X101768572Y-172333000D01*
X101697143Y-172404429D01*
X101554286Y-172475857D01*
X101054286Y-172475857D01*
X102554286Y-173261571D02*
X102554286Y-172261571D01*
X102554286Y-171761571D02*
X102482857Y-171833000D01*
X102554286Y-171904429D01*
X102625714Y-171833000D01*
X102554286Y-171761571D01*
X102554286Y-171904429D01*
X103911429Y-173261571D02*
X103911429Y-172475857D01*
X103840000Y-172333000D01*
X103697143Y-172261571D01*
X103411429Y-172261571D01*
X103268572Y-172333000D01*
X103911429Y-173190143D02*
X103768572Y-173261571D01*
X103411429Y-173261571D01*
X103268572Y-173190143D01*
X103197143Y-173047286D01*
X103197143Y-172904429D01*
X103268572Y-172761571D01*
X103411429Y-172690143D01*
X103768572Y-172690143D01*
X103911429Y-172618714D01*
X104554286Y-173190143D02*
X104697143Y-173261571D01*
X104982858Y-173261571D01*
X105125715Y-173190143D01*
X105197143Y-173047286D01*
X105197143Y-172975857D01*
X105125715Y-172833000D01*
X104982858Y-172761571D01*
X104768572Y-172761571D01*
X104625715Y-172690143D01*
X104554286Y-172547286D01*
X104554286Y-172475857D01*
X104625715Y-172333000D01*
X104768572Y-172261571D01*
X104982858Y-172261571D01*
X105125715Y-172333000D01*
D11*
X81450936Y-142640501D02*
X81117602Y-142164310D01*
X80879507Y-142640501D02*
X80879507Y-141640501D01*
X81260460Y-141640501D01*
X81355698Y-141688120D01*
X81403317Y-141735739D01*
X81450936Y-141830977D01*
X81450936Y-141973834D01*
X81403317Y-142069072D01*
X81355698Y-142116691D01*
X81260460Y-142164310D01*
X80879507Y-142164310D01*
X82212841Y-142116691D02*
X81879507Y-142116691D01*
X81879507Y-142640501D02*
X81879507Y-141640501D01*
X82355698Y-141640501D01*
X82498555Y-142735739D02*
X83260460Y-142735739D01*
X83498555Y-142640501D02*
X83498555Y-141640501D01*
X83974745Y-142640501D02*
X83974745Y-141640501D01*
X84546174Y-142640501D01*
X84546174Y-141640501D01*
X144284269Y-142640501D02*
X143950935Y-142164310D01*
X143712840Y-142640501D02*
X143712840Y-141640501D01*
X144093793Y-141640501D01*
X144189031Y-141688120D01*
X144236650Y-141735739D01*
X144284269Y-141830977D01*
X144284269Y-141973834D01*
X144236650Y-142069072D01*
X144189031Y-142116691D01*
X144093793Y-142164310D01*
X143712840Y-142164310D01*
X145046174Y-142116691D02*
X144712840Y-142116691D01*
X144712840Y-142640501D02*
X144712840Y-141640501D01*
X145189031Y-141640501D01*
X145331888Y-142735739D02*
X146093793Y-142735739D01*
X146522364Y-141640501D02*
X146712841Y-141640501D01*
X146808079Y-141688120D01*
X146903317Y-141783358D01*
X146950936Y-141973834D01*
X146950936Y-142307168D01*
X146903317Y-142497644D01*
X146808079Y-142592882D01*
X146712841Y-142640501D01*
X146522364Y-142640501D01*
X146427126Y-142592882D01*
X146331888Y-142497644D01*
X146284269Y-142307168D01*
X146284269Y-141973834D01*
X146331888Y-141783358D01*
X146427126Y-141688120D01*
X146522364Y-141640501D01*
X147379507Y-141640501D02*
X147379507Y-142450025D01*
X147427126Y-142545263D01*
X147474745Y-142592882D01*
X147569983Y-142640501D01*
X147760460Y-142640501D01*
X147855698Y-142592882D01*
X147903317Y-142545263D01*
X147950936Y-142450025D01*
X147950936Y-141640501D01*
X148284269Y-141640501D02*
X148855698Y-141640501D01*
X148569983Y-142640501D02*
X148569983Y-141640501D01*
X113335341Y-183171019D02*
X112335341Y-183171019D01*
X112335341Y-182790066D01*
X112382960Y-182694828D01*
X112430579Y-182647209D01*
X112525817Y-182599590D01*
X112668674Y-182599590D01*
X112763912Y-182647209D01*
X112811531Y-182694828D01*
X112859150Y-182790066D01*
X112859150Y-183171019D01*
X113335341Y-182171019D02*
X112668674Y-182171019D01*
X112859150Y-182171019D02*
X112763912Y-182123400D01*
X112716293Y-182075781D01*
X112668674Y-181980543D01*
X112668674Y-181885304D01*
X113287722Y-181171018D02*
X113335341Y-181266256D01*
X113335341Y-181456733D01*
X113287722Y-181551971D01*
X113192484Y-181599590D01*
X112811531Y-181599590D01*
X112716293Y-181551971D01*
X112668674Y-181456733D01*
X112668674Y-181266256D01*
X112716293Y-181171018D01*
X112811531Y-181123399D01*
X112906770Y-181123399D01*
X113002008Y-181599590D01*
X113049627Y-180742447D02*
X113049627Y-180266256D01*
X113335341Y-180837685D02*
X112335341Y-180504352D01*
X113335341Y-180171018D01*
X113335341Y-179837685D02*
X112668674Y-179837685D01*
X112763912Y-179837685D02*
X112716293Y-179790066D01*
X112668674Y-179694828D01*
X112668674Y-179551970D01*
X112716293Y-179456732D01*
X112811531Y-179409113D01*
X113335341Y-179409113D01*
X112811531Y-179409113D02*
X112716293Y-179361494D01*
X112668674Y-179266256D01*
X112668674Y-179123399D01*
X112716293Y-179028161D01*
X112811531Y-178980542D01*
X113335341Y-178980542D01*
X112668674Y-178504352D02*
X113668674Y-178504352D01*
X112716293Y-178504352D02*
X112668674Y-178409114D01*
X112668674Y-178218637D01*
X112716293Y-178123399D01*
X112763912Y-178075780D01*
X112859150Y-178028161D01*
X113144865Y-178028161D01*
X113240103Y-178075780D01*
X113287722Y-178123399D01*
X113335341Y-178218637D01*
X113335341Y-178409114D01*
X113287722Y-178504352D01*
X115589627Y-181980543D02*
X115589627Y-181504352D01*
X115875341Y-182075781D02*
X114875341Y-181742448D01*
X115875341Y-181409114D01*
X115875341Y-181075781D02*
X115208674Y-181075781D01*
X115303912Y-181075781D02*
X115256293Y-181028162D01*
X115208674Y-180932924D01*
X115208674Y-180790066D01*
X115256293Y-180694828D01*
X115351531Y-180647209D01*
X115875341Y-180647209D01*
X115351531Y-180647209D02*
X115256293Y-180599590D01*
X115208674Y-180504352D01*
X115208674Y-180361495D01*
X115256293Y-180266257D01*
X115351531Y-180218638D01*
X115875341Y-180218638D01*
X115208674Y-179742448D02*
X116208674Y-179742448D01*
X115256293Y-179742448D02*
X115208674Y-179647210D01*
X115208674Y-179456733D01*
X115256293Y-179361495D01*
X115303912Y-179313876D01*
X115399150Y-179266257D01*
X115684865Y-179266257D01*
X115780103Y-179313876D01*
X115827722Y-179361495D01*
X115875341Y-179456733D01*
X115875341Y-179647210D01*
X115827722Y-179742448D01*
X118129627Y-182551972D02*
X118129627Y-182075781D01*
X118415341Y-182647210D02*
X117415341Y-182313877D01*
X118415341Y-181980543D01*
X117748674Y-181790067D02*
X117748674Y-181409115D01*
X117415341Y-181647210D02*
X118272484Y-181647210D01*
X118367722Y-181599591D01*
X118415341Y-181504353D01*
X118415341Y-181409115D01*
X117748674Y-181218638D02*
X117748674Y-180837686D01*
X117415341Y-181075781D02*
X118272484Y-181075781D01*
X118367722Y-181028162D01*
X118415341Y-180932924D01*
X118415341Y-180837686D01*
X118367722Y-180123399D02*
X118415341Y-180218637D01*
X118415341Y-180409114D01*
X118367722Y-180504352D01*
X118272484Y-180551971D01*
X117891531Y-180551971D01*
X117796293Y-180504352D01*
X117748674Y-180409114D01*
X117748674Y-180218637D01*
X117796293Y-180123399D01*
X117891531Y-180075780D01*
X117986770Y-180075780D01*
X118082008Y-180551971D01*
X117748674Y-179647209D02*
X118415341Y-179647209D01*
X117843912Y-179647209D02*
X117796293Y-179599590D01*
X117748674Y-179504352D01*
X117748674Y-179361494D01*
X117796293Y-179266256D01*
X117891531Y-179218637D01*
X118415341Y-179218637D01*
X117415341Y-178694828D02*
X117605817Y-178790066D01*
X120907722Y-181932924D02*
X120955341Y-181790067D01*
X120955341Y-181551971D01*
X120907722Y-181456733D01*
X120860103Y-181409114D01*
X120764865Y-181361495D01*
X120669627Y-181361495D01*
X120574389Y-181409114D01*
X120526770Y-181456733D01*
X120479150Y-181551971D01*
X120431531Y-181742448D01*
X120383912Y-181837686D01*
X120336293Y-181885305D01*
X120241055Y-181932924D01*
X120145817Y-181932924D01*
X120050579Y-181885305D01*
X120002960Y-181837686D01*
X119955341Y-181742448D01*
X119955341Y-181504352D01*
X120002960Y-181361495D01*
X120955341Y-180932924D02*
X119955341Y-180932924D01*
X119955341Y-180694829D01*
X120002960Y-180551971D01*
X120098198Y-180456733D01*
X120193436Y-180409114D01*
X120383912Y-180361495D01*
X120526770Y-180361495D01*
X120717246Y-180409114D01*
X120812484Y-180456733D01*
X120907722Y-180551971D01*
X120955341Y-180694829D01*
X120955341Y-180932924D01*
X119955341Y-179742448D02*
X119955341Y-179551971D01*
X120002960Y-179456733D01*
X120098198Y-179361495D01*
X120288674Y-179313876D01*
X120622008Y-179313876D01*
X120812484Y-179361495D01*
X120907722Y-179456733D01*
X120955341Y-179551971D01*
X120955341Y-179742448D01*
X120907722Y-179837686D01*
X120812484Y-179932924D01*
X120622008Y-179980543D01*
X120288674Y-179980543D01*
X120098198Y-179932924D01*
X120002960Y-179837686D01*
X119955341Y-179742448D01*
X123495341Y-181361495D02*
X122495341Y-181361495D01*
X122495341Y-181123400D01*
X122542960Y-180980542D01*
X122638198Y-180885304D01*
X122733436Y-180837685D01*
X122923912Y-180790066D01*
X123066770Y-180790066D01*
X123257246Y-180837685D01*
X123352484Y-180885304D01*
X123447722Y-180980542D01*
X123495341Y-181123400D01*
X123495341Y-181361495D01*
X122495341Y-179885304D02*
X122495341Y-180361495D01*
X122971531Y-180409114D01*
X122923912Y-180361495D01*
X122876293Y-180266257D01*
X122876293Y-180028161D01*
X122923912Y-179932923D01*
X122971531Y-179885304D01*
X123066770Y-179837685D01*
X123304865Y-179837685D01*
X123400103Y-179885304D01*
X123447722Y-179932923D01*
X123495341Y-180028161D01*
X123495341Y-180266257D01*
X123447722Y-180361495D01*
X123400103Y-180409114D01*
X126035341Y-181361495D02*
X125035341Y-181361495D01*
X125035341Y-181123400D01*
X125082960Y-180980542D01*
X125178198Y-180885304D01*
X125273436Y-180837685D01*
X125463912Y-180790066D01*
X125606770Y-180790066D01*
X125797246Y-180837685D01*
X125892484Y-180885304D01*
X125987722Y-180980542D01*
X126035341Y-181123400D01*
X126035341Y-181361495D01*
X125368674Y-179932923D02*
X126035341Y-179932923D01*
X124987722Y-180171019D02*
X125702008Y-180409114D01*
X125702008Y-179790066D01*
X128575341Y-181361495D02*
X127575341Y-181361495D01*
X127575341Y-181123400D01*
X127622960Y-180980542D01*
X127718198Y-180885304D01*
X127813436Y-180837685D01*
X128003912Y-180790066D01*
X128146770Y-180790066D01*
X128337246Y-180837685D01*
X128432484Y-180885304D01*
X128527722Y-180980542D01*
X128575341Y-181123400D01*
X128575341Y-181361495D01*
X127575341Y-180456733D02*
X127575341Y-179837685D01*
X127956293Y-180171019D01*
X127956293Y-180028161D01*
X128003912Y-179932923D01*
X128051531Y-179885304D01*
X128146770Y-179837685D01*
X128384865Y-179837685D01*
X128480103Y-179885304D01*
X128527722Y-179932923D01*
X128575341Y-180028161D01*
X128575341Y-180313876D01*
X128527722Y-180409114D01*
X128480103Y-180456733D01*
X131115341Y-181361495D02*
X130115341Y-181361495D01*
X130115341Y-181123400D01*
X130162960Y-180980542D01*
X130258198Y-180885304D01*
X130353436Y-180837685D01*
X130543912Y-180790066D01*
X130686770Y-180790066D01*
X130877246Y-180837685D01*
X130972484Y-180885304D01*
X131067722Y-180980542D01*
X131115341Y-181123400D01*
X131115341Y-181361495D01*
X130210579Y-180409114D02*
X130162960Y-180361495D01*
X130115341Y-180266257D01*
X130115341Y-180028161D01*
X130162960Y-179932923D01*
X130210579Y-179885304D01*
X130305817Y-179837685D01*
X130401055Y-179837685D01*
X130543912Y-179885304D01*
X131115341Y-180456733D01*
X131115341Y-179837685D01*
X133655341Y-181361495D02*
X132655341Y-181361495D01*
X132655341Y-181123400D01*
X132702960Y-180980542D01*
X132798198Y-180885304D01*
X132893436Y-180837685D01*
X133083912Y-180790066D01*
X133226770Y-180790066D01*
X133417246Y-180837685D01*
X133512484Y-180885304D01*
X133607722Y-180980542D01*
X133655341Y-181123400D01*
X133655341Y-181361495D01*
X133655341Y-179837685D02*
X133655341Y-180409114D01*
X133655341Y-180123400D02*
X132655341Y-180123400D01*
X132798198Y-180218638D01*
X132893436Y-180313876D01*
X132941055Y-180409114D01*
X136195341Y-181361495D02*
X135195341Y-181361495D01*
X135195341Y-181123400D01*
X135242960Y-180980542D01*
X135338198Y-180885304D01*
X135433436Y-180837685D01*
X135623912Y-180790066D01*
X135766770Y-180790066D01*
X135957246Y-180837685D01*
X136052484Y-180885304D01*
X136147722Y-180980542D01*
X136195341Y-181123400D01*
X136195341Y-181361495D01*
X135195341Y-180171019D02*
X135195341Y-180075780D01*
X135242960Y-179980542D01*
X135290579Y-179932923D01*
X135385817Y-179885304D01*
X135576293Y-179837685D01*
X135814389Y-179837685D01*
X136004865Y-179885304D01*
X136100103Y-179932923D01*
X136147722Y-179980542D01*
X136195341Y-180075780D01*
X136195341Y-180171019D01*
X136147722Y-180266257D01*
X136100103Y-180313876D01*
X136004865Y-180361495D01*
X135814389Y-180409114D01*
X135576293Y-180409114D01*
X135385817Y-180361495D01*
X135290579Y-180313876D01*
X135242960Y-180266257D01*
X135195341Y-180171019D01*
X138735341Y-181885305D02*
X137735341Y-181885305D01*
X137735341Y-181504352D01*
X137782960Y-181409114D01*
X137830579Y-181361495D01*
X137925817Y-181313876D01*
X138068674Y-181313876D01*
X138163912Y-181361495D01*
X138211531Y-181409114D01*
X138259150Y-181504352D01*
X138259150Y-181885305D01*
X137687722Y-180171019D02*
X138973436Y-181028162D01*
X138687722Y-179885305D02*
X138735341Y-179742448D01*
X138735341Y-179504352D01*
X138687722Y-179409114D01*
X138640103Y-179361495D01*
X138544865Y-179313876D01*
X138449627Y-179313876D01*
X138354389Y-179361495D01*
X138306770Y-179409114D01*
X138259150Y-179504352D01*
X138211531Y-179694829D01*
X138163912Y-179790067D01*
X138116293Y-179837686D01*
X138021055Y-179885305D01*
X137925817Y-179885305D01*
X137830579Y-179837686D01*
X137782960Y-179790067D01*
X137735341Y-179694829D01*
X137735341Y-179456733D01*
X137782960Y-179313876D01*
X141180103Y-181218638D02*
X141227722Y-181266257D01*
X141275341Y-181409114D01*
X141275341Y-181504352D01*
X141227722Y-181647210D01*
X141132484Y-181742448D01*
X141037246Y-181790067D01*
X140846770Y-181837686D01*
X140703912Y-181837686D01*
X140513436Y-181790067D01*
X140418198Y-181742448D01*
X140322960Y-181647210D01*
X140275341Y-181504352D01*
X140275341Y-181409114D01*
X140322960Y-181266257D01*
X140370579Y-181218638D01*
X141275341Y-180313876D02*
X141275341Y-180790067D01*
X140275341Y-180790067D01*
X141275341Y-179980543D02*
X140275341Y-179980543D01*
X141275341Y-179409114D02*
X140703912Y-179837686D01*
X140275341Y-179409114D02*
X140846770Y-179980543D01*
X143767722Y-181647209D02*
X143815341Y-181504352D01*
X143815341Y-181266256D01*
X143767722Y-181171018D01*
X143720103Y-181123399D01*
X143624865Y-181075780D01*
X143529627Y-181075780D01*
X143434389Y-181123399D01*
X143386770Y-181171018D01*
X143339150Y-181266256D01*
X143291531Y-181456733D01*
X143243912Y-181551971D01*
X143196293Y-181599590D01*
X143101055Y-181647209D01*
X143005817Y-181647209D01*
X142910579Y-181599590D01*
X142862960Y-181551971D01*
X142815341Y-181456733D01*
X142815341Y-181218637D01*
X142862960Y-181075780D01*
X143815341Y-180647209D02*
X142815341Y-180647209D01*
X142815341Y-180409114D01*
X142862960Y-180266256D01*
X142958198Y-180171018D01*
X143053436Y-180123399D01*
X143243912Y-180075780D01*
X143386770Y-180075780D01*
X143577246Y-180123399D01*
X143672484Y-180171018D01*
X143767722Y-180266256D01*
X143815341Y-180409114D01*
X143815341Y-180647209D01*
X143815341Y-179647209D02*
X142815341Y-179647209D01*
X146355341Y-180766257D02*
X146355341Y-181242448D01*
X145355341Y-181242448D01*
X145831531Y-180432924D02*
X145831531Y-180099590D01*
X146355341Y-179956733D02*
X146355341Y-180432924D01*
X145355341Y-180432924D01*
X145355341Y-179956733D01*
X147942960Y-181885304D02*
X147895341Y-181980542D01*
X147895341Y-182123399D01*
X147942960Y-182266257D01*
X148038198Y-182361495D01*
X148133436Y-182409114D01*
X148323912Y-182456733D01*
X148466770Y-182456733D01*
X148657246Y-182409114D01*
X148752484Y-182361495D01*
X148847722Y-182266257D01*
X148895341Y-182123399D01*
X148895341Y-182028161D01*
X148847722Y-181885304D01*
X148800103Y-181837685D01*
X148466770Y-181837685D01*
X148466770Y-182028161D01*
X148895341Y-181409114D02*
X147895341Y-181409114D01*
X148895341Y-180837685D01*
X147895341Y-180837685D01*
X148895341Y-180361495D02*
X147895341Y-180361495D01*
X147895341Y-180123400D01*
X147942960Y-179980542D01*
X148038198Y-179885304D01*
X148133436Y-179837685D01*
X148323912Y-179790066D01*
X148466770Y-179790066D01*
X148657246Y-179837685D01*
X148752484Y-179885304D01*
X148847722Y-179980542D01*
X148895341Y-180123400D01*
X148895341Y-180361495D01*
X148895341Y-179361495D02*
X147895341Y-179361495D01*
X147895341Y-179123400D01*
X147942960Y-178980542D01*
X148038198Y-178885304D01*
X148133436Y-178837685D01*
X148323912Y-178790066D01*
X148466770Y-178790066D01*
X148657246Y-178837685D01*
X148752484Y-178885304D01*
X148847722Y-178980542D01*
X148895341Y-179123400D01*
X148895341Y-179361495D01*
X147942960Y-131847304D02*
X147895341Y-131942542D01*
X147895341Y-132085399D01*
X147942960Y-132228257D01*
X148038198Y-132323495D01*
X148133436Y-132371114D01*
X148323912Y-132418733D01*
X148466770Y-132418733D01*
X148657246Y-132371114D01*
X148752484Y-132323495D01*
X148847722Y-132228257D01*
X148895341Y-132085399D01*
X148895341Y-131990161D01*
X148847722Y-131847304D01*
X148800103Y-131799685D01*
X148466770Y-131799685D01*
X148466770Y-131990161D01*
X148895341Y-131371114D02*
X147895341Y-131371114D01*
X148895341Y-130799685D01*
X147895341Y-130799685D01*
X148895341Y-130323495D02*
X147895341Y-130323495D01*
X147895341Y-130085400D01*
X147942960Y-129942542D01*
X148038198Y-129847304D01*
X148133436Y-129799685D01*
X148323912Y-129752066D01*
X148466770Y-129752066D01*
X148657246Y-129799685D01*
X148752484Y-129847304D01*
X148847722Y-129942542D01*
X148895341Y-130085400D01*
X148895341Y-130323495D01*
X148895341Y-129323495D02*
X147895341Y-129323495D01*
X147895341Y-129085400D01*
X147942960Y-128942542D01*
X148038198Y-128847304D01*
X148133436Y-128799685D01*
X148323912Y-128752066D01*
X148466770Y-128752066D01*
X148657246Y-128799685D01*
X148752484Y-128847304D01*
X148847722Y-128942542D01*
X148895341Y-129085400D01*
X148895341Y-129323495D01*
X146355341Y-130728257D02*
X146355341Y-131204448D01*
X145355341Y-131204448D01*
X145831531Y-130394924D02*
X145831531Y-130061590D01*
X146355341Y-129918733D02*
X146355341Y-130394924D01*
X145355341Y-130394924D01*
X145355341Y-129918733D01*
X143767722Y-131609209D02*
X143815341Y-131466352D01*
X143815341Y-131228256D01*
X143767722Y-131133018D01*
X143720103Y-131085399D01*
X143624865Y-131037780D01*
X143529627Y-131037780D01*
X143434389Y-131085399D01*
X143386770Y-131133018D01*
X143339150Y-131228256D01*
X143291531Y-131418733D01*
X143243912Y-131513971D01*
X143196293Y-131561590D01*
X143101055Y-131609209D01*
X143005817Y-131609209D01*
X142910579Y-131561590D01*
X142862960Y-131513971D01*
X142815341Y-131418733D01*
X142815341Y-131180637D01*
X142862960Y-131037780D01*
X143815341Y-130609209D02*
X142815341Y-130609209D01*
X142815341Y-130371114D01*
X142862960Y-130228256D01*
X142958198Y-130133018D01*
X143053436Y-130085399D01*
X143243912Y-130037780D01*
X143386770Y-130037780D01*
X143577246Y-130085399D01*
X143672484Y-130133018D01*
X143767722Y-130228256D01*
X143815341Y-130371114D01*
X143815341Y-130609209D01*
X143815341Y-129609209D02*
X142815341Y-129609209D01*
X141180103Y-131180638D02*
X141227722Y-131228257D01*
X141275341Y-131371114D01*
X141275341Y-131466352D01*
X141227722Y-131609210D01*
X141132484Y-131704448D01*
X141037246Y-131752067D01*
X140846770Y-131799686D01*
X140703912Y-131799686D01*
X140513436Y-131752067D01*
X140418198Y-131704448D01*
X140322960Y-131609210D01*
X140275341Y-131466352D01*
X140275341Y-131371114D01*
X140322960Y-131228257D01*
X140370579Y-131180638D01*
X141275341Y-130275876D02*
X141275341Y-130752067D01*
X140275341Y-130752067D01*
X141275341Y-129942543D02*
X140275341Y-129942543D01*
X141275341Y-129371114D02*
X140703912Y-129799686D01*
X140275341Y-129371114D02*
X140846770Y-129942543D01*
X138735341Y-131847305D02*
X137735341Y-131847305D01*
X137735341Y-131466352D01*
X137782960Y-131371114D01*
X137830579Y-131323495D01*
X137925817Y-131275876D01*
X138068674Y-131275876D01*
X138163912Y-131323495D01*
X138211531Y-131371114D01*
X138259150Y-131466352D01*
X138259150Y-131847305D01*
X137687722Y-130133019D02*
X138973436Y-130990162D01*
X138687722Y-129847305D02*
X138735341Y-129704448D01*
X138735341Y-129466352D01*
X138687722Y-129371114D01*
X138640103Y-129323495D01*
X138544865Y-129275876D01*
X138449627Y-129275876D01*
X138354389Y-129323495D01*
X138306770Y-129371114D01*
X138259150Y-129466352D01*
X138211531Y-129656829D01*
X138163912Y-129752067D01*
X138116293Y-129799686D01*
X138021055Y-129847305D01*
X137925817Y-129847305D01*
X137830579Y-129799686D01*
X137782960Y-129752067D01*
X137735341Y-129656829D01*
X137735341Y-129418733D01*
X137782960Y-129275876D01*
X136195341Y-131323495D02*
X135195341Y-131323495D01*
X135195341Y-131085400D01*
X135242960Y-130942542D01*
X135338198Y-130847304D01*
X135433436Y-130799685D01*
X135623912Y-130752066D01*
X135766770Y-130752066D01*
X135957246Y-130799685D01*
X136052484Y-130847304D01*
X136147722Y-130942542D01*
X136195341Y-131085400D01*
X136195341Y-131323495D01*
X135195341Y-130133019D02*
X135195341Y-130037780D01*
X135242960Y-129942542D01*
X135290579Y-129894923D01*
X135385817Y-129847304D01*
X135576293Y-129799685D01*
X135814389Y-129799685D01*
X136004865Y-129847304D01*
X136100103Y-129894923D01*
X136147722Y-129942542D01*
X136195341Y-130037780D01*
X136195341Y-130133019D01*
X136147722Y-130228257D01*
X136100103Y-130275876D01*
X136004865Y-130323495D01*
X135814389Y-130371114D01*
X135576293Y-130371114D01*
X135385817Y-130323495D01*
X135290579Y-130275876D01*
X135242960Y-130228257D01*
X135195341Y-130133019D01*
X133655341Y-131323495D02*
X132655341Y-131323495D01*
X132655341Y-131085400D01*
X132702960Y-130942542D01*
X132798198Y-130847304D01*
X132893436Y-130799685D01*
X133083912Y-130752066D01*
X133226770Y-130752066D01*
X133417246Y-130799685D01*
X133512484Y-130847304D01*
X133607722Y-130942542D01*
X133655341Y-131085400D01*
X133655341Y-131323495D01*
X133655341Y-129799685D02*
X133655341Y-130371114D01*
X133655341Y-130085400D02*
X132655341Y-130085400D01*
X132798198Y-130180638D01*
X132893436Y-130275876D01*
X132941055Y-130371114D01*
X131115341Y-131323495D02*
X130115341Y-131323495D01*
X130115341Y-131085400D01*
X130162960Y-130942542D01*
X130258198Y-130847304D01*
X130353436Y-130799685D01*
X130543912Y-130752066D01*
X130686770Y-130752066D01*
X130877246Y-130799685D01*
X130972484Y-130847304D01*
X131067722Y-130942542D01*
X131115341Y-131085400D01*
X131115341Y-131323495D01*
X130210579Y-130371114D02*
X130162960Y-130323495D01*
X130115341Y-130228257D01*
X130115341Y-129990161D01*
X130162960Y-129894923D01*
X130210579Y-129847304D01*
X130305817Y-129799685D01*
X130401055Y-129799685D01*
X130543912Y-129847304D01*
X131115341Y-130418733D01*
X131115341Y-129799685D01*
X128575341Y-131323495D02*
X127575341Y-131323495D01*
X127575341Y-131085400D01*
X127622960Y-130942542D01*
X127718198Y-130847304D01*
X127813436Y-130799685D01*
X128003912Y-130752066D01*
X128146770Y-130752066D01*
X128337246Y-130799685D01*
X128432484Y-130847304D01*
X128527722Y-130942542D01*
X128575341Y-131085400D01*
X128575341Y-131323495D01*
X127575341Y-130418733D02*
X127575341Y-129799685D01*
X127956293Y-130133019D01*
X127956293Y-129990161D01*
X128003912Y-129894923D01*
X128051531Y-129847304D01*
X128146770Y-129799685D01*
X128384865Y-129799685D01*
X128480103Y-129847304D01*
X128527722Y-129894923D01*
X128575341Y-129990161D01*
X128575341Y-130275876D01*
X128527722Y-130371114D01*
X128480103Y-130418733D01*
X126035341Y-131323495D02*
X125035341Y-131323495D01*
X125035341Y-131085400D01*
X125082960Y-130942542D01*
X125178198Y-130847304D01*
X125273436Y-130799685D01*
X125463912Y-130752066D01*
X125606770Y-130752066D01*
X125797246Y-130799685D01*
X125892484Y-130847304D01*
X125987722Y-130942542D01*
X126035341Y-131085400D01*
X126035341Y-131323495D01*
X125368674Y-129894923D02*
X126035341Y-129894923D01*
X124987722Y-130133019D02*
X125702008Y-130371114D01*
X125702008Y-129752066D01*
X123495341Y-131323495D02*
X122495341Y-131323495D01*
X122495341Y-131085400D01*
X122542960Y-130942542D01*
X122638198Y-130847304D01*
X122733436Y-130799685D01*
X122923912Y-130752066D01*
X123066770Y-130752066D01*
X123257246Y-130799685D01*
X123352484Y-130847304D01*
X123447722Y-130942542D01*
X123495341Y-131085400D01*
X123495341Y-131323495D01*
X122495341Y-129847304D02*
X122495341Y-130323495D01*
X122971531Y-130371114D01*
X122923912Y-130323495D01*
X122876293Y-130228257D01*
X122876293Y-129990161D01*
X122923912Y-129894923D01*
X122971531Y-129847304D01*
X123066770Y-129799685D01*
X123304865Y-129799685D01*
X123400103Y-129847304D01*
X123447722Y-129894923D01*
X123495341Y-129990161D01*
X123495341Y-130228257D01*
X123447722Y-130323495D01*
X123400103Y-130371114D01*
X120907722Y-131894924D02*
X120955341Y-131752067D01*
X120955341Y-131513971D01*
X120907722Y-131418733D01*
X120860103Y-131371114D01*
X120764865Y-131323495D01*
X120669627Y-131323495D01*
X120574389Y-131371114D01*
X120526770Y-131418733D01*
X120479150Y-131513971D01*
X120431531Y-131704448D01*
X120383912Y-131799686D01*
X120336293Y-131847305D01*
X120241055Y-131894924D01*
X120145817Y-131894924D01*
X120050579Y-131847305D01*
X120002960Y-131799686D01*
X119955341Y-131704448D01*
X119955341Y-131466352D01*
X120002960Y-131323495D01*
X120955341Y-130894924D02*
X119955341Y-130894924D01*
X119955341Y-130656829D01*
X120002960Y-130513971D01*
X120098198Y-130418733D01*
X120193436Y-130371114D01*
X120383912Y-130323495D01*
X120526770Y-130323495D01*
X120717246Y-130371114D01*
X120812484Y-130418733D01*
X120907722Y-130513971D01*
X120955341Y-130656829D01*
X120955341Y-130894924D01*
X119955341Y-129704448D02*
X119955341Y-129513971D01*
X120002960Y-129418733D01*
X120098198Y-129323495D01*
X120288674Y-129275876D01*
X120622008Y-129275876D01*
X120812484Y-129323495D01*
X120907722Y-129418733D01*
X120955341Y-129513971D01*
X120955341Y-129704448D01*
X120907722Y-129799686D01*
X120812484Y-129894924D01*
X120622008Y-129942543D01*
X120288674Y-129942543D01*
X120098198Y-129894924D01*
X120002960Y-129799686D01*
X119955341Y-129704448D01*
X118129627Y-132513972D02*
X118129627Y-132037781D01*
X118415341Y-132609210D02*
X117415341Y-132275877D01*
X118415341Y-131942543D01*
X117748674Y-131752067D02*
X117748674Y-131371115D01*
X117415341Y-131609210D02*
X118272484Y-131609210D01*
X118367722Y-131561591D01*
X118415341Y-131466353D01*
X118415341Y-131371115D01*
X117748674Y-131180638D02*
X117748674Y-130799686D01*
X117415341Y-131037781D02*
X118272484Y-131037781D01*
X118367722Y-130990162D01*
X118415341Y-130894924D01*
X118415341Y-130799686D01*
X118367722Y-130085399D02*
X118415341Y-130180637D01*
X118415341Y-130371114D01*
X118367722Y-130466352D01*
X118272484Y-130513971D01*
X117891531Y-130513971D01*
X117796293Y-130466352D01*
X117748674Y-130371114D01*
X117748674Y-130180637D01*
X117796293Y-130085399D01*
X117891531Y-130037780D01*
X117986770Y-130037780D01*
X118082008Y-130513971D01*
X117748674Y-129609209D02*
X118415341Y-129609209D01*
X117843912Y-129609209D02*
X117796293Y-129561590D01*
X117748674Y-129466352D01*
X117748674Y-129323494D01*
X117796293Y-129228256D01*
X117891531Y-129180637D01*
X118415341Y-129180637D01*
X117415341Y-128656828D02*
X117605817Y-128752066D01*
X115589627Y-131942543D02*
X115589627Y-131466352D01*
X115875341Y-132037781D02*
X114875341Y-131704448D01*
X115875341Y-131371114D01*
X115875341Y-131037781D02*
X115208674Y-131037781D01*
X115303912Y-131037781D02*
X115256293Y-130990162D01*
X115208674Y-130894924D01*
X115208674Y-130752066D01*
X115256293Y-130656828D01*
X115351531Y-130609209D01*
X115875341Y-130609209D01*
X115351531Y-130609209D02*
X115256293Y-130561590D01*
X115208674Y-130466352D01*
X115208674Y-130323495D01*
X115256293Y-130228257D01*
X115351531Y-130180638D01*
X115875341Y-130180638D01*
X115208674Y-129704448D02*
X116208674Y-129704448D01*
X115256293Y-129704448D02*
X115208674Y-129609210D01*
X115208674Y-129418733D01*
X115256293Y-129323495D01*
X115303912Y-129275876D01*
X115399150Y-129228257D01*
X115684865Y-129228257D01*
X115780103Y-129275876D01*
X115827722Y-129323495D01*
X115875341Y-129418733D01*
X115875341Y-129609210D01*
X115827722Y-129704448D01*
X113335341Y-133133019D02*
X112335341Y-133133019D01*
X112335341Y-132752066D01*
X112382960Y-132656828D01*
X112430579Y-132609209D01*
X112525817Y-132561590D01*
X112668674Y-132561590D01*
X112763912Y-132609209D01*
X112811531Y-132656828D01*
X112859150Y-132752066D01*
X112859150Y-133133019D01*
X113335341Y-132133019D02*
X112668674Y-132133019D01*
X112859150Y-132133019D02*
X112763912Y-132085400D01*
X112716293Y-132037781D01*
X112668674Y-131942543D01*
X112668674Y-131847304D01*
X113287722Y-131133018D02*
X113335341Y-131228256D01*
X113335341Y-131418733D01*
X113287722Y-131513971D01*
X113192484Y-131561590D01*
X112811531Y-131561590D01*
X112716293Y-131513971D01*
X112668674Y-131418733D01*
X112668674Y-131228256D01*
X112716293Y-131133018D01*
X112811531Y-131085399D01*
X112906770Y-131085399D01*
X113002008Y-131561590D01*
X113049627Y-130704447D02*
X113049627Y-130228256D01*
X113335341Y-130799685D02*
X112335341Y-130466352D01*
X113335341Y-130133018D01*
X113335341Y-129799685D02*
X112668674Y-129799685D01*
X112763912Y-129799685D02*
X112716293Y-129752066D01*
X112668674Y-129656828D01*
X112668674Y-129513970D01*
X112716293Y-129418732D01*
X112811531Y-129371113D01*
X113335341Y-129371113D01*
X112811531Y-129371113D02*
X112716293Y-129323494D01*
X112668674Y-129228256D01*
X112668674Y-129085399D01*
X112716293Y-128990161D01*
X112811531Y-128942542D01*
X113335341Y-128942542D01*
X112668674Y-128466352D02*
X113668674Y-128466352D01*
X112716293Y-128466352D02*
X112668674Y-128371114D01*
X112668674Y-128180637D01*
X112716293Y-128085399D01*
X112763912Y-128037780D01*
X112859150Y-127990161D01*
X113144865Y-127990161D01*
X113240103Y-128037780D01*
X113287722Y-128085399D01*
X113335341Y-128180637D01*
X113335341Y-128371114D01*
X113287722Y-128466352D01*
X144284269Y-92602501D02*
X143950935Y-92126310D01*
X143712840Y-92602501D02*
X143712840Y-91602501D01*
X144093793Y-91602501D01*
X144189031Y-91650120D01*
X144236650Y-91697739D01*
X144284269Y-91792977D01*
X144284269Y-91935834D01*
X144236650Y-92031072D01*
X144189031Y-92078691D01*
X144093793Y-92126310D01*
X143712840Y-92126310D01*
X145046174Y-92078691D02*
X144712840Y-92078691D01*
X144712840Y-92602501D02*
X144712840Y-91602501D01*
X145189031Y-91602501D01*
X145331888Y-92697739D02*
X146093793Y-92697739D01*
X146522364Y-91602501D02*
X146712841Y-91602501D01*
X146808079Y-91650120D01*
X146903317Y-91745358D01*
X146950936Y-91935834D01*
X146950936Y-92269168D01*
X146903317Y-92459644D01*
X146808079Y-92554882D01*
X146712841Y-92602501D01*
X146522364Y-92602501D01*
X146427126Y-92554882D01*
X146331888Y-92459644D01*
X146284269Y-92269168D01*
X146284269Y-91935834D01*
X146331888Y-91745358D01*
X146427126Y-91650120D01*
X146522364Y-91602501D01*
X147379507Y-91602501D02*
X147379507Y-92412025D01*
X147427126Y-92507263D01*
X147474745Y-92554882D01*
X147569983Y-92602501D01*
X147760460Y-92602501D01*
X147855698Y-92554882D01*
X147903317Y-92507263D01*
X147950936Y-92412025D01*
X147950936Y-91602501D01*
X148284269Y-91602501D02*
X148855698Y-91602501D01*
X148569983Y-92602501D02*
X148569983Y-91602501D01*
X81450936Y-92602501D02*
X81117602Y-92126310D01*
X80879507Y-92602501D02*
X80879507Y-91602501D01*
X81260460Y-91602501D01*
X81355698Y-91650120D01*
X81403317Y-91697739D01*
X81450936Y-91792977D01*
X81450936Y-91935834D01*
X81403317Y-92031072D01*
X81355698Y-92078691D01*
X81260460Y-92126310D01*
X80879507Y-92126310D01*
X82212841Y-92078691D02*
X81879507Y-92078691D01*
X81879507Y-92602501D02*
X81879507Y-91602501D01*
X82355698Y-91602501D01*
X82498555Y-92697739D02*
X83260460Y-92697739D01*
X83498555Y-92602501D02*
X83498555Y-91602501D01*
X83974745Y-92602501D02*
X83974745Y-91602501D01*
X84546174Y-92602501D01*
X84546174Y-91602501D01*
D12*
X101054286Y-120245000D02*
X101768572Y-120245000D01*
X100911429Y-120673571D02*
X101411429Y-119173571D01*
X101911429Y-120673571D01*
X102411429Y-120673571D02*
X102411429Y-119673571D01*
X102411429Y-119816429D02*
X102482857Y-119745000D01*
X102625715Y-119673571D01*
X102840000Y-119673571D01*
X102982857Y-119745000D01*
X103054286Y-119887857D01*
X103054286Y-120673571D01*
X103054286Y-119887857D02*
X103125715Y-119745000D01*
X103268572Y-119673571D01*
X103482857Y-119673571D01*
X103625715Y-119745000D01*
X103697143Y-119887857D01*
X103697143Y-120673571D01*
X104411429Y-119673571D02*
X104411429Y-121173571D01*
X104411429Y-119745000D02*
X104554286Y-119673571D01*
X104840000Y-119673571D01*
X104982857Y-119745000D01*
X105054286Y-119816429D01*
X105125715Y-119959286D01*
X105125715Y-120387857D01*
X105054286Y-120530714D01*
X104982857Y-120602143D01*
X104840000Y-120673571D01*
X104554286Y-120673571D01*
X104411429Y-120602143D01*
X101554286Y-122437857D02*
X101768572Y-122509286D01*
X101840000Y-122580714D01*
X101911429Y-122723571D01*
X101911429Y-122937857D01*
X101840000Y-123080714D01*
X101768572Y-123152143D01*
X101625714Y-123223571D01*
X101054286Y-123223571D01*
X101054286Y-121723571D01*
X101554286Y-121723571D01*
X101697143Y-121795000D01*
X101768572Y-121866429D01*
X101840000Y-122009286D01*
X101840000Y-122152143D01*
X101768572Y-122295000D01*
X101697143Y-122366429D01*
X101554286Y-122437857D01*
X101054286Y-122437857D01*
X102554286Y-123223571D02*
X102554286Y-122223571D01*
X102554286Y-121723571D02*
X102482857Y-121795000D01*
X102554286Y-121866429D01*
X102625714Y-121795000D01*
X102554286Y-121723571D01*
X102554286Y-121866429D01*
X103911429Y-123223571D02*
X103911429Y-122437857D01*
X103840000Y-122295000D01*
X103697143Y-122223571D01*
X103411429Y-122223571D01*
X103268572Y-122295000D01*
X103911429Y-123152143D02*
X103768572Y-123223571D01*
X103411429Y-123223571D01*
X103268572Y-123152143D01*
X103197143Y-123009286D01*
X103197143Y-122866429D01*
X103268572Y-122723571D01*
X103411429Y-122652143D01*
X103768572Y-122652143D01*
X103911429Y-122580714D01*
X104554286Y-123152143D02*
X104697143Y-123223571D01*
X104982858Y-123223571D01*
X105125715Y-123152143D01*
X105197143Y-123009286D01*
X105197143Y-122937857D01*
X105125715Y-122795000D01*
X104982858Y-122723571D01*
X104768572Y-122723571D01*
X104625715Y-122652143D01*
X104554286Y-122509286D01*
X104554286Y-122437857D01*
X104625715Y-122295000D01*
X104768572Y-122223571D01*
X104982858Y-122223571D01*
X105125715Y-122295000D01*
D13*
X155840000Y-135270000D02*
X156840000Y-136270000D01*
X155840000Y-136270000D02*
X155840000Y-135270000D01*
X155840000Y-135270000D02*
X155840000Y-136270000D01*
X155840000Y-138270000D02*
X155840000Y-135270000D01*
X69840000Y-136270000D02*
X70840000Y-137270000D01*
X68840000Y-137270000D02*
X69840000Y-136270000D01*
X69840000Y-136270000D02*
X68840000Y-137270000D01*
X69840000Y-139270000D02*
X69840000Y-136270000D01*
X69840000Y-136270000D02*
X69840000Y-139270000D01*
X152840000Y-130270000D02*
X153840000Y-131270000D01*
X153840000Y-129270000D02*
X152840000Y-130270000D01*
X152840000Y-130270000D02*
X153840000Y-129270000D01*
X155840000Y-130270000D02*
X152840000Y-130270000D01*
X72840000Y-130270000D02*
X71840000Y-131270000D01*
X71840000Y-129270000D02*
X72840000Y-130270000D01*
X72840000Y-130270000D02*
X71840000Y-129270000D01*
X69840000Y-130270000D02*
X72840000Y-130270000D01*
D12*
X75754501Y-120351571D02*
X75754501Y-118851571D01*
X76325929Y-118851571D01*
X76468787Y-118923000D01*
X76540215Y-118994429D01*
X76611644Y-119137286D01*
X76611644Y-119351571D01*
X76540215Y-119494429D01*
X76468787Y-119565857D01*
X76325929Y-119637286D01*
X75754501Y-119637286D01*
X77254501Y-120351571D02*
X77254501Y-119351571D01*
X77254501Y-119637286D02*
X77325929Y-119494429D01*
X77397358Y-119423000D01*
X77540215Y-119351571D01*
X77683072Y-119351571D01*
X78754500Y-120280143D02*
X78611643Y-120351571D01*
X78325929Y-120351571D01*
X78183072Y-120280143D01*
X78111643Y-120137286D01*
X78111643Y-119565857D01*
X78183072Y-119423000D01*
X78325929Y-119351571D01*
X78611643Y-119351571D01*
X78754500Y-119423000D01*
X78825929Y-119565857D01*
X78825929Y-119708714D01*
X78111643Y-119851571D01*
X79468786Y-119780143D02*
X80611643Y-119780143D01*
X81254500Y-119923000D02*
X81968786Y-119923000D01*
X81111643Y-120351571D02*
X81611643Y-118851571D01*
X82111643Y-120351571D01*
X82611643Y-120351571D02*
X82611643Y-119351571D01*
X82611643Y-119494429D02*
X82683071Y-119423000D01*
X82825929Y-119351571D01*
X83040214Y-119351571D01*
X83183071Y-119423000D01*
X83254500Y-119565857D01*
X83254500Y-120351571D01*
X83254500Y-119565857D02*
X83325929Y-119423000D01*
X83468786Y-119351571D01*
X83683071Y-119351571D01*
X83825929Y-119423000D01*
X83897357Y-119565857D01*
X83897357Y-120351571D01*
X84611643Y-119351571D02*
X84611643Y-120851571D01*
X84611643Y-119423000D02*
X84754500Y-119351571D01*
X85040214Y-119351571D01*
X85183071Y-119423000D01*
X85254500Y-119494429D01*
X85325929Y-119637286D01*
X85325929Y-120065857D01*
X85254500Y-120208714D01*
X85183071Y-120280143D01*
X85040214Y-120351571D01*
X84754500Y-120351571D01*
X84611643Y-120280143D01*
X78968786Y-122115857D02*
X79183072Y-122187286D01*
X79254500Y-122258714D01*
X79325929Y-122401571D01*
X79325929Y-122615857D01*
X79254500Y-122758714D01*
X79183072Y-122830143D01*
X79040214Y-122901571D01*
X78468786Y-122901571D01*
X78468786Y-121401571D01*
X78968786Y-121401571D01*
X79111643Y-121473000D01*
X79183072Y-121544429D01*
X79254500Y-121687286D01*
X79254500Y-121830143D01*
X79183072Y-121973000D01*
X79111643Y-122044429D01*
X78968786Y-122115857D01*
X78468786Y-122115857D01*
X79968786Y-122901571D02*
X79968786Y-121901571D01*
X79968786Y-121401571D02*
X79897357Y-121473000D01*
X79968786Y-121544429D01*
X80040214Y-121473000D01*
X79968786Y-121401571D01*
X79968786Y-121544429D01*
X81325929Y-122901571D02*
X81325929Y-122115857D01*
X81254500Y-121973000D01*
X81111643Y-121901571D01*
X80825929Y-121901571D01*
X80683072Y-121973000D01*
X81325929Y-122830143D02*
X81183072Y-122901571D01*
X80825929Y-122901571D01*
X80683072Y-122830143D01*
X80611643Y-122687286D01*
X80611643Y-122544429D01*
X80683072Y-122401571D01*
X80825929Y-122330143D01*
X81183072Y-122330143D01*
X81325929Y-122258714D01*
X81968786Y-122830143D02*
X82111643Y-122901571D01*
X82397358Y-122901571D01*
X82540215Y-122830143D01*
X82611643Y-122687286D01*
X82611643Y-122615857D01*
X82540215Y-122473000D01*
X82397358Y-122401571D01*
X82183072Y-122401571D01*
X82040215Y-122330143D01*
X81968786Y-122187286D01*
X81968786Y-122115857D01*
X82040215Y-121973000D01*
X82183072Y-121901571D01*
X82397358Y-121901571D01*
X82540215Y-121973000D01*
D14*
X107589000Y-154942000D02*
X105589000Y-154942000D01*
X105589000Y-156982000D02*
X107589000Y-156982000D01*
X82386460Y-156962740D02*
X84386460Y-156962740D01*
X84386460Y-154922740D02*
X82386460Y-154922740D01*
X149772960Y-176983400D02*
X111552960Y-176983400D01*
X111552960Y-176983400D02*
X111552960Y-179643400D01*
X149772960Y-179643400D02*
X149772960Y-176983400D01*
X148822960Y-176653400D02*
X148822960Y-176983400D01*
X148062960Y-176653400D02*
X148062960Y-176983400D01*
X147172960Y-176983400D02*
X147172960Y-179643400D01*
X146282960Y-176586329D02*
X146282960Y-176983400D01*
X145522960Y-176586329D02*
X145522960Y-176983400D01*
X144632960Y-176983400D02*
X144632960Y-179643400D01*
X143742960Y-176586329D02*
X143742960Y-176983400D01*
X142982960Y-176586329D02*
X142982960Y-176983400D01*
X142092960Y-176983400D02*
X142092960Y-179643400D01*
X141202960Y-176586329D02*
X141202960Y-176983400D01*
X140442960Y-176586329D02*
X140442960Y-176983400D01*
X139552960Y-176983400D02*
X139552960Y-179643400D01*
X138662960Y-176586329D02*
X138662960Y-176983400D01*
X137902960Y-176586329D02*
X137902960Y-176983400D01*
X137012960Y-176983400D02*
X137012960Y-179643400D01*
X136122960Y-176586329D02*
X136122960Y-176983400D01*
X135362960Y-176586329D02*
X135362960Y-176983400D01*
X134472960Y-176983400D02*
X134472960Y-179643400D01*
X133582960Y-176586329D02*
X133582960Y-176983400D01*
X132822960Y-176586329D02*
X132822960Y-176983400D01*
X131932960Y-176983400D02*
X131932960Y-179643400D01*
X131042960Y-176586329D02*
X131042960Y-176983400D01*
X130282960Y-176586329D02*
X130282960Y-176983400D01*
X129392960Y-176983400D02*
X129392960Y-179643400D01*
X128502960Y-176586329D02*
X128502960Y-176983400D01*
X127742960Y-176586329D02*
X127742960Y-176983400D01*
X126852960Y-176983400D02*
X126852960Y-179643400D01*
X125962960Y-176586329D02*
X125962960Y-176983400D01*
X125202960Y-176586329D02*
X125202960Y-176983400D01*
X124312960Y-176983400D02*
X124312960Y-179643400D01*
X123422960Y-176586329D02*
X123422960Y-176983400D01*
X122662960Y-176586329D02*
X122662960Y-176983400D01*
X121772960Y-176983400D02*
X121772960Y-179643400D01*
X120882960Y-176586329D02*
X120882960Y-176983400D01*
X120122960Y-176586329D02*
X120122960Y-176983400D01*
X119232960Y-176983400D02*
X119232960Y-179643400D01*
X118342960Y-176586329D02*
X118342960Y-176983400D01*
X117582960Y-176586329D02*
X117582960Y-176983400D01*
X116692960Y-176983400D02*
X116692960Y-179643400D01*
X115802960Y-176586329D02*
X115802960Y-176983400D01*
X115042960Y-176586329D02*
X115042960Y-176983400D01*
X114152960Y-176983400D02*
X114152960Y-179643400D01*
X113262960Y-176586329D02*
X113262960Y-176983400D01*
X112502960Y-176586329D02*
X112502960Y-176983400D01*
X148442960Y-174273400D02*
X149712960Y-174273400D01*
X149712960Y-174273400D02*
X149712960Y-175543400D01*
X102190000Y-152028000D02*
X103390000Y-152028000D01*
X103390000Y-153788000D02*
X102190000Y-153788000D01*
X114482400Y-144457000D02*
X112482400Y-144457000D01*
X112482400Y-142317000D02*
X114482400Y-142317000D01*
X102187320Y-144470440D02*
X100187320Y-144470440D01*
X100187320Y-142330440D02*
X102187320Y-142330440D01*
X102690000Y-151628000D02*
X100690000Y-151628000D01*
X100690000Y-149488000D02*
X102690000Y-149488000D01*
X94196480Y-144480600D02*
X92196480Y-144480600D01*
X92196480Y-142340600D02*
X94196480Y-142340600D01*
X115040500Y-140012100D02*
X115040500Y-142012100D01*
X117080500Y-142012100D02*
X117080500Y-140012100D01*
X115945120Y-168567800D02*
X115945120Y-166567800D01*
X113905120Y-166567800D02*
X113905120Y-168567800D01*
X110252600Y-140024800D02*
X110252600Y-142024800D01*
X112292600Y-142024800D02*
X112292600Y-140024800D01*
X102873900Y-140062900D02*
X102873900Y-142062900D01*
X104913900Y-142062900D02*
X104913900Y-140062900D01*
X104885000Y-147058000D02*
X104885000Y-145058000D01*
X102845000Y-145058000D02*
X102845000Y-147058000D01*
X94975560Y-140020460D02*
X94975560Y-142020460D01*
X97015560Y-142020460D02*
X97015560Y-140020460D01*
X96460000Y-168808000D02*
X96460000Y-166808000D01*
X94420000Y-166808000D02*
X94420000Y-168808000D01*
X89420000Y-140008000D02*
X89420000Y-142008000D01*
X91460000Y-142008000D02*
X91460000Y-140008000D01*
X121163900Y-144498900D02*
X116863900Y-144498900D01*
X121163900Y-142198900D02*
X116863900Y-142198900D01*
X121163900Y-144498900D02*
X121163900Y-142198900D01*
X100491900Y-144560600D02*
X96191900Y-144560600D01*
X100491900Y-142260600D02*
X96191900Y-142260600D01*
X100491900Y-144560600D02*
X100491900Y-142260600D01*
X122957000Y-162241000D02*
X122957000Y-163941000D01*
X123007000Y-163941000D02*
X127057000Y-163941000D01*
X123007000Y-162241000D02*
X127057000Y-162241000D01*
X100357000Y-165241000D02*
X100357000Y-166941000D01*
X100407000Y-166941000D02*
X104457000Y-166941000D01*
X100407000Y-165241000D02*
X104457000Y-165241000D01*
X76954460Y-165092740D02*
X76954460Y-166792740D01*
X77004460Y-166792740D02*
X81054460Y-166792740D01*
X77004460Y-165092740D02*
X81054460Y-165092740D01*
X108958300Y-139852600D02*
X110158300Y-139852600D01*
X110158300Y-139852600D02*
X110158300Y-142552600D01*
X105358300Y-143852600D02*
X105358300Y-139852600D01*
X105358300Y-139852600D02*
X106558300Y-139852600D01*
X124827000Y-157091000D02*
X124827000Y-159091000D01*
X122687000Y-159091000D02*
X122687000Y-157091000D01*
X102427000Y-159591000D02*
X102427000Y-161591000D01*
X100287000Y-161591000D02*
X100287000Y-159591000D01*
X107589000Y-163813800D02*
X105589000Y-163813800D01*
X105589000Y-161673800D02*
X107589000Y-161673800D01*
X84386460Y-163997740D02*
X82386460Y-163997740D01*
X82386460Y-161857740D02*
X84386460Y-161857740D01*
X78924460Y-159742740D02*
X78924460Y-161742740D01*
X76784460Y-161742740D02*
X76784460Y-159742740D01*
X107589000Y-158980600D02*
X105589000Y-158980600D01*
X105589000Y-161020600D02*
X107589000Y-161020600D01*
X107589000Y-156948600D02*
X105589000Y-156948600D01*
X105589000Y-158988600D02*
X107589000Y-158988600D01*
X82386460Y-161026740D02*
X84386460Y-161026740D01*
X84386460Y-158986740D02*
X82386460Y-158986740D01*
X82386460Y-158994740D02*
X84386460Y-158994740D01*
X84386460Y-156954740D02*
X82386460Y-156954740D01*
D15*
X133955100Y-148167800D02*
X133955100Y-147642800D01*
X138255100Y-143867800D02*
X138255100Y-144392800D01*
X133955100Y-143867800D02*
X133955100Y-144392800D01*
X138255100Y-148167800D02*
X137730100Y-148167800D01*
X138255100Y-143867800D02*
X137730100Y-143867800D01*
X133955100Y-143867800D02*
X134480100Y-143867800D01*
X133955100Y-148167800D02*
X134480100Y-148167800D01*
D14*
X126089000Y-157144000D02*
X126089000Y-159144000D01*
X128139000Y-159144000D02*
X128139000Y-157144000D01*
X94137000Y-160931000D02*
X94137000Y-162131000D01*
X92377000Y-162131000D02*
X92377000Y-160931000D01*
X118046500Y-160686500D02*
X118046500Y-161886500D01*
X116286500Y-161886500D02*
X116286500Y-160686500D01*
X118046500Y-110648500D02*
X118046500Y-111848500D01*
X116286500Y-111848500D02*
X116286500Y-110648500D01*
X94137000Y-110893000D02*
X94137000Y-112093000D01*
X92377000Y-112093000D02*
X92377000Y-110893000D01*
X126089000Y-107106000D02*
X126089000Y-109106000D01*
X128139000Y-109106000D02*
X128139000Y-107106000D01*
D15*
X133955100Y-98129800D02*
X133955100Y-97604800D01*
X138255100Y-93829800D02*
X138255100Y-94354800D01*
X133955100Y-93829800D02*
X133955100Y-94354800D01*
X138255100Y-98129800D02*
X137730100Y-98129800D01*
X138255100Y-93829800D02*
X137730100Y-93829800D01*
X133955100Y-93829800D02*
X134480100Y-93829800D01*
X133955100Y-98129800D02*
X134480100Y-98129800D01*
D14*
X82386460Y-108956740D02*
X84386460Y-108956740D01*
X84386460Y-106916740D02*
X82386460Y-106916740D01*
X82386460Y-110988740D02*
X84386460Y-110988740D01*
X84386460Y-108948740D02*
X82386460Y-108948740D01*
X107589000Y-106910600D02*
X105589000Y-106910600D01*
X105589000Y-108950600D02*
X107589000Y-108950600D01*
X107589000Y-108942600D02*
X105589000Y-108942600D01*
X105589000Y-110982600D02*
X107589000Y-110982600D01*
X78924460Y-109704740D02*
X78924460Y-111704740D01*
X76784460Y-111704740D02*
X76784460Y-109704740D01*
X84386460Y-113959740D02*
X82386460Y-113959740D01*
X82386460Y-111819740D02*
X84386460Y-111819740D01*
X107589000Y-113775800D02*
X105589000Y-113775800D01*
X105589000Y-111635800D02*
X107589000Y-111635800D01*
X102427000Y-109553000D02*
X102427000Y-111553000D01*
X100287000Y-111553000D02*
X100287000Y-109553000D01*
X124827000Y-107053000D02*
X124827000Y-109053000D01*
X122687000Y-109053000D02*
X122687000Y-107053000D01*
X108958300Y-89814600D02*
X110158300Y-89814600D01*
X110158300Y-89814600D02*
X110158300Y-92514600D01*
X105358300Y-93814600D02*
X105358300Y-89814600D01*
X105358300Y-89814600D02*
X106558300Y-89814600D01*
X76954460Y-115054740D02*
X76954460Y-116754740D01*
X77004460Y-116754740D02*
X81054460Y-116754740D01*
X77004460Y-115054740D02*
X81054460Y-115054740D01*
X100357000Y-115203000D02*
X100357000Y-116903000D01*
X100407000Y-116903000D02*
X104457000Y-116903000D01*
X100407000Y-115203000D02*
X104457000Y-115203000D01*
X122957000Y-112203000D02*
X122957000Y-113903000D01*
X123007000Y-113903000D02*
X127057000Y-113903000D01*
X123007000Y-112203000D02*
X127057000Y-112203000D01*
X100491900Y-94522600D02*
X96191900Y-94522600D01*
X100491900Y-92222600D02*
X96191900Y-92222600D01*
X100491900Y-94522600D02*
X100491900Y-92222600D01*
X121163900Y-94460900D02*
X116863900Y-94460900D01*
X121163900Y-92160900D02*
X116863900Y-92160900D01*
X121163900Y-94460900D02*
X121163900Y-92160900D01*
X89420000Y-89970000D02*
X89420000Y-91970000D01*
X91460000Y-91970000D02*
X91460000Y-89970000D01*
X96460000Y-118770000D02*
X96460000Y-116770000D01*
X94420000Y-116770000D02*
X94420000Y-118770000D01*
X94975560Y-89982460D02*
X94975560Y-91982460D01*
X97015560Y-91982460D02*
X97015560Y-89982460D01*
X104885000Y-97020000D02*
X104885000Y-95020000D01*
X102845000Y-95020000D02*
X102845000Y-97020000D01*
X102873900Y-90024900D02*
X102873900Y-92024900D01*
X104913900Y-92024900D02*
X104913900Y-90024900D01*
X110252600Y-89986800D02*
X110252600Y-91986800D01*
X112292600Y-91986800D02*
X112292600Y-89986800D01*
X115945120Y-118529800D02*
X115945120Y-116529800D01*
X113905120Y-116529800D02*
X113905120Y-118529800D01*
X115040500Y-89974100D02*
X115040500Y-91974100D01*
X117080500Y-91974100D02*
X117080500Y-89974100D01*
X94196480Y-94442600D02*
X92196480Y-94442600D01*
X92196480Y-92302600D02*
X94196480Y-92302600D01*
X102690000Y-101590000D02*
X100690000Y-101590000D01*
X100690000Y-99450000D02*
X102690000Y-99450000D01*
X102187320Y-94432440D02*
X100187320Y-94432440D01*
X100187320Y-92292440D02*
X102187320Y-92292440D01*
X114482400Y-94419000D02*
X112482400Y-94419000D01*
X112482400Y-92279000D02*
X114482400Y-92279000D01*
X102190000Y-101990000D02*
X103390000Y-101990000D01*
X103390000Y-103750000D02*
X102190000Y-103750000D01*
X149772960Y-126945400D02*
X111552960Y-126945400D01*
X111552960Y-126945400D02*
X111552960Y-129605400D01*
X149772960Y-129605400D02*
X149772960Y-126945400D01*
X148822960Y-126615400D02*
X148822960Y-126945400D01*
X148062960Y-126615400D02*
X148062960Y-126945400D01*
X147172960Y-126945400D02*
X147172960Y-129605400D01*
X146282960Y-126548329D02*
X146282960Y-126945400D01*
X145522960Y-126548329D02*
X145522960Y-126945400D01*
X144632960Y-126945400D02*
X144632960Y-129605400D01*
X143742960Y-126548329D02*
X143742960Y-126945400D01*
X142982960Y-126548329D02*
X142982960Y-126945400D01*
X142092960Y-126945400D02*
X142092960Y-129605400D01*
X141202960Y-126548329D02*
X141202960Y-126945400D01*
X140442960Y-126548329D02*
X140442960Y-126945400D01*
X139552960Y-126945400D02*
X139552960Y-129605400D01*
X138662960Y-126548329D02*
X138662960Y-126945400D01*
X137902960Y-126548329D02*
X137902960Y-126945400D01*
X137012960Y-126945400D02*
X137012960Y-129605400D01*
X136122960Y-126548329D02*
X136122960Y-126945400D01*
X135362960Y-126548329D02*
X135362960Y-126945400D01*
X134472960Y-126945400D02*
X134472960Y-129605400D01*
X133582960Y-126548329D02*
X133582960Y-126945400D01*
X132822960Y-126548329D02*
X132822960Y-126945400D01*
X131932960Y-126945400D02*
X131932960Y-129605400D01*
X131042960Y-126548329D02*
X131042960Y-126945400D01*
X130282960Y-126548329D02*
X130282960Y-126945400D01*
X129392960Y-126945400D02*
X129392960Y-129605400D01*
X128502960Y-126548329D02*
X128502960Y-126945400D01*
X127742960Y-126548329D02*
X127742960Y-126945400D01*
X126852960Y-126945400D02*
X126852960Y-129605400D01*
X125962960Y-126548329D02*
X125962960Y-126945400D01*
X125202960Y-126548329D02*
X125202960Y-126945400D01*
X124312960Y-126945400D02*
X124312960Y-129605400D01*
X123422960Y-126548329D02*
X123422960Y-126945400D01*
X122662960Y-126548329D02*
X122662960Y-126945400D01*
X121772960Y-126945400D02*
X121772960Y-129605400D01*
X120882960Y-126548329D02*
X120882960Y-126945400D01*
X120122960Y-126548329D02*
X120122960Y-126945400D01*
X119232960Y-126945400D02*
X119232960Y-129605400D01*
X118342960Y-126548329D02*
X118342960Y-126945400D01*
X117582960Y-126548329D02*
X117582960Y-126945400D01*
X116692960Y-126945400D02*
X116692960Y-129605400D01*
X115802960Y-126548329D02*
X115802960Y-126945400D01*
X115042960Y-126548329D02*
X115042960Y-126945400D01*
X114152960Y-126945400D02*
X114152960Y-129605400D01*
X113262960Y-126548329D02*
X113262960Y-126945400D01*
X112502960Y-126548329D02*
X112502960Y-126945400D01*
X148442960Y-124235400D02*
X149712960Y-124235400D01*
X149712960Y-124235400D02*
X149712960Y-125505400D01*
X82386460Y-106924740D02*
X84386460Y-106924740D01*
X84386460Y-104884740D02*
X82386460Y-104884740D01*
X107589000Y-104904000D02*
X105589000Y-104904000D01*
X105589000Y-106944000D02*
X107589000Y-106944000D01*
D15*
X110670543Y-156344543D02*
X110622924Y-156392162D01*
X110480067Y-156439781D01*
X110384829Y-156439781D01*
X110241971Y-156392162D01*
X110146733Y-156296924D01*
X110099114Y-156201686D01*
X110051495Y-156011210D01*
X110051495Y-155868352D01*
X110099114Y-155677876D01*
X110146733Y-155582638D01*
X110241971Y-155487400D01*
X110384829Y-155439781D01*
X110480067Y-155439781D01*
X110622924Y-155487400D01*
X110670543Y-155535019D01*
X111622924Y-156439781D02*
X111051495Y-156439781D01*
X111337209Y-156439781D02*
X111337209Y-155439781D01*
X111241971Y-155582638D01*
X111146733Y-155677876D01*
X111051495Y-155725495D01*
X111956257Y-155439781D02*
X112622924Y-155439781D01*
X112194352Y-156439781D01*
X87353343Y-156293743D02*
X87305724Y-156341362D01*
X87162867Y-156388981D01*
X87067629Y-156388981D01*
X86924771Y-156341362D01*
X86829533Y-156246124D01*
X86781914Y-156150886D01*
X86734295Y-155960410D01*
X86734295Y-155817552D01*
X86781914Y-155627076D01*
X86829533Y-155531838D01*
X86924771Y-155436600D01*
X87067629Y-155388981D01*
X87162867Y-155388981D01*
X87305724Y-155436600D01*
X87353343Y-155484219D01*
X88305724Y-156388981D02*
X87734295Y-156388981D01*
X88020009Y-156388981D02*
X88020009Y-155388981D01*
X87924771Y-155531838D01*
X87829533Y-155627076D01*
X87734295Y-155674695D01*
X89162867Y-155388981D02*
X88972390Y-155388981D01*
X88877152Y-155436600D01*
X88829533Y-155484219D01*
X88734295Y-155627076D01*
X88686676Y-155817552D01*
X88686676Y-156198505D01*
X88734295Y-156293743D01*
X88781914Y-156341362D01*
X88877152Y-156388981D01*
X89067629Y-156388981D01*
X89162867Y-156341362D01*
X89210486Y-156293743D01*
X89258105Y-156198505D01*
X89258105Y-155960410D01*
X89210486Y-155865171D01*
X89162867Y-155817552D01*
X89067629Y-155769933D01*
X88877152Y-155769933D01*
X88781914Y-155817552D01*
X88734295Y-155865171D01*
X88686676Y-155960410D01*
X151165341Y-180666495D02*
X150165341Y-180666495D01*
X150165341Y-180285542D01*
X150212960Y-180190304D01*
X150260579Y-180142685D01*
X150355817Y-180095066D01*
X150498674Y-180095066D01*
X150593912Y-180142685D01*
X150641531Y-180190304D01*
X150689150Y-180285542D01*
X150689150Y-180666495D01*
X151165341Y-179142685D02*
X151165341Y-179714114D01*
X151165341Y-179428400D02*
X150165341Y-179428400D01*
X150308198Y-179523638D01*
X150403436Y-179618876D01*
X150451055Y-179714114D01*
X102623334Y-155060381D02*
X102147143Y-155060381D01*
X102147143Y-154060381D01*
X103432858Y-154060381D02*
X102956667Y-154060381D01*
X102909048Y-154536571D01*
X102956667Y-154488952D01*
X103051905Y-154441333D01*
X103290001Y-154441333D01*
X103385239Y-154488952D01*
X103432858Y-154536571D01*
X103480477Y-154631810D01*
X103480477Y-154869905D01*
X103432858Y-154965143D01*
X103385239Y-155012762D01*
X103290001Y-155060381D01*
X103051905Y-155060381D01*
X102956667Y-155012762D01*
X102909048Y-154965143D01*
X113315734Y-141989381D02*
X112982400Y-141513190D01*
X112744305Y-141989381D02*
X112744305Y-140989381D01*
X113125258Y-140989381D01*
X113220496Y-141037000D01*
X113268115Y-141084619D01*
X113315734Y-141179857D01*
X113315734Y-141322714D01*
X113268115Y-141417952D01*
X113220496Y-141465571D01*
X113125258Y-141513190D01*
X112744305Y-141513190D01*
X113791924Y-141989381D02*
X113982400Y-141989381D01*
X114077639Y-141941762D01*
X114125258Y-141894143D01*
X114220496Y-141751286D01*
X114268115Y-141560810D01*
X114268115Y-141179857D01*
X114220496Y-141084619D01*
X114172877Y-141037000D01*
X114077639Y-140989381D01*
X113887162Y-140989381D01*
X113791924Y-141037000D01*
X113744305Y-141084619D01*
X113696686Y-141179857D01*
X113696686Y-141417952D01*
X113744305Y-141513190D01*
X113791924Y-141560810D01*
X113887162Y-141608429D01*
X114077639Y-141608429D01*
X114172877Y-141560810D01*
X114220496Y-141513190D01*
X114268115Y-141417952D01*
X101020654Y-142002821D02*
X100687320Y-141526630D01*
X100449225Y-142002821D02*
X100449225Y-141002821D01*
X100830178Y-141002821D01*
X100925416Y-141050440D01*
X100973035Y-141098059D01*
X101020654Y-141193297D01*
X101020654Y-141336154D01*
X100973035Y-141431392D01*
X100925416Y-141479011D01*
X100830178Y-141526630D01*
X100449225Y-141526630D01*
X101592082Y-141431392D02*
X101496844Y-141383773D01*
X101449225Y-141336154D01*
X101401606Y-141240916D01*
X101401606Y-141193297D01*
X101449225Y-141098059D01*
X101496844Y-141050440D01*
X101592082Y-141002821D01*
X101782559Y-141002821D01*
X101877797Y-141050440D01*
X101925416Y-141098059D01*
X101973035Y-141193297D01*
X101973035Y-141240916D01*
X101925416Y-141336154D01*
X101877797Y-141383773D01*
X101782559Y-141431392D01*
X101592082Y-141431392D01*
X101496844Y-141479011D01*
X101449225Y-141526630D01*
X101401606Y-141621869D01*
X101401606Y-141812345D01*
X101449225Y-141907583D01*
X101496844Y-141955202D01*
X101592082Y-142002821D01*
X101782559Y-142002821D01*
X101877797Y-141955202D01*
X101925416Y-141907583D01*
X101973035Y-141812345D01*
X101973035Y-141621869D01*
X101925416Y-141526630D01*
X101877797Y-141479011D01*
X101782559Y-141431392D01*
X101523334Y-149160381D02*
X101190000Y-148684190D01*
X100951905Y-149160381D02*
X100951905Y-148160381D01*
X101332858Y-148160381D01*
X101428096Y-148208000D01*
X101475715Y-148255619D01*
X101523334Y-148350857D01*
X101523334Y-148493714D01*
X101475715Y-148588952D01*
X101428096Y-148636571D01*
X101332858Y-148684190D01*
X100951905Y-148684190D01*
X101856667Y-148160381D02*
X102523334Y-148160381D01*
X102094762Y-149160381D01*
X93029814Y-142012981D02*
X92696480Y-141536790D01*
X92458385Y-142012981D02*
X92458385Y-141012981D01*
X92839338Y-141012981D01*
X92934576Y-141060600D01*
X92982195Y-141108219D01*
X93029814Y-141203457D01*
X93029814Y-141346314D01*
X92982195Y-141441552D01*
X92934576Y-141489171D01*
X92839338Y-141536790D01*
X92458385Y-141536790D01*
X93886957Y-141012981D02*
X93696480Y-141012981D01*
X93601242Y-141060600D01*
X93553623Y-141108219D01*
X93458385Y-141251076D01*
X93410766Y-141441552D01*
X93410766Y-141822505D01*
X93458385Y-141917743D01*
X93506004Y-141965362D01*
X93601242Y-142012981D01*
X93791719Y-142012981D01*
X93886957Y-141965362D01*
X93934576Y-141917743D01*
X93982195Y-141822505D01*
X93982195Y-141584410D01*
X93934576Y-141489171D01*
X93886957Y-141441552D01*
X93791719Y-141393933D01*
X93601242Y-141393933D01*
X93506004Y-141441552D01*
X93458385Y-141489171D01*
X93410766Y-141584410D01*
X115364303Y-137429703D02*
X115316684Y-137477322D01*
X115173827Y-137524941D01*
X115078589Y-137524941D01*
X114935731Y-137477322D01*
X114840493Y-137382084D01*
X114792874Y-137286846D01*
X114745255Y-137096370D01*
X114745255Y-136953512D01*
X114792874Y-136763036D01*
X114840493Y-136667798D01*
X114935731Y-136572560D01*
X115078589Y-136524941D01*
X115173827Y-136524941D01*
X115316684Y-136572560D01*
X115364303Y-136620179D01*
X116316684Y-137524941D02*
X115745255Y-137524941D01*
X116030969Y-137524941D02*
X116030969Y-136524941D01*
X115935731Y-136667798D01*
X115840493Y-136763036D01*
X115745255Y-136810655D01*
X117221446Y-136524941D02*
X116745255Y-136524941D01*
X116697636Y-137001131D01*
X116745255Y-136953512D01*
X116840493Y-136905893D01*
X117078589Y-136905893D01*
X117173827Y-136953512D01*
X117221446Y-137001131D01*
X117269065Y-137096370D01*
X117269065Y-137334465D01*
X117221446Y-137429703D01*
X117173827Y-137477322D01*
X117078589Y-137524941D01*
X116840493Y-137524941D01*
X116745255Y-137477322D01*
X116697636Y-137429703D01*
X113377263Y-168012537D02*
X113424882Y-168060156D01*
X113472501Y-168203013D01*
X113472501Y-168298251D01*
X113424882Y-168441109D01*
X113329644Y-168536347D01*
X113234406Y-168583966D01*
X113043930Y-168631585D01*
X112901072Y-168631585D01*
X112710596Y-168583966D01*
X112615358Y-168536347D01*
X112520120Y-168441109D01*
X112472501Y-168298251D01*
X112472501Y-168203013D01*
X112520120Y-168060156D01*
X112567739Y-168012537D01*
X113472501Y-167060156D02*
X113472501Y-167631585D01*
X113472501Y-167345871D02*
X112472501Y-167345871D01*
X112615358Y-167441109D01*
X112710596Y-167536347D01*
X112758215Y-167631585D01*
X112805834Y-166203013D02*
X113472501Y-166203013D01*
X112424882Y-166441109D02*
X113139168Y-166679204D01*
X113139168Y-166060156D01*
X110584023Y-137510983D02*
X110536404Y-137558602D01*
X110393547Y-137606221D01*
X110298309Y-137606221D01*
X110155451Y-137558602D01*
X110060213Y-137463364D01*
X110012594Y-137368126D01*
X109964975Y-137177650D01*
X109964975Y-137034792D01*
X110012594Y-136844316D01*
X110060213Y-136749078D01*
X110155451Y-136653840D01*
X110298309Y-136606221D01*
X110393547Y-136606221D01*
X110536404Y-136653840D01*
X110584023Y-136701459D01*
X111536404Y-137606221D02*
X110964975Y-137606221D01*
X111250689Y-137606221D02*
X111250689Y-136606221D01*
X111155451Y-136749078D01*
X111060213Y-136844316D01*
X110964975Y-136891935D01*
X111869737Y-136606221D02*
X112488785Y-136606221D01*
X112155451Y-136987173D01*
X112298309Y-136987173D01*
X112393547Y-137034792D01*
X112441166Y-137082411D01*
X112488785Y-137177650D01*
X112488785Y-137415745D01*
X112441166Y-137510983D01*
X112393547Y-137558602D01*
X112298309Y-137606221D01*
X112012594Y-137606221D01*
X111917356Y-137558602D01*
X111869737Y-137510983D01*
X103151983Y-137455103D02*
X103104364Y-137502722D01*
X102961507Y-137550341D01*
X102866269Y-137550341D01*
X102723411Y-137502722D01*
X102628173Y-137407484D01*
X102580554Y-137312246D01*
X102532935Y-137121770D01*
X102532935Y-136978912D01*
X102580554Y-136788436D01*
X102628173Y-136693198D01*
X102723411Y-136597960D01*
X102866269Y-136550341D01*
X102961507Y-136550341D01*
X103104364Y-136597960D01*
X103151983Y-136645579D01*
X104104364Y-137550341D02*
X103532935Y-137550341D01*
X103818649Y-137550341D02*
X103818649Y-136550341D01*
X103723411Y-136693198D01*
X103628173Y-136788436D01*
X103532935Y-136836055D01*
X104485316Y-136645579D02*
X104532935Y-136597960D01*
X104628173Y-136550341D01*
X104866269Y-136550341D01*
X104961507Y-136597960D01*
X105009126Y-136645579D01*
X105056745Y-136740817D01*
X105056745Y-136836055D01*
X105009126Y-136978912D01*
X104437697Y-137550341D01*
X105056745Y-137550341D01*
X102322143Y-146825857D02*
X102369762Y-146873476D01*
X102417381Y-147016333D01*
X102417381Y-147111571D01*
X102369762Y-147254429D01*
X102274524Y-147349667D01*
X102179286Y-147397286D01*
X101988810Y-147444905D01*
X101845952Y-147444905D01*
X101655476Y-147397286D01*
X101560238Y-147349667D01*
X101465000Y-147254429D01*
X101417381Y-147111571D01*
X101417381Y-147016333D01*
X101465000Y-146873476D01*
X101512619Y-146825857D01*
X102417381Y-145873476D02*
X102417381Y-146444905D01*
X102417381Y-146159191D02*
X101417381Y-146159191D01*
X101560238Y-146254429D01*
X101655476Y-146349667D01*
X101703095Y-146444905D01*
X102417381Y-144921095D02*
X102417381Y-145492524D01*
X102417381Y-145206810D02*
X101417381Y-145206810D01*
X101560238Y-145302048D01*
X101655476Y-145397286D01*
X101703095Y-145492524D01*
X95383183Y-137293283D02*
X95335564Y-137340902D01*
X95192707Y-137388521D01*
X95097469Y-137388521D01*
X94954611Y-137340902D01*
X94859373Y-137245664D01*
X94811754Y-137150426D01*
X94764135Y-136959950D01*
X94764135Y-136817092D01*
X94811754Y-136626616D01*
X94859373Y-136531378D01*
X94954611Y-136436140D01*
X95097469Y-136388521D01*
X95192707Y-136388521D01*
X95335564Y-136436140D01*
X95383183Y-136483759D01*
X96335564Y-137388521D02*
X95764135Y-137388521D01*
X96049849Y-137388521D02*
X96049849Y-136388521D01*
X95954611Y-136531378D01*
X95859373Y-136626616D01*
X95764135Y-136674235D01*
X96954611Y-136388521D02*
X97049850Y-136388521D01*
X97145088Y-136436140D01*
X97192707Y-136483759D01*
X97240326Y-136578997D01*
X97287945Y-136769473D01*
X97287945Y-137007569D01*
X97240326Y-137198045D01*
X97192707Y-137293283D01*
X97145088Y-137340902D01*
X97049850Y-137388521D01*
X96954611Y-137388521D01*
X96859373Y-137340902D01*
X96811754Y-137293283D01*
X96764135Y-137198045D01*
X96716516Y-137007569D01*
X96716516Y-136769473D01*
X96764135Y-136578997D01*
X96811754Y-136483759D01*
X96859373Y-136436140D01*
X96954611Y-136388521D01*
X97547143Y-167974666D02*
X97594762Y-168022285D01*
X97642381Y-168165142D01*
X97642381Y-168260380D01*
X97594762Y-168403238D01*
X97499524Y-168498476D01*
X97404286Y-168546095D01*
X97213810Y-168593714D01*
X97070952Y-168593714D01*
X96880476Y-168546095D01*
X96785238Y-168498476D01*
X96690000Y-168403238D01*
X96642381Y-168260380D01*
X96642381Y-168165142D01*
X96690000Y-168022285D01*
X96737619Y-167974666D01*
X97642381Y-167498476D02*
X97642381Y-167308000D01*
X97594762Y-167212761D01*
X97547143Y-167165142D01*
X97404286Y-167069904D01*
X97213810Y-167022285D01*
X96832857Y-167022285D01*
X96737619Y-167069904D01*
X96690000Y-167117523D01*
X96642381Y-167212761D01*
X96642381Y-167403238D01*
X96690000Y-167498476D01*
X96737619Y-167546095D01*
X96832857Y-167593714D01*
X97070952Y-167593714D01*
X97166190Y-167546095D01*
X97213810Y-167498476D01*
X97261429Y-167403238D01*
X97261429Y-167212761D01*
X97213810Y-167117523D01*
X97166190Y-167069904D01*
X97070952Y-167022285D01*
X90273334Y-137365143D02*
X90225715Y-137412762D01*
X90082858Y-137460381D01*
X89987620Y-137460381D01*
X89844762Y-137412762D01*
X89749524Y-137317524D01*
X89701905Y-137222286D01*
X89654286Y-137031810D01*
X89654286Y-136888952D01*
X89701905Y-136698476D01*
X89749524Y-136603238D01*
X89844762Y-136508000D01*
X89987620Y-136460381D01*
X90082858Y-136460381D01*
X90225715Y-136508000D01*
X90273334Y-136555619D01*
X90844762Y-136888952D02*
X90749524Y-136841333D01*
X90701905Y-136793714D01*
X90654286Y-136698476D01*
X90654286Y-136650857D01*
X90701905Y-136555619D01*
X90749524Y-136508000D01*
X90844762Y-136460381D01*
X91035239Y-136460381D01*
X91130477Y-136508000D01*
X91178096Y-136555619D01*
X91225715Y-136650857D01*
X91225715Y-136698476D01*
X91178096Y-136793714D01*
X91130477Y-136841333D01*
X91035239Y-136888952D01*
X90844762Y-136888952D01*
X90749524Y-136936571D01*
X90701905Y-136984190D01*
X90654286Y-137079429D01*
X90654286Y-137269905D01*
X90701905Y-137365143D01*
X90749524Y-137412762D01*
X90844762Y-137460381D01*
X91035239Y-137460381D01*
X91130477Y-137412762D01*
X91178096Y-137365143D01*
X91225715Y-137269905D01*
X91225715Y-137079429D01*
X91178096Y-136984190D01*
X91130477Y-136936571D01*
X91035239Y-136888952D01*
X117697234Y-146106043D02*
X117649615Y-146153662D01*
X117506758Y-146201281D01*
X117411520Y-146201281D01*
X117268662Y-146153662D01*
X117173424Y-146058424D01*
X117125805Y-145963186D01*
X117078186Y-145772710D01*
X117078186Y-145629852D01*
X117125805Y-145439376D01*
X117173424Y-145344138D01*
X117268662Y-145248900D01*
X117411520Y-145201281D01*
X117506758Y-145201281D01*
X117649615Y-145248900D01*
X117697234Y-145296519D01*
X118554377Y-145201281D02*
X118363900Y-145201281D01*
X118268662Y-145248900D01*
X118221043Y-145296519D01*
X118125805Y-145439376D01*
X118078186Y-145629852D01*
X118078186Y-146010805D01*
X118125805Y-146106043D01*
X118173424Y-146153662D01*
X118268662Y-146201281D01*
X118459139Y-146201281D01*
X118554377Y-146153662D01*
X118601996Y-146106043D01*
X118649615Y-146010805D01*
X118649615Y-145772710D01*
X118601996Y-145677471D01*
X118554377Y-145629852D01*
X118459139Y-145582233D01*
X118268662Y-145582233D01*
X118173424Y-145629852D01*
X118125805Y-145677471D01*
X118078186Y-145772710D01*
X97025234Y-146167743D02*
X96977615Y-146215362D01*
X96834758Y-146262981D01*
X96739520Y-146262981D01*
X96596662Y-146215362D01*
X96501424Y-146120124D01*
X96453805Y-146024886D01*
X96406186Y-145834410D01*
X96406186Y-145691552D01*
X96453805Y-145501076D01*
X96501424Y-145405838D01*
X96596662Y-145310600D01*
X96739520Y-145262981D01*
X96834758Y-145262981D01*
X96977615Y-145310600D01*
X97025234Y-145358219D01*
X97358567Y-145262981D02*
X97977615Y-145262981D01*
X97644281Y-145643933D01*
X97787139Y-145643933D01*
X97882377Y-145691552D01*
X97929996Y-145739171D01*
X97977615Y-145834410D01*
X97977615Y-146072505D01*
X97929996Y-146167743D01*
X97882377Y-146215362D01*
X97787139Y-146262981D01*
X97501424Y-146262981D01*
X97406186Y-146215362D01*
X97358567Y-146167743D01*
X144211762Y-141423381D02*
X143878428Y-140947190D01*
X143640333Y-141423381D02*
X143640333Y-140423381D01*
X144021286Y-140423381D01*
X144116524Y-140471000D01*
X144164143Y-140518619D01*
X144211762Y-140613857D01*
X144211762Y-140756714D01*
X144164143Y-140851952D01*
X144116524Y-140899571D01*
X144021286Y-140947190D01*
X143640333Y-140947190D01*
X144973667Y-140899571D02*
X144640333Y-140899571D01*
X144640333Y-141423381D02*
X144640333Y-140423381D01*
X145116524Y-140423381D01*
X145449857Y-140518619D02*
X145497476Y-140471000D01*
X145592714Y-140423381D01*
X145830810Y-140423381D01*
X145926048Y-140471000D01*
X145973667Y-140518619D01*
X146021286Y-140613857D01*
X146021286Y-140709095D01*
X145973667Y-140851952D01*
X145402238Y-141423381D01*
X146021286Y-141423381D01*
X81931762Y-141393381D02*
X81598428Y-140917190D01*
X81360333Y-141393381D02*
X81360333Y-140393381D01*
X81741286Y-140393381D01*
X81836524Y-140441000D01*
X81884143Y-140488619D01*
X81931762Y-140583857D01*
X81931762Y-140726714D01*
X81884143Y-140821952D01*
X81836524Y-140869571D01*
X81741286Y-140917190D01*
X81360333Y-140917190D01*
X82693667Y-140869571D02*
X82360333Y-140869571D01*
X82360333Y-141393381D02*
X82360333Y-140393381D01*
X82836524Y-140393381D01*
X83741286Y-141393381D02*
X83169857Y-141393381D01*
X83455571Y-141393381D02*
X83455571Y-140393381D01*
X83360333Y-140536238D01*
X83265095Y-140631476D01*
X83169857Y-140679095D01*
X124718905Y-165543381D02*
X124718905Y-164543381D01*
X124957000Y-164543381D01*
X125099858Y-164591000D01*
X125195096Y-164686238D01*
X125242715Y-164781476D01*
X125290334Y-164971952D01*
X125290334Y-165114810D01*
X125242715Y-165305286D01*
X125195096Y-165400524D01*
X125099858Y-165495762D01*
X124957000Y-165543381D01*
X124718905Y-165543381D01*
X125623667Y-164543381D02*
X126242715Y-164543381D01*
X125909381Y-164924333D01*
X126052239Y-164924333D01*
X126147477Y-164971952D01*
X126195096Y-165019571D01*
X126242715Y-165114810D01*
X126242715Y-165352905D01*
X126195096Y-165448143D01*
X126147477Y-165495762D01*
X126052239Y-165543381D01*
X125766524Y-165543381D01*
X125671286Y-165495762D01*
X125623667Y-165448143D01*
X106118905Y-166543381D02*
X106118905Y-165543381D01*
X106357000Y-165543381D01*
X106499858Y-165591000D01*
X106595096Y-165686238D01*
X106642715Y-165781476D01*
X106690334Y-165971952D01*
X106690334Y-166114810D01*
X106642715Y-166305286D01*
X106595096Y-166400524D01*
X106499858Y-166495762D01*
X106357000Y-166543381D01*
X106118905Y-166543381D01*
X107071286Y-165638619D02*
X107118905Y-165591000D01*
X107214143Y-165543381D01*
X107452239Y-165543381D01*
X107547477Y-165591000D01*
X107595096Y-165638619D01*
X107642715Y-165733857D01*
X107642715Y-165829095D01*
X107595096Y-165971952D01*
X107023667Y-166543381D01*
X107642715Y-166543381D01*
X82616365Y-166395121D02*
X82616365Y-165395121D01*
X82854460Y-165395121D01*
X82997318Y-165442740D01*
X83092556Y-165537978D01*
X83140175Y-165633216D01*
X83187794Y-165823692D01*
X83187794Y-165966550D01*
X83140175Y-166157026D01*
X83092556Y-166252264D01*
X82997318Y-166347502D01*
X82854460Y-166395121D01*
X82616365Y-166395121D01*
X84140175Y-166395121D02*
X83568746Y-166395121D01*
X83854460Y-166395121D02*
X83854460Y-165395121D01*
X83759222Y-165537978D01*
X83663984Y-165633216D01*
X83568746Y-165680835D01*
X106072586Y-146699267D02*
X106548777Y-146699267D01*
X105977348Y-146984981D02*
X106310681Y-145984981D01*
X106644015Y-146984981D01*
X106977348Y-146984981D02*
X106977348Y-145984981D01*
X107310682Y-146699267D01*
X107644015Y-145984981D01*
X107644015Y-146984981D01*
X108120205Y-146984981D02*
X108120205Y-145984981D01*
X108501158Y-145984981D01*
X108596396Y-146032600D01*
X108644015Y-146080219D01*
X108691634Y-146175457D01*
X108691634Y-146318314D01*
X108644015Y-146413552D01*
X108596396Y-146461171D01*
X108501158Y-146508790D01*
X108120205Y-146508790D01*
X109644015Y-146984981D02*
X109072586Y-146984981D01*
X109358300Y-146984981D02*
X109358300Y-145984981D01*
X109263062Y-146127838D01*
X109167824Y-146223076D01*
X109072586Y-146270695D01*
X122359381Y-158257666D02*
X121883190Y-158591000D01*
X122359381Y-158829095D02*
X121359381Y-158829095D01*
X121359381Y-158448142D01*
X121407000Y-158352904D01*
X121454619Y-158305285D01*
X121549857Y-158257666D01*
X121692714Y-158257666D01*
X121787952Y-158305285D01*
X121835571Y-158352904D01*
X121883190Y-158448142D01*
X121883190Y-158829095D01*
X121359381Y-157352904D02*
X121359381Y-157829095D01*
X121835571Y-157876714D01*
X121787952Y-157829095D01*
X121740333Y-157733857D01*
X121740333Y-157495761D01*
X121787952Y-157400523D01*
X121835571Y-157352904D01*
X121930810Y-157305285D01*
X122168905Y-157305285D01*
X122264143Y-157352904D01*
X122311762Y-157400523D01*
X122359381Y-157495761D01*
X122359381Y-157733857D01*
X122311762Y-157829095D01*
X122264143Y-157876714D01*
X99959381Y-160757666D02*
X99483190Y-161091000D01*
X99959381Y-161329095D02*
X98959381Y-161329095D01*
X98959381Y-160948142D01*
X99007000Y-160852904D01*
X99054619Y-160805285D01*
X99149857Y-160757666D01*
X99292714Y-160757666D01*
X99387952Y-160805285D01*
X99435571Y-160852904D01*
X99483190Y-160948142D01*
X99483190Y-161329095D01*
X99292714Y-159900523D02*
X99959381Y-159900523D01*
X98911762Y-160138619D02*
X99626048Y-160376714D01*
X99626048Y-159757666D01*
X110822334Y-163296181D02*
X110489000Y-162819990D01*
X110250905Y-163296181D02*
X110250905Y-162296181D01*
X110631858Y-162296181D01*
X110727096Y-162343800D01*
X110774715Y-162391419D01*
X110822334Y-162486657D01*
X110822334Y-162629514D01*
X110774715Y-162724752D01*
X110727096Y-162772371D01*
X110631858Y-162819990D01*
X110250905Y-162819990D01*
X111155667Y-162296181D02*
X111774715Y-162296181D01*
X111441381Y-162677133D01*
X111584239Y-162677133D01*
X111679477Y-162724752D01*
X111727096Y-162772371D01*
X111774715Y-162867610D01*
X111774715Y-163105705D01*
X111727096Y-163200943D01*
X111679477Y-163248562D01*
X111584239Y-163296181D01*
X111298524Y-163296181D01*
X111203286Y-163248562D01*
X111155667Y-163200943D01*
X87419794Y-163580121D02*
X87086460Y-163103930D01*
X86848365Y-163580121D02*
X86848365Y-162580121D01*
X87229318Y-162580121D01*
X87324556Y-162627740D01*
X87372175Y-162675359D01*
X87419794Y-162770597D01*
X87419794Y-162913454D01*
X87372175Y-163008692D01*
X87324556Y-163056311D01*
X87229318Y-163103930D01*
X86848365Y-163103930D01*
X87800746Y-162675359D02*
X87848365Y-162627740D01*
X87943603Y-162580121D01*
X88181699Y-162580121D01*
X88276937Y-162627740D01*
X88324556Y-162675359D01*
X88372175Y-162770597D01*
X88372175Y-162865835D01*
X88324556Y-163008692D01*
X87753127Y-163580121D01*
X88372175Y-163580121D01*
X76456841Y-160909406D02*
X75980650Y-161242740D01*
X76456841Y-161480835D02*
X75456841Y-161480835D01*
X75456841Y-161099882D01*
X75504460Y-161004644D01*
X75552079Y-160957025D01*
X75647317Y-160909406D01*
X75790174Y-160909406D01*
X75885412Y-160957025D01*
X75933031Y-161004644D01*
X75980650Y-161099882D01*
X75980650Y-161480835D01*
X76456841Y-159957025D02*
X76456841Y-160528454D01*
X76456841Y-160242740D02*
X75456841Y-160242740D01*
X75599698Y-160337978D01*
X75694936Y-160433216D01*
X75742555Y-160528454D01*
X110841934Y-160408543D02*
X110794315Y-160456162D01*
X110651458Y-160503781D01*
X110556220Y-160503781D01*
X110413362Y-160456162D01*
X110318124Y-160360924D01*
X110270505Y-160265686D01*
X110222886Y-160075210D01*
X110222886Y-159932352D01*
X110270505Y-159741876D01*
X110318124Y-159646638D01*
X110413362Y-159551400D01*
X110556220Y-159503781D01*
X110651458Y-159503781D01*
X110794315Y-159551400D01*
X110841934Y-159599019D01*
X111746696Y-159503781D02*
X111270505Y-159503781D01*
X111222886Y-159979971D01*
X111270505Y-159932352D01*
X111365743Y-159884733D01*
X111603839Y-159884733D01*
X111699077Y-159932352D01*
X111746696Y-159979971D01*
X111794315Y-160075210D01*
X111794315Y-160313305D01*
X111746696Y-160408543D01*
X111699077Y-160456162D01*
X111603839Y-160503781D01*
X111365743Y-160503781D01*
X111270505Y-160456162D01*
X111222886Y-160408543D01*
X110791134Y-158478143D02*
X110743515Y-158525762D01*
X110600658Y-158573381D01*
X110505420Y-158573381D01*
X110362562Y-158525762D01*
X110267324Y-158430524D01*
X110219705Y-158335286D01*
X110172086Y-158144810D01*
X110172086Y-158001952D01*
X110219705Y-157811476D01*
X110267324Y-157716238D01*
X110362562Y-157621000D01*
X110505420Y-157573381D01*
X110600658Y-157573381D01*
X110743515Y-157621000D01*
X110791134Y-157668619D01*
X111648277Y-157906714D02*
X111648277Y-158573381D01*
X111410181Y-157525762D02*
X111172086Y-158240048D01*
X111791134Y-158240048D01*
X87419794Y-160363883D02*
X87372175Y-160411502D01*
X87229318Y-160459121D01*
X87134080Y-160459121D01*
X86991222Y-160411502D01*
X86895984Y-160316264D01*
X86848365Y-160221026D01*
X86800746Y-160030550D01*
X86800746Y-159887692D01*
X86848365Y-159697216D01*
X86895984Y-159601978D01*
X86991222Y-159506740D01*
X87134080Y-159459121D01*
X87229318Y-159459121D01*
X87372175Y-159506740D01*
X87419794Y-159554359D01*
X87800746Y-159554359D02*
X87848365Y-159506740D01*
X87943603Y-159459121D01*
X88181699Y-159459121D01*
X88276937Y-159506740D01*
X88324556Y-159554359D01*
X88372175Y-159649597D01*
X88372175Y-159744835D01*
X88324556Y-159887692D01*
X87753127Y-160459121D01*
X88372175Y-160459121D01*
X87419794Y-158431883D02*
X87372175Y-158479502D01*
X87229318Y-158527121D01*
X87134080Y-158527121D01*
X86991222Y-158479502D01*
X86895984Y-158384264D01*
X86848365Y-158289026D01*
X86800746Y-158098550D01*
X86800746Y-157955692D01*
X86848365Y-157765216D01*
X86895984Y-157669978D01*
X86991222Y-157574740D01*
X87134080Y-157527121D01*
X87229318Y-157527121D01*
X87372175Y-157574740D01*
X87419794Y-157622359D01*
X88372175Y-158527121D02*
X87800746Y-158527121D01*
X88086460Y-158527121D02*
X88086460Y-157527121D01*
X87991222Y-157669978D01*
X87895984Y-157765216D01*
X87800746Y-157812835D01*
X131055776Y-141621167D02*
X131531967Y-141621167D01*
X130960538Y-141906881D02*
X131293871Y-140906881D01*
X131627205Y-141906881D01*
X131817681Y-140906881D02*
X132389110Y-140906881D01*
X132103395Y-141906881D02*
X132103395Y-140906881D01*
X132579586Y-140906881D02*
X133151015Y-140906881D01*
X132865300Y-141906881D02*
X132865300Y-140906881D01*
X133484348Y-141383071D02*
X133817682Y-141383071D01*
X133960539Y-141906881D02*
X133484348Y-141906881D01*
X133484348Y-140906881D01*
X133960539Y-140906881D01*
X134389110Y-141906881D02*
X134389110Y-140906881D01*
X134960539Y-141906881D01*
X134960539Y-140906881D01*
X135436729Y-140906881D02*
X135436729Y-141716405D01*
X135484348Y-141811643D01*
X135531967Y-141859262D01*
X135627205Y-141906881D01*
X135817682Y-141906881D01*
X135912920Y-141859262D01*
X135960539Y-141811643D01*
X136008158Y-141716405D01*
X136008158Y-140906881D01*
X136436729Y-141621167D02*
X136912920Y-141621167D01*
X136341491Y-141906881D02*
X136674824Y-140906881D01*
X137008158Y-141906881D01*
X137198634Y-140906881D02*
X137770063Y-140906881D01*
X137484348Y-141906881D02*
X137484348Y-140906881D01*
X138293872Y-140906881D02*
X138484349Y-140906881D01*
X138579587Y-140954500D01*
X138674825Y-141049738D01*
X138722444Y-141240214D01*
X138722444Y-141573548D01*
X138674825Y-141764024D01*
X138579587Y-141859262D01*
X138484349Y-141906881D01*
X138293872Y-141906881D01*
X138198634Y-141859262D01*
X138103396Y-141764024D01*
X138055777Y-141573548D01*
X138055777Y-141240214D01*
X138103396Y-141049738D01*
X138198634Y-140954500D01*
X138293872Y-140906881D01*
X139722444Y-141906881D02*
X139389110Y-141430690D01*
X139151015Y-141906881D02*
X139151015Y-140906881D01*
X139531968Y-140906881D01*
X139627206Y-140954500D01*
X139674825Y-141002119D01*
X139722444Y-141097357D01*
X139722444Y-141240214D01*
X139674825Y-141335452D01*
X139627206Y-141383071D01*
X139531968Y-141430690D01*
X139151015Y-141430690D01*
X140674825Y-141906881D02*
X140103396Y-141906881D01*
X140389110Y-141906881D02*
X140389110Y-140906881D01*
X140293872Y-141049738D01*
X140198634Y-141144976D01*
X140103396Y-141192595D01*
X129501343Y-158084466D02*
X129548962Y-158132085D01*
X129596581Y-158274942D01*
X129596581Y-158370180D01*
X129548962Y-158513038D01*
X129453724Y-158608276D01*
X129358486Y-158655895D01*
X129168010Y-158703514D01*
X129025152Y-158703514D01*
X128834676Y-158655895D01*
X128739438Y-158608276D01*
X128644200Y-158513038D01*
X128596581Y-158370180D01*
X128596581Y-158274942D01*
X128644200Y-158132085D01*
X128691819Y-158084466D01*
X128596581Y-157751133D02*
X128596581Y-157084466D01*
X129596581Y-157513038D01*
X93143334Y-168357381D02*
X92667143Y-168357381D01*
X92667143Y-167357381D01*
X94000477Y-168357381D02*
X93429048Y-168357381D01*
X93714762Y-168357381D02*
X93714762Y-167357381D01*
X93619524Y-167500238D01*
X93524286Y-167595476D01*
X93429048Y-167643095D01*
X90714381Y-161771666D02*
X90714381Y-162247857D01*
X89714381Y-162247857D01*
X89809619Y-161485952D02*
X89762000Y-161438333D01*
X89714381Y-161343095D01*
X89714381Y-161104999D01*
X89762000Y-161009761D01*
X89809619Y-160962142D01*
X89904857Y-160914523D01*
X90000095Y-160914523D01*
X90142952Y-160962142D01*
X90714381Y-161533571D01*
X90714381Y-160914523D01*
X114623881Y-161527166D02*
X114623881Y-162003357D01*
X113623881Y-162003357D01*
X113957214Y-160765261D02*
X114623881Y-160765261D01*
X113576262Y-161003357D02*
X114290548Y-161241452D01*
X114290548Y-160622404D01*
X117052834Y-168112881D02*
X116576643Y-168112881D01*
X116576643Y-167112881D01*
X117290929Y-167112881D02*
X117909977Y-167112881D01*
X117576643Y-167493833D01*
X117719501Y-167493833D01*
X117814739Y-167541452D01*
X117862358Y-167589071D01*
X117909977Y-167684310D01*
X117909977Y-167922405D01*
X117862358Y-168017643D01*
X117814739Y-168065262D01*
X117719501Y-168112881D01*
X117433786Y-168112881D01*
X117338548Y-168065262D01*
X117290929Y-168017643D01*
X117052834Y-118074881D02*
X116576643Y-118074881D01*
X116576643Y-117074881D01*
X117290929Y-117074881D02*
X117909977Y-117074881D01*
X117576643Y-117455833D01*
X117719501Y-117455833D01*
X117814739Y-117503452D01*
X117862358Y-117551071D01*
X117909977Y-117646310D01*
X117909977Y-117884405D01*
X117862358Y-117979643D01*
X117814739Y-118027262D01*
X117719501Y-118074881D01*
X117433786Y-118074881D01*
X117338548Y-118027262D01*
X117290929Y-117979643D01*
X114623881Y-111489166D02*
X114623881Y-111965357D01*
X113623881Y-111965357D01*
X113957214Y-110727261D02*
X114623881Y-110727261D01*
X113576262Y-110965357D02*
X114290548Y-111203452D01*
X114290548Y-110584404D01*
X90714381Y-111733666D02*
X90714381Y-112209857D01*
X89714381Y-112209857D01*
X89809619Y-111447952D02*
X89762000Y-111400333D01*
X89714381Y-111305095D01*
X89714381Y-111066999D01*
X89762000Y-110971761D01*
X89809619Y-110924142D01*
X89904857Y-110876523D01*
X90000095Y-110876523D01*
X90142952Y-110924142D01*
X90714381Y-111495571D01*
X90714381Y-110876523D01*
X93143334Y-118319381D02*
X92667143Y-118319381D01*
X92667143Y-117319381D01*
X94000477Y-118319381D02*
X93429048Y-118319381D01*
X93714762Y-118319381D02*
X93714762Y-117319381D01*
X93619524Y-117462238D01*
X93524286Y-117557476D01*
X93429048Y-117605095D01*
X129501343Y-108046466D02*
X129548962Y-108094085D01*
X129596581Y-108236942D01*
X129596581Y-108332180D01*
X129548962Y-108475038D01*
X129453724Y-108570276D01*
X129358486Y-108617895D01*
X129168010Y-108665514D01*
X129025152Y-108665514D01*
X128834676Y-108617895D01*
X128739438Y-108570276D01*
X128644200Y-108475038D01*
X128596581Y-108332180D01*
X128596581Y-108236942D01*
X128644200Y-108094085D01*
X128691819Y-108046466D01*
X128596581Y-107713133D02*
X128596581Y-107046466D01*
X129596581Y-107475038D01*
X131055776Y-91583167D02*
X131531967Y-91583167D01*
X130960538Y-91868881D02*
X131293871Y-90868881D01*
X131627205Y-91868881D01*
X131817681Y-90868881D02*
X132389110Y-90868881D01*
X132103395Y-91868881D02*
X132103395Y-90868881D01*
X132579586Y-90868881D02*
X133151015Y-90868881D01*
X132865300Y-91868881D02*
X132865300Y-90868881D01*
X133484348Y-91345071D02*
X133817682Y-91345071D01*
X133960539Y-91868881D02*
X133484348Y-91868881D01*
X133484348Y-90868881D01*
X133960539Y-90868881D01*
X134389110Y-91868881D02*
X134389110Y-90868881D01*
X134960539Y-91868881D01*
X134960539Y-90868881D01*
X135436729Y-90868881D02*
X135436729Y-91678405D01*
X135484348Y-91773643D01*
X135531967Y-91821262D01*
X135627205Y-91868881D01*
X135817682Y-91868881D01*
X135912920Y-91821262D01*
X135960539Y-91773643D01*
X136008158Y-91678405D01*
X136008158Y-90868881D01*
X136436729Y-91583167D02*
X136912920Y-91583167D01*
X136341491Y-91868881D02*
X136674824Y-90868881D01*
X137008158Y-91868881D01*
X137198634Y-90868881D02*
X137770063Y-90868881D01*
X137484348Y-91868881D02*
X137484348Y-90868881D01*
X138293872Y-90868881D02*
X138484349Y-90868881D01*
X138579587Y-90916500D01*
X138674825Y-91011738D01*
X138722444Y-91202214D01*
X138722444Y-91535548D01*
X138674825Y-91726024D01*
X138579587Y-91821262D01*
X138484349Y-91868881D01*
X138293872Y-91868881D01*
X138198634Y-91821262D01*
X138103396Y-91726024D01*
X138055777Y-91535548D01*
X138055777Y-91202214D01*
X138103396Y-91011738D01*
X138198634Y-90916500D01*
X138293872Y-90868881D01*
X139722444Y-91868881D02*
X139389110Y-91392690D01*
X139151015Y-91868881D02*
X139151015Y-90868881D01*
X139531968Y-90868881D01*
X139627206Y-90916500D01*
X139674825Y-90964119D01*
X139722444Y-91059357D01*
X139722444Y-91202214D01*
X139674825Y-91297452D01*
X139627206Y-91345071D01*
X139531968Y-91392690D01*
X139151015Y-91392690D01*
X140674825Y-91868881D02*
X140103396Y-91868881D01*
X140389110Y-91868881D02*
X140389110Y-90868881D01*
X140293872Y-91011738D01*
X140198634Y-91106976D01*
X140103396Y-91154595D01*
X87419794Y-108393883D02*
X87372175Y-108441502D01*
X87229318Y-108489121D01*
X87134080Y-108489121D01*
X86991222Y-108441502D01*
X86895984Y-108346264D01*
X86848365Y-108251026D01*
X86800746Y-108060550D01*
X86800746Y-107917692D01*
X86848365Y-107727216D01*
X86895984Y-107631978D01*
X86991222Y-107536740D01*
X87134080Y-107489121D01*
X87229318Y-107489121D01*
X87372175Y-107536740D01*
X87419794Y-107584359D01*
X88372175Y-108489121D02*
X87800746Y-108489121D01*
X88086460Y-108489121D02*
X88086460Y-107489121D01*
X87991222Y-107631978D01*
X87895984Y-107727216D01*
X87800746Y-107774835D01*
X87419794Y-110325883D02*
X87372175Y-110373502D01*
X87229318Y-110421121D01*
X87134080Y-110421121D01*
X86991222Y-110373502D01*
X86895984Y-110278264D01*
X86848365Y-110183026D01*
X86800746Y-109992550D01*
X86800746Y-109849692D01*
X86848365Y-109659216D01*
X86895984Y-109563978D01*
X86991222Y-109468740D01*
X87134080Y-109421121D01*
X87229318Y-109421121D01*
X87372175Y-109468740D01*
X87419794Y-109516359D01*
X87800746Y-109516359D02*
X87848365Y-109468740D01*
X87943603Y-109421121D01*
X88181699Y-109421121D01*
X88276937Y-109468740D01*
X88324556Y-109516359D01*
X88372175Y-109611597D01*
X88372175Y-109706835D01*
X88324556Y-109849692D01*
X87753127Y-110421121D01*
X88372175Y-110421121D01*
X110791134Y-108440143D02*
X110743515Y-108487762D01*
X110600658Y-108535381D01*
X110505420Y-108535381D01*
X110362562Y-108487762D01*
X110267324Y-108392524D01*
X110219705Y-108297286D01*
X110172086Y-108106810D01*
X110172086Y-107963952D01*
X110219705Y-107773476D01*
X110267324Y-107678238D01*
X110362562Y-107583000D01*
X110505420Y-107535381D01*
X110600658Y-107535381D01*
X110743515Y-107583000D01*
X110791134Y-107630619D01*
X111648277Y-107868714D02*
X111648277Y-108535381D01*
X111410181Y-107487762D02*
X111172086Y-108202048D01*
X111791134Y-108202048D01*
X110841934Y-110370543D02*
X110794315Y-110418162D01*
X110651458Y-110465781D01*
X110556220Y-110465781D01*
X110413362Y-110418162D01*
X110318124Y-110322924D01*
X110270505Y-110227686D01*
X110222886Y-110037210D01*
X110222886Y-109894352D01*
X110270505Y-109703876D01*
X110318124Y-109608638D01*
X110413362Y-109513400D01*
X110556220Y-109465781D01*
X110651458Y-109465781D01*
X110794315Y-109513400D01*
X110841934Y-109561019D01*
X111746696Y-109465781D02*
X111270505Y-109465781D01*
X111222886Y-109941971D01*
X111270505Y-109894352D01*
X111365743Y-109846733D01*
X111603839Y-109846733D01*
X111699077Y-109894352D01*
X111746696Y-109941971D01*
X111794315Y-110037210D01*
X111794315Y-110275305D01*
X111746696Y-110370543D01*
X111699077Y-110418162D01*
X111603839Y-110465781D01*
X111365743Y-110465781D01*
X111270505Y-110418162D01*
X111222886Y-110370543D01*
X76456841Y-110871406D02*
X75980650Y-111204740D01*
X76456841Y-111442835D02*
X75456841Y-111442835D01*
X75456841Y-111061882D01*
X75504460Y-110966644D01*
X75552079Y-110919025D01*
X75647317Y-110871406D01*
X75790174Y-110871406D01*
X75885412Y-110919025D01*
X75933031Y-110966644D01*
X75980650Y-111061882D01*
X75980650Y-111442835D01*
X76456841Y-109919025D02*
X76456841Y-110490454D01*
X76456841Y-110204740D02*
X75456841Y-110204740D01*
X75599698Y-110299978D01*
X75694936Y-110395216D01*
X75742555Y-110490454D01*
X87419794Y-113542121D02*
X87086460Y-113065930D01*
X86848365Y-113542121D02*
X86848365Y-112542121D01*
X87229318Y-112542121D01*
X87324556Y-112589740D01*
X87372175Y-112637359D01*
X87419794Y-112732597D01*
X87419794Y-112875454D01*
X87372175Y-112970692D01*
X87324556Y-113018311D01*
X87229318Y-113065930D01*
X86848365Y-113065930D01*
X87800746Y-112637359D02*
X87848365Y-112589740D01*
X87943603Y-112542121D01*
X88181699Y-112542121D01*
X88276937Y-112589740D01*
X88324556Y-112637359D01*
X88372175Y-112732597D01*
X88372175Y-112827835D01*
X88324556Y-112970692D01*
X87753127Y-113542121D01*
X88372175Y-113542121D01*
X110822334Y-113258181D02*
X110489000Y-112781990D01*
X110250905Y-113258181D02*
X110250905Y-112258181D01*
X110631858Y-112258181D01*
X110727096Y-112305800D01*
X110774715Y-112353419D01*
X110822334Y-112448657D01*
X110822334Y-112591514D01*
X110774715Y-112686752D01*
X110727096Y-112734371D01*
X110631858Y-112781990D01*
X110250905Y-112781990D01*
X111155667Y-112258181D02*
X111774715Y-112258181D01*
X111441381Y-112639133D01*
X111584239Y-112639133D01*
X111679477Y-112686752D01*
X111727096Y-112734371D01*
X111774715Y-112829610D01*
X111774715Y-113067705D01*
X111727096Y-113162943D01*
X111679477Y-113210562D01*
X111584239Y-113258181D01*
X111298524Y-113258181D01*
X111203286Y-113210562D01*
X111155667Y-113162943D01*
X99959381Y-110719666D02*
X99483190Y-111053000D01*
X99959381Y-111291095D02*
X98959381Y-111291095D01*
X98959381Y-110910142D01*
X99007000Y-110814904D01*
X99054619Y-110767285D01*
X99149857Y-110719666D01*
X99292714Y-110719666D01*
X99387952Y-110767285D01*
X99435571Y-110814904D01*
X99483190Y-110910142D01*
X99483190Y-111291095D01*
X99292714Y-109862523D02*
X99959381Y-109862523D01*
X98911762Y-110100619D02*
X99626048Y-110338714D01*
X99626048Y-109719666D01*
X122359381Y-108219666D02*
X121883190Y-108553000D01*
X122359381Y-108791095D02*
X121359381Y-108791095D01*
X121359381Y-108410142D01*
X121407000Y-108314904D01*
X121454619Y-108267285D01*
X121549857Y-108219666D01*
X121692714Y-108219666D01*
X121787952Y-108267285D01*
X121835571Y-108314904D01*
X121883190Y-108410142D01*
X121883190Y-108791095D01*
X121359381Y-107314904D02*
X121359381Y-107791095D01*
X121835571Y-107838714D01*
X121787952Y-107791095D01*
X121740333Y-107695857D01*
X121740333Y-107457761D01*
X121787952Y-107362523D01*
X121835571Y-107314904D01*
X121930810Y-107267285D01*
X122168905Y-107267285D01*
X122264143Y-107314904D01*
X122311762Y-107362523D01*
X122359381Y-107457761D01*
X122359381Y-107695857D01*
X122311762Y-107791095D01*
X122264143Y-107838714D01*
X106072586Y-96661267D02*
X106548777Y-96661267D01*
X105977348Y-96946981D02*
X106310681Y-95946981D01*
X106644015Y-96946981D01*
X106977348Y-96946981D02*
X106977348Y-95946981D01*
X107310682Y-96661267D01*
X107644015Y-95946981D01*
X107644015Y-96946981D01*
X108120205Y-96946981D02*
X108120205Y-95946981D01*
X108501158Y-95946981D01*
X108596396Y-95994600D01*
X108644015Y-96042219D01*
X108691634Y-96137457D01*
X108691634Y-96280314D01*
X108644015Y-96375552D01*
X108596396Y-96423171D01*
X108501158Y-96470790D01*
X108120205Y-96470790D01*
X109644015Y-96946981D02*
X109072586Y-96946981D01*
X109358300Y-96946981D02*
X109358300Y-95946981D01*
X109263062Y-96089838D01*
X109167824Y-96185076D01*
X109072586Y-96232695D01*
X82616365Y-116357121D02*
X82616365Y-115357121D01*
X82854460Y-115357121D01*
X82997318Y-115404740D01*
X83092556Y-115499978D01*
X83140175Y-115595216D01*
X83187794Y-115785692D01*
X83187794Y-115928550D01*
X83140175Y-116119026D01*
X83092556Y-116214264D01*
X82997318Y-116309502D01*
X82854460Y-116357121D01*
X82616365Y-116357121D01*
X84140175Y-116357121D02*
X83568746Y-116357121D01*
X83854460Y-116357121D02*
X83854460Y-115357121D01*
X83759222Y-115499978D01*
X83663984Y-115595216D01*
X83568746Y-115642835D01*
X106118905Y-116505381D02*
X106118905Y-115505381D01*
X106357000Y-115505381D01*
X106499858Y-115553000D01*
X106595096Y-115648238D01*
X106642715Y-115743476D01*
X106690334Y-115933952D01*
X106690334Y-116076810D01*
X106642715Y-116267286D01*
X106595096Y-116362524D01*
X106499858Y-116457762D01*
X106357000Y-116505381D01*
X106118905Y-116505381D01*
X107071286Y-115600619D02*
X107118905Y-115553000D01*
X107214143Y-115505381D01*
X107452239Y-115505381D01*
X107547477Y-115553000D01*
X107595096Y-115600619D01*
X107642715Y-115695857D01*
X107642715Y-115791095D01*
X107595096Y-115933952D01*
X107023667Y-116505381D01*
X107642715Y-116505381D01*
X124718905Y-115505381D02*
X124718905Y-114505381D01*
X124957000Y-114505381D01*
X125099858Y-114553000D01*
X125195096Y-114648238D01*
X125242715Y-114743476D01*
X125290334Y-114933952D01*
X125290334Y-115076810D01*
X125242715Y-115267286D01*
X125195096Y-115362524D01*
X125099858Y-115457762D01*
X124957000Y-115505381D01*
X124718905Y-115505381D01*
X125623667Y-114505381D02*
X126242715Y-114505381D01*
X125909381Y-114886333D01*
X126052239Y-114886333D01*
X126147477Y-114933952D01*
X126195096Y-114981571D01*
X126242715Y-115076810D01*
X126242715Y-115314905D01*
X126195096Y-115410143D01*
X126147477Y-115457762D01*
X126052239Y-115505381D01*
X125766524Y-115505381D01*
X125671286Y-115457762D01*
X125623667Y-115410143D01*
X81931762Y-91355381D02*
X81598428Y-90879190D01*
X81360333Y-91355381D02*
X81360333Y-90355381D01*
X81741286Y-90355381D01*
X81836524Y-90403000D01*
X81884143Y-90450619D01*
X81931762Y-90545857D01*
X81931762Y-90688714D01*
X81884143Y-90783952D01*
X81836524Y-90831571D01*
X81741286Y-90879190D01*
X81360333Y-90879190D01*
X82693667Y-90831571D02*
X82360333Y-90831571D01*
X82360333Y-91355381D02*
X82360333Y-90355381D01*
X82836524Y-90355381D01*
X83741286Y-91355381D02*
X83169857Y-91355381D01*
X83455571Y-91355381D02*
X83455571Y-90355381D01*
X83360333Y-90498238D01*
X83265095Y-90593476D01*
X83169857Y-90641095D01*
X144211762Y-91385381D02*
X143878428Y-90909190D01*
X143640333Y-91385381D02*
X143640333Y-90385381D01*
X144021286Y-90385381D01*
X144116524Y-90433000D01*
X144164143Y-90480619D01*
X144211762Y-90575857D01*
X144211762Y-90718714D01*
X144164143Y-90813952D01*
X144116524Y-90861571D01*
X144021286Y-90909190D01*
X143640333Y-90909190D01*
X144973667Y-90861571D02*
X144640333Y-90861571D01*
X144640333Y-91385381D02*
X144640333Y-90385381D01*
X145116524Y-90385381D01*
X145449857Y-90480619D02*
X145497476Y-90433000D01*
X145592714Y-90385381D01*
X145830810Y-90385381D01*
X145926048Y-90433000D01*
X145973667Y-90480619D01*
X146021286Y-90575857D01*
X146021286Y-90671095D01*
X145973667Y-90813952D01*
X145402238Y-91385381D01*
X146021286Y-91385381D01*
X97025234Y-96129743D02*
X96977615Y-96177362D01*
X96834758Y-96224981D01*
X96739520Y-96224981D01*
X96596662Y-96177362D01*
X96501424Y-96082124D01*
X96453805Y-95986886D01*
X96406186Y-95796410D01*
X96406186Y-95653552D01*
X96453805Y-95463076D01*
X96501424Y-95367838D01*
X96596662Y-95272600D01*
X96739520Y-95224981D01*
X96834758Y-95224981D01*
X96977615Y-95272600D01*
X97025234Y-95320219D01*
X97358567Y-95224981D02*
X97977615Y-95224981D01*
X97644281Y-95605933D01*
X97787139Y-95605933D01*
X97882377Y-95653552D01*
X97929996Y-95701171D01*
X97977615Y-95796410D01*
X97977615Y-96034505D01*
X97929996Y-96129743D01*
X97882377Y-96177362D01*
X97787139Y-96224981D01*
X97501424Y-96224981D01*
X97406186Y-96177362D01*
X97358567Y-96129743D01*
X117697234Y-96068043D02*
X117649615Y-96115662D01*
X117506758Y-96163281D01*
X117411520Y-96163281D01*
X117268662Y-96115662D01*
X117173424Y-96020424D01*
X117125805Y-95925186D01*
X117078186Y-95734710D01*
X117078186Y-95591852D01*
X117125805Y-95401376D01*
X117173424Y-95306138D01*
X117268662Y-95210900D01*
X117411520Y-95163281D01*
X117506758Y-95163281D01*
X117649615Y-95210900D01*
X117697234Y-95258519D01*
X118554377Y-95163281D02*
X118363900Y-95163281D01*
X118268662Y-95210900D01*
X118221043Y-95258519D01*
X118125805Y-95401376D01*
X118078186Y-95591852D01*
X118078186Y-95972805D01*
X118125805Y-96068043D01*
X118173424Y-96115662D01*
X118268662Y-96163281D01*
X118459139Y-96163281D01*
X118554377Y-96115662D01*
X118601996Y-96068043D01*
X118649615Y-95972805D01*
X118649615Y-95734710D01*
X118601996Y-95639471D01*
X118554377Y-95591852D01*
X118459139Y-95544233D01*
X118268662Y-95544233D01*
X118173424Y-95591852D01*
X118125805Y-95639471D01*
X118078186Y-95734710D01*
X90273334Y-87327143D02*
X90225715Y-87374762D01*
X90082858Y-87422381D01*
X89987620Y-87422381D01*
X89844762Y-87374762D01*
X89749524Y-87279524D01*
X89701905Y-87184286D01*
X89654286Y-86993810D01*
X89654286Y-86850952D01*
X89701905Y-86660476D01*
X89749524Y-86565238D01*
X89844762Y-86470000D01*
X89987620Y-86422381D01*
X90082858Y-86422381D01*
X90225715Y-86470000D01*
X90273334Y-86517619D01*
X90844762Y-86850952D02*
X90749524Y-86803333D01*
X90701905Y-86755714D01*
X90654286Y-86660476D01*
X90654286Y-86612857D01*
X90701905Y-86517619D01*
X90749524Y-86470000D01*
X90844762Y-86422381D01*
X91035239Y-86422381D01*
X91130477Y-86470000D01*
X91178096Y-86517619D01*
X91225715Y-86612857D01*
X91225715Y-86660476D01*
X91178096Y-86755714D01*
X91130477Y-86803333D01*
X91035239Y-86850952D01*
X90844762Y-86850952D01*
X90749524Y-86898571D01*
X90701905Y-86946190D01*
X90654286Y-87041429D01*
X90654286Y-87231905D01*
X90701905Y-87327143D01*
X90749524Y-87374762D01*
X90844762Y-87422381D01*
X91035239Y-87422381D01*
X91130477Y-87374762D01*
X91178096Y-87327143D01*
X91225715Y-87231905D01*
X91225715Y-87041429D01*
X91178096Y-86946190D01*
X91130477Y-86898571D01*
X91035239Y-86850952D01*
X97547143Y-117936666D02*
X97594762Y-117984285D01*
X97642381Y-118127142D01*
X97642381Y-118222380D01*
X97594762Y-118365238D01*
X97499524Y-118460476D01*
X97404286Y-118508095D01*
X97213810Y-118555714D01*
X97070952Y-118555714D01*
X96880476Y-118508095D01*
X96785238Y-118460476D01*
X96690000Y-118365238D01*
X96642381Y-118222380D01*
X96642381Y-118127142D01*
X96690000Y-117984285D01*
X96737619Y-117936666D01*
X97642381Y-117460476D02*
X97642381Y-117270000D01*
X97594762Y-117174761D01*
X97547143Y-117127142D01*
X97404286Y-117031904D01*
X97213810Y-116984285D01*
X96832857Y-116984285D01*
X96737619Y-117031904D01*
X96690000Y-117079523D01*
X96642381Y-117174761D01*
X96642381Y-117365238D01*
X96690000Y-117460476D01*
X96737619Y-117508095D01*
X96832857Y-117555714D01*
X97070952Y-117555714D01*
X97166190Y-117508095D01*
X97213810Y-117460476D01*
X97261429Y-117365238D01*
X97261429Y-117174761D01*
X97213810Y-117079523D01*
X97166190Y-117031904D01*
X97070952Y-116984285D01*
X95383183Y-87255283D02*
X95335564Y-87302902D01*
X95192707Y-87350521D01*
X95097469Y-87350521D01*
X94954611Y-87302902D01*
X94859373Y-87207664D01*
X94811754Y-87112426D01*
X94764135Y-86921950D01*
X94764135Y-86779092D01*
X94811754Y-86588616D01*
X94859373Y-86493378D01*
X94954611Y-86398140D01*
X95097469Y-86350521D01*
X95192707Y-86350521D01*
X95335564Y-86398140D01*
X95383183Y-86445759D01*
X96335564Y-87350521D02*
X95764135Y-87350521D01*
X96049849Y-87350521D02*
X96049849Y-86350521D01*
X95954611Y-86493378D01*
X95859373Y-86588616D01*
X95764135Y-86636235D01*
X96954611Y-86350521D02*
X97049850Y-86350521D01*
X97145088Y-86398140D01*
X97192707Y-86445759D01*
X97240326Y-86540997D01*
X97287945Y-86731473D01*
X97287945Y-86969569D01*
X97240326Y-87160045D01*
X97192707Y-87255283D01*
X97145088Y-87302902D01*
X97049850Y-87350521D01*
X96954611Y-87350521D01*
X96859373Y-87302902D01*
X96811754Y-87255283D01*
X96764135Y-87160045D01*
X96716516Y-86969569D01*
X96716516Y-86731473D01*
X96764135Y-86540997D01*
X96811754Y-86445759D01*
X96859373Y-86398140D01*
X96954611Y-86350521D01*
X102322143Y-96787857D02*
X102369762Y-96835476D01*
X102417381Y-96978333D01*
X102417381Y-97073571D01*
X102369762Y-97216429D01*
X102274524Y-97311667D01*
X102179286Y-97359286D01*
X101988810Y-97406905D01*
X101845952Y-97406905D01*
X101655476Y-97359286D01*
X101560238Y-97311667D01*
X101465000Y-97216429D01*
X101417381Y-97073571D01*
X101417381Y-96978333D01*
X101465000Y-96835476D01*
X101512619Y-96787857D01*
X102417381Y-95835476D02*
X102417381Y-96406905D01*
X102417381Y-96121191D02*
X101417381Y-96121191D01*
X101560238Y-96216429D01*
X101655476Y-96311667D01*
X101703095Y-96406905D01*
X102417381Y-94883095D02*
X102417381Y-95454524D01*
X102417381Y-95168810D02*
X101417381Y-95168810D01*
X101560238Y-95264048D01*
X101655476Y-95359286D01*
X101703095Y-95454524D01*
X103151983Y-87417103D02*
X103104364Y-87464722D01*
X102961507Y-87512341D01*
X102866269Y-87512341D01*
X102723411Y-87464722D01*
X102628173Y-87369484D01*
X102580554Y-87274246D01*
X102532935Y-87083770D01*
X102532935Y-86940912D01*
X102580554Y-86750436D01*
X102628173Y-86655198D01*
X102723411Y-86559960D01*
X102866269Y-86512341D01*
X102961507Y-86512341D01*
X103104364Y-86559960D01*
X103151983Y-86607579D01*
X104104364Y-87512341D02*
X103532935Y-87512341D01*
X103818649Y-87512341D02*
X103818649Y-86512341D01*
X103723411Y-86655198D01*
X103628173Y-86750436D01*
X103532935Y-86798055D01*
X104485316Y-86607579D02*
X104532935Y-86559960D01*
X104628173Y-86512341D01*
X104866269Y-86512341D01*
X104961507Y-86559960D01*
X105009126Y-86607579D01*
X105056745Y-86702817D01*
X105056745Y-86798055D01*
X105009126Y-86940912D01*
X104437697Y-87512341D01*
X105056745Y-87512341D01*
X110584023Y-87472983D02*
X110536404Y-87520602D01*
X110393547Y-87568221D01*
X110298309Y-87568221D01*
X110155451Y-87520602D01*
X110060213Y-87425364D01*
X110012594Y-87330126D01*
X109964975Y-87139650D01*
X109964975Y-86996792D01*
X110012594Y-86806316D01*
X110060213Y-86711078D01*
X110155451Y-86615840D01*
X110298309Y-86568221D01*
X110393547Y-86568221D01*
X110536404Y-86615840D01*
X110584023Y-86663459D01*
X111536404Y-87568221D02*
X110964975Y-87568221D01*
X111250689Y-87568221D02*
X111250689Y-86568221D01*
X111155451Y-86711078D01*
X111060213Y-86806316D01*
X110964975Y-86853935D01*
X111869737Y-86568221D02*
X112488785Y-86568221D01*
X112155451Y-86949173D01*
X112298309Y-86949173D01*
X112393547Y-86996792D01*
X112441166Y-87044411D01*
X112488785Y-87139650D01*
X112488785Y-87377745D01*
X112441166Y-87472983D01*
X112393547Y-87520602D01*
X112298309Y-87568221D01*
X112012594Y-87568221D01*
X111917356Y-87520602D01*
X111869737Y-87472983D01*
X113377263Y-117974537D02*
X113424882Y-118022156D01*
X113472501Y-118165013D01*
X113472501Y-118260251D01*
X113424882Y-118403109D01*
X113329644Y-118498347D01*
X113234406Y-118545966D01*
X113043930Y-118593585D01*
X112901072Y-118593585D01*
X112710596Y-118545966D01*
X112615358Y-118498347D01*
X112520120Y-118403109D01*
X112472501Y-118260251D01*
X112472501Y-118165013D01*
X112520120Y-118022156D01*
X112567739Y-117974537D01*
X113472501Y-117022156D02*
X113472501Y-117593585D01*
X113472501Y-117307871D02*
X112472501Y-117307871D01*
X112615358Y-117403109D01*
X112710596Y-117498347D01*
X112758215Y-117593585D01*
X112805834Y-116165013D02*
X113472501Y-116165013D01*
X112424882Y-116403109D02*
X113139168Y-116641204D01*
X113139168Y-116022156D01*
X115364303Y-87391703D02*
X115316684Y-87439322D01*
X115173827Y-87486941D01*
X115078589Y-87486941D01*
X114935731Y-87439322D01*
X114840493Y-87344084D01*
X114792874Y-87248846D01*
X114745255Y-87058370D01*
X114745255Y-86915512D01*
X114792874Y-86725036D01*
X114840493Y-86629798D01*
X114935731Y-86534560D01*
X115078589Y-86486941D01*
X115173827Y-86486941D01*
X115316684Y-86534560D01*
X115364303Y-86582179D01*
X116316684Y-87486941D02*
X115745255Y-87486941D01*
X116030969Y-87486941D02*
X116030969Y-86486941D01*
X115935731Y-86629798D01*
X115840493Y-86725036D01*
X115745255Y-86772655D01*
X117221446Y-86486941D02*
X116745255Y-86486941D01*
X116697636Y-86963131D01*
X116745255Y-86915512D01*
X116840493Y-86867893D01*
X117078589Y-86867893D01*
X117173827Y-86915512D01*
X117221446Y-86963131D01*
X117269065Y-87058370D01*
X117269065Y-87296465D01*
X117221446Y-87391703D01*
X117173827Y-87439322D01*
X117078589Y-87486941D01*
X116840493Y-87486941D01*
X116745255Y-87439322D01*
X116697636Y-87391703D01*
X93029814Y-91974981D02*
X92696480Y-91498790D01*
X92458385Y-91974981D02*
X92458385Y-90974981D01*
X92839338Y-90974981D01*
X92934576Y-91022600D01*
X92982195Y-91070219D01*
X93029814Y-91165457D01*
X93029814Y-91308314D01*
X92982195Y-91403552D01*
X92934576Y-91451171D01*
X92839338Y-91498790D01*
X92458385Y-91498790D01*
X93886957Y-90974981D02*
X93696480Y-90974981D01*
X93601242Y-91022600D01*
X93553623Y-91070219D01*
X93458385Y-91213076D01*
X93410766Y-91403552D01*
X93410766Y-91784505D01*
X93458385Y-91879743D01*
X93506004Y-91927362D01*
X93601242Y-91974981D01*
X93791719Y-91974981D01*
X93886957Y-91927362D01*
X93934576Y-91879743D01*
X93982195Y-91784505D01*
X93982195Y-91546410D01*
X93934576Y-91451171D01*
X93886957Y-91403552D01*
X93791719Y-91355933D01*
X93601242Y-91355933D01*
X93506004Y-91403552D01*
X93458385Y-91451171D01*
X93410766Y-91546410D01*
X101523334Y-99122381D02*
X101190000Y-98646190D01*
X100951905Y-99122381D02*
X100951905Y-98122381D01*
X101332858Y-98122381D01*
X101428096Y-98170000D01*
X101475715Y-98217619D01*
X101523334Y-98312857D01*
X101523334Y-98455714D01*
X101475715Y-98550952D01*
X101428096Y-98598571D01*
X101332858Y-98646190D01*
X100951905Y-98646190D01*
X101856667Y-98122381D02*
X102523334Y-98122381D01*
X102094762Y-99122381D01*
X101020654Y-91964821D02*
X100687320Y-91488630D01*
X100449225Y-91964821D02*
X100449225Y-90964821D01*
X100830178Y-90964821D01*
X100925416Y-91012440D01*
X100973035Y-91060059D01*
X101020654Y-91155297D01*
X101020654Y-91298154D01*
X100973035Y-91393392D01*
X100925416Y-91441011D01*
X100830178Y-91488630D01*
X100449225Y-91488630D01*
X101592082Y-91393392D02*
X101496844Y-91345773D01*
X101449225Y-91298154D01*
X101401606Y-91202916D01*
X101401606Y-91155297D01*
X101449225Y-91060059D01*
X101496844Y-91012440D01*
X101592082Y-90964821D01*
X101782559Y-90964821D01*
X101877797Y-91012440D01*
X101925416Y-91060059D01*
X101973035Y-91155297D01*
X101973035Y-91202916D01*
X101925416Y-91298154D01*
X101877797Y-91345773D01*
X101782559Y-91393392D01*
X101592082Y-91393392D01*
X101496844Y-91441011D01*
X101449225Y-91488630D01*
X101401606Y-91583869D01*
X101401606Y-91774345D01*
X101449225Y-91869583D01*
X101496844Y-91917202D01*
X101592082Y-91964821D01*
X101782559Y-91964821D01*
X101877797Y-91917202D01*
X101925416Y-91869583D01*
X101973035Y-91774345D01*
X101973035Y-91583869D01*
X101925416Y-91488630D01*
X101877797Y-91441011D01*
X101782559Y-91393392D01*
X113315734Y-91951381D02*
X112982400Y-91475190D01*
X112744305Y-91951381D02*
X112744305Y-90951381D01*
X113125258Y-90951381D01*
X113220496Y-90999000D01*
X113268115Y-91046619D01*
X113315734Y-91141857D01*
X113315734Y-91284714D01*
X113268115Y-91379952D01*
X113220496Y-91427571D01*
X113125258Y-91475190D01*
X112744305Y-91475190D01*
X113791924Y-91951381D02*
X113982400Y-91951381D01*
X114077639Y-91903762D01*
X114125258Y-91856143D01*
X114220496Y-91713286D01*
X114268115Y-91522810D01*
X114268115Y-91141857D01*
X114220496Y-91046619D01*
X114172877Y-90999000D01*
X114077639Y-90951381D01*
X113887162Y-90951381D01*
X113791924Y-90999000D01*
X113744305Y-91046619D01*
X113696686Y-91141857D01*
X113696686Y-91379952D01*
X113744305Y-91475190D01*
X113791924Y-91522810D01*
X113887162Y-91570429D01*
X114077639Y-91570429D01*
X114172877Y-91522810D01*
X114220496Y-91475190D01*
X114268115Y-91379952D01*
X102623334Y-105022381D02*
X102147143Y-105022381D01*
X102147143Y-104022381D01*
X103432858Y-104022381D02*
X102956667Y-104022381D01*
X102909048Y-104498571D01*
X102956667Y-104450952D01*
X103051905Y-104403333D01*
X103290001Y-104403333D01*
X103385239Y-104450952D01*
X103432858Y-104498571D01*
X103480477Y-104593810D01*
X103480477Y-104831905D01*
X103432858Y-104927143D01*
X103385239Y-104974762D01*
X103290001Y-105022381D01*
X103051905Y-105022381D01*
X102956667Y-104974762D01*
X102909048Y-104927143D01*
X151165341Y-130628495D02*
X150165341Y-130628495D01*
X150165341Y-130247542D01*
X150212960Y-130152304D01*
X150260579Y-130104685D01*
X150355817Y-130057066D01*
X150498674Y-130057066D01*
X150593912Y-130104685D01*
X150641531Y-130152304D01*
X150689150Y-130247542D01*
X150689150Y-130628495D01*
X151165341Y-129104685D02*
X151165341Y-129676114D01*
X151165341Y-129390400D02*
X150165341Y-129390400D01*
X150308198Y-129485638D01*
X150403436Y-129580876D01*
X150451055Y-129676114D01*
X87353343Y-106255743D02*
X87305724Y-106303362D01*
X87162867Y-106350981D01*
X87067629Y-106350981D01*
X86924771Y-106303362D01*
X86829533Y-106208124D01*
X86781914Y-106112886D01*
X86734295Y-105922410D01*
X86734295Y-105779552D01*
X86781914Y-105589076D01*
X86829533Y-105493838D01*
X86924771Y-105398600D01*
X87067629Y-105350981D01*
X87162867Y-105350981D01*
X87305724Y-105398600D01*
X87353343Y-105446219D01*
X88305724Y-106350981D02*
X87734295Y-106350981D01*
X88020009Y-106350981D02*
X88020009Y-105350981D01*
X87924771Y-105493838D01*
X87829533Y-105589076D01*
X87734295Y-105636695D01*
X89162867Y-105350981D02*
X88972390Y-105350981D01*
X88877152Y-105398600D01*
X88829533Y-105446219D01*
X88734295Y-105589076D01*
X88686676Y-105779552D01*
X88686676Y-106160505D01*
X88734295Y-106255743D01*
X88781914Y-106303362D01*
X88877152Y-106350981D01*
X89067629Y-106350981D01*
X89162867Y-106303362D01*
X89210486Y-106255743D01*
X89258105Y-106160505D01*
X89258105Y-105922410D01*
X89210486Y-105827171D01*
X89162867Y-105779552D01*
X89067629Y-105731933D01*
X88877152Y-105731933D01*
X88781914Y-105779552D01*
X88734295Y-105827171D01*
X88686676Y-105922410D01*
X110670543Y-106306543D02*
X110622924Y-106354162D01*
X110480067Y-106401781D01*
X110384829Y-106401781D01*
X110241971Y-106354162D01*
X110146733Y-106258924D01*
X110099114Y-106163686D01*
X110051495Y-105973210D01*
X110051495Y-105830352D01*
X110099114Y-105639876D01*
X110146733Y-105544638D01*
X110241971Y-105449400D01*
X110384829Y-105401781D01*
X110480067Y-105401781D01*
X110622924Y-105449400D01*
X110670543Y-105497019D01*
X111622924Y-106401781D02*
X111051495Y-106401781D01*
X111337209Y-106401781D02*
X111337209Y-105401781D01*
X111241971Y-105544638D01*
X111146733Y-105639876D01*
X111051495Y-105687495D01*
X111956257Y-105401781D02*
X112622924Y-105401781D01*
X112194352Y-106401781D01*
M02*
