%TF.GenerationSoftware,KiCad,Pcbnew,4.0.5*%
%TF.CreationDate,2018-01-19T21:54:26-07:00*%
%TF.ProjectId,Amplifier and Attenuator Module,416D706C696669657220616E64204174,6*%
%TF.FileFunction,Copper,L1,Top,Signal*%
%FSLAX46Y46*%
G04 Gerber Fmt 4.6, Leading zero omitted, Abs format (unit mm)*
G04 Created by KiCad (PCBNEW 4.0.5) date 01/19/18 21:54:26*
%MOMM*%
%LPD*%
G01*
G04 APERTURE LIST*
%ADD10C,0.100000*%
%ADD11R,2.000000X1.600000*%
%ADD12R,1.700000X1.700000*%
%ADD13O,1.700000X1.700000*%
%ADD14R,1.500000X1.300000*%
%ADD15R,2.000000X1.700000*%
%ADD16R,1.600000X2.000000*%
%ADD17C,0.800000*%
%ADD18R,3.000000X3.000000*%
%ADD19R,2.600000X1.800000*%
%ADD20C,4.500000*%
%ADD21R,1.780000X4.190000*%
%ADD22R,3.000000X4.190000*%
%ADD23R,1.500000X1.500000*%
%ADD24R,1.000000X2.500000*%
%ADD25R,2.000000X4.000000*%
%ADD26R,1.700000X2.000000*%
%ADD27R,0.850000X0.300000*%
%ADD28R,0.300000X0.850000*%
%ADD29R,1.300000X1.300000*%
%ADD30R,6.000000X2.000000*%
%ADD31R,4.200000X2.000000*%
%ADD32C,1.400000*%
%ADD33C,0.366000*%
%ADD34C,0.640663*%
%ADD35C,3.000000*%
%ADD36C,0.250000*%
%ADD37C,1.250000*%
%ADD38C,1.000000*%
%ADD39C,0.750000*%
%ADD40C,0.500000*%
%ADD41C,0.254000*%
G04 APERTURE END LIST*
D10*
D11*
X104589000Y-155962000D03*
X108589000Y-155962000D03*
X85386460Y-155942740D03*
X81386460Y-155942740D03*
D12*
X148442960Y-175543400D03*
D13*
X145902960Y-175543400D03*
X143362960Y-175543400D03*
X140822960Y-175543400D03*
X138282960Y-175543400D03*
X135742960Y-175543400D03*
X133202960Y-175543400D03*
X130662960Y-175543400D03*
X128122960Y-175543400D03*
X125582960Y-175543400D03*
X123042960Y-175543400D03*
X120502960Y-175543400D03*
X117962960Y-175543400D03*
X115422960Y-175543400D03*
X112882960Y-175543400D03*
D14*
X104140000Y-152908000D03*
X101440000Y-152908000D03*
D15*
X111482400Y-143387000D03*
X115482400Y-143387000D03*
X99187320Y-143400440D03*
X103187320Y-143400440D03*
X99690000Y-150558000D03*
X103690000Y-150558000D03*
X91196480Y-143410600D03*
X95196480Y-143410600D03*
D16*
X116060500Y-143012100D03*
X116060500Y-139012100D03*
X114925120Y-165567800D03*
X114925120Y-169567800D03*
X111272600Y-143024800D03*
X111272600Y-139024800D03*
X103893900Y-143062900D03*
X103893900Y-139062900D03*
X103865000Y-144058000D03*
X103865000Y-148058000D03*
X95995560Y-143020460D03*
X95995560Y-139020460D03*
X95440000Y-165808000D03*
X95440000Y-169808000D03*
X90440000Y-143008000D03*
X90440000Y-139008000D03*
D17*
X101709500Y-148664100D03*
X77854460Y-156837740D03*
X101357000Y-156686000D03*
X88120500Y-149172100D03*
X116830120Y-169567800D03*
X121446360Y-149180460D03*
X97345000Y-169808000D03*
X107477840Y-172668120D03*
X97317840Y-177748120D03*
X113520500Y-149172100D03*
X79537840Y-175208120D03*
X97010500Y-149172100D03*
X105900500Y-149172100D03*
X117965500Y-149172100D03*
X111097000Y-156291000D03*
X92237840Y-177748120D03*
X107477840Y-177748120D03*
X111171000Y-165459600D03*
X93535000Y-169808000D03*
X107940120Y-169567800D03*
X83375000Y-169808000D03*
X93200500Y-149172100D03*
X109710500Y-149172100D03*
X80500500Y-147267100D03*
X103893900Y-137157900D03*
X98027560Y-138004460D03*
X107758300Y-141557600D03*
X107758300Y-136652600D03*
X150351560Y-138004460D03*
X118601560Y-138004460D03*
X150354500Y-141776000D03*
X137651560Y-138004460D03*
X126221560Y-138004460D03*
X113521560Y-138004460D03*
X135984500Y-140766000D03*
X122411560Y-138004460D03*
X124900760Y-149180460D03*
X133841560Y-138004460D03*
X130031560Y-138004460D03*
X149084500Y-144951000D03*
X76691560Y-138004460D03*
X93201560Y-138004460D03*
X111272600Y-137119800D03*
X108557000Y-154386000D03*
X101837560Y-138004460D03*
X77960500Y-145362100D03*
X88121560Y-138004460D03*
X85354460Y-154037740D03*
D18*
X129760000Y-143418000D03*
D19*
X119563900Y-143348900D03*
X116163900Y-143348900D03*
X98891900Y-143410600D03*
X95491900Y-143410600D03*
D20*
X107040000Y-181508000D03*
X78215560Y-151085460D03*
X149084500Y-148430800D03*
D21*
X144677000Y-137881000D03*
D22*
X141352000Y-137881000D03*
X148002000Y-137881000D03*
D21*
X82397000Y-137851000D03*
D22*
X79072000Y-137851000D03*
X85722000Y-137851000D03*
D23*
X127107000Y-163091000D03*
X123807000Y-163091000D03*
X104507000Y-166091000D03*
X101207000Y-166091000D03*
X81104460Y-165942740D03*
X77804460Y-165942740D03*
D24*
X106258300Y-143612600D03*
X107758300Y-143612600D03*
X109258300Y-143612600D03*
D25*
X107758300Y-139652600D03*
D10*
G36*
X108758300Y-141627600D02*
X108258300Y-142377600D01*
X107258300Y-142377600D01*
X106758300Y-141627600D01*
X108758300Y-141627600D01*
X108758300Y-141627600D01*
G37*
D26*
X123757000Y-160091000D03*
X123757000Y-156091000D03*
X101357000Y-162591000D03*
X101357000Y-158591000D03*
D15*
X104589000Y-162743800D03*
X108589000Y-162743800D03*
X81386460Y-162927740D03*
X85386460Y-162927740D03*
D26*
X77854460Y-162742740D03*
X77854460Y-158742740D03*
D11*
X104589000Y-160000600D03*
X108589000Y-160000600D03*
X104589000Y-157968600D03*
X108589000Y-157968600D03*
X85386460Y-160006740D03*
X81386460Y-160006740D03*
X85386460Y-157974740D03*
X81386460Y-157974740D03*
D27*
X138055100Y-147267800D03*
X138055100Y-146767800D03*
X138055100Y-146267800D03*
X138055100Y-145767800D03*
X138055100Y-145267800D03*
X138055100Y-144767800D03*
D28*
X137355100Y-144067800D03*
X136855100Y-144067800D03*
X136355100Y-144067800D03*
X135855100Y-144067800D03*
X135355100Y-144067800D03*
X134855100Y-144067800D03*
D27*
X134155100Y-144767800D03*
X134155100Y-145267800D03*
X134155100Y-145767800D03*
X134155100Y-146267800D03*
X134155100Y-146767800D03*
X134155100Y-147267800D03*
D28*
X134855100Y-147967800D03*
X135355100Y-147967800D03*
X135855100Y-147967800D03*
X136355100Y-147967800D03*
X136855100Y-147967800D03*
X137355100Y-147967800D03*
D29*
X135455100Y-145367800D03*
X135455100Y-146667800D03*
X136755100Y-145367800D03*
X136755100Y-146667800D03*
D16*
X127114000Y-160144000D03*
X127114000Y-156144000D03*
D30*
X93257000Y-156206000D03*
X93257000Y-165856000D03*
D31*
X93257000Y-162881000D03*
X93257000Y-160181000D03*
X117166500Y-162636500D03*
X117166500Y-159936500D03*
D30*
X117166500Y-155961500D03*
X117166500Y-165611500D03*
D18*
X141870000Y-143418000D03*
D17*
X99932560Y-138004460D03*
X121725000Y-156091000D03*
X111097000Y-159391000D03*
X128456760Y-149180460D03*
X105918000Y-152908000D03*
X87640460Y-159244740D03*
X83675500Y-148537100D03*
X146084360Y-147504060D03*
X98814200Y-156700600D03*
X99423500Y-148664100D03*
X87640460Y-155942740D03*
X88455000Y-169808000D03*
X87640460Y-165594740D03*
X127114000Y-154112000D03*
X128892000Y-156144000D03*
X88120500Y-152982100D03*
X79299080Y-169813160D03*
X116060500Y-137107100D03*
X95995560Y-137115460D03*
X76724000Y-141802000D03*
X90440000Y-137103000D03*
X123757000Y-154059000D03*
X95440000Y-171840000D03*
X75949460Y-158742740D03*
X113020120Y-167662800D03*
X116830120Y-171472800D03*
X104140000Y-154178000D03*
X97010500Y-152982100D03*
X93200500Y-152982100D03*
X98817000Y-154146000D03*
X98817000Y-165576000D03*
X150354500Y-172256000D03*
X98814200Y-162593400D03*
X121725000Y-159901000D03*
X113470000Y-152916000D03*
X81339000Y-154059000D03*
X121471000Y-152916000D03*
X87157840Y-172668120D03*
X117915000Y-152916000D03*
X121725000Y-163711000D03*
X97317840Y-172668120D03*
X119566000Y-169553000D03*
X98814200Y-159393000D03*
X128456760Y-151720460D03*
X102397840Y-182828120D03*
X92237840Y-182828120D03*
X87157840Y-182828120D03*
X82077840Y-182828120D03*
X82077840Y-177748120D03*
X87157840Y-177748120D03*
X102397840Y-177748120D03*
X97317840Y-182828120D03*
X75949460Y-169791740D03*
X75949460Y-165600740D03*
X75949460Y-177792740D03*
X75949460Y-182872740D03*
X111287840Y-172668120D03*
X102397840Y-172668120D03*
X92237840Y-172668120D03*
X107758300Y-146557600D03*
X107758300Y-138557600D03*
X107758300Y-88519600D03*
X107758300Y-96519600D03*
X92237840Y-122630120D03*
X102397840Y-122630120D03*
X111287840Y-122630120D03*
X75949460Y-132834740D03*
X75949460Y-127754740D03*
X75949460Y-115562740D03*
X75949460Y-119753740D03*
X97317840Y-132790120D03*
X102397840Y-127710120D03*
X87157840Y-127710120D03*
X82077840Y-127710120D03*
X82077840Y-132790120D03*
X87157840Y-132790120D03*
X92237840Y-132790120D03*
X102397840Y-132790120D03*
X128456760Y-101682460D03*
X98814200Y-109355000D03*
X119566000Y-119515000D03*
X97317840Y-122630120D03*
X121725000Y-113673000D03*
X117915000Y-102878000D03*
X87157840Y-122630120D03*
X121471000Y-102878000D03*
X81339000Y-104021000D03*
X113470000Y-102878000D03*
X121725000Y-109863000D03*
X98814200Y-112555400D03*
X150354500Y-122218000D03*
X98817000Y-115538000D03*
X98817000Y-104108000D03*
X93200500Y-102944100D03*
X97010500Y-102944100D03*
X104140000Y-104140000D03*
X116830120Y-121434800D03*
X113020120Y-117624800D03*
X75949460Y-108704740D03*
X95440000Y-121802000D03*
X123757000Y-104021000D03*
X90440000Y-87065000D03*
X76724000Y-91764000D03*
X95995560Y-87077460D03*
X116060500Y-87069100D03*
X79299080Y-119775160D03*
X88120500Y-102944100D03*
X128892000Y-106106000D03*
X127114000Y-104074000D03*
X87640460Y-115556740D03*
X88455000Y-119770000D03*
X87640460Y-105904740D03*
X99423500Y-98626100D03*
X98814200Y-106662600D03*
X146084360Y-97466060D03*
X83675500Y-98499100D03*
X87640460Y-109206740D03*
X105918000Y-102870000D03*
X128456760Y-99142460D03*
X111097000Y-109353000D03*
X121725000Y-106053000D03*
X99932560Y-87966460D03*
D18*
X141870000Y-93380000D03*
D30*
X117166500Y-105923500D03*
X117166500Y-115573500D03*
D31*
X117166500Y-112598500D03*
X117166500Y-109898500D03*
X93257000Y-112843000D03*
X93257000Y-110143000D03*
D30*
X93257000Y-106168000D03*
X93257000Y-115818000D03*
D16*
X127114000Y-110106000D03*
X127114000Y-106106000D03*
D27*
X138055100Y-97229800D03*
X138055100Y-96729800D03*
X138055100Y-96229800D03*
X138055100Y-95729800D03*
X138055100Y-95229800D03*
X138055100Y-94729800D03*
D28*
X137355100Y-94029800D03*
X136855100Y-94029800D03*
X136355100Y-94029800D03*
X135855100Y-94029800D03*
X135355100Y-94029800D03*
X134855100Y-94029800D03*
D27*
X134155100Y-94729800D03*
X134155100Y-95229800D03*
X134155100Y-95729800D03*
X134155100Y-96229800D03*
X134155100Y-96729800D03*
X134155100Y-97229800D03*
D28*
X134855100Y-97929800D03*
X135355100Y-97929800D03*
X135855100Y-97929800D03*
X136355100Y-97929800D03*
X136855100Y-97929800D03*
X137355100Y-97929800D03*
D29*
X135455100Y-95329800D03*
X135455100Y-96629800D03*
X136755100Y-95329800D03*
X136755100Y-96629800D03*
D11*
X85386460Y-107936740D03*
X81386460Y-107936740D03*
X85386460Y-109968740D03*
X81386460Y-109968740D03*
X104589000Y-107930600D03*
X108589000Y-107930600D03*
X104589000Y-109962600D03*
X108589000Y-109962600D03*
D26*
X77854460Y-112704740D03*
X77854460Y-108704740D03*
D15*
X81386460Y-112889740D03*
X85386460Y-112889740D03*
X104589000Y-112705800D03*
X108589000Y-112705800D03*
D26*
X101357000Y-112553000D03*
X101357000Y-108553000D03*
X123757000Y-110053000D03*
X123757000Y-106053000D03*
D24*
X106258300Y-93574600D03*
X107758300Y-93574600D03*
X109258300Y-93574600D03*
D25*
X107758300Y-89614600D03*
D10*
G36*
X108758300Y-91589600D02*
X108258300Y-92339600D01*
X107258300Y-92339600D01*
X106758300Y-91589600D01*
X108758300Y-91589600D01*
X108758300Y-91589600D01*
G37*
D23*
X81104460Y-115904740D03*
X77804460Y-115904740D03*
X104507000Y-116053000D03*
X101207000Y-116053000D03*
X127107000Y-113053000D03*
X123807000Y-113053000D03*
D21*
X82397000Y-87813000D03*
D22*
X79072000Y-87813000D03*
X85722000Y-87813000D03*
D21*
X144677000Y-87843000D03*
D22*
X141352000Y-87843000D03*
X148002000Y-87843000D03*
D20*
X149084500Y-98392800D03*
X78215560Y-101047460D03*
X107040000Y-131470000D03*
D19*
X98891900Y-93372600D03*
X95491900Y-93372600D03*
X119563900Y-93310900D03*
X116163900Y-93310900D03*
D18*
X129760000Y-93380000D03*
D17*
X85354460Y-103999740D03*
X88121560Y-87966460D03*
X77960500Y-95324100D03*
X101837560Y-87966460D03*
X108557000Y-104348000D03*
X111272600Y-87081800D03*
X93201560Y-87966460D03*
X76691560Y-87966460D03*
X149084500Y-94913000D03*
X130031560Y-87966460D03*
X133841560Y-87966460D03*
X124900760Y-99142460D03*
X122411560Y-87966460D03*
X135984500Y-90728000D03*
X113521560Y-87966460D03*
X126221560Y-87966460D03*
X137651560Y-87966460D03*
X150354500Y-91738000D03*
X118601560Y-87966460D03*
X150351560Y-87966460D03*
X107758300Y-86614600D03*
X107758300Y-91519600D03*
X98027560Y-87966460D03*
X103893900Y-87119900D03*
X80500500Y-97229100D03*
X109710500Y-99134100D03*
X93200500Y-99134100D03*
X83375000Y-119770000D03*
X107940120Y-119529800D03*
X93535000Y-119770000D03*
X111171000Y-115421600D03*
X107477840Y-127710120D03*
X92237840Y-127710120D03*
X111097000Y-106253000D03*
X117965500Y-99134100D03*
X105900500Y-99134100D03*
X97010500Y-99134100D03*
X79537840Y-125170120D03*
X113520500Y-99134100D03*
X97317840Y-127710120D03*
X107477840Y-122630120D03*
X97345000Y-119770000D03*
X121446360Y-99142460D03*
X116830120Y-119529800D03*
X88120500Y-99134100D03*
X101357000Y-106648000D03*
X77854460Y-106799740D03*
X101709500Y-98626100D03*
D16*
X90440000Y-92970000D03*
X90440000Y-88970000D03*
X95440000Y-115770000D03*
X95440000Y-119770000D03*
X95995560Y-92982460D03*
X95995560Y-88982460D03*
X103865000Y-94020000D03*
X103865000Y-98020000D03*
X103893900Y-93024900D03*
X103893900Y-89024900D03*
X111272600Y-92986800D03*
X111272600Y-88986800D03*
X114925120Y-115529800D03*
X114925120Y-119529800D03*
X116060500Y-92974100D03*
X116060500Y-88974100D03*
D15*
X91196480Y-93372600D03*
X95196480Y-93372600D03*
X99690000Y-100520000D03*
X103690000Y-100520000D03*
X99187320Y-93362440D03*
X103187320Y-93362440D03*
X111482400Y-93349000D03*
X115482400Y-93349000D03*
D14*
X104140000Y-102870000D03*
X101440000Y-102870000D03*
D12*
X148442960Y-125505400D03*
D13*
X145902960Y-125505400D03*
X143362960Y-125505400D03*
X140822960Y-125505400D03*
X138282960Y-125505400D03*
X135742960Y-125505400D03*
X133202960Y-125505400D03*
X130662960Y-125505400D03*
X128122960Y-125505400D03*
X125582960Y-125505400D03*
X123042960Y-125505400D03*
X120502960Y-125505400D03*
X117962960Y-125505400D03*
X115422960Y-125505400D03*
X112882960Y-125505400D03*
D11*
X85386460Y-105904740D03*
X81386460Y-105904740D03*
X104589000Y-105924000D03*
X108589000Y-105924000D03*
D17*
X136746800Y-146664300D03*
X135446800Y-146664300D03*
X136746800Y-145364300D03*
X135446800Y-145364300D03*
X132357000Y-146751000D03*
X148422640Y-178693000D03*
X148422640Y-128655000D03*
X132357000Y-96713000D03*
X135446800Y-95326300D03*
X136746800Y-95326300D03*
X135446800Y-96626300D03*
X136746800Y-96626300D03*
D32*
X132457000Y-161091000D03*
X122682280Y-166104760D03*
X122682280Y-116066760D03*
X132457000Y-111053000D03*
D33*
X105332260Y-143628700D02*
X105276400Y-143628700D01*
D34*
X105256400Y-143575700D02*
X105276400Y-143555700D01*
D35*
X99643000Y-143575700D02*
X105256400Y-143575700D01*
D36*
X98579000Y-143509700D02*
X98513000Y-143575700D01*
X106271400Y-143509700D02*
X98579000Y-143509700D01*
X104310400Y-143612600D02*
X103865000Y-144058000D01*
X106258300Y-143612600D02*
X104310400Y-143612600D01*
X106258300Y-93574600D02*
X104310400Y-93574600D01*
X104310400Y-93574600D02*
X103865000Y-94020000D01*
X106271400Y-93471700D02*
X98579000Y-93471700D01*
X98579000Y-93471700D02*
X98513000Y-93537700D01*
D35*
X99643000Y-93537700D02*
X105256400Y-93537700D01*
D34*
X105256400Y-93537700D02*
X105276400Y-93517700D01*
D33*
X105332260Y-93590700D02*
X105276400Y-93590700D01*
D37*
X108614000Y-159294000D02*
X108614000Y-156294000D01*
D38*
X108557000Y-156291000D02*
X108557000Y-152291000D01*
X127079000Y-156109000D02*
X127114000Y-156144000D01*
D37*
X127114000Y-156144000D02*
X123834000Y-156144000D01*
D38*
X123834000Y-156144000D02*
X123829000Y-156149000D01*
D36*
X135346800Y-146764300D02*
X135446800Y-146664300D01*
X135046800Y-146264300D02*
X135446800Y-146664300D01*
X135346800Y-139921200D02*
X135364000Y-139904000D01*
X135346800Y-144091800D02*
X135346800Y-139921200D01*
X135846800Y-139921200D02*
X135864000Y-139904000D01*
X135846800Y-144091800D02*
X135846800Y-139921200D01*
X136346800Y-139921200D02*
X136364000Y-139904000D01*
X136346800Y-144091800D02*
X136346800Y-139921200D01*
X136846800Y-140136800D02*
X136864000Y-140119600D01*
X136846800Y-144091800D02*
X136846800Y-140136800D01*
X136864000Y-140119600D02*
X136864000Y-139904000D01*
X135846800Y-144964300D02*
X135446800Y-145364300D01*
X135846800Y-144064300D02*
X135846800Y-144964300D01*
X135346800Y-145264300D02*
X135446800Y-145364300D01*
X135346800Y-144064300D02*
X135346800Y-145264300D01*
X136346800Y-144964300D02*
X136746800Y-145364300D01*
X136346800Y-144064300D02*
X136346800Y-144964300D01*
X136846800Y-145264300D02*
X136746800Y-145364300D01*
X136846800Y-144064300D02*
X136846800Y-145264300D01*
X136846800Y-145264300D02*
X136746800Y-145364300D01*
X138046800Y-145264300D02*
X136846800Y-145264300D01*
X135346800Y-145264300D02*
X135446800Y-145364300D01*
X134146800Y-145264300D02*
X135346800Y-145264300D01*
X130756200Y-145264300D02*
X127494500Y-148526000D01*
X134146800Y-145264300D02*
X130756200Y-145264300D01*
X127494500Y-150666000D02*
X127494500Y-148526000D01*
X78957000Y-137966000D02*
X79072000Y-137851000D01*
X76694500Y-137966000D02*
X78957000Y-137966000D01*
X85837000Y-137966000D02*
X85722000Y-137851000D01*
X88124500Y-137966000D02*
X85837000Y-137966000D01*
X141267000Y-137966000D02*
X141352000Y-137881000D01*
X137654500Y-137966000D02*
X141267000Y-137966000D01*
X148087000Y-137966000D02*
X148002000Y-137881000D01*
X150354500Y-137966000D02*
X148087000Y-137966000D01*
X107757000Y-137931000D02*
X107760000Y-137928000D01*
X107757000Y-140671000D02*
X107757000Y-137931000D01*
X107757000Y-150613500D02*
X107809500Y-150666000D01*
X107757000Y-150613500D02*
X107809500Y-150666000D01*
X107757000Y-141638000D02*
X107746000Y-141649000D01*
X107757000Y-140671000D02*
X107757000Y-141638000D01*
X107757000Y-144631000D02*
X107757000Y-150613500D01*
X107757000Y-144631000D02*
X107757000Y-140671000D01*
X107757000Y-143021000D02*
X107757000Y-144631000D01*
X134146800Y-146764300D02*
X135346800Y-146764300D01*
X134146800Y-146264300D02*
X135046800Y-146264300D01*
X134146800Y-146764300D02*
X132370300Y-146764300D01*
X132843700Y-146264300D02*
X132357000Y-146751000D01*
X132370300Y-146764300D02*
X132357000Y-146751000D01*
X132843700Y-146264300D02*
X134146800Y-146264300D01*
X137346800Y-144064300D02*
X134846800Y-144064300D01*
X134846800Y-138148300D02*
X134764500Y-138066000D01*
X134846800Y-144064300D02*
X134846800Y-138148300D01*
X137346800Y-138508300D02*
X137324500Y-138486000D01*
X137346800Y-144064300D02*
X137346800Y-138508300D01*
D37*
X85364000Y-159294000D02*
X85364000Y-156044000D01*
X101357000Y-156266000D02*
X101640000Y-155983000D01*
X101357000Y-158591000D02*
X101357000Y-156266000D01*
D38*
X107757000Y-148951000D02*
X107757000Y-144631000D01*
X108557000Y-152291000D02*
X107757000Y-151491000D01*
X107757000Y-148951000D02*
X107757000Y-151491000D01*
D39*
X148442960Y-178672680D02*
X148422640Y-178693000D01*
X148442960Y-175543400D02*
X148442960Y-178672680D01*
D36*
X115050600Y-138002200D02*
X116060500Y-139012100D01*
X113644960Y-138002200D02*
X115050600Y-138002200D01*
X89398000Y-137966000D02*
X88124500Y-137966000D01*
X90440000Y-139008000D02*
X89398000Y-137966000D01*
X94883100Y-137908000D02*
X93240000Y-137908000D01*
X95995560Y-139020460D02*
X94883100Y-137908000D01*
X103906600Y-139050200D02*
X103906600Y-136706800D01*
X103893900Y-139062900D02*
X103906600Y-139050200D01*
X111272600Y-139024800D02*
X111272600Y-136706800D01*
D37*
X115597020Y-170204320D02*
X117378760Y-170204320D01*
X114960500Y-169567800D02*
X115597020Y-170204320D01*
X114808100Y-169567800D02*
X114960500Y-169567800D01*
X111171000Y-165930700D02*
X114808100Y-169567800D01*
X111171000Y-165459600D02*
X111171000Y-165930700D01*
D36*
X143017200Y-145267800D02*
X145651500Y-147902100D01*
X138055100Y-145267800D02*
X143017200Y-145267800D01*
D37*
X85386460Y-154069740D02*
X85354460Y-154037740D01*
X85386460Y-155942740D02*
X85386460Y-154069740D01*
X77854460Y-158742740D02*
X77854460Y-156837740D01*
X127114000Y-156144000D02*
X128892000Y-156144000D01*
X123757000Y-156091000D02*
X121725000Y-156091000D01*
X110487400Y-160000600D02*
X111097000Y-159391000D01*
X108589000Y-160000600D02*
X110487400Y-160000600D01*
X86878460Y-160006740D02*
X87640460Y-159244740D01*
X85386460Y-160006740D02*
X86878460Y-160006740D01*
X97345000Y-169808000D02*
X93535000Y-169808000D01*
X95440000Y-169808000D02*
X97345000Y-169808000D01*
X104140000Y-152908000D02*
X105918000Y-152908000D01*
X104140000Y-102870000D02*
X105918000Y-102870000D01*
X95440000Y-119770000D02*
X97345000Y-119770000D01*
X97345000Y-119770000D02*
X93535000Y-119770000D01*
X85386460Y-109968740D02*
X86878460Y-109968740D01*
X86878460Y-109968740D02*
X87640460Y-109206740D01*
X108589000Y-109962600D02*
X110487400Y-109962600D01*
X110487400Y-109962600D02*
X111097000Y-109353000D01*
X123757000Y-106053000D02*
X121725000Y-106053000D01*
X127114000Y-106106000D02*
X128892000Y-106106000D01*
X77854460Y-108704740D02*
X77854460Y-106799740D01*
X85386460Y-105904740D02*
X85386460Y-104031740D01*
X85386460Y-104031740D02*
X85354460Y-103999740D01*
D36*
X138055100Y-95229800D02*
X143017200Y-95229800D01*
X143017200Y-95229800D02*
X145651500Y-97864100D01*
D37*
X111171000Y-115421600D02*
X111171000Y-115892700D01*
X111171000Y-115892700D02*
X114808100Y-119529800D01*
X114808100Y-119529800D02*
X114960500Y-119529800D01*
X114960500Y-119529800D02*
X115597020Y-120166320D01*
X115597020Y-120166320D02*
X117378760Y-120166320D01*
D36*
X111272600Y-88986800D02*
X111272600Y-86668800D01*
X103893900Y-89024900D02*
X103906600Y-89012200D01*
X103906600Y-89012200D02*
X103906600Y-86668800D01*
X95995560Y-88982460D02*
X94883100Y-87870000D01*
X94883100Y-87870000D02*
X93240000Y-87870000D01*
X90440000Y-88970000D02*
X89398000Y-87928000D01*
X89398000Y-87928000D02*
X88124500Y-87928000D01*
X113644960Y-87964200D02*
X115050600Y-87964200D01*
X115050600Y-87964200D02*
X116060500Y-88974100D01*
D39*
X148442960Y-125505400D02*
X148442960Y-128634680D01*
X148442960Y-128634680D02*
X148422640Y-128655000D01*
D38*
X107757000Y-98913000D02*
X107757000Y-101453000D01*
X108557000Y-102253000D02*
X107757000Y-101453000D01*
X107757000Y-98913000D02*
X107757000Y-94593000D01*
D37*
X101357000Y-108553000D02*
X101357000Y-106228000D01*
X101357000Y-106228000D02*
X101640000Y-105945000D01*
X85364000Y-109256000D02*
X85364000Y-106006000D01*
D36*
X137346800Y-94026300D02*
X137346800Y-88470300D01*
X137346800Y-88470300D02*
X137324500Y-88448000D01*
X134846800Y-94026300D02*
X134846800Y-88110300D01*
X134846800Y-88110300D02*
X134764500Y-88028000D01*
X137346800Y-94026300D02*
X134846800Y-94026300D01*
X132843700Y-96226300D02*
X134146800Y-96226300D01*
X132370300Y-96726300D02*
X132357000Y-96713000D01*
X132843700Y-96226300D02*
X132357000Y-96713000D01*
X134146800Y-96726300D02*
X132370300Y-96726300D01*
X134146800Y-96226300D02*
X135046800Y-96226300D01*
X134146800Y-96726300D02*
X135346800Y-96726300D01*
X107757000Y-92983000D02*
X107757000Y-94593000D01*
X107757000Y-94593000D02*
X107757000Y-90633000D01*
X107757000Y-94593000D02*
X107757000Y-100575500D01*
X107757000Y-90633000D02*
X107757000Y-91600000D01*
X107757000Y-91600000D02*
X107746000Y-91611000D01*
X107757000Y-100575500D02*
X107809500Y-100628000D01*
X107757000Y-100575500D02*
X107809500Y-100628000D01*
X107757000Y-90633000D02*
X107757000Y-87893000D01*
X107757000Y-87893000D02*
X107760000Y-87890000D01*
X150354500Y-87928000D02*
X148087000Y-87928000D01*
X148087000Y-87928000D02*
X148002000Y-87843000D01*
X137654500Y-87928000D02*
X141267000Y-87928000D01*
X141267000Y-87928000D02*
X141352000Y-87843000D01*
X88124500Y-87928000D02*
X85837000Y-87928000D01*
X85837000Y-87928000D02*
X85722000Y-87813000D01*
X76694500Y-87928000D02*
X78957000Y-87928000D01*
X78957000Y-87928000D02*
X79072000Y-87813000D01*
X127494500Y-100628000D02*
X127494500Y-98488000D01*
X134146800Y-95226300D02*
X130756200Y-95226300D01*
X130756200Y-95226300D02*
X127494500Y-98488000D01*
X134146800Y-95226300D02*
X135346800Y-95226300D01*
X135346800Y-95226300D02*
X135446800Y-95326300D01*
X138046800Y-95226300D02*
X136846800Y-95226300D01*
X136846800Y-95226300D02*
X136746800Y-95326300D01*
X136846800Y-94026300D02*
X136846800Y-95226300D01*
X136846800Y-95226300D02*
X136746800Y-95326300D01*
X136346800Y-94026300D02*
X136346800Y-94926300D01*
X136346800Y-94926300D02*
X136746800Y-95326300D01*
X135346800Y-94026300D02*
X135346800Y-95226300D01*
X135346800Y-95226300D02*
X135446800Y-95326300D01*
X135846800Y-94026300D02*
X135846800Y-94926300D01*
X135846800Y-94926300D02*
X135446800Y-95326300D01*
X136864000Y-90081600D02*
X136864000Y-89866000D01*
X136846800Y-94053800D02*
X136846800Y-90098800D01*
X136846800Y-90098800D02*
X136864000Y-90081600D01*
X136346800Y-94053800D02*
X136346800Y-89883200D01*
X136346800Y-89883200D02*
X136364000Y-89866000D01*
X135846800Y-94053800D02*
X135846800Y-89883200D01*
X135846800Y-89883200D02*
X135864000Y-89866000D01*
X135346800Y-94053800D02*
X135346800Y-89883200D01*
X135346800Y-89883200D02*
X135364000Y-89866000D01*
X135046800Y-96226300D02*
X135446800Y-96626300D01*
X135346800Y-96726300D02*
X135446800Y-96626300D01*
D38*
X123834000Y-106106000D02*
X123829000Y-106111000D01*
D37*
X127114000Y-106106000D02*
X123834000Y-106106000D01*
D38*
X127079000Y-106071000D02*
X127114000Y-106106000D01*
X108557000Y-106253000D02*
X108557000Y-102253000D01*
D37*
X108614000Y-109256000D02*
X108614000Y-106256000D01*
D38*
X117226500Y-159916500D02*
X117176500Y-159866500D01*
D33*
X115673500Y-155589500D02*
X116075500Y-155991500D01*
X116075500Y-155991500D02*
X117226500Y-157091500D01*
D38*
X117226500Y-159916500D02*
X117226500Y-157091500D01*
D33*
X115541500Y-155961500D02*
X117166500Y-155961500D01*
X115266500Y-155686500D02*
X115541500Y-155961500D01*
D36*
X115781500Y-155961500D02*
X117166500Y-155961500D01*
X115266500Y-155446500D02*
X115781500Y-155961500D01*
D40*
X117166500Y-155961500D02*
X115087000Y-155961500D01*
X116400000Y-155961500D02*
X115698000Y-155259500D01*
X117166500Y-155961500D02*
X116400000Y-155961500D01*
X115849000Y-155961500D02*
X117166500Y-155961500D01*
X115698000Y-156112500D02*
X115849000Y-155961500D01*
D34*
X114586834Y-143874087D02*
X114706834Y-143994087D01*
D33*
X110380200Y-143746500D02*
X110168854Y-143535154D01*
D35*
X110168854Y-143535154D02*
X115387400Y-143514000D01*
D36*
X116631534Y-143556587D02*
X116697534Y-143622587D01*
X109217200Y-143579500D02*
X116631534Y-143556587D01*
D40*
X116658900Y-155961500D02*
X117166500Y-155961500D01*
X115795600Y-155098200D02*
X116658900Y-155961500D01*
X115795600Y-143412400D02*
X115795600Y-155098200D01*
D36*
X109846100Y-143024800D02*
X109258300Y-143612600D01*
X111272600Y-143024800D02*
X109846100Y-143024800D01*
X111272600Y-92986800D02*
X109846100Y-92986800D01*
X109846100Y-92986800D02*
X109258300Y-93574600D01*
D40*
X115795600Y-93374400D02*
X115795600Y-105060200D01*
X115795600Y-105060200D02*
X116658900Y-105923500D01*
X116658900Y-105923500D02*
X117166500Y-105923500D01*
D36*
X109217200Y-93541500D02*
X116631534Y-93518587D01*
X116631534Y-93518587D02*
X116697534Y-93584587D01*
D35*
X110168854Y-93497154D02*
X115387400Y-93476000D01*
D33*
X110380200Y-93708500D02*
X110168854Y-93497154D01*
D34*
X114586834Y-93836087D02*
X114706834Y-93956087D01*
D40*
X115698000Y-106074500D02*
X115849000Y-105923500D01*
X115849000Y-105923500D02*
X117166500Y-105923500D01*
X117166500Y-105923500D02*
X116400000Y-105923500D01*
X116400000Y-105923500D02*
X115698000Y-105221500D01*
X117166500Y-105923500D02*
X115087000Y-105923500D01*
D36*
X115266500Y-105408500D02*
X115781500Y-105923500D01*
X115781500Y-105923500D02*
X117166500Y-105923500D01*
D33*
X115266500Y-105648500D02*
X115541500Y-105923500D01*
X115541500Y-105923500D02*
X117166500Y-105923500D01*
D38*
X117226500Y-109878500D02*
X117226500Y-107053500D01*
D33*
X116075500Y-105953500D02*
X117226500Y-107053500D01*
X115673500Y-105551500D02*
X116075500Y-105953500D01*
D38*
X117226500Y-109878500D02*
X117176500Y-109828500D01*
D36*
X144157000Y-154526800D02*
X144157000Y-154491000D01*
D39*
X144157000Y-154526800D02*
X144157000Y-153221000D01*
X144157000Y-155991000D02*
X144157000Y-154526800D01*
X144157000Y-167308000D02*
X144157000Y-160891000D01*
X144157000Y-155991000D02*
X144157000Y-160891000D01*
D36*
X138200300Y-147264300D02*
X144157000Y-153221000D01*
X138200300Y-147264300D02*
X138046800Y-147264300D01*
D39*
X138282960Y-173694280D02*
X144157000Y-167820240D01*
X144157000Y-167820240D02*
X144157000Y-153221000D01*
X138282960Y-175543400D02*
X138282960Y-173694280D01*
X138282960Y-125505400D02*
X138282960Y-123656280D01*
X144157000Y-117782240D02*
X144157000Y-103183000D01*
X138282960Y-123656280D02*
X144157000Y-117782240D01*
D36*
X138200300Y-97226300D02*
X138046800Y-97226300D01*
X138200300Y-97226300D02*
X144157000Y-103183000D01*
D39*
X144157000Y-105953000D02*
X144157000Y-110853000D01*
X144157000Y-117270000D02*
X144157000Y-110853000D01*
X144157000Y-105953000D02*
X144157000Y-104488800D01*
X144157000Y-104488800D02*
X144157000Y-103183000D01*
D36*
X144157000Y-104488800D02*
X144157000Y-104453000D01*
D39*
X145857000Y-168584040D02*
X145857000Y-153240000D01*
X140822960Y-173618080D02*
X145857000Y-168584040D01*
D36*
X139381300Y-146764300D02*
X138046800Y-146764300D01*
X139381300Y-146764300D02*
X145857000Y-153240000D01*
D39*
X140822960Y-175543400D02*
X140822960Y-173618080D01*
X140822960Y-125505400D02*
X140822960Y-123580080D01*
D36*
X139381300Y-96726300D02*
X145857000Y-103202000D01*
X139381300Y-96726300D02*
X138046800Y-96726300D01*
D39*
X140822960Y-123580080D02*
X145857000Y-118546040D01*
X145857000Y-118546040D02*
X145857000Y-103202000D01*
X147557000Y-155365000D02*
X147557000Y-155291000D01*
X147557000Y-153259000D02*
X147557000Y-155365000D01*
D36*
X147557000Y-153259000D02*
X140562300Y-146264300D01*
X138046800Y-146264300D02*
X140562300Y-146264300D01*
D39*
X143362960Y-173643480D02*
X147557000Y-169449440D01*
X147557000Y-169449440D02*
X147557000Y-153259000D01*
X143362960Y-175543400D02*
X143362960Y-173643480D01*
X143362960Y-125505400D02*
X143362960Y-123605480D01*
X147557000Y-119411440D02*
X147557000Y-103221000D01*
X143362960Y-123605480D02*
X147557000Y-119411440D01*
D36*
X138046800Y-96226300D02*
X140562300Y-96226300D01*
X147557000Y-103221000D02*
X140562300Y-96226300D01*
D39*
X147557000Y-103221000D02*
X147557000Y-105327000D01*
X147557000Y-105327000D02*
X147557000Y-105253000D01*
D36*
X149357000Y-155991000D02*
X149357000Y-155791000D01*
X149337950Y-155971950D02*
X149357000Y-155991000D01*
X141743300Y-145764300D02*
X149337950Y-153358950D01*
D39*
X149337950Y-153358950D02*
X149337950Y-155971950D01*
D36*
X138046800Y-145764300D02*
X141743300Y-145764300D01*
D39*
X145902960Y-173618080D02*
X149337950Y-170183090D01*
X149337950Y-170183090D02*
X149337950Y-153358950D01*
X145902960Y-175543400D02*
X145902960Y-173618080D01*
X145902960Y-125505400D02*
X145902960Y-123580080D01*
X149337950Y-120145090D02*
X149337950Y-103320950D01*
X145902960Y-123580080D02*
X149337950Y-120145090D01*
D36*
X138046800Y-95726300D02*
X141743300Y-95726300D01*
D39*
X149337950Y-103320950D02*
X149337950Y-105933950D01*
D36*
X141743300Y-95726300D02*
X149337950Y-103320950D01*
X149337950Y-105933950D02*
X149357000Y-105953000D01*
X149357000Y-105953000D02*
X149357000Y-105753000D01*
X128017800Y-144764300D02*
X127875300Y-144764300D01*
X128017800Y-144764300D02*
X127710300Y-144764300D01*
D39*
X133831732Y-144547972D02*
X128379500Y-144076000D01*
X133831732Y-144547972D02*
X127907528Y-144547972D01*
X133019760Y-143736000D02*
X128719500Y-143736000D01*
X133831732Y-144547972D02*
X133019760Y-143736000D01*
D35*
X120889100Y-143424300D02*
X125610000Y-143418000D01*
X120509100Y-143423300D02*
X120889100Y-143424300D01*
D36*
X129760000Y-143418000D02*
X125666500Y-143418000D01*
X134051560Y-144767800D02*
X133831732Y-144547972D01*
X134155100Y-144767800D02*
X134051560Y-144767800D01*
X131128500Y-142049500D02*
X129760000Y-143418000D01*
X134155100Y-144505600D02*
X131699000Y-142049500D01*
X131699000Y-142049500D02*
X131128500Y-142049500D01*
X134155100Y-144576800D02*
X134155100Y-144505600D01*
X134155100Y-144767800D02*
X134155100Y-144576800D01*
X125666500Y-143418000D02*
X125610000Y-143418000D01*
D35*
X126390400Y-143418000D02*
X131105200Y-143418000D01*
X125666500Y-143418000D02*
X126390400Y-143418000D01*
X131105200Y-143418000D02*
X131114800Y-143408400D01*
X131114800Y-143408400D02*
X129760000Y-143418000D01*
D36*
X133908800Y-144576800D02*
X131368800Y-142036800D01*
X131368800Y-142036800D02*
X127914400Y-142036800D01*
X127914400Y-142036800D02*
X126390400Y-143560800D01*
X126390400Y-143560800D02*
X126390400Y-143418000D01*
X134155100Y-144576800D02*
X133908800Y-144576800D01*
X134155100Y-94538800D02*
X133908800Y-94538800D01*
X126390400Y-93522800D02*
X126390400Y-93380000D01*
X127914400Y-91998800D02*
X126390400Y-93522800D01*
X131368800Y-91998800D02*
X127914400Y-91998800D01*
X133908800Y-94538800D02*
X131368800Y-91998800D01*
D35*
X131114800Y-93370400D02*
X129760000Y-93380000D01*
X131105200Y-93380000D02*
X131114800Y-93370400D01*
X125666500Y-93380000D02*
X126390400Y-93380000D01*
X126390400Y-93380000D02*
X131105200Y-93380000D01*
D36*
X125666500Y-93380000D02*
X125610000Y-93380000D01*
X134155100Y-94729800D02*
X134155100Y-94538800D01*
X134155100Y-94538800D02*
X134155100Y-94467600D01*
X131699000Y-92011500D02*
X131128500Y-92011500D01*
X134155100Y-94467600D02*
X131699000Y-92011500D01*
X131128500Y-92011500D02*
X129760000Y-93380000D01*
X134155100Y-94729800D02*
X134051560Y-94729800D01*
X134051560Y-94729800D02*
X133831732Y-94509972D01*
X129760000Y-93380000D02*
X125666500Y-93380000D01*
D35*
X120509100Y-93385300D02*
X120889100Y-93386300D01*
X120889100Y-93386300D02*
X125610000Y-93380000D01*
D39*
X133831732Y-94509972D02*
X133019760Y-93698000D01*
X133019760Y-93698000D02*
X128719500Y-93698000D01*
X133831732Y-94509972D02*
X127907528Y-94509972D01*
X133831732Y-94509972D02*
X128379500Y-94038000D01*
D36*
X128017800Y-94726300D02*
X127710300Y-94726300D01*
X128017800Y-94726300D02*
X127875300Y-94726300D01*
X131943700Y-145764300D02*
X131660100Y-146047900D01*
X131943700Y-145764300D02*
X131964900Y-145764300D01*
X131964900Y-145764300D02*
X134146800Y-145764300D01*
X131964900Y-145764300D02*
X131964900Y-145764300D01*
X131964900Y-145764300D02*
X131964900Y-145763800D01*
X131964900Y-145763800D02*
X131964900Y-145764300D01*
X131964900Y-145763800D02*
X131964900Y-145763800D01*
D40*
X131609300Y-145941600D02*
X131660100Y-145890800D01*
D36*
X131930000Y-145763800D02*
X131609300Y-145763800D01*
X131964900Y-145763800D02*
X131930000Y-145763800D01*
X131609300Y-145763800D02*
X131609300Y-145941600D01*
D40*
X130796500Y-146911500D02*
X130796500Y-146754400D01*
X130796500Y-146754400D02*
X131609300Y-145941600D01*
D36*
X130796500Y-146911500D02*
X130857000Y-146851000D01*
D39*
X130857000Y-146851000D02*
X130447000Y-147261000D01*
D36*
X131070000Y-146988000D02*
X130447000Y-147261000D01*
X131930000Y-145763800D02*
X131070000Y-146988000D01*
D39*
X120502960Y-173699360D02*
X130447000Y-163755320D01*
X130447000Y-163755320D02*
X130447000Y-147261000D01*
X120502960Y-175543400D02*
X120502960Y-173699360D01*
X120502960Y-125505400D02*
X120502960Y-123661360D01*
X130447000Y-113717320D02*
X130447000Y-97223000D01*
X120502960Y-123661360D02*
X130447000Y-113717320D01*
D36*
X131930000Y-95725800D02*
X131070000Y-96950000D01*
X131070000Y-96950000D02*
X130447000Y-97223000D01*
D39*
X130857000Y-96813000D02*
X130447000Y-97223000D01*
D36*
X130796500Y-96873500D02*
X130857000Y-96813000D01*
D40*
X130796500Y-96716400D02*
X131609300Y-95903600D01*
X130796500Y-96873500D02*
X130796500Y-96716400D01*
D36*
X131609300Y-95725800D02*
X131609300Y-95903600D01*
X131964900Y-95725800D02*
X131930000Y-95725800D01*
X131930000Y-95725800D02*
X131609300Y-95725800D01*
D40*
X131609300Y-95903600D02*
X131660100Y-95852800D01*
D36*
X131964900Y-95725800D02*
X131964900Y-95725800D01*
X131964900Y-95725800D02*
X131964900Y-95726300D01*
X131964900Y-95726300D02*
X131964900Y-95725800D01*
X131964900Y-95726300D02*
X131964900Y-95726300D01*
X131964900Y-95726300D02*
X134146800Y-95726300D01*
X131943700Y-95726300D02*
X131964900Y-95726300D01*
X131943700Y-95726300D02*
X131660100Y-96009900D01*
D37*
X127064000Y-163044000D02*
X127064000Y-160194000D01*
D36*
X134150400Y-147345700D02*
X133979800Y-147345700D01*
X134146800Y-147264300D02*
X133721100Y-147772500D01*
X133721100Y-147772500D02*
X132457000Y-148954100D01*
D38*
X132399304Y-149269157D02*
X132399304Y-148936196D01*
X133760000Y-147658000D02*
X133721100Y-147696900D01*
X132399304Y-148936196D02*
X133760000Y-147658000D01*
D36*
X133736400Y-148117400D02*
X133760000Y-147658000D01*
X134155100Y-147742900D02*
X132628843Y-149269157D01*
X132628843Y-149269157D02*
X132399304Y-149269157D01*
X134155100Y-147267800D02*
X134155100Y-147742900D01*
D37*
X117962960Y-173679040D02*
X127107000Y-164535000D01*
X127107000Y-164535000D02*
X127107000Y-163091000D01*
X117962960Y-175543400D02*
X117962960Y-173679040D01*
X132399304Y-161033304D02*
X132457000Y-161091000D01*
X122682280Y-168959720D02*
X117962960Y-173679040D01*
X122682280Y-166104760D02*
X122682280Y-168959720D01*
D38*
X132399304Y-149269157D02*
X132399304Y-161033304D01*
X127064000Y-160194000D02*
X127114000Y-160144000D01*
X127064000Y-110156000D02*
X127114000Y-110106000D01*
X132399304Y-99231157D02*
X132399304Y-110995304D01*
D37*
X122682280Y-116066760D02*
X122682280Y-118921720D01*
X122682280Y-118921720D02*
X117962960Y-123641040D01*
X132399304Y-110995304D02*
X132457000Y-111053000D01*
X117962960Y-125505400D02*
X117962960Y-123641040D01*
X127107000Y-114497000D02*
X127107000Y-113053000D01*
X117962960Y-123641040D02*
X127107000Y-114497000D01*
D36*
X134155100Y-97229800D02*
X134155100Y-97704900D01*
X132628843Y-99231157D02*
X132399304Y-99231157D01*
X134155100Y-97704900D02*
X132628843Y-99231157D01*
X133736400Y-98079400D02*
X133760000Y-97620000D01*
D38*
X132399304Y-98898196D02*
X133760000Y-97620000D01*
X133760000Y-97620000D02*
X133721100Y-97658900D01*
X132399304Y-99231157D02*
X132399304Y-98898196D01*
D36*
X133721100Y-97734500D02*
X132457000Y-98916100D01*
X134146800Y-97226300D02*
X133721100Y-97734500D01*
X134150400Y-97307700D02*
X133979800Y-97307700D01*
D37*
X127064000Y-113006000D02*
X127064000Y-110156000D01*
D36*
X134846800Y-149061200D02*
X134846800Y-147964300D01*
X134846800Y-151555000D02*
X134846800Y-152330700D01*
X134846800Y-152330700D02*
X134057000Y-153120500D01*
X134846800Y-149061200D02*
X134846800Y-151555000D01*
D39*
X123042960Y-173653640D02*
X134057000Y-162639600D01*
X134057000Y-162639600D02*
X134057000Y-153120500D01*
X123042960Y-175543400D02*
X123042960Y-173653640D01*
X123042960Y-125505400D02*
X123042960Y-123615640D01*
X134057000Y-112601600D02*
X134057000Y-103082500D01*
X123042960Y-123615640D02*
X134057000Y-112601600D01*
D36*
X134846800Y-99023200D02*
X134846800Y-101517000D01*
X134846800Y-102292700D02*
X134057000Y-103082500D01*
X134846800Y-101517000D02*
X134846800Y-102292700D01*
X134846800Y-99023200D02*
X134846800Y-97926300D01*
X135657000Y-153113500D02*
X135346800Y-152803300D01*
X135346800Y-152803300D02*
X135346800Y-147964300D01*
D39*
X135657000Y-163605000D02*
X135657000Y-153113500D01*
X125582960Y-173679040D02*
X135657000Y-163605000D01*
X125582960Y-175543400D02*
X125582960Y-173679040D01*
X125582960Y-125505400D02*
X125582960Y-123641040D01*
X125582960Y-123641040D02*
X135657000Y-113567000D01*
X135657000Y-113567000D02*
X135657000Y-103075500D01*
D36*
X135346800Y-102765300D02*
X135346800Y-97926300D01*
X135657000Y-103075500D02*
X135346800Y-102765300D01*
X137357000Y-153162500D02*
X135846800Y-151652300D01*
X135846800Y-151224800D02*
X135846800Y-151251000D01*
X135846800Y-151224800D02*
X135846800Y-151652300D01*
X135846800Y-147964300D02*
X135846800Y-151224800D01*
D39*
X128122960Y-173638400D02*
X137357000Y-164404360D01*
X137357000Y-164404360D02*
X137357000Y-153162500D01*
X128122960Y-175543400D02*
X128122960Y-173638400D01*
X128122960Y-125505400D02*
X128122960Y-123600400D01*
X137357000Y-114366360D02*
X137357000Y-103124500D01*
X128122960Y-123600400D02*
X137357000Y-114366360D01*
D36*
X135846800Y-97926300D02*
X135846800Y-101186800D01*
X135846800Y-101186800D02*
X135846800Y-101614300D01*
X135846800Y-101186800D02*
X135846800Y-101213000D01*
X137357000Y-103124500D02*
X135846800Y-101614300D01*
D39*
X139057000Y-156291000D02*
X139057000Y-157391000D01*
X139057000Y-157391000D02*
X139057000Y-158191000D01*
X139057000Y-156091000D02*
X139057000Y-155991000D01*
X139057000Y-158191000D02*
X139057000Y-156091000D01*
D36*
X139057000Y-153161200D02*
X136346800Y-150451000D01*
D39*
X139057000Y-153161200D02*
X139057000Y-156091000D01*
D36*
X136346800Y-150451000D02*
X136346800Y-150451000D01*
X136346800Y-147964300D02*
X136346800Y-150451000D01*
D39*
X130662960Y-173653640D02*
X139057000Y-165259600D01*
X139057000Y-165259600D02*
X139057000Y-153161200D01*
X130662960Y-175543400D02*
X130662960Y-173653640D01*
X130662960Y-125505400D02*
X130662960Y-123615640D01*
X139057000Y-115221600D02*
X139057000Y-103123200D01*
X130662960Y-123615640D02*
X139057000Y-115221600D01*
D36*
X136346800Y-97926300D02*
X136346800Y-100413000D01*
X136346800Y-100413000D02*
X136346800Y-100413000D01*
D39*
X139057000Y-103123200D02*
X139057000Y-106053000D01*
D36*
X139057000Y-103123200D02*
X136346800Y-100413000D01*
D39*
X139057000Y-108153000D02*
X139057000Y-106053000D01*
X139057000Y-106053000D02*
X139057000Y-105953000D01*
X139057000Y-107353000D02*
X139057000Y-108153000D01*
X139057000Y-106253000D02*
X139057000Y-107353000D01*
D36*
X136846800Y-149340800D02*
X136846800Y-149340800D01*
X140757000Y-153251000D02*
X136846800Y-149340800D01*
X136846800Y-149340800D02*
X136846800Y-147964300D01*
D39*
X133202960Y-173628240D02*
X140757000Y-166074200D01*
X140757000Y-166074200D02*
X140757000Y-153251000D01*
X133202960Y-175543400D02*
X133202960Y-173628240D01*
X133202960Y-125505400D02*
X133202960Y-123590240D01*
X140757000Y-116036200D02*
X140757000Y-103213000D01*
X133202960Y-123590240D02*
X140757000Y-116036200D01*
D36*
X136846800Y-99302800D02*
X136846800Y-97926300D01*
X140757000Y-103213000D02*
X136846800Y-99302800D01*
X136846800Y-99302800D02*
X136846800Y-99302800D01*
X142457000Y-153201500D02*
X137346800Y-148091300D01*
D39*
X135742960Y-173562200D02*
X142457000Y-166848160D01*
X142457000Y-166848160D02*
X142457000Y-153201500D01*
X135742960Y-175543400D02*
X135742960Y-173562200D01*
X135742960Y-125505400D02*
X135742960Y-123524200D01*
X142457000Y-116810160D02*
X142457000Y-103163500D01*
X135742960Y-123524200D02*
X142457000Y-116810160D01*
D36*
X142457000Y-103163500D02*
X137346800Y-98053300D01*
D37*
X104614000Y-162544000D02*
X104614000Y-165944000D01*
X108157000Y-166091000D02*
X104507000Y-166091000D01*
X104614000Y-159294000D02*
X104614000Y-156294000D01*
X104614000Y-159294000D02*
X104614000Y-162544000D01*
X115107000Y-173041000D02*
X108157000Y-166091000D01*
D38*
X115327000Y-173261000D02*
X115107000Y-173041000D01*
D37*
X115400000Y-175520440D02*
X115422960Y-175543400D01*
D38*
X115400000Y-173334000D02*
X115107000Y-173041000D01*
D37*
X115400000Y-175520440D02*
X115400000Y-173334000D01*
X108157000Y-166091000D02*
X104507000Y-166091000D01*
X115422960Y-173356960D02*
X108157000Y-166091000D01*
X115422960Y-175543400D02*
X115422960Y-173356960D01*
X115422960Y-125505400D02*
X115422960Y-123318960D01*
X115422960Y-123318960D02*
X108157000Y-116053000D01*
X108157000Y-116053000D02*
X104507000Y-116053000D01*
X115400000Y-125482440D02*
X115400000Y-123296000D01*
D38*
X115400000Y-123296000D02*
X115107000Y-123003000D01*
D37*
X115400000Y-125482440D02*
X115422960Y-125505400D01*
D38*
X115327000Y-123223000D02*
X115107000Y-123003000D01*
D37*
X115107000Y-123003000D02*
X108157000Y-116053000D01*
X104614000Y-109256000D02*
X104614000Y-112506000D01*
X104614000Y-109256000D02*
X104614000Y-106256000D01*
X108157000Y-116053000D02*
X104507000Y-116053000D01*
X104614000Y-112506000D02*
X104614000Y-115906000D01*
D38*
X81014000Y-166044000D02*
X81037000Y-166021000D01*
D37*
X81364000Y-162794000D02*
X81364000Y-159294000D01*
X81014000Y-166044000D02*
X81014000Y-163144000D01*
D38*
X81014000Y-163144000D02*
X81364000Y-162794000D01*
D37*
X81364000Y-159294000D02*
X81364000Y-156044000D01*
D38*
X81014000Y-163144000D02*
X81364000Y-162794000D01*
D37*
X81104460Y-171408000D02*
X81104460Y-165942740D01*
X81104460Y-171408000D02*
X81104460Y-173172460D01*
X81104460Y-173172460D02*
X83140000Y-175208000D01*
X108874840Y-175208000D02*
X83140000Y-175208000D01*
X112547560Y-175208000D02*
X112882960Y-175543400D01*
X108874840Y-175208000D02*
X112547560Y-175208000D01*
X108874840Y-125170000D02*
X112547560Y-125170000D01*
X112547560Y-125170000D02*
X112882960Y-125505400D01*
X108874840Y-125170000D02*
X83140000Y-125170000D01*
X81104460Y-123134460D02*
X83140000Y-125170000D01*
X81104460Y-121370000D02*
X81104460Y-123134460D01*
X81104460Y-121370000D02*
X81104460Y-115904740D01*
D38*
X81014000Y-113106000D02*
X81364000Y-112756000D01*
D37*
X81364000Y-109256000D02*
X81364000Y-106006000D01*
D38*
X81014000Y-113106000D02*
X81364000Y-112756000D01*
D37*
X81014000Y-116006000D02*
X81014000Y-113106000D01*
X81364000Y-112756000D02*
X81364000Y-109256000D01*
D38*
X81014000Y-116006000D02*
X81037000Y-115983000D01*
X77857000Y-165941000D02*
X77807000Y-165991000D01*
X77857000Y-162791000D02*
X77857000Y-165941000D01*
X77857000Y-112753000D02*
X77857000Y-115903000D01*
X77857000Y-115903000D02*
X77807000Y-115953000D01*
D37*
X101214000Y-166044000D02*
X101214000Y-162694000D01*
D38*
X101214000Y-162694000D02*
X101364000Y-162544000D01*
D36*
X101214000Y-162694000D02*
X101364000Y-162544000D01*
X101214000Y-112656000D02*
X101364000Y-112506000D01*
D38*
X101214000Y-112656000D02*
X101364000Y-112506000D01*
D37*
X101214000Y-116006000D02*
X101214000Y-112656000D01*
D36*
X123464000Y-160294000D02*
X123514000Y-160244000D01*
D37*
X123764000Y-163044000D02*
X123764000Y-160494000D01*
X123764000Y-113006000D02*
X123764000Y-110456000D01*
D36*
X123464000Y-110256000D02*
X123514000Y-110206000D01*
D35*
X144684500Y-141176000D02*
X144677000Y-141761000D01*
X144677000Y-141761000D02*
X144344500Y-142107060D01*
D36*
X144344500Y-144076000D02*
X144344500Y-142107060D01*
X144677000Y-141774560D02*
X144344500Y-142107060D01*
D39*
X138914500Y-143866000D02*
X139474500Y-143306000D01*
X139474500Y-143306000D02*
X139474500Y-143306000D01*
X138234500Y-144546000D02*
X138384500Y-144546000D01*
X138234500Y-144546000D02*
X138914500Y-143866000D01*
X139474500Y-143336000D02*
X139474500Y-143306000D01*
X139474500Y-143306000D02*
X139474500Y-143336000D01*
X138954500Y-143826000D02*
X140114500Y-143826000D01*
X140634500Y-143826000D02*
X140634500Y-144186000D01*
X140114500Y-143826000D02*
X140634500Y-143826000D01*
X140634500Y-144186000D02*
X140274500Y-144546000D01*
X140274500Y-144546000D02*
X138234500Y-144546000D01*
X138914500Y-143866000D02*
X138954500Y-143826000D01*
X140114500Y-143476000D02*
X140114500Y-143826000D01*
X139614500Y-143476000D02*
X140114500Y-143476000D01*
X139474500Y-143336000D02*
X139614500Y-143476000D01*
X144094500Y-143486000D02*
X144094500Y-142403553D01*
X143034500Y-144546000D02*
X144094500Y-143486000D01*
D35*
X143204500Y-143293553D02*
X144094500Y-142403553D01*
X144344500Y-142107060D02*
X143204500Y-143293553D01*
D39*
X140274500Y-144546000D02*
X143034500Y-144546000D01*
D35*
X143204500Y-143293553D02*
X143144500Y-143356000D01*
X141404500Y-143416000D02*
X141454500Y-143416000D01*
D39*
X141404500Y-143416000D02*
X140634500Y-144186000D01*
X142054500Y-142316000D02*
X142054500Y-143416000D01*
X140464500Y-142316000D02*
X142054500Y-142316000D01*
D35*
X142054500Y-143416000D02*
X141404500Y-143416000D01*
D39*
X139474500Y-143306000D02*
X140464500Y-142316000D01*
D35*
X143082053Y-143416000D02*
X142054500Y-143416000D01*
X144094500Y-142403553D02*
X143082053Y-143416000D01*
D36*
X143082053Y-143416000D02*
X141870000Y-143418000D01*
X143080053Y-143418000D02*
X143082053Y-143416000D01*
X141870000Y-143418000D02*
X143080053Y-143418000D01*
X141870000Y-93380000D02*
X143080053Y-93380000D01*
X143080053Y-93380000D02*
X143082053Y-93378000D01*
X143082053Y-93378000D02*
X141870000Y-93380000D01*
D35*
X144094500Y-92365553D02*
X143082053Y-93378000D01*
X143082053Y-93378000D02*
X142054500Y-93378000D01*
D39*
X139474500Y-93268000D02*
X140464500Y-92278000D01*
D35*
X142054500Y-93378000D02*
X141404500Y-93378000D01*
D39*
X140464500Y-92278000D02*
X142054500Y-92278000D01*
X142054500Y-92278000D02*
X142054500Y-93378000D01*
X141404500Y-93378000D02*
X140634500Y-94148000D01*
D35*
X141404500Y-93378000D02*
X141454500Y-93378000D01*
X143204500Y-93255553D02*
X143144500Y-93318000D01*
D39*
X140274500Y-94508000D02*
X143034500Y-94508000D01*
D35*
X144344500Y-92069060D02*
X143204500Y-93255553D01*
X143204500Y-93255553D02*
X144094500Y-92365553D01*
D39*
X143034500Y-94508000D02*
X144094500Y-93448000D01*
X144094500Y-93448000D02*
X144094500Y-92365553D01*
X139474500Y-93298000D02*
X139614500Y-93438000D01*
X139614500Y-93438000D02*
X140114500Y-93438000D01*
X140114500Y-93438000D02*
X140114500Y-93788000D01*
X138914500Y-93828000D02*
X138954500Y-93788000D01*
X140274500Y-94508000D02*
X138234500Y-94508000D01*
X140634500Y-94148000D02*
X140274500Y-94508000D01*
X140114500Y-93788000D02*
X140634500Y-93788000D01*
X140634500Y-93788000D02*
X140634500Y-94148000D01*
X138954500Y-93788000D02*
X140114500Y-93788000D01*
X139474500Y-93268000D02*
X139474500Y-93298000D01*
X139474500Y-93298000D02*
X139474500Y-93268000D01*
X138234500Y-94508000D02*
X138914500Y-93828000D01*
X138234500Y-94508000D02*
X138384500Y-94508000D01*
X139474500Y-93268000D02*
X139474500Y-93268000D01*
X138914500Y-93828000D02*
X139474500Y-93268000D01*
D36*
X144677000Y-91736560D02*
X144344500Y-92069060D01*
X144344500Y-94038000D02*
X144344500Y-92069060D01*
D35*
X144677000Y-91723000D02*
X144344500Y-92069060D01*
X144684500Y-91138000D02*
X144677000Y-91723000D01*
D38*
X93317000Y-165836000D02*
X93317000Y-162861000D01*
X93267000Y-165886000D02*
X93317000Y-165836000D01*
X93321000Y-162945000D02*
X93257000Y-162881000D01*
X85357000Y-162945000D02*
X93321000Y-162945000D01*
X85357000Y-112907000D02*
X93321000Y-112907000D01*
X93321000Y-112907000D02*
X93257000Y-112843000D01*
X93267000Y-115848000D02*
X93317000Y-115798000D01*
X93317000Y-115798000D02*
X93317000Y-112823000D01*
X117226500Y-165641500D02*
X117226500Y-162616500D01*
X117226500Y-165591500D02*
X117226500Y-162616500D01*
X117176500Y-165641500D02*
X117226500Y-165591500D01*
X117273400Y-162743400D02*
X117166500Y-162636500D01*
X108506200Y-162743400D02*
X117273400Y-162743400D01*
X108506200Y-112705400D02*
X117273400Y-112705400D01*
X117273400Y-112705400D02*
X117166500Y-112598500D01*
X117176500Y-115603500D02*
X117226500Y-115553500D01*
X117226500Y-115553500D02*
X117226500Y-112578500D01*
X117226500Y-115603500D02*
X117226500Y-112578500D01*
D37*
X103865000Y-150383000D02*
X103690000Y-150558000D01*
X103865000Y-148058000D02*
X103865000Y-150383000D01*
X103865000Y-98020000D02*
X103865000Y-100345000D01*
X103865000Y-100345000D02*
X103690000Y-100520000D01*
X100890000Y-152908000D02*
X101440000Y-152908000D01*
X99690000Y-151708000D02*
X100890000Y-152908000D01*
X99690000Y-150558000D02*
X99690000Y-151708000D01*
X99690000Y-100520000D02*
X99690000Y-101670000D01*
X99690000Y-101670000D02*
X100890000Y-102870000D01*
X100890000Y-102870000D02*
X101440000Y-102870000D01*
D36*
X138046800Y-144764300D02*
X138328700Y-144764300D01*
X138046800Y-144764300D02*
X138046800Y-144761200D01*
X138046800Y-144764300D02*
X138048700Y-144764300D01*
X144677000Y-137881000D02*
X144677000Y-141774560D01*
X144677000Y-87843000D02*
X144677000Y-91736560D01*
X138046800Y-94726300D02*
X138048700Y-94726300D01*
X138046800Y-94726300D02*
X138046800Y-94723200D01*
X138046800Y-94726300D02*
X138328700Y-94726300D01*
D38*
X93317000Y-160161000D02*
X93267000Y-160111000D01*
X93267000Y-160111000D02*
X93267000Y-156236000D01*
D34*
X95106560Y-143502040D02*
X94137374Y-143462571D01*
D36*
X94882000Y-156206000D02*
X93257000Y-156206000D01*
X95357000Y-155731000D02*
X94882000Y-156206000D01*
D33*
X94217374Y-143515571D02*
X94257374Y-143515571D01*
D40*
X95221000Y-156206000D02*
X95632000Y-155795000D01*
X93257000Y-156206000D02*
X95221000Y-156206000D01*
X95284500Y-156206000D02*
X95632000Y-155858500D01*
X93257000Y-156206000D02*
X95284500Y-156206000D01*
X95440500Y-156206000D02*
X93257000Y-156206000D01*
X95632000Y-156014500D02*
X95440500Y-156206000D01*
D36*
X95113091Y-143508571D02*
X95106560Y-143502040D01*
X96582374Y-143508571D02*
X95113091Y-143508571D01*
X82397000Y-141128500D02*
X82409500Y-141141000D01*
D35*
X82409500Y-141141000D02*
X82460500Y-142065000D01*
X86219100Y-143517280D02*
X95106560Y-143502040D01*
X82460500Y-142065000D02*
X86219100Y-143517280D01*
D36*
X82397000Y-137851000D02*
X82397000Y-141128500D01*
D40*
X95466120Y-156206000D02*
X93257000Y-156206000D01*
X95491900Y-156231780D02*
X95466120Y-156206000D01*
X91625840Y-156206000D02*
X93257000Y-156206000D01*
X91196480Y-156635360D02*
X91625840Y-156206000D01*
X91196480Y-143410600D02*
X91196480Y-156635360D01*
D36*
X91196480Y-143410600D02*
X90440000Y-143008000D01*
X95491900Y-143410600D02*
X91196480Y-143410600D01*
X95106560Y-143502040D02*
X95491900Y-143410600D01*
X95400460Y-143502040D02*
X95106560Y-143502040D01*
X95491900Y-143410600D02*
X95400460Y-143502040D01*
X95491900Y-93372600D02*
X95400460Y-93464040D01*
X95400460Y-93464040D02*
X95106560Y-93464040D01*
X95106560Y-93464040D02*
X95491900Y-93372600D01*
X95491900Y-93372600D02*
X91196480Y-93372600D01*
X91196480Y-93372600D02*
X90440000Y-92970000D01*
D40*
X91196480Y-93372600D02*
X91196480Y-106597360D01*
X91196480Y-106597360D02*
X91625840Y-106168000D01*
X91625840Y-106168000D02*
X93257000Y-106168000D01*
X95491900Y-106193780D02*
X95466120Y-106168000D01*
X95466120Y-106168000D02*
X93257000Y-106168000D01*
D36*
X82397000Y-87813000D02*
X82397000Y-91090500D01*
D35*
X82460500Y-92027000D02*
X86219100Y-93479280D01*
X86219100Y-93479280D02*
X95106560Y-93464040D01*
X82409500Y-91103000D02*
X82460500Y-92027000D01*
D36*
X82397000Y-91090500D02*
X82409500Y-91103000D01*
X96582374Y-93470571D02*
X95113091Y-93470571D01*
X95113091Y-93470571D02*
X95106560Y-93464040D01*
D40*
X95632000Y-105976500D02*
X95440500Y-106168000D01*
X95440500Y-106168000D02*
X93257000Y-106168000D01*
X93257000Y-106168000D02*
X95284500Y-106168000D01*
X95284500Y-106168000D02*
X95632000Y-105820500D01*
X93257000Y-106168000D02*
X95221000Y-106168000D01*
X95221000Y-106168000D02*
X95632000Y-105757000D01*
D33*
X94217374Y-93477571D02*
X94257374Y-93477571D01*
D36*
X95357000Y-105693000D02*
X94882000Y-106168000D01*
X94882000Y-106168000D02*
X93257000Y-106168000D01*
D34*
X95106560Y-93464040D02*
X94137374Y-93424571D01*
D38*
X93267000Y-110073000D02*
X93267000Y-106198000D01*
X93317000Y-110123000D02*
X93267000Y-110073000D01*
D41*
G36*
X80450000Y-89538830D02*
X78061989Y-89780948D01*
X78028641Y-89788985D01*
X77986247Y-89816265D01*
X77957806Y-89857890D01*
X77947800Y-89907300D01*
X77947800Y-89925354D01*
X77783547Y-91340457D01*
X77782901Y-91362244D01*
X77833701Y-92263944D01*
X77837007Y-92286438D01*
X78218007Y-93873938D01*
X78230007Y-93905114D01*
X78306207Y-94044814D01*
X78315074Y-94058812D01*
X79305674Y-95417712D01*
X79341420Y-95450863D01*
X80776520Y-96339863D01*
X80797701Y-96350393D01*
X84518801Y-97785493D01*
X84540693Y-97791749D01*
X86204393Y-98109249D01*
X86228312Y-98111500D01*
X90219480Y-98107981D01*
X90219480Y-103550000D01*
X88552000Y-103550000D01*
X88505841Y-103558685D01*
X88463447Y-103585965D01*
X88435006Y-103627590D01*
X88425000Y-103677000D01*
X88425000Y-111680000D01*
X87018883Y-111680000D01*
X86917788Y-111522894D01*
X86724000Y-111390483D01*
X86724000Y-111316245D01*
X86746158Y-111307067D01*
X86924787Y-111128439D01*
X87021460Y-110895050D01*
X87021460Y-110254490D01*
X86862710Y-110095740D01*
X86724000Y-110095740D01*
X86724000Y-110003000D01*
X86715315Y-109956841D01*
X86688035Y-109914447D01*
X86646410Y-109886006D01*
X86597000Y-109876000D01*
X85239460Y-109876000D01*
X85239460Y-109841740D01*
X85259460Y-109841740D01*
X85259460Y-108063740D01*
X85513460Y-108063740D01*
X85513460Y-109841740D01*
X86862710Y-109841740D01*
X87021460Y-109682990D01*
X87021460Y-109042430D01*
X86984309Y-108952740D01*
X87021460Y-108863050D01*
X87021460Y-108222490D01*
X86862710Y-108063740D01*
X85513460Y-108063740D01*
X85259460Y-108063740D01*
X85239460Y-108063740D01*
X85239460Y-107809740D01*
X85259460Y-107809740D01*
X85259460Y-106031740D01*
X85513460Y-106031740D01*
X85513460Y-107809740D01*
X86862710Y-107809740D01*
X87021460Y-107650990D01*
X87021460Y-107010430D01*
X86984309Y-106920740D01*
X87021460Y-106831050D01*
X87021460Y-106190490D01*
X86862710Y-106031740D01*
X85513460Y-106031740D01*
X85259460Y-106031740D01*
X85239460Y-106031740D01*
X85239460Y-105777740D01*
X85259460Y-105777740D01*
X85259460Y-104628490D01*
X85513460Y-104628490D01*
X85513460Y-105777740D01*
X86862710Y-105777740D01*
X87021460Y-105618990D01*
X87021460Y-104978430D01*
X86924787Y-104745041D01*
X86746158Y-104566413D01*
X86512769Y-104469740D01*
X85672210Y-104469740D01*
X85513460Y-104628490D01*
X85259460Y-104628490D01*
X85100710Y-104469740D01*
X84260151Y-104469740D01*
X84027759Y-104566000D01*
X82885745Y-104566000D01*
X82674845Y-104421897D01*
X82386460Y-104363498D01*
X80386460Y-104363498D01*
X80117050Y-104414191D01*
X79881133Y-104566000D01*
X79697000Y-104566000D01*
X79649211Y-104575334D01*
X79607197Y-104603197D01*
X78637197Y-105573197D01*
X78610006Y-105613590D01*
X78600000Y-105663000D01*
X78600000Y-107069740D01*
X78140210Y-107069740D01*
X77981460Y-107228490D01*
X77981460Y-108577740D01*
X78001460Y-108577740D01*
X78001460Y-108831740D01*
X77981460Y-108831740D01*
X77981460Y-108851740D01*
X77727460Y-108851740D01*
X77727460Y-108831740D01*
X76528210Y-108831740D01*
X76369460Y-108990490D01*
X76369460Y-109388443D01*
X76348447Y-109401965D01*
X76320006Y-109443590D01*
X76310000Y-109493000D01*
X76310000Y-111473722D01*
X76263218Y-111704740D01*
X76263218Y-113704740D01*
X76310000Y-113953365D01*
X76310000Y-117613000D01*
X76318685Y-117659159D01*
X76345965Y-117701553D01*
X76387590Y-117729994D01*
X76437000Y-117740000D01*
X79752460Y-117740000D01*
X79752460Y-123134460D01*
X79845141Y-123600400D01*
X79855375Y-123651848D01*
X80148452Y-124090468D01*
X82183991Y-126126008D01*
X82421389Y-126284632D01*
X82622612Y-126419085D01*
X83140000Y-126522000D01*
X110834320Y-126522000D01*
X110834320Y-127138480D01*
X110843005Y-127184639D01*
X110870285Y-127227033D01*
X110911910Y-127255474D01*
X110961320Y-127265480D01*
X147749920Y-127265480D01*
X147796079Y-127256795D01*
X147838473Y-127229515D01*
X147866914Y-127187890D01*
X147876920Y-127138480D01*
X147876920Y-126990400D01*
X148157210Y-126990400D01*
X148315960Y-126831650D01*
X148315960Y-125632400D01*
X148569960Y-125632400D01*
X148569960Y-126831650D01*
X148728710Y-126990400D01*
X149419270Y-126990400D01*
X149652659Y-126893727D01*
X149831287Y-126715098D01*
X149927960Y-126481709D01*
X149927960Y-125791150D01*
X149769210Y-125632400D01*
X148569960Y-125632400D01*
X148315960Y-125632400D01*
X148295960Y-125632400D01*
X148295960Y-125378400D01*
X148315960Y-125378400D01*
X148315960Y-124179150D01*
X148569960Y-124179150D01*
X148569960Y-125378400D01*
X149769210Y-125378400D01*
X149927960Y-125219650D01*
X149927960Y-124529091D01*
X149831287Y-124295702D01*
X149652659Y-124117073D01*
X149419270Y-124020400D01*
X148728710Y-124020400D01*
X148569960Y-124179150D01*
X148315960Y-124179150D01*
X148157210Y-124020400D01*
X147876920Y-124020400D01*
X147876920Y-123938480D01*
X147868235Y-123892321D01*
X147840955Y-123849927D01*
X147799330Y-123821486D01*
X147749920Y-123811480D01*
X147230024Y-123811480D01*
X150117179Y-120924324D01*
X150117182Y-120924322D01*
X150356065Y-120566807D01*
X150439950Y-120145090D01*
X150439950Y-103320950D01*
X150356065Y-102899233D01*
X150117182Y-102541718D01*
X149759667Y-102302835D01*
X149466413Y-102244503D01*
X144856992Y-97635082D01*
X146330761Y-96668290D01*
X146350382Y-96652420D01*
X147455282Y-95560220D01*
X147461456Y-95553668D01*
X148007556Y-94931368D01*
X148018345Y-94917177D01*
X148958145Y-93482077D01*
X148976615Y-93436484D01*
X149294115Y-91785484D01*
X149296285Y-91766899D01*
X149321685Y-91169999D01*
X149319235Y-91139205D01*
X149065235Y-89894605D01*
X149040997Y-89841964D01*
X149002743Y-89809130D01*
X148954728Y-89793766D01*
X146621300Y-89536307D01*
X146621300Y-86072000D01*
X151038000Y-86072000D01*
X151038000Y-134468000D01*
X74642000Y-134468000D01*
X74642000Y-107578431D01*
X76369460Y-107578431D01*
X76369460Y-108418990D01*
X76528210Y-108577740D01*
X77727460Y-108577740D01*
X77727460Y-107228490D01*
X77568710Y-107069740D01*
X76878150Y-107069740D01*
X76644761Y-107166413D01*
X76466133Y-107345042D01*
X76369460Y-107578431D01*
X74642000Y-107578431D01*
X74642000Y-86072000D01*
X80450000Y-86072000D01*
X80450000Y-89538830D01*
X80450000Y-89538830D01*
G37*
X80450000Y-89538830D02*
X78061989Y-89780948D01*
X78028641Y-89788985D01*
X77986247Y-89816265D01*
X77957806Y-89857890D01*
X77947800Y-89907300D01*
X77947800Y-89925354D01*
X77783547Y-91340457D01*
X77782901Y-91362244D01*
X77833701Y-92263944D01*
X77837007Y-92286438D01*
X78218007Y-93873938D01*
X78230007Y-93905114D01*
X78306207Y-94044814D01*
X78315074Y-94058812D01*
X79305674Y-95417712D01*
X79341420Y-95450863D01*
X80776520Y-96339863D01*
X80797701Y-96350393D01*
X84518801Y-97785493D01*
X84540693Y-97791749D01*
X86204393Y-98109249D01*
X86228312Y-98111500D01*
X90219480Y-98107981D01*
X90219480Y-103550000D01*
X88552000Y-103550000D01*
X88505841Y-103558685D01*
X88463447Y-103585965D01*
X88435006Y-103627590D01*
X88425000Y-103677000D01*
X88425000Y-111680000D01*
X87018883Y-111680000D01*
X86917788Y-111522894D01*
X86724000Y-111390483D01*
X86724000Y-111316245D01*
X86746158Y-111307067D01*
X86924787Y-111128439D01*
X87021460Y-110895050D01*
X87021460Y-110254490D01*
X86862710Y-110095740D01*
X86724000Y-110095740D01*
X86724000Y-110003000D01*
X86715315Y-109956841D01*
X86688035Y-109914447D01*
X86646410Y-109886006D01*
X86597000Y-109876000D01*
X85239460Y-109876000D01*
X85239460Y-109841740D01*
X85259460Y-109841740D01*
X85259460Y-108063740D01*
X85513460Y-108063740D01*
X85513460Y-109841740D01*
X86862710Y-109841740D01*
X87021460Y-109682990D01*
X87021460Y-109042430D01*
X86984309Y-108952740D01*
X87021460Y-108863050D01*
X87021460Y-108222490D01*
X86862710Y-108063740D01*
X85513460Y-108063740D01*
X85259460Y-108063740D01*
X85239460Y-108063740D01*
X85239460Y-107809740D01*
X85259460Y-107809740D01*
X85259460Y-106031740D01*
X85513460Y-106031740D01*
X85513460Y-107809740D01*
X86862710Y-107809740D01*
X87021460Y-107650990D01*
X87021460Y-107010430D01*
X86984309Y-106920740D01*
X87021460Y-106831050D01*
X87021460Y-106190490D01*
X86862710Y-106031740D01*
X85513460Y-106031740D01*
X85259460Y-106031740D01*
X85239460Y-106031740D01*
X85239460Y-105777740D01*
X85259460Y-105777740D01*
X85259460Y-104628490D01*
X85513460Y-104628490D01*
X85513460Y-105777740D01*
X86862710Y-105777740D01*
X87021460Y-105618990D01*
X87021460Y-104978430D01*
X86924787Y-104745041D01*
X86746158Y-104566413D01*
X86512769Y-104469740D01*
X85672210Y-104469740D01*
X85513460Y-104628490D01*
X85259460Y-104628490D01*
X85100710Y-104469740D01*
X84260151Y-104469740D01*
X84027759Y-104566000D01*
X82885745Y-104566000D01*
X82674845Y-104421897D01*
X82386460Y-104363498D01*
X80386460Y-104363498D01*
X80117050Y-104414191D01*
X79881133Y-104566000D01*
X79697000Y-104566000D01*
X79649211Y-104575334D01*
X79607197Y-104603197D01*
X78637197Y-105573197D01*
X78610006Y-105613590D01*
X78600000Y-105663000D01*
X78600000Y-107069740D01*
X78140210Y-107069740D01*
X77981460Y-107228490D01*
X77981460Y-108577740D01*
X78001460Y-108577740D01*
X78001460Y-108831740D01*
X77981460Y-108831740D01*
X77981460Y-108851740D01*
X77727460Y-108851740D01*
X77727460Y-108831740D01*
X76528210Y-108831740D01*
X76369460Y-108990490D01*
X76369460Y-109388443D01*
X76348447Y-109401965D01*
X76320006Y-109443590D01*
X76310000Y-109493000D01*
X76310000Y-111473722D01*
X76263218Y-111704740D01*
X76263218Y-113704740D01*
X76310000Y-113953365D01*
X76310000Y-117613000D01*
X76318685Y-117659159D01*
X76345965Y-117701553D01*
X76387590Y-117729994D01*
X76437000Y-117740000D01*
X79752460Y-117740000D01*
X79752460Y-123134460D01*
X79845141Y-123600400D01*
X79855375Y-123651848D01*
X80148452Y-124090468D01*
X82183991Y-126126008D01*
X82421389Y-126284632D01*
X82622612Y-126419085D01*
X83140000Y-126522000D01*
X110834320Y-126522000D01*
X110834320Y-127138480D01*
X110843005Y-127184639D01*
X110870285Y-127227033D01*
X110911910Y-127255474D01*
X110961320Y-127265480D01*
X147749920Y-127265480D01*
X147796079Y-127256795D01*
X147838473Y-127229515D01*
X147866914Y-127187890D01*
X147876920Y-127138480D01*
X147876920Y-126990400D01*
X148157210Y-126990400D01*
X148315960Y-126831650D01*
X148315960Y-125632400D01*
X148569960Y-125632400D01*
X148569960Y-126831650D01*
X148728710Y-126990400D01*
X149419270Y-126990400D01*
X149652659Y-126893727D01*
X149831287Y-126715098D01*
X149927960Y-126481709D01*
X149927960Y-125791150D01*
X149769210Y-125632400D01*
X148569960Y-125632400D01*
X148315960Y-125632400D01*
X148295960Y-125632400D01*
X148295960Y-125378400D01*
X148315960Y-125378400D01*
X148315960Y-124179150D01*
X148569960Y-124179150D01*
X148569960Y-125378400D01*
X149769210Y-125378400D01*
X149927960Y-125219650D01*
X149927960Y-124529091D01*
X149831287Y-124295702D01*
X149652659Y-124117073D01*
X149419270Y-124020400D01*
X148728710Y-124020400D01*
X148569960Y-124179150D01*
X148315960Y-124179150D01*
X148157210Y-124020400D01*
X147876920Y-124020400D01*
X147876920Y-123938480D01*
X147868235Y-123892321D01*
X147840955Y-123849927D01*
X147799330Y-123821486D01*
X147749920Y-123811480D01*
X147230024Y-123811480D01*
X150117179Y-120924324D01*
X150117182Y-120924322D01*
X150356065Y-120566807D01*
X150439950Y-120145090D01*
X150439950Y-103320950D01*
X150356065Y-102899233D01*
X150117182Y-102541718D01*
X149759667Y-102302835D01*
X149466413Y-102244503D01*
X144856992Y-97635082D01*
X146330761Y-96668290D01*
X146350382Y-96652420D01*
X147455282Y-95560220D01*
X147461456Y-95553668D01*
X148007556Y-94931368D01*
X148018345Y-94917177D01*
X148958145Y-93482077D01*
X148976615Y-93436484D01*
X149294115Y-91785484D01*
X149296285Y-91766899D01*
X149321685Y-91169999D01*
X149319235Y-91139205D01*
X149065235Y-89894605D01*
X149040997Y-89841964D01*
X149002743Y-89809130D01*
X148954728Y-89793766D01*
X146621300Y-89536307D01*
X146621300Y-86072000D01*
X151038000Y-86072000D01*
X151038000Y-134468000D01*
X74642000Y-134468000D01*
X74642000Y-107578431D01*
X76369460Y-107578431D01*
X76369460Y-108418990D01*
X76528210Y-108577740D01*
X77727460Y-108577740D01*
X77727460Y-107228490D01*
X77568710Y-107069740D01*
X76878150Y-107069740D01*
X76644761Y-107166413D01*
X76466133Y-107345042D01*
X76369460Y-107578431D01*
X74642000Y-107578431D01*
X74642000Y-86072000D01*
X80450000Y-86072000D01*
X80450000Y-89538830D01*
G36*
X114818600Y-103627000D02*
X112617000Y-103627000D01*
X112570841Y-103635685D01*
X112528447Y-103662965D01*
X112500006Y-103704590D01*
X112490000Y-103754000D01*
X112490000Y-111478400D01*
X110210059Y-111478400D01*
X110120328Y-111338954D01*
X110094000Y-111320965D01*
X110094000Y-111155626D01*
X110127327Y-111122299D01*
X110224000Y-110888910D01*
X110224000Y-110248350D01*
X110094000Y-110118350D01*
X110094000Y-110003000D01*
X110085315Y-109956841D01*
X110058035Y-109914447D01*
X110016410Y-109886006D01*
X109967000Y-109876000D01*
X108442000Y-109876000D01*
X108442000Y-109835600D01*
X108462000Y-109835600D01*
X108462000Y-108057600D01*
X108716000Y-108057600D01*
X108716000Y-109835600D01*
X110065250Y-109835600D01*
X110224000Y-109676850D01*
X110224000Y-109036290D01*
X110186849Y-108946600D01*
X110224000Y-108856910D01*
X110224000Y-108216350D01*
X110065250Y-108057600D01*
X108716000Y-108057600D01*
X108462000Y-108057600D01*
X108442000Y-108057600D01*
X108442000Y-107803600D01*
X108462000Y-107803600D01*
X108462000Y-106051000D01*
X108716000Y-106051000D01*
X108716000Y-107803600D01*
X110065250Y-107803600D01*
X110224000Y-107644850D01*
X110224000Y-107004290D01*
X110192110Y-106927300D01*
X110224000Y-106850310D01*
X110224000Y-106209750D01*
X110065250Y-106051000D01*
X108716000Y-106051000D01*
X108462000Y-106051000D01*
X108442000Y-106051000D01*
X108442000Y-105797000D01*
X108462000Y-105797000D01*
X108462000Y-104647750D01*
X108716000Y-104647750D01*
X108716000Y-105797000D01*
X110065250Y-105797000D01*
X110224000Y-105638250D01*
X110224000Y-104997690D01*
X110127327Y-104764301D01*
X109948698Y-104585673D01*
X109715309Y-104489000D01*
X108874750Y-104489000D01*
X108716000Y-104647750D01*
X108462000Y-104647750D01*
X108303250Y-104489000D01*
X107462691Y-104489000D01*
X107229302Y-104585673D01*
X107050673Y-104764301D01*
X107025116Y-104826000D01*
X106261152Y-104826000D01*
X106120328Y-104607154D01*
X105877385Y-104441157D01*
X105589000Y-104382758D01*
X103589000Y-104382758D01*
X103319590Y-104433451D01*
X103072154Y-104592672D01*
X102912727Y-104826000D01*
X102347000Y-104826000D01*
X102300841Y-104834685D01*
X102258447Y-104861965D01*
X102230006Y-104903590D01*
X102220000Y-104953000D01*
X102220000Y-106918000D01*
X101642750Y-106918000D01*
X101484000Y-107076750D01*
X101484000Y-108426000D01*
X101504000Y-108426000D01*
X101504000Y-108680000D01*
X101484000Y-108680000D01*
X101484000Y-108700000D01*
X101230000Y-108700000D01*
X101230000Y-108680000D01*
X100030750Y-108680000D01*
X99872000Y-108838750D01*
X99872000Y-109366000D01*
X99557000Y-109366000D01*
X99510841Y-109374685D01*
X99468447Y-109401965D01*
X99440006Y-109443590D01*
X99430000Y-109493000D01*
X99430000Y-117613000D01*
X99438685Y-117659159D01*
X99465965Y-117701553D01*
X99507590Y-117729994D01*
X99557000Y-117740000D01*
X106157000Y-117740000D01*
X106204789Y-117730666D01*
X106246803Y-117702803D01*
X106544606Y-117405000D01*
X107596984Y-117405000D01*
X114003463Y-123811480D01*
X110961320Y-123811480D01*
X110926668Y-123818000D01*
X83700017Y-123818000D01*
X82456460Y-122574444D01*
X82456460Y-120055750D01*
X94005000Y-120055750D01*
X94005000Y-120896309D01*
X94101673Y-121129698D01*
X94280301Y-121308327D01*
X94513690Y-121405000D01*
X95154250Y-121405000D01*
X95313000Y-121246250D01*
X95313000Y-119897000D01*
X95567000Y-119897000D01*
X95567000Y-121246250D01*
X95725750Y-121405000D01*
X96366310Y-121405000D01*
X96599699Y-121308327D01*
X96778327Y-121129698D01*
X96875000Y-120896309D01*
X96875000Y-120055750D01*
X96716250Y-119897000D01*
X95567000Y-119897000D01*
X95313000Y-119897000D01*
X94163750Y-119897000D01*
X94005000Y-120055750D01*
X82456460Y-120055750D01*
X82456460Y-117740000D01*
X86597000Y-117740000D01*
X86643159Y-117731315D01*
X86685553Y-117704035D01*
X86713994Y-117662410D01*
X86724000Y-117613000D01*
X86724000Y-114386448D01*
X86903306Y-114271068D01*
X86996961Y-114134000D01*
X88425000Y-114134000D01*
X88425000Y-118623000D01*
X88433685Y-118669159D01*
X88460965Y-118711553D01*
X88502590Y-118739994D01*
X88552000Y-118750000D01*
X94005000Y-118750000D01*
X94005000Y-119484250D01*
X94163750Y-119643000D01*
X95313000Y-119643000D01*
X95313000Y-119623000D01*
X95567000Y-119623000D01*
X95567000Y-119643000D01*
X96716250Y-119643000D01*
X96875000Y-119484250D01*
X96875000Y-118750000D01*
X97909000Y-118750000D01*
X97955159Y-118741315D01*
X97997553Y-118714035D01*
X98025994Y-118672410D01*
X98036000Y-118623000D01*
X98036000Y-107426691D01*
X99872000Y-107426691D01*
X99872000Y-108267250D01*
X100030750Y-108426000D01*
X101230000Y-108426000D01*
X101230000Y-107076750D01*
X101071250Y-106918000D01*
X100380690Y-106918000D01*
X100147301Y-107014673D01*
X99968673Y-107193302D01*
X99872000Y-107426691D01*
X98036000Y-107426691D01*
X98036000Y-103677000D01*
X98027315Y-103630841D01*
X98000035Y-103588447D01*
X97958410Y-103560006D01*
X97909000Y-103550000D01*
X92173480Y-103550000D01*
X92173480Y-98106259D01*
X102323758Y-98097311D01*
X102323758Y-99020000D01*
X102327410Y-99039411D01*
X102321832Y-99043000D01*
X101060113Y-99043000D01*
X100978385Y-98987157D01*
X100690000Y-98928758D01*
X98690000Y-98928758D01*
X98420590Y-98979451D01*
X98173154Y-99138672D01*
X98007157Y-99381615D01*
X97948758Y-99670000D01*
X97948758Y-101370000D01*
X97999451Y-101639410D01*
X98158672Y-101886846D01*
X98401615Y-102052843D01*
X98414679Y-102055488D01*
X98425769Y-102111242D01*
X98440915Y-102187388D01*
X98733992Y-102626008D01*
X99933991Y-103826008D01*
X100090139Y-103930343D01*
X100158672Y-104036846D01*
X100401615Y-104202843D01*
X100690000Y-104261242D01*
X102190000Y-104261242D01*
X102459410Y-104210549D01*
X102597019Y-104122000D01*
X103184022Y-104122000D01*
X103263691Y-104155000D01*
X103854250Y-104155000D01*
X104013000Y-103996250D01*
X104013000Y-102997000D01*
X104267000Y-102997000D01*
X104267000Y-103996250D01*
X104425750Y-104155000D01*
X105016309Y-104155000D01*
X105249698Y-104058327D01*
X105428327Y-103879699D01*
X105525000Y-103646310D01*
X105525000Y-103155750D01*
X105366250Y-102997000D01*
X104267000Y-102997000D01*
X104013000Y-102997000D01*
X103993000Y-102997000D01*
X103993000Y-102743000D01*
X104013000Y-102743000D01*
X104013000Y-102723000D01*
X104267000Y-102723000D01*
X104267000Y-102743000D01*
X105366250Y-102743000D01*
X105525000Y-102584250D01*
X105525000Y-102093690D01*
X105428327Y-101860301D01*
X105313403Y-101745378D01*
X105372843Y-101658385D01*
X105431242Y-101370000D01*
X105431242Y-99670000D01*
X105380549Y-99400590D01*
X105334131Y-99328454D01*
X105347843Y-99308385D01*
X105406242Y-99020000D01*
X105406242Y-98094593D01*
X114818600Y-98086296D01*
X114818600Y-103627000D01*
X114818600Y-103627000D01*
G37*
X114818600Y-103627000D02*
X112617000Y-103627000D01*
X112570841Y-103635685D01*
X112528447Y-103662965D01*
X112500006Y-103704590D01*
X112490000Y-103754000D01*
X112490000Y-111478400D01*
X110210059Y-111478400D01*
X110120328Y-111338954D01*
X110094000Y-111320965D01*
X110094000Y-111155626D01*
X110127327Y-111122299D01*
X110224000Y-110888910D01*
X110224000Y-110248350D01*
X110094000Y-110118350D01*
X110094000Y-110003000D01*
X110085315Y-109956841D01*
X110058035Y-109914447D01*
X110016410Y-109886006D01*
X109967000Y-109876000D01*
X108442000Y-109876000D01*
X108442000Y-109835600D01*
X108462000Y-109835600D01*
X108462000Y-108057600D01*
X108716000Y-108057600D01*
X108716000Y-109835600D01*
X110065250Y-109835600D01*
X110224000Y-109676850D01*
X110224000Y-109036290D01*
X110186849Y-108946600D01*
X110224000Y-108856910D01*
X110224000Y-108216350D01*
X110065250Y-108057600D01*
X108716000Y-108057600D01*
X108462000Y-108057600D01*
X108442000Y-108057600D01*
X108442000Y-107803600D01*
X108462000Y-107803600D01*
X108462000Y-106051000D01*
X108716000Y-106051000D01*
X108716000Y-107803600D01*
X110065250Y-107803600D01*
X110224000Y-107644850D01*
X110224000Y-107004290D01*
X110192110Y-106927300D01*
X110224000Y-106850310D01*
X110224000Y-106209750D01*
X110065250Y-106051000D01*
X108716000Y-106051000D01*
X108462000Y-106051000D01*
X108442000Y-106051000D01*
X108442000Y-105797000D01*
X108462000Y-105797000D01*
X108462000Y-104647750D01*
X108716000Y-104647750D01*
X108716000Y-105797000D01*
X110065250Y-105797000D01*
X110224000Y-105638250D01*
X110224000Y-104997690D01*
X110127327Y-104764301D01*
X109948698Y-104585673D01*
X109715309Y-104489000D01*
X108874750Y-104489000D01*
X108716000Y-104647750D01*
X108462000Y-104647750D01*
X108303250Y-104489000D01*
X107462691Y-104489000D01*
X107229302Y-104585673D01*
X107050673Y-104764301D01*
X107025116Y-104826000D01*
X106261152Y-104826000D01*
X106120328Y-104607154D01*
X105877385Y-104441157D01*
X105589000Y-104382758D01*
X103589000Y-104382758D01*
X103319590Y-104433451D01*
X103072154Y-104592672D01*
X102912727Y-104826000D01*
X102347000Y-104826000D01*
X102300841Y-104834685D01*
X102258447Y-104861965D01*
X102230006Y-104903590D01*
X102220000Y-104953000D01*
X102220000Y-106918000D01*
X101642750Y-106918000D01*
X101484000Y-107076750D01*
X101484000Y-108426000D01*
X101504000Y-108426000D01*
X101504000Y-108680000D01*
X101484000Y-108680000D01*
X101484000Y-108700000D01*
X101230000Y-108700000D01*
X101230000Y-108680000D01*
X100030750Y-108680000D01*
X99872000Y-108838750D01*
X99872000Y-109366000D01*
X99557000Y-109366000D01*
X99510841Y-109374685D01*
X99468447Y-109401965D01*
X99440006Y-109443590D01*
X99430000Y-109493000D01*
X99430000Y-117613000D01*
X99438685Y-117659159D01*
X99465965Y-117701553D01*
X99507590Y-117729994D01*
X99557000Y-117740000D01*
X106157000Y-117740000D01*
X106204789Y-117730666D01*
X106246803Y-117702803D01*
X106544606Y-117405000D01*
X107596984Y-117405000D01*
X114003463Y-123811480D01*
X110961320Y-123811480D01*
X110926668Y-123818000D01*
X83700017Y-123818000D01*
X82456460Y-122574444D01*
X82456460Y-120055750D01*
X94005000Y-120055750D01*
X94005000Y-120896309D01*
X94101673Y-121129698D01*
X94280301Y-121308327D01*
X94513690Y-121405000D01*
X95154250Y-121405000D01*
X95313000Y-121246250D01*
X95313000Y-119897000D01*
X95567000Y-119897000D01*
X95567000Y-121246250D01*
X95725750Y-121405000D01*
X96366310Y-121405000D01*
X96599699Y-121308327D01*
X96778327Y-121129698D01*
X96875000Y-120896309D01*
X96875000Y-120055750D01*
X96716250Y-119897000D01*
X95567000Y-119897000D01*
X95313000Y-119897000D01*
X94163750Y-119897000D01*
X94005000Y-120055750D01*
X82456460Y-120055750D01*
X82456460Y-117740000D01*
X86597000Y-117740000D01*
X86643159Y-117731315D01*
X86685553Y-117704035D01*
X86713994Y-117662410D01*
X86724000Y-117613000D01*
X86724000Y-114386448D01*
X86903306Y-114271068D01*
X86996961Y-114134000D01*
X88425000Y-114134000D01*
X88425000Y-118623000D01*
X88433685Y-118669159D01*
X88460965Y-118711553D01*
X88502590Y-118739994D01*
X88552000Y-118750000D01*
X94005000Y-118750000D01*
X94005000Y-119484250D01*
X94163750Y-119643000D01*
X95313000Y-119643000D01*
X95313000Y-119623000D01*
X95567000Y-119623000D01*
X95567000Y-119643000D01*
X96716250Y-119643000D01*
X96875000Y-119484250D01*
X96875000Y-118750000D01*
X97909000Y-118750000D01*
X97955159Y-118741315D01*
X97997553Y-118714035D01*
X98025994Y-118672410D01*
X98036000Y-118623000D01*
X98036000Y-107426691D01*
X99872000Y-107426691D01*
X99872000Y-108267250D01*
X100030750Y-108426000D01*
X101230000Y-108426000D01*
X101230000Y-107076750D01*
X101071250Y-106918000D01*
X100380690Y-106918000D01*
X100147301Y-107014673D01*
X99968673Y-107193302D01*
X99872000Y-107426691D01*
X98036000Y-107426691D01*
X98036000Y-103677000D01*
X98027315Y-103630841D01*
X98000035Y-103588447D01*
X97958410Y-103560006D01*
X97909000Y-103550000D01*
X92173480Y-103550000D01*
X92173480Y-98106259D01*
X102323758Y-98097311D01*
X102323758Y-99020000D01*
X102327410Y-99039411D01*
X102321832Y-99043000D01*
X101060113Y-99043000D01*
X100978385Y-98987157D01*
X100690000Y-98928758D01*
X98690000Y-98928758D01*
X98420590Y-98979451D01*
X98173154Y-99138672D01*
X98007157Y-99381615D01*
X97948758Y-99670000D01*
X97948758Y-101370000D01*
X97999451Y-101639410D01*
X98158672Y-101886846D01*
X98401615Y-102052843D01*
X98414679Y-102055488D01*
X98425769Y-102111242D01*
X98440915Y-102187388D01*
X98733992Y-102626008D01*
X99933991Y-103826008D01*
X100090139Y-103930343D01*
X100158672Y-104036846D01*
X100401615Y-104202843D01*
X100690000Y-104261242D01*
X102190000Y-104261242D01*
X102459410Y-104210549D01*
X102597019Y-104122000D01*
X103184022Y-104122000D01*
X103263691Y-104155000D01*
X103854250Y-104155000D01*
X104013000Y-103996250D01*
X104013000Y-102997000D01*
X104267000Y-102997000D01*
X104267000Y-103996250D01*
X104425750Y-104155000D01*
X105016309Y-104155000D01*
X105249698Y-104058327D01*
X105428327Y-103879699D01*
X105525000Y-103646310D01*
X105525000Y-103155750D01*
X105366250Y-102997000D01*
X104267000Y-102997000D01*
X104013000Y-102997000D01*
X103993000Y-102997000D01*
X103993000Y-102743000D01*
X104013000Y-102743000D01*
X104013000Y-102723000D01*
X104267000Y-102723000D01*
X104267000Y-102743000D01*
X105366250Y-102743000D01*
X105525000Y-102584250D01*
X105525000Y-102093690D01*
X105428327Y-101860301D01*
X105313403Y-101745378D01*
X105372843Y-101658385D01*
X105431242Y-101370000D01*
X105431242Y-99670000D01*
X105380549Y-99400590D01*
X105334131Y-99328454D01*
X105347843Y-99308385D01*
X105406242Y-99020000D01*
X105406242Y-98094593D01*
X114818600Y-98086296D01*
X114818600Y-103627000D01*
G36*
X129345000Y-107143000D02*
X128549000Y-107143000D01*
X128549000Y-106391750D01*
X128390250Y-106233000D01*
X127241000Y-106233000D01*
X127241000Y-106253000D01*
X126987000Y-106253000D01*
X126987000Y-106233000D01*
X125837750Y-106233000D01*
X125679000Y-106391750D01*
X125679000Y-106956000D01*
X125242000Y-106956000D01*
X125242000Y-106338750D01*
X125083250Y-106180000D01*
X123884000Y-106180000D01*
X123884000Y-106200000D01*
X123630000Y-106200000D01*
X123630000Y-106180000D01*
X122430750Y-106180000D01*
X122272000Y-106338750D01*
X122272000Y-107179309D01*
X122368673Y-107412698D01*
X122540000Y-107584026D01*
X122540000Y-108425249D01*
X122390154Y-108521672D01*
X122224157Y-108764615D01*
X122165758Y-109053000D01*
X122165758Y-111053000D01*
X122216451Y-111322410D01*
X122375672Y-111569846D01*
X122412000Y-111594668D01*
X122412000Y-111959230D01*
X122374157Y-112014615D01*
X122315758Y-112303000D01*
X122315758Y-113803000D01*
X122366451Y-114072410D01*
X122525672Y-114319846D01*
X122539460Y-114329267D01*
X122539460Y-114639634D01*
X122399677Y-114639512D01*
X121875005Y-114856303D01*
X121473233Y-115257374D01*
X121255528Y-115781667D01*
X121255032Y-116349363D01*
X121330280Y-116531476D01*
X121330280Y-118361703D01*
X117006952Y-122685032D01*
X116731010Y-123098008D01*
X116672045Y-122801572D01*
X116378968Y-122362952D01*
X116063010Y-122046994D01*
X116063008Y-122046991D01*
X109113008Y-115096992D01*
X108956913Y-114992693D01*
X109667297Y-114282309D01*
X109858410Y-114246349D01*
X110105846Y-114087128D01*
X110211568Y-113932400D01*
X112490000Y-113932400D01*
X112490000Y-116447800D01*
X112499334Y-116495589D01*
X112527197Y-116537603D01*
X115083397Y-119093803D01*
X115123790Y-119120994D01*
X115173200Y-119131000D01*
X119397600Y-119131000D01*
X119445389Y-119121666D01*
X119487403Y-119093803D01*
X121209403Y-117371803D01*
X121236594Y-117331410D01*
X121246600Y-117282000D01*
X121246600Y-113991851D01*
X121249000Y-113980000D01*
X121249000Y-104926691D01*
X122272000Y-104926691D01*
X122272000Y-105767250D01*
X122430750Y-105926000D01*
X123630000Y-105926000D01*
X123630000Y-104576750D01*
X123884000Y-104576750D01*
X123884000Y-105926000D01*
X125083250Y-105926000D01*
X125242000Y-105767250D01*
X125242000Y-104979691D01*
X125679000Y-104979691D01*
X125679000Y-105820250D01*
X125837750Y-105979000D01*
X126987000Y-105979000D01*
X126987000Y-104629750D01*
X127241000Y-104629750D01*
X127241000Y-105979000D01*
X128390250Y-105979000D01*
X128549000Y-105820250D01*
X128549000Y-104979691D01*
X128452327Y-104746302D01*
X128273699Y-104567673D01*
X128040310Y-104471000D01*
X127399750Y-104471000D01*
X127241000Y-104629750D01*
X126987000Y-104629750D01*
X126828250Y-104471000D01*
X126187690Y-104471000D01*
X125954301Y-104567673D01*
X125775673Y-104746302D01*
X125679000Y-104979691D01*
X125242000Y-104979691D01*
X125242000Y-104926691D01*
X125145327Y-104693302D01*
X124966699Y-104514673D01*
X124733310Y-104418000D01*
X124042750Y-104418000D01*
X123884000Y-104576750D01*
X123630000Y-104576750D01*
X123471250Y-104418000D01*
X122780690Y-104418000D01*
X122547301Y-104514673D01*
X122368673Y-104693302D01*
X122272000Y-104926691D01*
X121249000Y-104926691D01*
X121249000Y-103754000D01*
X121240315Y-103707841D01*
X121213035Y-103665447D01*
X121171410Y-103637006D01*
X121122000Y-103627000D01*
X116772600Y-103627000D01*
X116772600Y-98084573D01*
X129345000Y-98073489D01*
X129345000Y-107143000D01*
X129345000Y-107143000D01*
G37*
X129345000Y-107143000D02*
X128549000Y-107143000D01*
X128549000Y-106391750D01*
X128390250Y-106233000D01*
X127241000Y-106233000D01*
X127241000Y-106253000D01*
X126987000Y-106253000D01*
X126987000Y-106233000D01*
X125837750Y-106233000D01*
X125679000Y-106391750D01*
X125679000Y-106956000D01*
X125242000Y-106956000D01*
X125242000Y-106338750D01*
X125083250Y-106180000D01*
X123884000Y-106180000D01*
X123884000Y-106200000D01*
X123630000Y-106200000D01*
X123630000Y-106180000D01*
X122430750Y-106180000D01*
X122272000Y-106338750D01*
X122272000Y-107179309D01*
X122368673Y-107412698D01*
X122540000Y-107584026D01*
X122540000Y-108425249D01*
X122390154Y-108521672D01*
X122224157Y-108764615D01*
X122165758Y-109053000D01*
X122165758Y-111053000D01*
X122216451Y-111322410D01*
X122375672Y-111569846D01*
X122412000Y-111594668D01*
X122412000Y-111959230D01*
X122374157Y-112014615D01*
X122315758Y-112303000D01*
X122315758Y-113803000D01*
X122366451Y-114072410D01*
X122525672Y-114319846D01*
X122539460Y-114329267D01*
X122539460Y-114639634D01*
X122399677Y-114639512D01*
X121875005Y-114856303D01*
X121473233Y-115257374D01*
X121255528Y-115781667D01*
X121255032Y-116349363D01*
X121330280Y-116531476D01*
X121330280Y-118361703D01*
X117006952Y-122685032D01*
X116731010Y-123098008D01*
X116672045Y-122801572D01*
X116378968Y-122362952D01*
X116063010Y-122046994D01*
X116063008Y-122046991D01*
X109113008Y-115096992D01*
X108956913Y-114992693D01*
X109667297Y-114282309D01*
X109858410Y-114246349D01*
X110105846Y-114087128D01*
X110211568Y-113932400D01*
X112490000Y-113932400D01*
X112490000Y-116447800D01*
X112499334Y-116495589D01*
X112527197Y-116537603D01*
X115083397Y-119093803D01*
X115123790Y-119120994D01*
X115173200Y-119131000D01*
X119397600Y-119131000D01*
X119445389Y-119121666D01*
X119487403Y-119093803D01*
X121209403Y-117371803D01*
X121236594Y-117331410D01*
X121246600Y-117282000D01*
X121246600Y-113991851D01*
X121249000Y-113980000D01*
X121249000Y-104926691D01*
X122272000Y-104926691D01*
X122272000Y-105767250D01*
X122430750Y-105926000D01*
X123630000Y-105926000D01*
X123630000Y-104576750D01*
X123884000Y-104576750D01*
X123884000Y-105926000D01*
X125083250Y-105926000D01*
X125242000Y-105767250D01*
X125242000Y-104979691D01*
X125679000Y-104979691D01*
X125679000Y-105820250D01*
X125837750Y-105979000D01*
X126987000Y-105979000D01*
X126987000Y-104629750D01*
X127241000Y-104629750D01*
X127241000Y-105979000D01*
X128390250Y-105979000D01*
X128549000Y-105820250D01*
X128549000Y-104979691D01*
X128452327Y-104746302D01*
X128273699Y-104567673D01*
X128040310Y-104471000D01*
X127399750Y-104471000D01*
X127241000Y-104629750D01*
X126987000Y-104629750D01*
X126828250Y-104471000D01*
X126187690Y-104471000D01*
X125954301Y-104567673D01*
X125775673Y-104746302D01*
X125679000Y-104979691D01*
X125242000Y-104979691D01*
X125242000Y-104926691D01*
X125145327Y-104693302D01*
X124966699Y-104514673D01*
X124733310Y-104418000D01*
X124042750Y-104418000D01*
X123884000Y-104576750D01*
X123630000Y-104576750D01*
X123471250Y-104418000D01*
X122780690Y-104418000D01*
X122547301Y-104514673D01*
X122368673Y-104693302D01*
X122272000Y-104926691D01*
X121249000Y-104926691D01*
X121249000Y-103754000D01*
X121240315Y-103707841D01*
X121213035Y-103665447D01*
X121171410Y-103637006D01*
X121122000Y-103627000D01*
X116772600Y-103627000D01*
X116772600Y-98084573D01*
X129345000Y-98073489D01*
X129345000Y-107143000D01*
G36*
X142717300Y-89105558D02*
X139861528Y-88790466D01*
X139824195Y-88791875D01*
X139214595Y-88906175D01*
X139169390Y-88924127D01*
X138140690Y-89584527D01*
X138118175Y-89602940D01*
X136037200Y-91746594D01*
X134006503Y-89715897D01*
X133987147Y-89700030D01*
X132958447Y-89014230D01*
X132911984Y-88995185D01*
X131260984Y-88677685D01*
X131236487Y-88675401D01*
X109393300Y-88763631D01*
X109393300Y-87488290D01*
X109296627Y-87254901D01*
X109117998Y-87076273D01*
X108884609Y-86979600D01*
X108044050Y-86979600D01*
X107885300Y-87138350D01*
X107885300Y-88769722D01*
X107631300Y-88770748D01*
X107631300Y-87138350D01*
X107472550Y-86979600D01*
X106631991Y-86979600D01*
X106398602Y-87076273D01*
X106219973Y-87254901D01*
X106123300Y-87488290D01*
X106123300Y-88776839D01*
X87218287Y-88853201D01*
X87205989Y-88853848D01*
X84344000Y-89144022D01*
X84344000Y-86072000D01*
X142717300Y-86072000D01*
X142717300Y-89105558D01*
X142717300Y-89105558D01*
G37*
X142717300Y-89105558D02*
X139861528Y-88790466D01*
X139824195Y-88791875D01*
X139214595Y-88906175D01*
X139169390Y-88924127D01*
X138140690Y-89584527D01*
X138118175Y-89602940D01*
X136037200Y-91746594D01*
X134006503Y-89715897D01*
X133987147Y-89700030D01*
X132958447Y-89014230D01*
X132911984Y-88995185D01*
X131260984Y-88677685D01*
X131236487Y-88675401D01*
X109393300Y-88763631D01*
X109393300Y-87488290D01*
X109296627Y-87254901D01*
X109117998Y-87076273D01*
X108884609Y-86979600D01*
X108044050Y-86979600D01*
X107885300Y-87138350D01*
X107885300Y-88769722D01*
X107631300Y-88770748D01*
X107631300Y-87138350D01*
X107472550Y-86979600D01*
X106631991Y-86979600D01*
X106398602Y-87076273D01*
X106219973Y-87254901D01*
X106123300Y-87488290D01*
X106123300Y-88776839D01*
X87218287Y-88853201D01*
X87205989Y-88853848D01*
X84344000Y-89144022D01*
X84344000Y-86072000D01*
X142717300Y-86072000D01*
X142717300Y-89105558D01*
G36*
X80450000Y-139576830D02*
X78061989Y-139818948D01*
X78028641Y-139826985D01*
X77986247Y-139854265D01*
X77957806Y-139895890D01*
X77947800Y-139945300D01*
X77947800Y-139963354D01*
X77783547Y-141378457D01*
X77782901Y-141400244D01*
X77833701Y-142301944D01*
X77837007Y-142324438D01*
X78218007Y-143911938D01*
X78230007Y-143943114D01*
X78306207Y-144082814D01*
X78315074Y-144096812D01*
X79305674Y-145455712D01*
X79341420Y-145488863D01*
X80776520Y-146377863D01*
X80797701Y-146388393D01*
X84518801Y-147823493D01*
X84540693Y-147829749D01*
X86204393Y-148147249D01*
X86228312Y-148149500D01*
X90219480Y-148145981D01*
X90219480Y-153588000D01*
X88552000Y-153588000D01*
X88505841Y-153596685D01*
X88463447Y-153623965D01*
X88435006Y-153665590D01*
X88425000Y-153715000D01*
X88425000Y-161718000D01*
X87018883Y-161718000D01*
X86917788Y-161560894D01*
X86724000Y-161428483D01*
X86724000Y-161354245D01*
X86746158Y-161345067D01*
X86924787Y-161166439D01*
X87021460Y-160933050D01*
X87021460Y-160292490D01*
X86862710Y-160133740D01*
X86724000Y-160133740D01*
X86724000Y-160041000D01*
X86715315Y-159994841D01*
X86688035Y-159952447D01*
X86646410Y-159924006D01*
X86597000Y-159914000D01*
X85239460Y-159914000D01*
X85239460Y-159879740D01*
X85259460Y-159879740D01*
X85259460Y-158101740D01*
X85513460Y-158101740D01*
X85513460Y-159879740D01*
X86862710Y-159879740D01*
X87021460Y-159720990D01*
X87021460Y-159080430D01*
X86984309Y-158990740D01*
X87021460Y-158901050D01*
X87021460Y-158260490D01*
X86862710Y-158101740D01*
X85513460Y-158101740D01*
X85259460Y-158101740D01*
X85239460Y-158101740D01*
X85239460Y-157847740D01*
X85259460Y-157847740D01*
X85259460Y-156069740D01*
X85513460Y-156069740D01*
X85513460Y-157847740D01*
X86862710Y-157847740D01*
X87021460Y-157688990D01*
X87021460Y-157048430D01*
X86984309Y-156958740D01*
X87021460Y-156869050D01*
X87021460Y-156228490D01*
X86862710Y-156069740D01*
X85513460Y-156069740D01*
X85259460Y-156069740D01*
X85239460Y-156069740D01*
X85239460Y-155815740D01*
X85259460Y-155815740D01*
X85259460Y-154666490D01*
X85513460Y-154666490D01*
X85513460Y-155815740D01*
X86862710Y-155815740D01*
X87021460Y-155656990D01*
X87021460Y-155016430D01*
X86924787Y-154783041D01*
X86746158Y-154604413D01*
X86512769Y-154507740D01*
X85672210Y-154507740D01*
X85513460Y-154666490D01*
X85259460Y-154666490D01*
X85100710Y-154507740D01*
X84260151Y-154507740D01*
X84027759Y-154604000D01*
X82885745Y-154604000D01*
X82674845Y-154459897D01*
X82386460Y-154401498D01*
X80386460Y-154401498D01*
X80117050Y-154452191D01*
X79881133Y-154604000D01*
X79697000Y-154604000D01*
X79649211Y-154613334D01*
X79607197Y-154641197D01*
X78637197Y-155611197D01*
X78610006Y-155651590D01*
X78600000Y-155701000D01*
X78600000Y-157107740D01*
X78140210Y-157107740D01*
X77981460Y-157266490D01*
X77981460Y-158615740D01*
X78001460Y-158615740D01*
X78001460Y-158869740D01*
X77981460Y-158869740D01*
X77981460Y-158889740D01*
X77727460Y-158889740D01*
X77727460Y-158869740D01*
X76528210Y-158869740D01*
X76369460Y-159028490D01*
X76369460Y-159426443D01*
X76348447Y-159439965D01*
X76320006Y-159481590D01*
X76310000Y-159531000D01*
X76310000Y-161511722D01*
X76263218Y-161742740D01*
X76263218Y-163742740D01*
X76310000Y-163991365D01*
X76310000Y-167651000D01*
X76318685Y-167697159D01*
X76345965Y-167739553D01*
X76387590Y-167767994D01*
X76437000Y-167778000D01*
X79752460Y-167778000D01*
X79752460Y-173172460D01*
X79845141Y-173638400D01*
X79855375Y-173689848D01*
X80148452Y-174128468D01*
X82183991Y-176164008D01*
X82421389Y-176322632D01*
X82622612Y-176457085D01*
X83140000Y-176560000D01*
X110834320Y-176560000D01*
X110834320Y-177176480D01*
X110843005Y-177222639D01*
X110870285Y-177265033D01*
X110911910Y-177293474D01*
X110961320Y-177303480D01*
X147749920Y-177303480D01*
X147796079Y-177294795D01*
X147838473Y-177267515D01*
X147866914Y-177225890D01*
X147876920Y-177176480D01*
X147876920Y-177028400D01*
X148157210Y-177028400D01*
X148315960Y-176869650D01*
X148315960Y-175670400D01*
X148569960Y-175670400D01*
X148569960Y-176869650D01*
X148728710Y-177028400D01*
X149419270Y-177028400D01*
X149652659Y-176931727D01*
X149831287Y-176753098D01*
X149927960Y-176519709D01*
X149927960Y-175829150D01*
X149769210Y-175670400D01*
X148569960Y-175670400D01*
X148315960Y-175670400D01*
X148295960Y-175670400D01*
X148295960Y-175416400D01*
X148315960Y-175416400D01*
X148315960Y-174217150D01*
X148569960Y-174217150D01*
X148569960Y-175416400D01*
X149769210Y-175416400D01*
X149927960Y-175257650D01*
X149927960Y-174567091D01*
X149831287Y-174333702D01*
X149652659Y-174155073D01*
X149419270Y-174058400D01*
X148728710Y-174058400D01*
X148569960Y-174217150D01*
X148315960Y-174217150D01*
X148157210Y-174058400D01*
X147876920Y-174058400D01*
X147876920Y-173976480D01*
X147868235Y-173930321D01*
X147840955Y-173887927D01*
X147799330Y-173859486D01*
X147749920Y-173849480D01*
X147230024Y-173849480D01*
X150117179Y-170962324D01*
X150117182Y-170962322D01*
X150356065Y-170604807D01*
X150439950Y-170183090D01*
X150439950Y-153358950D01*
X150356065Y-152937233D01*
X150117182Y-152579718D01*
X149759667Y-152340835D01*
X149466413Y-152282503D01*
X144856992Y-147673082D01*
X146330761Y-146706290D01*
X146350382Y-146690420D01*
X147455282Y-145598220D01*
X147461456Y-145591668D01*
X148007556Y-144969368D01*
X148018345Y-144955177D01*
X148958145Y-143520077D01*
X148976615Y-143474484D01*
X149294115Y-141823484D01*
X149296285Y-141804899D01*
X149321685Y-141207999D01*
X149319235Y-141177205D01*
X149065235Y-139932605D01*
X149040997Y-139879964D01*
X149002743Y-139847130D01*
X148954728Y-139831766D01*
X146621300Y-139574307D01*
X146621300Y-136072000D01*
X151038000Y-136072000D01*
X151038000Y-184468000D01*
X74642000Y-184468000D01*
X74642000Y-157616431D01*
X76369460Y-157616431D01*
X76369460Y-158456990D01*
X76528210Y-158615740D01*
X77727460Y-158615740D01*
X77727460Y-157266490D01*
X77568710Y-157107740D01*
X76878150Y-157107740D01*
X76644761Y-157204413D01*
X76466133Y-157383042D01*
X76369460Y-157616431D01*
X74642000Y-157616431D01*
X74642000Y-136072000D01*
X80450000Y-136072000D01*
X80450000Y-139576830D01*
X80450000Y-139576830D01*
G37*
X80450000Y-139576830D02*
X78061989Y-139818948D01*
X78028641Y-139826985D01*
X77986247Y-139854265D01*
X77957806Y-139895890D01*
X77947800Y-139945300D01*
X77947800Y-139963354D01*
X77783547Y-141378457D01*
X77782901Y-141400244D01*
X77833701Y-142301944D01*
X77837007Y-142324438D01*
X78218007Y-143911938D01*
X78230007Y-143943114D01*
X78306207Y-144082814D01*
X78315074Y-144096812D01*
X79305674Y-145455712D01*
X79341420Y-145488863D01*
X80776520Y-146377863D01*
X80797701Y-146388393D01*
X84518801Y-147823493D01*
X84540693Y-147829749D01*
X86204393Y-148147249D01*
X86228312Y-148149500D01*
X90219480Y-148145981D01*
X90219480Y-153588000D01*
X88552000Y-153588000D01*
X88505841Y-153596685D01*
X88463447Y-153623965D01*
X88435006Y-153665590D01*
X88425000Y-153715000D01*
X88425000Y-161718000D01*
X87018883Y-161718000D01*
X86917788Y-161560894D01*
X86724000Y-161428483D01*
X86724000Y-161354245D01*
X86746158Y-161345067D01*
X86924787Y-161166439D01*
X87021460Y-160933050D01*
X87021460Y-160292490D01*
X86862710Y-160133740D01*
X86724000Y-160133740D01*
X86724000Y-160041000D01*
X86715315Y-159994841D01*
X86688035Y-159952447D01*
X86646410Y-159924006D01*
X86597000Y-159914000D01*
X85239460Y-159914000D01*
X85239460Y-159879740D01*
X85259460Y-159879740D01*
X85259460Y-158101740D01*
X85513460Y-158101740D01*
X85513460Y-159879740D01*
X86862710Y-159879740D01*
X87021460Y-159720990D01*
X87021460Y-159080430D01*
X86984309Y-158990740D01*
X87021460Y-158901050D01*
X87021460Y-158260490D01*
X86862710Y-158101740D01*
X85513460Y-158101740D01*
X85259460Y-158101740D01*
X85239460Y-158101740D01*
X85239460Y-157847740D01*
X85259460Y-157847740D01*
X85259460Y-156069740D01*
X85513460Y-156069740D01*
X85513460Y-157847740D01*
X86862710Y-157847740D01*
X87021460Y-157688990D01*
X87021460Y-157048430D01*
X86984309Y-156958740D01*
X87021460Y-156869050D01*
X87021460Y-156228490D01*
X86862710Y-156069740D01*
X85513460Y-156069740D01*
X85259460Y-156069740D01*
X85239460Y-156069740D01*
X85239460Y-155815740D01*
X85259460Y-155815740D01*
X85259460Y-154666490D01*
X85513460Y-154666490D01*
X85513460Y-155815740D01*
X86862710Y-155815740D01*
X87021460Y-155656990D01*
X87021460Y-155016430D01*
X86924787Y-154783041D01*
X86746158Y-154604413D01*
X86512769Y-154507740D01*
X85672210Y-154507740D01*
X85513460Y-154666490D01*
X85259460Y-154666490D01*
X85100710Y-154507740D01*
X84260151Y-154507740D01*
X84027759Y-154604000D01*
X82885745Y-154604000D01*
X82674845Y-154459897D01*
X82386460Y-154401498D01*
X80386460Y-154401498D01*
X80117050Y-154452191D01*
X79881133Y-154604000D01*
X79697000Y-154604000D01*
X79649211Y-154613334D01*
X79607197Y-154641197D01*
X78637197Y-155611197D01*
X78610006Y-155651590D01*
X78600000Y-155701000D01*
X78600000Y-157107740D01*
X78140210Y-157107740D01*
X77981460Y-157266490D01*
X77981460Y-158615740D01*
X78001460Y-158615740D01*
X78001460Y-158869740D01*
X77981460Y-158869740D01*
X77981460Y-158889740D01*
X77727460Y-158889740D01*
X77727460Y-158869740D01*
X76528210Y-158869740D01*
X76369460Y-159028490D01*
X76369460Y-159426443D01*
X76348447Y-159439965D01*
X76320006Y-159481590D01*
X76310000Y-159531000D01*
X76310000Y-161511722D01*
X76263218Y-161742740D01*
X76263218Y-163742740D01*
X76310000Y-163991365D01*
X76310000Y-167651000D01*
X76318685Y-167697159D01*
X76345965Y-167739553D01*
X76387590Y-167767994D01*
X76437000Y-167778000D01*
X79752460Y-167778000D01*
X79752460Y-173172460D01*
X79845141Y-173638400D01*
X79855375Y-173689848D01*
X80148452Y-174128468D01*
X82183991Y-176164008D01*
X82421389Y-176322632D01*
X82622612Y-176457085D01*
X83140000Y-176560000D01*
X110834320Y-176560000D01*
X110834320Y-177176480D01*
X110843005Y-177222639D01*
X110870285Y-177265033D01*
X110911910Y-177293474D01*
X110961320Y-177303480D01*
X147749920Y-177303480D01*
X147796079Y-177294795D01*
X147838473Y-177267515D01*
X147866914Y-177225890D01*
X147876920Y-177176480D01*
X147876920Y-177028400D01*
X148157210Y-177028400D01*
X148315960Y-176869650D01*
X148315960Y-175670400D01*
X148569960Y-175670400D01*
X148569960Y-176869650D01*
X148728710Y-177028400D01*
X149419270Y-177028400D01*
X149652659Y-176931727D01*
X149831287Y-176753098D01*
X149927960Y-176519709D01*
X149927960Y-175829150D01*
X149769210Y-175670400D01*
X148569960Y-175670400D01*
X148315960Y-175670400D01*
X148295960Y-175670400D01*
X148295960Y-175416400D01*
X148315960Y-175416400D01*
X148315960Y-174217150D01*
X148569960Y-174217150D01*
X148569960Y-175416400D01*
X149769210Y-175416400D01*
X149927960Y-175257650D01*
X149927960Y-174567091D01*
X149831287Y-174333702D01*
X149652659Y-174155073D01*
X149419270Y-174058400D01*
X148728710Y-174058400D01*
X148569960Y-174217150D01*
X148315960Y-174217150D01*
X148157210Y-174058400D01*
X147876920Y-174058400D01*
X147876920Y-173976480D01*
X147868235Y-173930321D01*
X147840955Y-173887927D01*
X147799330Y-173859486D01*
X147749920Y-173849480D01*
X147230024Y-173849480D01*
X150117179Y-170962324D01*
X150117182Y-170962322D01*
X150356065Y-170604807D01*
X150439950Y-170183090D01*
X150439950Y-153358950D01*
X150356065Y-152937233D01*
X150117182Y-152579718D01*
X149759667Y-152340835D01*
X149466413Y-152282503D01*
X144856992Y-147673082D01*
X146330761Y-146706290D01*
X146350382Y-146690420D01*
X147455282Y-145598220D01*
X147461456Y-145591668D01*
X148007556Y-144969368D01*
X148018345Y-144955177D01*
X148958145Y-143520077D01*
X148976615Y-143474484D01*
X149294115Y-141823484D01*
X149296285Y-141804899D01*
X149321685Y-141207999D01*
X149319235Y-141177205D01*
X149065235Y-139932605D01*
X149040997Y-139879964D01*
X149002743Y-139847130D01*
X148954728Y-139831766D01*
X146621300Y-139574307D01*
X146621300Y-136072000D01*
X151038000Y-136072000D01*
X151038000Y-184468000D01*
X74642000Y-184468000D01*
X74642000Y-157616431D01*
X76369460Y-157616431D01*
X76369460Y-158456990D01*
X76528210Y-158615740D01*
X77727460Y-158615740D01*
X77727460Y-157266490D01*
X77568710Y-157107740D01*
X76878150Y-157107740D01*
X76644761Y-157204413D01*
X76466133Y-157383042D01*
X76369460Y-157616431D01*
X74642000Y-157616431D01*
X74642000Y-136072000D01*
X80450000Y-136072000D01*
X80450000Y-139576830D01*
G36*
X114818600Y-153665000D02*
X112617000Y-153665000D01*
X112570841Y-153673685D01*
X112528447Y-153700965D01*
X112500006Y-153742590D01*
X112490000Y-153792000D01*
X112490000Y-161516400D01*
X110210059Y-161516400D01*
X110120328Y-161376954D01*
X110094000Y-161358965D01*
X110094000Y-161193626D01*
X110127327Y-161160299D01*
X110224000Y-160926910D01*
X110224000Y-160286350D01*
X110094000Y-160156350D01*
X110094000Y-160041000D01*
X110085315Y-159994841D01*
X110058035Y-159952447D01*
X110016410Y-159924006D01*
X109967000Y-159914000D01*
X108442000Y-159914000D01*
X108442000Y-159873600D01*
X108462000Y-159873600D01*
X108462000Y-158095600D01*
X108716000Y-158095600D01*
X108716000Y-159873600D01*
X110065250Y-159873600D01*
X110224000Y-159714850D01*
X110224000Y-159074290D01*
X110186849Y-158984600D01*
X110224000Y-158894910D01*
X110224000Y-158254350D01*
X110065250Y-158095600D01*
X108716000Y-158095600D01*
X108462000Y-158095600D01*
X108442000Y-158095600D01*
X108442000Y-157841600D01*
X108462000Y-157841600D01*
X108462000Y-156089000D01*
X108716000Y-156089000D01*
X108716000Y-157841600D01*
X110065250Y-157841600D01*
X110224000Y-157682850D01*
X110224000Y-157042290D01*
X110192110Y-156965300D01*
X110224000Y-156888310D01*
X110224000Y-156247750D01*
X110065250Y-156089000D01*
X108716000Y-156089000D01*
X108462000Y-156089000D01*
X108442000Y-156089000D01*
X108442000Y-155835000D01*
X108462000Y-155835000D01*
X108462000Y-154685750D01*
X108716000Y-154685750D01*
X108716000Y-155835000D01*
X110065250Y-155835000D01*
X110224000Y-155676250D01*
X110224000Y-155035690D01*
X110127327Y-154802301D01*
X109948698Y-154623673D01*
X109715309Y-154527000D01*
X108874750Y-154527000D01*
X108716000Y-154685750D01*
X108462000Y-154685750D01*
X108303250Y-154527000D01*
X107462691Y-154527000D01*
X107229302Y-154623673D01*
X107050673Y-154802301D01*
X107025116Y-154864000D01*
X106261152Y-154864000D01*
X106120328Y-154645154D01*
X105877385Y-154479157D01*
X105589000Y-154420758D01*
X103589000Y-154420758D01*
X103319590Y-154471451D01*
X103072154Y-154630672D01*
X102912727Y-154864000D01*
X102347000Y-154864000D01*
X102300841Y-154872685D01*
X102258447Y-154899965D01*
X102230006Y-154941590D01*
X102220000Y-154991000D01*
X102220000Y-156956000D01*
X101642750Y-156956000D01*
X101484000Y-157114750D01*
X101484000Y-158464000D01*
X101504000Y-158464000D01*
X101504000Y-158718000D01*
X101484000Y-158718000D01*
X101484000Y-158738000D01*
X101230000Y-158738000D01*
X101230000Y-158718000D01*
X100030750Y-158718000D01*
X99872000Y-158876750D01*
X99872000Y-159404000D01*
X99557000Y-159404000D01*
X99510841Y-159412685D01*
X99468447Y-159439965D01*
X99440006Y-159481590D01*
X99430000Y-159531000D01*
X99430000Y-167651000D01*
X99438685Y-167697159D01*
X99465965Y-167739553D01*
X99507590Y-167767994D01*
X99557000Y-167778000D01*
X106157000Y-167778000D01*
X106204789Y-167768666D01*
X106246803Y-167740803D01*
X106544606Y-167443000D01*
X107596984Y-167443000D01*
X114003463Y-173849480D01*
X110961320Y-173849480D01*
X110926668Y-173856000D01*
X83700017Y-173856000D01*
X82456460Y-172612444D01*
X82456460Y-170093750D01*
X94005000Y-170093750D01*
X94005000Y-170934309D01*
X94101673Y-171167698D01*
X94280301Y-171346327D01*
X94513690Y-171443000D01*
X95154250Y-171443000D01*
X95313000Y-171284250D01*
X95313000Y-169935000D01*
X95567000Y-169935000D01*
X95567000Y-171284250D01*
X95725750Y-171443000D01*
X96366310Y-171443000D01*
X96599699Y-171346327D01*
X96778327Y-171167698D01*
X96875000Y-170934309D01*
X96875000Y-170093750D01*
X96716250Y-169935000D01*
X95567000Y-169935000D01*
X95313000Y-169935000D01*
X94163750Y-169935000D01*
X94005000Y-170093750D01*
X82456460Y-170093750D01*
X82456460Y-167778000D01*
X86597000Y-167778000D01*
X86643159Y-167769315D01*
X86685553Y-167742035D01*
X86713994Y-167700410D01*
X86724000Y-167651000D01*
X86724000Y-164424448D01*
X86903306Y-164309068D01*
X86996961Y-164172000D01*
X88425000Y-164172000D01*
X88425000Y-168661000D01*
X88433685Y-168707159D01*
X88460965Y-168749553D01*
X88502590Y-168777994D01*
X88552000Y-168788000D01*
X94005000Y-168788000D01*
X94005000Y-169522250D01*
X94163750Y-169681000D01*
X95313000Y-169681000D01*
X95313000Y-169661000D01*
X95567000Y-169661000D01*
X95567000Y-169681000D01*
X96716250Y-169681000D01*
X96875000Y-169522250D01*
X96875000Y-168788000D01*
X97909000Y-168788000D01*
X97955159Y-168779315D01*
X97997553Y-168752035D01*
X98025994Y-168710410D01*
X98036000Y-168661000D01*
X98036000Y-157464691D01*
X99872000Y-157464691D01*
X99872000Y-158305250D01*
X100030750Y-158464000D01*
X101230000Y-158464000D01*
X101230000Y-157114750D01*
X101071250Y-156956000D01*
X100380690Y-156956000D01*
X100147301Y-157052673D01*
X99968673Y-157231302D01*
X99872000Y-157464691D01*
X98036000Y-157464691D01*
X98036000Y-153715000D01*
X98027315Y-153668841D01*
X98000035Y-153626447D01*
X97958410Y-153598006D01*
X97909000Y-153588000D01*
X92173480Y-153588000D01*
X92173480Y-148144259D01*
X102323758Y-148135311D01*
X102323758Y-149058000D01*
X102327410Y-149077411D01*
X102321832Y-149081000D01*
X101060113Y-149081000D01*
X100978385Y-149025157D01*
X100690000Y-148966758D01*
X98690000Y-148966758D01*
X98420590Y-149017451D01*
X98173154Y-149176672D01*
X98007157Y-149419615D01*
X97948758Y-149708000D01*
X97948758Y-151408000D01*
X97999451Y-151677410D01*
X98158672Y-151924846D01*
X98401615Y-152090843D01*
X98414679Y-152093488D01*
X98425769Y-152149242D01*
X98440915Y-152225388D01*
X98733992Y-152664008D01*
X99933991Y-153864008D01*
X100090139Y-153968343D01*
X100158672Y-154074846D01*
X100401615Y-154240843D01*
X100690000Y-154299242D01*
X102190000Y-154299242D01*
X102459410Y-154248549D01*
X102597019Y-154160000D01*
X103184022Y-154160000D01*
X103263691Y-154193000D01*
X103854250Y-154193000D01*
X104013000Y-154034250D01*
X104013000Y-153035000D01*
X104267000Y-153035000D01*
X104267000Y-154034250D01*
X104425750Y-154193000D01*
X105016309Y-154193000D01*
X105249698Y-154096327D01*
X105428327Y-153917699D01*
X105525000Y-153684310D01*
X105525000Y-153193750D01*
X105366250Y-153035000D01*
X104267000Y-153035000D01*
X104013000Y-153035000D01*
X103993000Y-153035000D01*
X103993000Y-152781000D01*
X104013000Y-152781000D01*
X104013000Y-152761000D01*
X104267000Y-152761000D01*
X104267000Y-152781000D01*
X105366250Y-152781000D01*
X105525000Y-152622250D01*
X105525000Y-152131690D01*
X105428327Y-151898301D01*
X105313403Y-151783378D01*
X105372843Y-151696385D01*
X105431242Y-151408000D01*
X105431242Y-149708000D01*
X105380549Y-149438590D01*
X105334131Y-149366454D01*
X105347843Y-149346385D01*
X105406242Y-149058000D01*
X105406242Y-148132593D01*
X114818600Y-148124296D01*
X114818600Y-153665000D01*
X114818600Y-153665000D01*
G37*
X114818600Y-153665000D02*
X112617000Y-153665000D01*
X112570841Y-153673685D01*
X112528447Y-153700965D01*
X112500006Y-153742590D01*
X112490000Y-153792000D01*
X112490000Y-161516400D01*
X110210059Y-161516400D01*
X110120328Y-161376954D01*
X110094000Y-161358965D01*
X110094000Y-161193626D01*
X110127327Y-161160299D01*
X110224000Y-160926910D01*
X110224000Y-160286350D01*
X110094000Y-160156350D01*
X110094000Y-160041000D01*
X110085315Y-159994841D01*
X110058035Y-159952447D01*
X110016410Y-159924006D01*
X109967000Y-159914000D01*
X108442000Y-159914000D01*
X108442000Y-159873600D01*
X108462000Y-159873600D01*
X108462000Y-158095600D01*
X108716000Y-158095600D01*
X108716000Y-159873600D01*
X110065250Y-159873600D01*
X110224000Y-159714850D01*
X110224000Y-159074290D01*
X110186849Y-158984600D01*
X110224000Y-158894910D01*
X110224000Y-158254350D01*
X110065250Y-158095600D01*
X108716000Y-158095600D01*
X108462000Y-158095600D01*
X108442000Y-158095600D01*
X108442000Y-157841600D01*
X108462000Y-157841600D01*
X108462000Y-156089000D01*
X108716000Y-156089000D01*
X108716000Y-157841600D01*
X110065250Y-157841600D01*
X110224000Y-157682850D01*
X110224000Y-157042290D01*
X110192110Y-156965300D01*
X110224000Y-156888310D01*
X110224000Y-156247750D01*
X110065250Y-156089000D01*
X108716000Y-156089000D01*
X108462000Y-156089000D01*
X108442000Y-156089000D01*
X108442000Y-155835000D01*
X108462000Y-155835000D01*
X108462000Y-154685750D01*
X108716000Y-154685750D01*
X108716000Y-155835000D01*
X110065250Y-155835000D01*
X110224000Y-155676250D01*
X110224000Y-155035690D01*
X110127327Y-154802301D01*
X109948698Y-154623673D01*
X109715309Y-154527000D01*
X108874750Y-154527000D01*
X108716000Y-154685750D01*
X108462000Y-154685750D01*
X108303250Y-154527000D01*
X107462691Y-154527000D01*
X107229302Y-154623673D01*
X107050673Y-154802301D01*
X107025116Y-154864000D01*
X106261152Y-154864000D01*
X106120328Y-154645154D01*
X105877385Y-154479157D01*
X105589000Y-154420758D01*
X103589000Y-154420758D01*
X103319590Y-154471451D01*
X103072154Y-154630672D01*
X102912727Y-154864000D01*
X102347000Y-154864000D01*
X102300841Y-154872685D01*
X102258447Y-154899965D01*
X102230006Y-154941590D01*
X102220000Y-154991000D01*
X102220000Y-156956000D01*
X101642750Y-156956000D01*
X101484000Y-157114750D01*
X101484000Y-158464000D01*
X101504000Y-158464000D01*
X101504000Y-158718000D01*
X101484000Y-158718000D01*
X101484000Y-158738000D01*
X101230000Y-158738000D01*
X101230000Y-158718000D01*
X100030750Y-158718000D01*
X99872000Y-158876750D01*
X99872000Y-159404000D01*
X99557000Y-159404000D01*
X99510841Y-159412685D01*
X99468447Y-159439965D01*
X99440006Y-159481590D01*
X99430000Y-159531000D01*
X99430000Y-167651000D01*
X99438685Y-167697159D01*
X99465965Y-167739553D01*
X99507590Y-167767994D01*
X99557000Y-167778000D01*
X106157000Y-167778000D01*
X106204789Y-167768666D01*
X106246803Y-167740803D01*
X106544606Y-167443000D01*
X107596984Y-167443000D01*
X114003463Y-173849480D01*
X110961320Y-173849480D01*
X110926668Y-173856000D01*
X83700017Y-173856000D01*
X82456460Y-172612444D01*
X82456460Y-170093750D01*
X94005000Y-170093750D01*
X94005000Y-170934309D01*
X94101673Y-171167698D01*
X94280301Y-171346327D01*
X94513690Y-171443000D01*
X95154250Y-171443000D01*
X95313000Y-171284250D01*
X95313000Y-169935000D01*
X95567000Y-169935000D01*
X95567000Y-171284250D01*
X95725750Y-171443000D01*
X96366310Y-171443000D01*
X96599699Y-171346327D01*
X96778327Y-171167698D01*
X96875000Y-170934309D01*
X96875000Y-170093750D01*
X96716250Y-169935000D01*
X95567000Y-169935000D01*
X95313000Y-169935000D01*
X94163750Y-169935000D01*
X94005000Y-170093750D01*
X82456460Y-170093750D01*
X82456460Y-167778000D01*
X86597000Y-167778000D01*
X86643159Y-167769315D01*
X86685553Y-167742035D01*
X86713994Y-167700410D01*
X86724000Y-167651000D01*
X86724000Y-164424448D01*
X86903306Y-164309068D01*
X86996961Y-164172000D01*
X88425000Y-164172000D01*
X88425000Y-168661000D01*
X88433685Y-168707159D01*
X88460965Y-168749553D01*
X88502590Y-168777994D01*
X88552000Y-168788000D01*
X94005000Y-168788000D01*
X94005000Y-169522250D01*
X94163750Y-169681000D01*
X95313000Y-169681000D01*
X95313000Y-169661000D01*
X95567000Y-169661000D01*
X95567000Y-169681000D01*
X96716250Y-169681000D01*
X96875000Y-169522250D01*
X96875000Y-168788000D01*
X97909000Y-168788000D01*
X97955159Y-168779315D01*
X97997553Y-168752035D01*
X98025994Y-168710410D01*
X98036000Y-168661000D01*
X98036000Y-157464691D01*
X99872000Y-157464691D01*
X99872000Y-158305250D01*
X100030750Y-158464000D01*
X101230000Y-158464000D01*
X101230000Y-157114750D01*
X101071250Y-156956000D01*
X100380690Y-156956000D01*
X100147301Y-157052673D01*
X99968673Y-157231302D01*
X99872000Y-157464691D01*
X98036000Y-157464691D01*
X98036000Y-153715000D01*
X98027315Y-153668841D01*
X98000035Y-153626447D01*
X97958410Y-153598006D01*
X97909000Y-153588000D01*
X92173480Y-153588000D01*
X92173480Y-148144259D01*
X102323758Y-148135311D01*
X102323758Y-149058000D01*
X102327410Y-149077411D01*
X102321832Y-149081000D01*
X101060113Y-149081000D01*
X100978385Y-149025157D01*
X100690000Y-148966758D01*
X98690000Y-148966758D01*
X98420590Y-149017451D01*
X98173154Y-149176672D01*
X98007157Y-149419615D01*
X97948758Y-149708000D01*
X97948758Y-151408000D01*
X97999451Y-151677410D01*
X98158672Y-151924846D01*
X98401615Y-152090843D01*
X98414679Y-152093488D01*
X98425769Y-152149242D01*
X98440915Y-152225388D01*
X98733992Y-152664008D01*
X99933991Y-153864008D01*
X100090139Y-153968343D01*
X100158672Y-154074846D01*
X100401615Y-154240843D01*
X100690000Y-154299242D01*
X102190000Y-154299242D01*
X102459410Y-154248549D01*
X102597019Y-154160000D01*
X103184022Y-154160000D01*
X103263691Y-154193000D01*
X103854250Y-154193000D01*
X104013000Y-154034250D01*
X104013000Y-153035000D01*
X104267000Y-153035000D01*
X104267000Y-154034250D01*
X104425750Y-154193000D01*
X105016309Y-154193000D01*
X105249698Y-154096327D01*
X105428327Y-153917699D01*
X105525000Y-153684310D01*
X105525000Y-153193750D01*
X105366250Y-153035000D01*
X104267000Y-153035000D01*
X104013000Y-153035000D01*
X103993000Y-153035000D01*
X103993000Y-152781000D01*
X104013000Y-152781000D01*
X104013000Y-152761000D01*
X104267000Y-152761000D01*
X104267000Y-152781000D01*
X105366250Y-152781000D01*
X105525000Y-152622250D01*
X105525000Y-152131690D01*
X105428327Y-151898301D01*
X105313403Y-151783378D01*
X105372843Y-151696385D01*
X105431242Y-151408000D01*
X105431242Y-149708000D01*
X105380549Y-149438590D01*
X105334131Y-149366454D01*
X105347843Y-149346385D01*
X105406242Y-149058000D01*
X105406242Y-148132593D01*
X114818600Y-148124296D01*
X114818600Y-153665000D01*
G36*
X129345000Y-157181000D02*
X128549000Y-157181000D01*
X128549000Y-156429750D01*
X128390250Y-156271000D01*
X127241000Y-156271000D01*
X127241000Y-156291000D01*
X126987000Y-156291000D01*
X126987000Y-156271000D01*
X125837750Y-156271000D01*
X125679000Y-156429750D01*
X125679000Y-156994000D01*
X125242000Y-156994000D01*
X125242000Y-156376750D01*
X125083250Y-156218000D01*
X123884000Y-156218000D01*
X123884000Y-156238000D01*
X123630000Y-156238000D01*
X123630000Y-156218000D01*
X122430750Y-156218000D01*
X122272000Y-156376750D01*
X122272000Y-157217309D01*
X122368673Y-157450698D01*
X122540000Y-157622026D01*
X122540000Y-158463249D01*
X122390154Y-158559672D01*
X122224157Y-158802615D01*
X122165758Y-159091000D01*
X122165758Y-161091000D01*
X122216451Y-161360410D01*
X122375672Y-161607846D01*
X122412000Y-161632668D01*
X122412000Y-161997230D01*
X122374157Y-162052615D01*
X122315758Y-162341000D01*
X122315758Y-163841000D01*
X122366451Y-164110410D01*
X122525672Y-164357846D01*
X122539460Y-164367267D01*
X122539460Y-164677634D01*
X122399677Y-164677512D01*
X121875005Y-164894303D01*
X121473233Y-165295374D01*
X121255528Y-165819667D01*
X121255032Y-166387363D01*
X121330280Y-166569476D01*
X121330280Y-168399703D01*
X117006952Y-172723032D01*
X116731010Y-173136008D01*
X116672045Y-172839572D01*
X116378968Y-172400952D01*
X116063010Y-172084994D01*
X116063008Y-172084991D01*
X109113008Y-165134992D01*
X108956913Y-165030693D01*
X109667297Y-164320309D01*
X109858410Y-164284349D01*
X110105846Y-164125128D01*
X110211568Y-163970400D01*
X112490000Y-163970400D01*
X112490000Y-166485800D01*
X112499334Y-166533589D01*
X112527197Y-166575603D01*
X115083397Y-169131803D01*
X115123790Y-169158994D01*
X115173200Y-169169000D01*
X119397600Y-169169000D01*
X119445389Y-169159666D01*
X119487403Y-169131803D01*
X121209403Y-167409803D01*
X121236594Y-167369410D01*
X121246600Y-167320000D01*
X121246600Y-164029851D01*
X121249000Y-164018000D01*
X121249000Y-154964691D01*
X122272000Y-154964691D01*
X122272000Y-155805250D01*
X122430750Y-155964000D01*
X123630000Y-155964000D01*
X123630000Y-154614750D01*
X123884000Y-154614750D01*
X123884000Y-155964000D01*
X125083250Y-155964000D01*
X125242000Y-155805250D01*
X125242000Y-155017691D01*
X125679000Y-155017691D01*
X125679000Y-155858250D01*
X125837750Y-156017000D01*
X126987000Y-156017000D01*
X126987000Y-154667750D01*
X127241000Y-154667750D01*
X127241000Y-156017000D01*
X128390250Y-156017000D01*
X128549000Y-155858250D01*
X128549000Y-155017691D01*
X128452327Y-154784302D01*
X128273699Y-154605673D01*
X128040310Y-154509000D01*
X127399750Y-154509000D01*
X127241000Y-154667750D01*
X126987000Y-154667750D01*
X126828250Y-154509000D01*
X126187690Y-154509000D01*
X125954301Y-154605673D01*
X125775673Y-154784302D01*
X125679000Y-155017691D01*
X125242000Y-155017691D01*
X125242000Y-154964691D01*
X125145327Y-154731302D01*
X124966699Y-154552673D01*
X124733310Y-154456000D01*
X124042750Y-154456000D01*
X123884000Y-154614750D01*
X123630000Y-154614750D01*
X123471250Y-154456000D01*
X122780690Y-154456000D01*
X122547301Y-154552673D01*
X122368673Y-154731302D01*
X122272000Y-154964691D01*
X121249000Y-154964691D01*
X121249000Y-153792000D01*
X121240315Y-153745841D01*
X121213035Y-153703447D01*
X121171410Y-153675006D01*
X121122000Y-153665000D01*
X116772600Y-153665000D01*
X116772600Y-148122573D01*
X129345000Y-148111489D01*
X129345000Y-157181000D01*
X129345000Y-157181000D01*
G37*
X129345000Y-157181000D02*
X128549000Y-157181000D01*
X128549000Y-156429750D01*
X128390250Y-156271000D01*
X127241000Y-156271000D01*
X127241000Y-156291000D01*
X126987000Y-156291000D01*
X126987000Y-156271000D01*
X125837750Y-156271000D01*
X125679000Y-156429750D01*
X125679000Y-156994000D01*
X125242000Y-156994000D01*
X125242000Y-156376750D01*
X125083250Y-156218000D01*
X123884000Y-156218000D01*
X123884000Y-156238000D01*
X123630000Y-156238000D01*
X123630000Y-156218000D01*
X122430750Y-156218000D01*
X122272000Y-156376750D01*
X122272000Y-157217309D01*
X122368673Y-157450698D01*
X122540000Y-157622026D01*
X122540000Y-158463249D01*
X122390154Y-158559672D01*
X122224157Y-158802615D01*
X122165758Y-159091000D01*
X122165758Y-161091000D01*
X122216451Y-161360410D01*
X122375672Y-161607846D01*
X122412000Y-161632668D01*
X122412000Y-161997230D01*
X122374157Y-162052615D01*
X122315758Y-162341000D01*
X122315758Y-163841000D01*
X122366451Y-164110410D01*
X122525672Y-164357846D01*
X122539460Y-164367267D01*
X122539460Y-164677634D01*
X122399677Y-164677512D01*
X121875005Y-164894303D01*
X121473233Y-165295374D01*
X121255528Y-165819667D01*
X121255032Y-166387363D01*
X121330280Y-166569476D01*
X121330280Y-168399703D01*
X117006952Y-172723032D01*
X116731010Y-173136008D01*
X116672045Y-172839572D01*
X116378968Y-172400952D01*
X116063010Y-172084994D01*
X116063008Y-172084991D01*
X109113008Y-165134992D01*
X108956913Y-165030693D01*
X109667297Y-164320309D01*
X109858410Y-164284349D01*
X110105846Y-164125128D01*
X110211568Y-163970400D01*
X112490000Y-163970400D01*
X112490000Y-166485800D01*
X112499334Y-166533589D01*
X112527197Y-166575603D01*
X115083397Y-169131803D01*
X115123790Y-169158994D01*
X115173200Y-169169000D01*
X119397600Y-169169000D01*
X119445389Y-169159666D01*
X119487403Y-169131803D01*
X121209403Y-167409803D01*
X121236594Y-167369410D01*
X121246600Y-167320000D01*
X121246600Y-164029851D01*
X121249000Y-164018000D01*
X121249000Y-154964691D01*
X122272000Y-154964691D01*
X122272000Y-155805250D01*
X122430750Y-155964000D01*
X123630000Y-155964000D01*
X123630000Y-154614750D01*
X123884000Y-154614750D01*
X123884000Y-155964000D01*
X125083250Y-155964000D01*
X125242000Y-155805250D01*
X125242000Y-155017691D01*
X125679000Y-155017691D01*
X125679000Y-155858250D01*
X125837750Y-156017000D01*
X126987000Y-156017000D01*
X126987000Y-154667750D01*
X127241000Y-154667750D01*
X127241000Y-156017000D01*
X128390250Y-156017000D01*
X128549000Y-155858250D01*
X128549000Y-155017691D01*
X128452327Y-154784302D01*
X128273699Y-154605673D01*
X128040310Y-154509000D01*
X127399750Y-154509000D01*
X127241000Y-154667750D01*
X126987000Y-154667750D01*
X126828250Y-154509000D01*
X126187690Y-154509000D01*
X125954301Y-154605673D01*
X125775673Y-154784302D01*
X125679000Y-155017691D01*
X125242000Y-155017691D01*
X125242000Y-154964691D01*
X125145327Y-154731302D01*
X124966699Y-154552673D01*
X124733310Y-154456000D01*
X124042750Y-154456000D01*
X123884000Y-154614750D01*
X123630000Y-154614750D01*
X123471250Y-154456000D01*
X122780690Y-154456000D01*
X122547301Y-154552673D01*
X122368673Y-154731302D01*
X122272000Y-154964691D01*
X121249000Y-154964691D01*
X121249000Y-153792000D01*
X121240315Y-153745841D01*
X121213035Y-153703447D01*
X121171410Y-153675006D01*
X121122000Y-153665000D01*
X116772600Y-153665000D01*
X116772600Y-148122573D01*
X129345000Y-148111489D01*
X129345000Y-157181000D01*
G36*
X142717300Y-139143558D02*
X139861528Y-138828466D01*
X139824195Y-138829875D01*
X139214595Y-138944175D01*
X139169390Y-138962127D01*
X138140690Y-139622527D01*
X138118175Y-139640940D01*
X136037200Y-141784594D01*
X134006503Y-139753897D01*
X133987147Y-139738030D01*
X132958447Y-139052230D01*
X132911984Y-139033185D01*
X131260984Y-138715685D01*
X131236487Y-138713401D01*
X109393300Y-138801631D01*
X109393300Y-137526290D01*
X109296627Y-137292901D01*
X109117998Y-137114273D01*
X108884609Y-137017600D01*
X108044050Y-137017600D01*
X107885300Y-137176350D01*
X107885300Y-138807722D01*
X107631300Y-138808748D01*
X107631300Y-137176350D01*
X107472550Y-137017600D01*
X106631991Y-137017600D01*
X106398602Y-137114273D01*
X106219973Y-137292901D01*
X106123300Y-137526290D01*
X106123300Y-138814839D01*
X87218287Y-138891201D01*
X87205989Y-138891848D01*
X84344000Y-139182022D01*
X84344000Y-136072000D01*
X142717300Y-136072000D01*
X142717300Y-139143558D01*
X142717300Y-139143558D01*
G37*
X142717300Y-139143558D02*
X139861528Y-138828466D01*
X139824195Y-138829875D01*
X139214595Y-138944175D01*
X139169390Y-138962127D01*
X138140690Y-139622527D01*
X138118175Y-139640940D01*
X136037200Y-141784594D01*
X134006503Y-139753897D01*
X133987147Y-139738030D01*
X132958447Y-139052230D01*
X132911984Y-139033185D01*
X131260984Y-138715685D01*
X131236487Y-138713401D01*
X109393300Y-138801631D01*
X109393300Y-137526290D01*
X109296627Y-137292901D01*
X109117998Y-137114273D01*
X108884609Y-137017600D01*
X108044050Y-137017600D01*
X107885300Y-137176350D01*
X107885300Y-138807722D01*
X107631300Y-138808748D01*
X107631300Y-137176350D01*
X107472550Y-137017600D01*
X106631991Y-137017600D01*
X106398602Y-137114273D01*
X106219973Y-137292901D01*
X106123300Y-137526290D01*
X106123300Y-138814839D01*
X87218287Y-138891201D01*
X87205989Y-138891848D01*
X84344000Y-139182022D01*
X84344000Y-136072000D01*
X142717300Y-136072000D01*
X142717300Y-139143558D01*
M02*
