M48
; DRILL file {KiCad (5.1.0)-1} date 4/4/2019 3:38:28 PM
; FORMAT={-:-/ absolute / inch / decimal}
; #@! TF.CreationDate,2019-04-04T15:38:28-06:00
; #@! TF.GenerationSoftware,Kicad,Pcbnew,(5.1.0)-1
; #@! TF.FileFunction,Plated,1,2,PTH
FMAT,2
INCH
T1C0.0157
T2C0.0394
T3C0.1358
%
G90
G05
T1
X5.2109Y-3.8076
X5.2109Y-5.7776
X5.3326Y-3.753
X5.3326Y-3.8042
X5.3326Y-5.723
X5.3326Y-5.7742
X5.3837Y-3.753
X5.3837Y-3.8042
X5.3837Y-5.723
X5.3837Y-5.7742
X5.8434Y-5.0652
X5.8434Y-7.0352
X5.4194Y-3.4632
X4.1693Y-3.9029
X3.2943Y-5.8479
X3.8904Y-6.0687
X5.0574Y-4.0032
X4.4496Y-4.6309
X4.0094Y-5.4332
X3.5606Y-5.3978
X4.7814Y-5.8732
X3.2314Y-6.998
X2.9901Y-4.7147
X4.0903Y-5.3999
X5.9194Y-3.4632
X4.4693Y-3.9029
X3.8903Y-6.4013
X3.8314Y-4.828
X4.8723Y-4.0953
X3.3604Y-6.0645
X5.3537Y-5.542
X2.9901Y-6.2497
X3.8314Y-6.998
X3.8314Y-7.198
X3.4314Y-5.028
X3.9143Y-3.8829
X3.4504Y-6.1395
X4.2425Y-5.38
X4.2425Y-5.77
X3.4694Y-3.4632
X3.8594Y-3.4632
X3.8325Y-4.7154
X3.2023Y-6.0653
X3.4314Y-4.828
X3.7794Y-3.4282
X4.2496Y-4.7059
X5.2694Y-5.4332
X3.8193Y-5.8729
X2.9901Y-6.9997
X3.4314Y-5.228
X3.2943Y-3.8779
X5.0045Y-6.0674
X5.9195Y-5.5817
X4.2425Y-3.8
X4.2739Y-4.1082
X4.3193Y-3.9029
X3.4693Y-3.9029
X4.6423Y-6.0203
X4.3768Y-6.5142
X4.4673Y-4.0503
X3.4693Y-4.0529
X4.8194Y-3.4632
X4.2314Y-5.028
X4.3739Y-6.2752
X4.5996Y-6.7509
X3.6693Y-4.0529
X3.0194Y-5.4332
X4.3739Y-6.1532
X4.0314Y-6.798
X5.0574Y-3.9032
X3.122Y-6.6856
X3.0651Y-6.1747
X4.0314Y-7.198
X4.3814Y-4.828
X3.0194Y-3.4632
X4.0043Y-3.8829
X4.7073Y-6.6753
X3.2825Y-6.6854
X5.9195Y-4.8117
X3.4504Y-4.5495
X4.9694Y-3.4632
X4.6443Y-3.9029
X3.4504Y-6.2695
X3.6693Y-6.0229
X4.0314Y-5.228
X4.5996Y-4.7809
X4.2739Y-6.0782
X3.9344Y-3.4632
X3.0206Y-5.5828
X4.5996Y-6.6759
X3.2314Y-7.198
X2.9901Y-4.5497
X5.2694Y-3.4632
X3.1693Y-5.7979
X4.6694Y-3.4632
X3.1314Y-4.928
X5.9195Y-6.7817
X4.7073Y-4.7053
X3.7575Y-4.7954
X3.4694Y-5.4332
X4.4694Y-5.4332
X3.7575Y-6.7654
X4.2314Y-6.798
X4.0314Y-6.998
X4.0314Y-5.028
X3.4504Y-4.1695
X3.9143Y-5.8529
X4.2425Y-5.5731
X3.3604Y-4.0945
X4.2425Y-3.6031
X4.2314Y-4.828
X4.4673Y-6.0203
X4.6423Y-4.0503
X3.0206Y-3.6128
X4.9174Y-5.8732
X3.1314Y-6.898
X2.9901Y-6.5197
X3.2314Y-5.228
X5.7514Y-3.8372
X3.4504Y-6.5195
X4.6694Y-5.4332
X4.2425Y-3.485
X4.0094Y-3.4632
X3.1693Y-3.8279
X4.5996Y-4.7059
X3.4314Y-6.798
X4.2314Y-6.998
X3.2023Y-4.0953
X3.122Y-4.7156
X4.9174Y-3.9032
X4.3768Y-4.5442
X4.7923Y-6.1453
X5.8695Y-5.7067
X4.6443Y-5.8729
X4.3814Y-6.798
X4.17Y-4.05
X3.4693Y-6.0229
X4.9694Y-5.4332
X4.0043Y-5.8529
X5.0574Y-5.9732
X4.0314Y-4.828
X3.6694Y-3.4632
X3.2825Y-4.7154
X3.0651Y-4.2047
X3.8314Y-6.798
X4.2496Y-6.6759
X3.8903Y-4.4313
X5.0045Y-4.0974
X4.4694Y-3.4632
X4.3739Y-4.1832
X4.17Y-6.02
X3.8193Y-6.0229
X3.6314Y-5.228
X4.1Y-4.1
X4.3808Y-5.3984
X4.7923Y-4.1753
X3.7794Y-5.3982
X3.4693Y-5.8729
X3.4314Y-7.198
X2.9901Y-5.0297
X5.1194Y-3.4632
X4.3193Y-5.8729
X3.8904Y-4.0987
X5.9195Y-3.6117
X3.8193Y-3.9029
X5.7514Y-5.8072
X3.8904Y-6.5187
X3.8903Y-4.3053
X2.9901Y-4.2797
X3.0693Y-5.7229
X4.8723Y-6.0653
X3.8325Y-6.6854
X3.4314Y-6.998
X3.8314Y-5.228
X3.4825Y-4.7154
X3.8903Y-6.1693
X3.8594Y-5.4332
X4.2425Y-3.41
X3.8314Y-5.028
X4.7923Y-6.2953
X4.7923Y-4.4753
X3.5606Y-3.4278
X4.8194Y-5.4332
X4.4496Y-6.6009
X4.4693Y-5.8729
X2.9901Y-6.6847
X3.2314Y-5.028
X3.8903Y-4.1993
X3.4825Y-6.6854
X5.9194Y-5.4332
X4.2425Y-5.455
X3.0693Y-3.7529
X4.0903Y-3.4299
X4.7814Y-3.9032
X4.7823Y-6.0203
X4.7823Y-4.0503
X4.5693Y-3.4279
X3.6825Y-4.7154
X3.9344Y-5.4332
X5.1194Y-5.4332
X4.1693Y-5.8729
X2.9901Y-7.1997
X3.4504Y-4.2995
X5.0745Y-6.1474
X5.4194Y-5.4332
X3.8903Y-6.2753
X3.6314Y-4.828
X4.3808Y-3.4284
X3.6693Y-3.9029
X3.9904Y-4.1987
X4.7923Y-6.4453
X3.6825Y-6.6854
X4.7923Y-4.3253
X5.0745Y-4.1774
X5.3537Y-3.572
X3.6314Y-5.028
X5.0574Y-5.8732
X4.1Y-6.07
X3.8193Y-4.0529
X3.6694Y-5.4332
X3.6314Y-6.998
X3.6314Y-6.798
X4.3739Y-4.3052
X4.5693Y-5.3979
X3.9904Y-6.1687
X3.6314Y-7.198
X2.9901Y-5.2297
X5.8695Y-3.7367
X3.6693Y-5.8729
X3.8904Y-4.5487
T2
X4.83Y-4.5696
X4.83Y-6.5396
X5.2148Y-4.3722
X5.2148Y-6.3422
X4.4442Y-4.9412
X4.5442Y-4.9412
X4.6442Y-4.9412
X4.7442Y-4.9412
X4.8442Y-4.9412
X4.9442Y-4.9412
X5.0442Y-4.9412
X5.1442Y-4.9412
X5.2442Y-4.9412
X5.3442Y-4.9412
X5.4442Y-4.9412
X5.5442Y-4.9412
X5.6442Y-4.9412
X5.7442Y-4.9412
X5.8442Y-4.9412
X4.4442Y-6.9112
X4.5442Y-6.9112
X4.6442Y-6.9112
X4.7442Y-6.9112
X4.8442Y-6.9112
X4.9442Y-6.9112
X5.0442Y-6.9112
X5.1442Y-6.9112
X5.2442Y-6.9112
X5.3442Y-6.9112
X5.4442Y-6.9112
X5.5442Y-6.9112
X5.6442Y-6.9112
X5.7442Y-6.9112
X5.8442Y-6.9112
T3
X3.0794Y-3.9782
X5.8695Y-5.8437
X5.8695Y-3.8737
X3.0794Y-5.9482
X4.2142Y-5.176
X4.2142Y-7.146
T0
M30
