%TF.GenerationSoftware,KiCad,Pcbnew,4.0.5*%
%TF.CreationDate,2018-01-19T20:33:35-07:00*%
%TF.ProjectId,MRI-RF-Amplifier,4D52492D52462D416D706C6966696572,6*%
%TF.FileFunction,Copper,L2,Bot,Signal*%
%FSLAX46Y46*%
G04 Gerber Fmt 4.6, Leading zero omitted, Abs format (unit mm)*
G04 Created by KiCad (PCBNEW 4.0.5) date 01/19/18 20:33:35*
%MOMM*%
%LPD*%
G01*
G04 APERTURE LIST*
%ADD10C,0.100000*%
%ADD11C,0.800000*%
%ADD12C,4.500000*%
%ADD13R,1.800000X1.800000*%
%ADD14O,1.800000X1.800000*%
%ADD15R,2.000000X2.600000*%
%ADD16O,2.000000X2.600000*%
%ADD17R,1.700000X2.000000*%
%ADD18C,2.000000*%
%ADD19R,1.700000X1.700000*%
%ADD20O,1.700000X1.700000*%
%ADD21C,1.700000*%
%ADD22R,1.600000X1.600000*%
%ADD23C,1.600000*%
%ADD24R,16.300000X14.200000*%
%ADD25R,1.400000X13.700000*%
%ADD26C,1.400000*%
%ADD27C,1.500000*%
%ADD28C,1.700000*%
%ADD29C,1.000000*%
%ADD30C,0.254000*%
G04 APERTURE END LIST*
D10*
D11*
X55129400Y-42994200D03*
X99332800Y-33832800D03*
X116840000Y-65405000D03*
X100330000Y-65405000D03*
D12*
X108737400Y-65974000D03*
X38354000Y-79906000D03*
D13*
X40894000Y-63246000D03*
D14*
X38354000Y-63246000D03*
X35814000Y-63246000D03*
D11*
X119380000Y-27940000D03*
X96520000Y-271780000D03*
X96520000Y-261620000D03*
X96520000Y-251460000D03*
X96520000Y-241300000D03*
X96520000Y-180340000D03*
X96520000Y-190500000D03*
X96520000Y-200660000D03*
X96520000Y-231140000D03*
X96520000Y-220980000D03*
X96520000Y-210820000D03*
X96520000Y-149860000D03*
X96520000Y-160020000D03*
X96520000Y-170180000D03*
X96520000Y-139700000D03*
X96520000Y-129540000D03*
X96520000Y-119380000D03*
X177800000Y-241300000D03*
X177800000Y-251460000D03*
X177800000Y-261620000D03*
X177800000Y-271780000D03*
X177800000Y-200660000D03*
X177800000Y-210820000D03*
X177800000Y-220980000D03*
X177800000Y-231140000D03*
X177800000Y-160020000D03*
X177800000Y-170180000D03*
X177800000Y-180340000D03*
X177800000Y-190500000D03*
X177800000Y-109220000D03*
X177800000Y-149860000D03*
X177800000Y-139700000D03*
X177800000Y-129540000D03*
X177800000Y-119380000D03*
X49530000Y-58895000D03*
X77285600Y-36474400D03*
X76123800Y-39565600D03*
X101872800Y-28295600D03*
X106832400Y-44544000D03*
X74574400Y-56417800D03*
X74574400Y-38637800D03*
X101872800Y-31292800D03*
X117856000Y-54610000D03*
X117856000Y-59690000D03*
X77285600Y-33578800D03*
X143256000Y-39750000D03*
X125476000Y-65500000D03*
X145796000Y-65500000D03*
X152146000Y-53340000D03*
X154686000Y-49530000D03*
X68580000Y-86360000D03*
X115316000Y-57150000D03*
X49530000Y-75405000D03*
X103657400Y-47084000D03*
X100482400Y-49624000D03*
X52070000Y-71280000D03*
X49249300Y-51185700D03*
X99332800Y-25755600D03*
X26871900Y-60926600D03*
X51154300Y-56849900D03*
X34022000Y-43680000D03*
X31380400Y-30992700D03*
X51128900Y-53725700D03*
X34022000Y-38600000D03*
X44436000Y-46474000D03*
X52843400Y-40454200D03*
X31380400Y-46232700D03*
X34022000Y-33520000D03*
X50749200Y-104825800D03*
X177800000Y-78740000D03*
X177800000Y-91440000D03*
X177800000Y-104140000D03*
D12*
X25400000Y-154940000D03*
X129540000Y-154940000D03*
X129540000Y-231140000D03*
X25400000Y-231140000D03*
X25400000Y-116840000D03*
X129540000Y-116840000D03*
D15*
X147066000Y-39370000D03*
D16*
X149606000Y-39370000D03*
X152146000Y-39370000D03*
D15*
X147066000Y-49530000D03*
D16*
X149606000Y-49530000D03*
X152146000Y-49530000D03*
D17*
X143256000Y-71152000D03*
X143256000Y-75152000D03*
X140716000Y-71152000D03*
X140716000Y-75152000D03*
X138176000Y-71152000D03*
X138176000Y-75152000D03*
X135636000Y-71152000D03*
X135636000Y-75152000D03*
X133096000Y-71152000D03*
X133096000Y-75152000D03*
X130556000Y-71152000D03*
X130556000Y-75152000D03*
X128016000Y-71152000D03*
X128016000Y-75152000D03*
X140716000Y-44990000D03*
X140716000Y-48990000D03*
X138176000Y-44990000D03*
X138176000Y-48990000D03*
X135636000Y-44990000D03*
X135636000Y-48990000D03*
X133096000Y-44990000D03*
X133096000Y-48990000D03*
X130556000Y-44990000D03*
X130556000Y-48990000D03*
X128016000Y-44990000D03*
X128016000Y-48990000D03*
X122936000Y-71152000D03*
X122936000Y-75152000D03*
X120396000Y-71152000D03*
X120396000Y-75152000D03*
D18*
X39370000Y-46482000D03*
X39370000Y-41402000D03*
X39370000Y-36322000D03*
X39370000Y-31242000D03*
D19*
X60960000Y-114300000D03*
D20*
X63500000Y-114300000D03*
X66040000Y-114300000D03*
X68580000Y-114300000D03*
X71120000Y-114300000D03*
X73660000Y-114300000D03*
X76200000Y-114300000D03*
X78740000Y-114300000D03*
X81280000Y-114300000D03*
X83820000Y-114300000D03*
X86360000Y-114300000D03*
X88900000Y-114300000D03*
X91440000Y-114300000D03*
X93980000Y-114300000D03*
X96520000Y-114300000D03*
D19*
X142240000Y-114300000D03*
D20*
X144780000Y-114300000D03*
X147320000Y-114300000D03*
X149860000Y-114300000D03*
X152400000Y-114300000D03*
X154940000Y-114300000D03*
X157480000Y-114300000D03*
X160020000Y-114300000D03*
X162560000Y-114300000D03*
X165100000Y-114300000D03*
X167640000Y-114300000D03*
X170180000Y-114300000D03*
X172720000Y-114300000D03*
X175260000Y-114300000D03*
X177800000Y-114300000D03*
D19*
X60960000Y-124460000D03*
D20*
X63500000Y-124460000D03*
X66040000Y-124460000D03*
X68580000Y-124460000D03*
X71120000Y-124460000D03*
X73660000Y-124460000D03*
X76200000Y-124460000D03*
X78740000Y-124460000D03*
X81280000Y-124460000D03*
X83820000Y-124460000D03*
X86360000Y-124460000D03*
X88900000Y-124460000D03*
X91440000Y-124460000D03*
X93980000Y-124460000D03*
X96520000Y-124460000D03*
D19*
X142240000Y-124460000D03*
D20*
X144780000Y-124460000D03*
X147320000Y-124460000D03*
X149860000Y-124460000D03*
X152400000Y-124460000D03*
X154940000Y-124460000D03*
X157480000Y-124460000D03*
X160020000Y-124460000D03*
X162560000Y-124460000D03*
X165100000Y-124460000D03*
X167640000Y-124460000D03*
X170180000Y-124460000D03*
X172720000Y-124460000D03*
X175260000Y-124460000D03*
X177800000Y-124460000D03*
D19*
X60960000Y-134620000D03*
D20*
X63500000Y-134620000D03*
X66040000Y-134620000D03*
X68580000Y-134620000D03*
X71120000Y-134620000D03*
X73660000Y-134620000D03*
X76200000Y-134620000D03*
X78740000Y-134620000D03*
X81280000Y-134620000D03*
X83820000Y-134620000D03*
X86360000Y-134620000D03*
X88900000Y-134620000D03*
X91440000Y-134620000D03*
X93980000Y-134620000D03*
X96520000Y-134620000D03*
D19*
X142240000Y-134620000D03*
D20*
X144780000Y-134620000D03*
X147320000Y-134620000D03*
X149860000Y-134620000D03*
X152400000Y-134620000D03*
X154940000Y-134620000D03*
X157480000Y-134620000D03*
X160020000Y-134620000D03*
X162560000Y-134620000D03*
X165100000Y-134620000D03*
X167640000Y-134620000D03*
X170180000Y-134620000D03*
X172720000Y-134620000D03*
X175260000Y-134620000D03*
X177800000Y-134620000D03*
D19*
X60960000Y-144780000D03*
D20*
X63500000Y-144780000D03*
X66040000Y-144780000D03*
X68580000Y-144780000D03*
X71120000Y-144780000D03*
X73660000Y-144780000D03*
X76200000Y-144780000D03*
X78740000Y-144780000D03*
X81280000Y-144780000D03*
X83820000Y-144780000D03*
X86360000Y-144780000D03*
X88900000Y-144780000D03*
X91440000Y-144780000D03*
X93980000Y-144780000D03*
X96520000Y-144780000D03*
D19*
X142240000Y-144780000D03*
D20*
X144780000Y-144780000D03*
X147320000Y-144780000D03*
X149860000Y-144780000D03*
X152400000Y-144780000D03*
X154940000Y-144780000D03*
X157480000Y-144780000D03*
X160020000Y-144780000D03*
X162560000Y-144780000D03*
X165100000Y-144780000D03*
X167640000Y-144780000D03*
X170180000Y-144780000D03*
X172720000Y-144780000D03*
X175260000Y-144780000D03*
X177800000Y-144780000D03*
D19*
X60960000Y-154940000D03*
D20*
X63500000Y-154940000D03*
X66040000Y-154940000D03*
X68580000Y-154940000D03*
X71120000Y-154940000D03*
X73660000Y-154940000D03*
X76200000Y-154940000D03*
X78740000Y-154940000D03*
X81280000Y-154940000D03*
X83820000Y-154940000D03*
X86360000Y-154940000D03*
X88900000Y-154940000D03*
X91440000Y-154940000D03*
X93980000Y-154940000D03*
X96520000Y-154940000D03*
D19*
X142240000Y-154940000D03*
D20*
X144780000Y-154940000D03*
X147320000Y-154940000D03*
X149860000Y-154940000D03*
X152400000Y-154940000D03*
X154940000Y-154940000D03*
X157480000Y-154940000D03*
X160020000Y-154940000D03*
X162560000Y-154940000D03*
X165100000Y-154940000D03*
X167640000Y-154940000D03*
X170180000Y-154940000D03*
X172720000Y-154940000D03*
X175260000Y-154940000D03*
X177800000Y-154940000D03*
D19*
X60960000Y-165100000D03*
D20*
X63500000Y-165100000D03*
X66040000Y-165100000D03*
X68580000Y-165100000D03*
X71120000Y-165100000D03*
X73660000Y-165100000D03*
X76200000Y-165100000D03*
X78740000Y-165100000D03*
X81280000Y-165100000D03*
X83820000Y-165100000D03*
X86360000Y-165100000D03*
X88900000Y-165100000D03*
X91440000Y-165100000D03*
X93980000Y-165100000D03*
X96520000Y-165100000D03*
D19*
X142240000Y-165100000D03*
D20*
X144780000Y-165100000D03*
X147320000Y-165100000D03*
X149860000Y-165100000D03*
X152400000Y-165100000D03*
X154940000Y-165100000D03*
X157480000Y-165100000D03*
X160020000Y-165100000D03*
X162560000Y-165100000D03*
X165100000Y-165100000D03*
X167640000Y-165100000D03*
X170180000Y-165100000D03*
X172720000Y-165100000D03*
X175260000Y-165100000D03*
X177800000Y-165100000D03*
D19*
X60960000Y-175260000D03*
D20*
X63500000Y-175260000D03*
X66040000Y-175260000D03*
X68580000Y-175260000D03*
X71120000Y-175260000D03*
X73660000Y-175260000D03*
X76200000Y-175260000D03*
X78740000Y-175260000D03*
X81280000Y-175260000D03*
X83820000Y-175260000D03*
X86360000Y-175260000D03*
X88900000Y-175260000D03*
X91440000Y-175260000D03*
X93980000Y-175260000D03*
X96520000Y-175260000D03*
D19*
X142240000Y-175260000D03*
D20*
X144780000Y-175260000D03*
X147320000Y-175260000D03*
X149860000Y-175260000D03*
X152400000Y-175260000D03*
X154940000Y-175260000D03*
X157480000Y-175260000D03*
X160020000Y-175260000D03*
X162560000Y-175260000D03*
X165100000Y-175260000D03*
X167640000Y-175260000D03*
X170180000Y-175260000D03*
X172720000Y-175260000D03*
X175260000Y-175260000D03*
X177800000Y-175260000D03*
D19*
X60960000Y-185420000D03*
D20*
X63500000Y-185420000D03*
X66040000Y-185420000D03*
X68580000Y-185420000D03*
X71120000Y-185420000D03*
X73660000Y-185420000D03*
X76200000Y-185420000D03*
X78740000Y-185420000D03*
X81280000Y-185420000D03*
X83820000Y-185420000D03*
X86360000Y-185420000D03*
X88900000Y-185420000D03*
X91440000Y-185420000D03*
X93980000Y-185420000D03*
X96520000Y-185420000D03*
D19*
X142240000Y-185420000D03*
D20*
X144780000Y-185420000D03*
X147320000Y-185420000D03*
X149860000Y-185420000D03*
X152400000Y-185420000D03*
X154940000Y-185420000D03*
X157480000Y-185420000D03*
X160020000Y-185420000D03*
X162560000Y-185420000D03*
X165100000Y-185420000D03*
X167640000Y-185420000D03*
X170180000Y-185420000D03*
X172720000Y-185420000D03*
X175260000Y-185420000D03*
X177800000Y-185420000D03*
D19*
X60960000Y-195580000D03*
D20*
X63500000Y-195580000D03*
X66040000Y-195580000D03*
X68580000Y-195580000D03*
X71120000Y-195580000D03*
X73660000Y-195580000D03*
X76200000Y-195580000D03*
X78740000Y-195580000D03*
X81280000Y-195580000D03*
X83820000Y-195580000D03*
X86360000Y-195580000D03*
X88900000Y-195580000D03*
X91440000Y-195580000D03*
X93980000Y-195580000D03*
X96520000Y-195580000D03*
D19*
X142240000Y-195580000D03*
D20*
X144780000Y-195580000D03*
X147320000Y-195580000D03*
X149860000Y-195580000D03*
X152400000Y-195580000D03*
X154940000Y-195580000D03*
X157480000Y-195580000D03*
X160020000Y-195580000D03*
X162560000Y-195580000D03*
X165100000Y-195580000D03*
X167640000Y-195580000D03*
X170180000Y-195580000D03*
X172720000Y-195580000D03*
X175260000Y-195580000D03*
X177800000Y-195580000D03*
D19*
X60960000Y-205740000D03*
D20*
X63500000Y-205740000D03*
X66040000Y-205740000D03*
X68580000Y-205740000D03*
X71120000Y-205740000D03*
X73660000Y-205740000D03*
X76200000Y-205740000D03*
X78740000Y-205740000D03*
X81280000Y-205740000D03*
X83820000Y-205740000D03*
X86360000Y-205740000D03*
X88900000Y-205740000D03*
X91440000Y-205740000D03*
X93980000Y-205740000D03*
X96520000Y-205740000D03*
D19*
X142240000Y-205740000D03*
D20*
X144780000Y-205740000D03*
X147320000Y-205740000D03*
X149860000Y-205740000D03*
X152400000Y-205740000D03*
X154940000Y-205740000D03*
X157480000Y-205740000D03*
X160020000Y-205740000D03*
X162560000Y-205740000D03*
X165100000Y-205740000D03*
X167640000Y-205740000D03*
X170180000Y-205740000D03*
X172720000Y-205740000D03*
X175260000Y-205740000D03*
X177800000Y-205740000D03*
D19*
X60960000Y-215900000D03*
D20*
X63500000Y-215900000D03*
X66040000Y-215900000D03*
X68580000Y-215900000D03*
X71120000Y-215900000D03*
X73660000Y-215900000D03*
X76200000Y-215900000D03*
X78740000Y-215900000D03*
X81280000Y-215900000D03*
X83820000Y-215900000D03*
X86360000Y-215900000D03*
X88900000Y-215900000D03*
X91440000Y-215900000D03*
X93980000Y-215900000D03*
X96520000Y-215900000D03*
D19*
X142240000Y-215900000D03*
D20*
X144780000Y-215900000D03*
X147320000Y-215900000D03*
X149860000Y-215900000D03*
X152400000Y-215900000D03*
X154940000Y-215900000D03*
X157480000Y-215900000D03*
X160020000Y-215900000D03*
X162560000Y-215900000D03*
X165100000Y-215900000D03*
X167640000Y-215900000D03*
X170180000Y-215900000D03*
X172720000Y-215900000D03*
X175260000Y-215900000D03*
X177800000Y-215900000D03*
D19*
X60960000Y-226060000D03*
D20*
X63500000Y-226060000D03*
X66040000Y-226060000D03*
X68580000Y-226060000D03*
X71120000Y-226060000D03*
X73660000Y-226060000D03*
X76200000Y-226060000D03*
X78740000Y-226060000D03*
X81280000Y-226060000D03*
X83820000Y-226060000D03*
X86360000Y-226060000D03*
X88900000Y-226060000D03*
X91440000Y-226060000D03*
X93980000Y-226060000D03*
X96520000Y-226060000D03*
D19*
X142240000Y-226060000D03*
D20*
X144780000Y-226060000D03*
X147320000Y-226060000D03*
X149860000Y-226060000D03*
X152400000Y-226060000D03*
X154940000Y-226060000D03*
X157480000Y-226060000D03*
X160020000Y-226060000D03*
X162560000Y-226060000D03*
X165100000Y-226060000D03*
X167640000Y-226060000D03*
X170180000Y-226060000D03*
X172720000Y-226060000D03*
X175260000Y-226060000D03*
X177800000Y-226060000D03*
D19*
X60960000Y-236220000D03*
D20*
X63500000Y-236220000D03*
X66040000Y-236220000D03*
X68580000Y-236220000D03*
X71120000Y-236220000D03*
X73660000Y-236220000D03*
X76200000Y-236220000D03*
X78740000Y-236220000D03*
X81280000Y-236220000D03*
X83820000Y-236220000D03*
X86360000Y-236220000D03*
X88900000Y-236220000D03*
X91440000Y-236220000D03*
X93980000Y-236220000D03*
X96520000Y-236220000D03*
D19*
X142240000Y-236220000D03*
D20*
X144780000Y-236220000D03*
X147320000Y-236220000D03*
X149860000Y-236220000D03*
X152400000Y-236220000D03*
X154940000Y-236220000D03*
X157480000Y-236220000D03*
X160020000Y-236220000D03*
X162560000Y-236220000D03*
X165100000Y-236220000D03*
X167640000Y-236220000D03*
X170180000Y-236220000D03*
X172720000Y-236220000D03*
X175260000Y-236220000D03*
X177800000Y-236220000D03*
D19*
X60960000Y-246380000D03*
D20*
X63500000Y-246380000D03*
X66040000Y-246380000D03*
X68580000Y-246380000D03*
X71120000Y-246380000D03*
X73660000Y-246380000D03*
X76200000Y-246380000D03*
X78740000Y-246380000D03*
X81280000Y-246380000D03*
X83820000Y-246380000D03*
X86360000Y-246380000D03*
X88900000Y-246380000D03*
X91440000Y-246380000D03*
X93980000Y-246380000D03*
X96520000Y-246380000D03*
D19*
X142240000Y-246380000D03*
D20*
X144780000Y-246380000D03*
X147320000Y-246380000D03*
X149860000Y-246380000D03*
X152400000Y-246380000D03*
X154940000Y-246380000D03*
X157480000Y-246380000D03*
X160020000Y-246380000D03*
X162560000Y-246380000D03*
X165100000Y-246380000D03*
X167640000Y-246380000D03*
X170180000Y-246380000D03*
X172720000Y-246380000D03*
X175260000Y-246380000D03*
X177800000Y-246380000D03*
D19*
X60960000Y-256540000D03*
D20*
X63500000Y-256540000D03*
X66040000Y-256540000D03*
X68580000Y-256540000D03*
X71120000Y-256540000D03*
X73660000Y-256540000D03*
X76200000Y-256540000D03*
X78740000Y-256540000D03*
X81280000Y-256540000D03*
X83820000Y-256540000D03*
X86360000Y-256540000D03*
X88900000Y-256540000D03*
X91440000Y-256540000D03*
X93980000Y-256540000D03*
X96520000Y-256540000D03*
D19*
X142240000Y-256540000D03*
D20*
X144780000Y-256540000D03*
X147320000Y-256540000D03*
X149860000Y-256540000D03*
X152400000Y-256540000D03*
X154940000Y-256540000D03*
X157480000Y-256540000D03*
X160020000Y-256540000D03*
X162560000Y-256540000D03*
X165100000Y-256540000D03*
X167640000Y-256540000D03*
X170180000Y-256540000D03*
X172720000Y-256540000D03*
X175260000Y-256540000D03*
X177800000Y-256540000D03*
D19*
X145796000Y-57150000D03*
D20*
X143256000Y-57150000D03*
X140716000Y-57150000D03*
X138176000Y-57150000D03*
X135636000Y-57150000D03*
X133096000Y-57150000D03*
X130556000Y-57150000D03*
X128016000Y-57150000D03*
X125476000Y-57150000D03*
X122936000Y-57150000D03*
X120396000Y-57150000D03*
X117856000Y-57150000D03*
D19*
X60960000Y-266700000D03*
D20*
X63500000Y-266700000D03*
X66040000Y-266700000D03*
X68580000Y-266700000D03*
X71120000Y-266700000D03*
X73660000Y-266700000D03*
X76200000Y-266700000D03*
X78740000Y-266700000D03*
X81280000Y-266700000D03*
X83820000Y-266700000D03*
X86360000Y-266700000D03*
X88900000Y-266700000D03*
X91440000Y-266700000D03*
X93980000Y-266700000D03*
X96520000Y-266700000D03*
D19*
X142240000Y-266700000D03*
D20*
X144780000Y-266700000D03*
X147320000Y-266700000D03*
X149860000Y-266700000D03*
X152400000Y-266700000D03*
X154940000Y-266700000D03*
X157480000Y-266700000D03*
X160020000Y-266700000D03*
X162560000Y-266700000D03*
X165100000Y-266700000D03*
X167640000Y-266700000D03*
X170180000Y-266700000D03*
X172720000Y-266700000D03*
X175260000Y-266700000D03*
X177800000Y-266700000D03*
D21*
X177800000Y-276610000D03*
X175260000Y-276610000D03*
X172720000Y-276610000D03*
X170180000Y-276610000D03*
X167640000Y-276610000D03*
X165100000Y-276610000D03*
X162560000Y-276610000D03*
X160020000Y-276610000D03*
X157480000Y-276610000D03*
X154940000Y-276610000D03*
X152400000Y-276610000D03*
X149860000Y-276610000D03*
X147320000Y-276610000D03*
X144780000Y-276610000D03*
X142240000Y-276610000D03*
X96520000Y-276610000D03*
X93980000Y-276610000D03*
X91440000Y-276610000D03*
X88900000Y-276610000D03*
X86360000Y-276610000D03*
X83820000Y-276610000D03*
X81280000Y-276610000D03*
X78740000Y-276610000D03*
X76200000Y-276610000D03*
X73660000Y-276610000D03*
X71120000Y-276610000D03*
X68580000Y-276610000D03*
X66040000Y-276610000D03*
X63500000Y-276610000D03*
X60960000Y-276610000D03*
D12*
X25400000Y-276860000D03*
X129540000Y-276860000D03*
X25400000Y-27940000D03*
X177800000Y-27940000D03*
X129540000Y-193040000D03*
X25400000Y-193040000D03*
D11*
X163576000Y-27940000D03*
X109220000Y-40640000D03*
X109220000Y-27940000D03*
X25400000Y-66040000D03*
X25400000Y-53340000D03*
X163576000Y-53340000D03*
X78740000Y-76675000D03*
X163576000Y-66040000D03*
X177800000Y-66040000D03*
X177800000Y-40640000D03*
X177800000Y-53340000D03*
X163576000Y-40640000D03*
X104140000Y-218440000D03*
X104140000Y-231140000D03*
X104140000Y-256540000D03*
X104140000Y-243840000D03*
X104140000Y-205740000D03*
X116840000Y-256540000D03*
X116840000Y-231140000D03*
X116840000Y-243840000D03*
X116840000Y-218440000D03*
X116840000Y-205740000D03*
X129540000Y-218440000D03*
X129540000Y-256540000D03*
X129540000Y-243840000D03*
X129540000Y-205740000D03*
X129540000Y-269240000D03*
X116840000Y-269240000D03*
X104140000Y-269240000D03*
X129540000Y-129540000D03*
X129540000Y-142240000D03*
X129540000Y-180340000D03*
X129540000Y-167640000D03*
X104140000Y-154940000D03*
X104140000Y-167640000D03*
X104140000Y-193040000D03*
X104140000Y-180340000D03*
X104140000Y-129540000D03*
X104140000Y-142240000D03*
X104140000Y-116840000D03*
X116840000Y-154940000D03*
X116840000Y-167640000D03*
X116840000Y-193040000D03*
X116840000Y-180340000D03*
X116840000Y-129540000D03*
X116840000Y-142240000D03*
X116840000Y-116840000D03*
X25400000Y-269240000D03*
X38100000Y-269240000D03*
X50800000Y-269240000D03*
X50800000Y-167640000D03*
X50800000Y-180340000D03*
X50800000Y-205740000D03*
X50800000Y-193040000D03*
X50800000Y-243840000D03*
X50800000Y-256540000D03*
X50800000Y-231140000D03*
X50800000Y-218440000D03*
X38100000Y-205740000D03*
X38100000Y-218440000D03*
X38100000Y-243840000D03*
X38100000Y-231140000D03*
X38100000Y-180340000D03*
X38100000Y-193040000D03*
X38100000Y-167640000D03*
X38100000Y-256540000D03*
X38100000Y-154940000D03*
X38049200Y-91948000D03*
X38100000Y-129540000D03*
X38100000Y-142240000D03*
X38100000Y-116840000D03*
X38049200Y-104648000D03*
X25400000Y-167640000D03*
X25400000Y-180340000D03*
X25400000Y-205740000D03*
X25400000Y-243840000D03*
X25400000Y-256540000D03*
X25400000Y-218440000D03*
X25400000Y-78740000D03*
X25349200Y-91948000D03*
X25400000Y-129540000D03*
X25400000Y-142240000D03*
X25349200Y-104648000D03*
X50800000Y-116840000D03*
X50800000Y-129540000D03*
X50800000Y-154940000D03*
X50800000Y-142240000D03*
X50749200Y-92125800D03*
X58420000Y-86360000D03*
X25400000Y-40640000D03*
D22*
X83464400Y-67687800D03*
D23*
X83464400Y-69687800D03*
D22*
X58851800Y-72869400D03*
D23*
X58851800Y-74869400D03*
D22*
X33274000Y-93291000D03*
D23*
X33274000Y-95291000D03*
D22*
X96164400Y-67687800D03*
D23*
X96164400Y-69687800D03*
D22*
X71551800Y-72869400D03*
D23*
X71551800Y-74869400D03*
D22*
X45974000Y-93291000D03*
D23*
X45974000Y-95291000D03*
D12*
X63931800Y-59484400D03*
D13*
X66471800Y-42824400D03*
D14*
X63931800Y-42824400D03*
X61391800Y-42824400D03*
D12*
X88544400Y-54302800D03*
D13*
X91084400Y-37642800D03*
D14*
X88544400Y-37642800D03*
X86004400Y-37642800D03*
D11*
X94259400Y-45897800D03*
X87274400Y-48437800D03*
X89814400Y-48437800D03*
X92354400Y-48437800D03*
X84734400Y-48437800D03*
X84734400Y-45897800D03*
X87274400Y-45897800D03*
X89814400Y-45897800D03*
X92354400Y-45897800D03*
X92354400Y-56057800D03*
X84734400Y-56057800D03*
X87274400Y-58597800D03*
X84734400Y-58597800D03*
X89814400Y-58597800D03*
X92354400Y-58597800D03*
X82829400Y-58597800D03*
X82829400Y-56057800D03*
X94259400Y-58597800D03*
X94259400Y-56057800D03*
X82829400Y-45897800D03*
X82829400Y-48437800D03*
X82829400Y-50977800D03*
X82829400Y-53517800D03*
X94259400Y-53517800D03*
X94259400Y-50977800D03*
X94259400Y-48437800D03*
D24*
X88544400Y-52247800D03*
D25*
X81444400Y-52247800D03*
X95644400Y-52247800D03*
D11*
X69646800Y-51079400D03*
X62661800Y-53619400D03*
X65201800Y-53619400D03*
X67741800Y-53619400D03*
X60121800Y-53619400D03*
X60121800Y-51079400D03*
X62661800Y-51079400D03*
X65201800Y-51079400D03*
X67741800Y-51079400D03*
X67741800Y-61239400D03*
X60121800Y-61239400D03*
X62661800Y-63779400D03*
X60121800Y-63779400D03*
X65201800Y-63779400D03*
X67741800Y-63779400D03*
X58216800Y-63779400D03*
X58216800Y-61239400D03*
X69646800Y-63779400D03*
X69646800Y-61239400D03*
X58216800Y-51079400D03*
X58216800Y-53619400D03*
X58216800Y-56159400D03*
X58216800Y-58699400D03*
X69646800Y-58699400D03*
X69646800Y-56159400D03*
X69646800Y-53619400D03*
D24*
X63931800Y-57429400D03*
D25*
X56831800Y-57429400D03*
X71031800Y-57429400D03*
D11*
X44069000Y-71501000D03*
X37084000Y-74041000D03*
X39624000Y-74041000D03*
X42164000Y-74041000D03*
X34544000Y-74041000D03*
X34544000Y-71501000D03*
X37084000Y-71501000D03*
X39624000Y-71501000D03*
X42164000Y-71501000D03*
X42164000Y-81661000D03*
X34544000Y-81661000D03*
X37084000Y-84201000D03*
X34544000Y-84201000D03*
X39624000Y-84201000D03*
X42164000Y-84201000D03*
X32639000Y-84201000D03*
X32639000Y-81661000D03*
X44069000Y-84201000D03*
X44069000Y-81661000D03*
X32639000Y-71501000D03*
X32639000Y-74041000D03*
X32639000Y-76581000D03*
X32639000Y-79121000D03*
X44069000Y-79121000D03*
X44069000Y-76581000D03*
X44069000Y-74041000D03*
D24*
X38354000Y-77851000D03*
D25*
X31254000Y-77851000D03*
X45454000Y-77851000D03*
D26*
X32054800Y-53848000D03*
D18*
X142240000Y-109220000D03*
X60960000Y-109220000D03*
X63500000Y-106680000D03*
X144780000Y-106680000D03*
X147320000Y-104140000D03*
X66040000Y-104140000D03*
D26*
X53136800Y-33578800D03*
D18*
X28041600Y-36068000D03*
D26*
X140716000Y-34290000D03*
X138176000Y-34290000D03*
X135636000Y-34290000D03*
X133096000Y-34290000D03*
X130556000Y-34290000D03*
X128016000Y-34290000D03*
D18*
X93980000Y-76192000D03*
X175246000Y-76192000D03*
X86360000Y-83820000D03*
X167640000Y-83820000D03*
X149606000Y-83820000D03*
D26*
X125476000Y-34290000D03*
D18*
X149860000Y-101600000D03*
X143256000Y-101600000D03*
X68580000Y-101600000D03*
X140716000Y-99060000D03*
X152400000Y-99060000D03*
X71120000Y-99060000D03*
X154940000Y-96520000D03*
X138176000Y-96520000D03*
X73660000Y-96520000D03*
X135636000Y-93980000D03*
X157480000Y-93980000D03*
X76200000Y-93980000D03*
X133096000Y-91440000D03*
X78740000Y-91440000D03*
X160020000Y-91440000D03*
X130556000Y-88900000D03*
X162560000Y-88900000D03*
X81280000Y-88900000D03*
X165100000Y-86360000D03*
X128016000Y-86360000D03*
X83820000Y-86360000D03*
X170180000Y-81280000D03*
X88900000Y-81280000D03*
X122936000Y-81280000D03*
X172720000Y-78740000D03*
X120396000Y-78740000D03*
X91440000Y-78740000D03*
D27*
X45974000Y-93291000D02*
X45974000Y-83152000D01*
X45974000Y-83152000D02*
X38354000Y-77851000D01*
D28*
X38354000Y-63246000D02*
X38354000Y-77851000D01*
X51689000Y-88867000D02*
X51549300Y-88727300D01*
X51549300Y-86352400D02*
X43047900Y-77851000D01*
X51549300Y-88727300D02*
X51549300Y-86352400D01*
X43047900Y-77851000D02*
X38354000Y-77851000D01*
X38354000Y-77851000D02*
X38354000Y-73556000D01*
X38354000Y-73556000D02*
X38354000Y-77691000D01*
X38354000Y-77691000D02*
X49530000Y-88867000D01*
X49530000Y-88867000D02*
X51689000Y-88867000D01*
X60960000Y-109220000D02*
X60960000Y-98138000D01*
X60960000Y-98138000D02*
X51689000Y-88867000D01*
X51689000Y-88867000D02*
X38354000Y-75532000D01*
X38354000Y-75532000D02*
X38354000Y-73556000D01*
X38354000Y-56896000D02*
X38354000Y-70053200D01*
D29*
X38354000Y-55473600D02*
X38354000Y-56896000D01*
X36728400Y-53848000D02*
X32054800Y-53848000D01*
X38354000Y-55473600D02*
X36728400Y-53848000D01*
D28*
X38354000Y-70053200D02*
X38354000Y-73556000D01*
X142240000Y-195580000D02*
X142240000Y-185420000D01*
X142240000Y-175260000D02*
X142240000Y-185420000D01*
X142240000Y-165100000D02*
X142240000Y-175260000D01*
X142240000Y-205740000D02*
X142240000Y-195580000D01*
X142240000Y-215900000D02*
X142240000Y-205740000D01*
X142240000Y-226060000D02*
X142240000Y-236220000D01*
X142240000Y-154940000D02*
X142240000Y-165100000D01*
X142240000Y-144780000D02*
X142240000Y-154940000D01*
X142240000Y-134620000D02*
X142240000Y-144780000D01*
X142240000Y-124460000D02*
X142240000Y-134620000D01*
X142240000Y-114300000D02*
X142240000Y-124460000D01*
X142240000Y-256540000D02*
X142240000Y-246380000D01*
X142240000Y-266700000D02*
X142240000Y-256540000D01*
X142240000Y-266700000D02*
X142240000Y-276610000D01*
X142240000Y-226060000D02*
X142240000Y-215900000D01*
X60960000Y-276610000D02*
X60960000Y-266700000D01*
X60960000Y-256540000D02*
X60960000Y-266700000D01*
X60960000Y-246380000D02*
X60960000Y-236220000D01*
X60960000Y-236220000D02*
X60960000Y-226060000D01*
X60960000Y-205740000D02*
X60960000Y-215900000D01*
X60960000Y-207002000D02*
X60960000Y-215900000D01*
X60960000Y-195580000D02*
X60960000Y-205740000D01*
X60960000Y-185420000D02*
X60960000Y-195580000D01*
X60960000Y-175260000D02*
X60960000Y-185420000D01*
X60960000Y-165100000D02*
X60960000Y-175260000D01*
X60960000Y-154940000D02*
X60960000Y-165100000D01*
X60960000Y-144780000D02*
X60960000Y-154940000D01*
X60960000Y-144780000D02*
X60960000Y-134620000D01*
X60960000Y-124460000D02*
X60960000Y-134620000D01*
X60960000Y-114300000D02*
X60960000Y-124460000D01*
X60960000Y-226060000D02*
X60960000Y-215900000D01*
X142240000Y-114300000D02*
X142240000Y-109220000D01*
X60960000Y-215900000D02*
X60960000Y-276610000D01*
X142240000Y-208788000D02*
X142240000Y-276610000D01*
X60960000Y-208280000D02*
X60960000Y-215650000D01*
X60960000Y-109220000D02*
X60960000Y-113030000D01*
X60960000Y-208280000D02*
X60960000Y-207002000D01*
X60960000Y-207002000D02*
X60960000Y-113030000D01*
D29*
X142240000Y-209169000D02*
X142240000Y-208788000D01*
D28*
X142240000Y-208788000D02*
X142240000Y-113919000D01*
D29*
X152146000Y-49530000D02*
X152146000Y-53054000D01*
X152146000Y-53054000D02*
X152400000Y-53308000D01*
X152400000Y-53308000D02*
X152146000Y-53340000D01*
X117856000Y-57150000D02*
X115316000Y-57150000D01*
X117856000Y-57150000D02*
X117856000Y-54324000D01*
X117856000Y-57150000D02*
X117856000Y-59690000D01*
X39370000Y-46482000D02*
X31629700Y-46482000D01*
X31629700Y-46482000D02*
X31380400Y-46232700D01*
X39370000Y-46482000D02*
X44428000Y-46482000D01*
X44428000Y-46482000D02*
X44436000Y-46474000D01*
D27*
X125476000Y-108204000D02*
X116840000Y-116840000D01*
X125476000Y-78200000D02*
X125476000Y-108204000D01*
X125476000Y-65500000D02*
X125476000Y-78200000D01*
D29*
X177800000Y-114300000D02*
X177800000Y-104140000D01*
X96520000Y-215900000D02*
X96520000Y-226060000D01*
X96520000Y-205740000D02*
X96520000Y-215900000D01*
X96520000Y-195580000D02*
X96520000Y-205740000D01*
X96520000Y-185420000D02*
X96520000Y-195580000D01*
X96520000Y-175260000D02*
X96520000Y-185420000D01*
X96520000Y-165100000D02*
X96520000Y-175260000D01*
X96520000Y-144780000D02*
X96520000Y-154940000D01*
X96520000Y-124460000D02*
X96520000Y-114300000D01*
X96520000Y-134620000D02*
X96520000Y-124460000D01*
X96520000Y-144780000D02*
X96520000Y-134620000D01*
X96520000Y-215900000D02*
X96520000Y-276610000D01*
X177800000Y-276610000D02*
X177800000Y-209169000D01*
X177800000Y-209169000D02*
X177800000Y-113919000D01*
X96520000Y-208280000D02*
X96520000Y-215650000D01*
X96520000Y-201930000D02*
X96520000Y-195580000D01*
X96520000Y-208280000D02*
X96520000Y-201930000D01*
X96520000Y-195580000D02*
X96520000Y-189230000D01*
X96520000Y-151130000D02*
X96520000Y-144780000D01*
X96520000Y-163830000D02*
X96520000Y-151130000D01*
X96520000Y-170180000D02*
X96520000Y-163830000D01*
X96520000Y-176530000D02*
X96520000Y-170180000D01*
X96520000Y-182880000D02*
X96520000Y-176530000D01*
X96520000Y-189230000D02*
X96520000Y-182880000D01*
D27*
X71551800Y-72869400D02*
X63931800Y-65249400D01*
X63931800Y-65249400D02*
X63931800Y-57429400D01*
X63931800Y-57429400D02*
X63931800Y-59484400D01*
D28*
X63931800Y-42824400D02*
X63931800Y-49555400D01*
X63931800Y-49555400D02*
X63931800Y-57429400D01*
X63500000Y-76941700D02*
X63500000Y-71887100D01*
X63500000Y-71887100D02*
X61963300Y-70350400D01*
X61963300Y-70350400D02*
X61963300Y-55102900D01*
X61963300Y-55102900D02*
X63931800Y-53134400D01*
X63500000Y-74935100D02*
X63500000Y-71887100D01*
X65011300Y-70375800D02*
X65011300Y-54213900D01*
X63500000Y-71887100D02*
X65011300Y-70375800D01*
X65011300Y-54213900D02*
X63931800Y-53134400D01*
X63500000Y-106680000D02*
X63500000Y-76941700D01*
X63500000Y-76941700D02*
X63500000Y-74935100D01*
X63500000Y-74935100D02*
X63500000Y-53566200D01*
X63500000Y-53566200D02*
X63931800Y-53134400D01*
X144780000Y-175260000D02*
X144780000Y-165100000D01*
X144780000Y-185420000D02*
X144780000Y-175260000D01*
X144780000Y-195580000D02*
X144780000Y-185420000D01*
X144780000Y-215900000D02*
X144780000Y-226060000D01*
X144780000Y-205740000D02*
X144780000Y-215900000D01*
X144780000Y-236220000D02*
X144780000Y-226060000D01*
X144780000Y-246380000D02*
X144780000Y-236220000D01*
X144780000Y-134620000D02*
X144780000Y-124460000D01*
X144780000Y-144780000D02*
X144780000Y-134620000D01*
X144780000Y-154940000D02*
X144780000Y-144780000D01*
X144780000Y-165100000D02*
X144780000Y-154940000D01*
X144780000Y-114300000D02*
X144780000Y-124460000D01*
X144780000Y-246380000D02*
X144780000Y-256540000D01*
X144780000Y-256540000D02*
X144780000Y-266700000D01*
X144780000Y-276610000D02*
X144780000Y-266700000D01*
X63500000Y-215900000D02*
X63500000Y-205740000D01*
X63500000Y-226060000D02*
X63500000Y-214636000D01*
X63486000Y-214622000D02*
X63500000Y-214622000D01*
X63500000Y-214636000D02*
X63486000Y-214622000D01*
X63500000Y-236220000D02*
X63500000Y-226060000D01*
X63500000Y-246380000D02*
X63500000Y-236220000D01*
X63500000Y-256540000D02*
X63500000Y-246380000D01*
X63500000Y-266700000D02*
X63500000Y-276610000D01*
X63500000Y-195580000D02*
X63500000Y-205740000D01*
X63500000Y-195580000D02*
X63500000Y-185420000D01*
X63500000Y-185420000D02*
X63500000Y-175260000D01*
X63500000Y-175260000D02*
X63500000Y-165100000D01*
X63500000Y-165100000D02*
X63500000Y-154940000D01*
X63500000Y-154940000D02*
X63500000Y-144780000D01*
X63500000Y-144780000D02*
X63500000Y-134620000D01*
X63500000Y-124460000D02*
X63500000Y-134620000D01*
X63500000Y-114300000D02*
X63500000Y-124460000D01*
X63500000Y-214622000D02*
X63500000Y-208280000D01*
X63500000Y-113030000D02*
X63500000Y-208280000D01*
X63500000Y-113030000D02*
X63500000Y-106680000D01*
X63500000Y-276610000D02*
X63500000Y-215900000D01*
X144780000Y-276610000D02*
X144780000Y-209169000D01*
X144780000Y-209169000D02*
X144780000Y-113919000D01*
X144780000Y-106680000D02*
X144780000Y-114300000D01*
X63500000Y-215650000D02*
X63500000Y-214622000D01*
D27*
X96164400Y-67687800D02*
X88544400Y-60067800D01*
D28*
X86385400Y-78917800D02*
X88544400Y-76758800D01*
X88544400Y-68699400D02*
X90157300Y-67086500D01*
X86385400Y-78917800D02*
X90157300Y-75145900D01*
X83464400Y-81838800D02*
X86385400Y-78917800D01*
X90157300Y-75145900D02*
X90157300Y-67086500D01*
X88544400Y-76758800D02*
X88544400Y-68699400D01*
X83464400Y-81838800D02*
X86855300Y-78447900D01*
X66040000Y-99263200D02*
X83464400Y-81838800D01*
X66040000Y-104140000D02*
X66040000Y-99263200D01*
X86855300Y-78447900D02*
X86855300Y-70388500D01*
X86855300Y-70388500D02*
X86855300Y-49641900D01*
X88544400Y-68699400D02*
X88544400Y-60067800D01*
X88544400Y-60067800D02*
X88544400Y-52247800D01*
X90157300Y-67086500D02*
X90157300Y-49565700D01*
X88544400Y-37642800D02*
X88544400Y-44500800D01*
X88544400Y-44500800D02*
X88544400Y-52247800D01*
X86855300Y-49641900D02*
X88544400Y-47952800D01*
X90157300Y-49565700D02*
X88544400Y-47952800D01*
X88544400Y-52247800D02*
X88544400Y-47952800D01*
X147320000Y-175260000D02*
X147320000Y-185420000D01*
X147320000Y-165100000D02*
X147320000Y-175260000D01*
X147320000Y-205740000D02*
X147320000Y-195580000D01*
X147320000Y-215900000D02*
X147320000Y-205740000D01*
X147320000Y-226060000D02*
X147320000Y-215900000D01*
X147320000Y-236220000D02*
X147320000Y-226060000D01*
X147320000Y-246380000D02*
X147320000Y-236220000D01*
X147320000Y-154940000D02*
X147320000Y-165100000D01*
X147320000Y-144780000D02*
X147320000Y-154940000D01*
X147320000Y-134620000D02*
X147320000Y-144780000D01*
X147320000Y-124460000D02*
X147320000Y-134620000D01*
X147320000Y-124460000D02*
X147320000Y-114300000D01*
X147320000Y-256540000D02*
X147320000Y-246380000D01*
X147320000Y-266700000D02*
X147320000Y-256540000D01*
X147320000Y-266700000D02*
X147320000Y-276610000D01*
X66040000Y-246380000D02*
X66040000Y-256540000D01*
X66040000Y-236220000D02*
X66040000Y-246380000D01*
X66040000Y-226060000D02*
X66040000Y-236220000D01*
X66040000Y-215900000D02*
X66040000Y-226060000D01*
X66040000Y-205740000D02*
X66040000Y-215900000D01*
X66040000Y-195580000D02*
X66040000Y-205740000D01*
X66040000Y-185420000D02*
X66040000Y-195580000D01*
X66040000Y-175260000D02*
X66040000Y-185420000D01*
X66040000Y-165100000D02*
X66040000Y-175260000D01*
X66040000Y-154940000D02*
X66040000Y-165100000D01*
X66040000Y-266700000D02*
X66040000Y-256540000D01*
X66040000Y-276610000D02*
X66040000Y-266700000D01*
X66040000Y-144780000D02*
X66040000Y-154940000D01*
X66040000Y-134620000D02*
X66040000Y-144780000D01*
X66040000Y-124460000D02*
X66040000Y-134620000D01*
X66040000Y-114300000D02*
X66040000Y-124460000D01*
X147320000Y-104140000D02*
X147320000Y-114300000D01*
X66040000Y-208280000D02*
X66040000Y-215650000D01*
X66040000Y-208280000D02*
X66040000Y-113030000D01*
X66040000Y-104140000D02*
X66040000Y-113030000D01*
X66040000Y-215900000D02*
X66040000Y-276610000D01*
X147320000Y-276610000D02*
X147320000Y-209169000D01*
X147320000Y-209169000D02*
X147320000Y-113919000D01*
D29*
X37287200Y-33578800D02*
X53136800Y-33578800D01*
X34798000Y-36068000D02*
X37287200Y-33578800D01*
X28041600Y-36068000D02*
X34798000Y-36068000D01*
X140716000Y-44990000D02*
X140716000Y-34290000D01*
X138176000Y-34290000D02*
X138176000Y-44990000D01*
X135636000Y-44990000D02*
X135636000Y-34290000D01*
X133096000Y-34290000D02*
X133096000Y-44990000D01*
X130556000Y-44990000D02*
X130556000Y-34290000D01*
X128016000Y-34290000D02*
X128016000Y-44990000D01*
X128016000Y-57150000D02*
X128016000Y-71120000D01*
X128016000Y-57150000D02*
X128016000Y-54610000D01*
X128016000Y-54610000D02*
X128016000Y-48990000D01*
X130556000Y-57150000D02*
X130556000Y-71120000D01*
X130556000Y-57150000D02*
X130556000Y-54610000D01*
X130556000Y-54610000D02*
X130556000Y-48990000D01*
X133096000Y-57150000D02*
X133096000Y-71120000D01*
X133096000Y-57150000D02*
X133096000Y-54610000D01*
X133096000Y-54610000D02*
X133096000Y-48990000D01*
X135636000Y-57150000D02*
X135636000Y-71120000D01*
X135636000Y-57150000D02*
X135636000Y-54610000D01*
X135636000Y-54610000D02*
X135636000Y-48990000D01*
X138176000Y-57150000D02*
X138176000Y-71120000D01*
X138176000Y-57150000D02*
X138176000Y-54610000D01*
X138176000Y-54610000D02*
X138176000Y-48990000D01*
X140716000Y-57150000D02*
X140716000Y-71120000D01*
X140716000Y-57150000D02*
X140716000Y-54610000D01*
X140716000Y-54610000D02*
X140716000Y-48990000D01*
X175246000Y-237482000D02*
X175246000Y-246366000D01*
X175246000Y-246366000D02*
X175260000Y-246380000D01*
X175260000Y-134620000D02*
X175260000Y-144780000D01*
X175260000Y-144780000D02*
X175260000Y-154940000D01*
X175260000Y-175260000D02*
X175260000Y-165100000D01*
X175260000Y-165100000D02*
X175260000Y-154940000D01*
X175260000Y-124460000D02*
X175260000Y-134620000D01*
X175260000Y-114300000D02*
X175260000Y-124460000D01*
X175260000Y-185420000D02*
X175260000Y-175260000D01*
X175260000Y-185420000D02*
X175260000Y-195580000D01*
X175260000Y-205740000D02*
X175260000Y-195580000D01*
X175260000Y-215900000D02*
X175260000Y-226060000D01*
X175260000Y-236220000D02*
X175260000Y-246380000D01*
X175260000Y-226060000D02*
X175260000Y-236220000D01*
X175260000Y-266700000D02*
X175260000Y-256540000D01*
X175260000Y-246380000D02*
X175260000Y-256540000D01*
X175260000Y-266700000D02*
X175260000Y-276610000D01*
X93980000Y-266700000D02*
X93980000Y-276610000D01*
X93980000Y-256540000D02*
X93980000Y-266700000D01*
X93980000Y-246380000D02*
X93980000Y-256540000D01*
X93980000Y-236220000D02*
X93980000Y-246380000D01*
X93980000Y-226060000D02*
X93980000Y-236220000D01*
X93980000Y-165100000D02*
X93980000Y-154940000D01*
X93980000Y-175260000D02*
X93980000Y-165100000D01*
X93980000Y-185420000D02*
X93980000Y-175260000D01*
X93980000Y-195580000D02*
X93980000Y-185420000D01*
X93980000Y-205740000D02*
X93980000Y-195580000D01*
X93980000Y-215900000D02*
X93980000Y-205740000D01*
X93980000Y-226060000D02*
X93980000Y-215900000D01*
X93980000Y-144780000D02*
X93980000Y-154940000D01*
X93980000Y-134620000D02*
X93980000Y-144780000D01*
X93980000Y-124460000D02*
X93980000Y-134620000D01*
X93980000Y-114300000D02*
X93980000Y-124460000D01*
X149606000Y-39370000D02*
X149606000Y-42932000D01*
X171436000Y-44442000D02*
X175260000Y-48266000D01*
X151116000Y-44442000D02*
X171436000Y-44442000D01*
X149606000Y-42932000D02*
X151116000Y-44442000D01*
X175260000Y-76192000D02*
X175246000Y-76192000D01*
X93980000Y-276610000D02*
X93980000Y-215900000D01*
X175260000Y-276610000D02*
X175260000Y-209169000D01*
X175260000Y-209169000D02*
X175260000Y-113919000D01*
X175260000Y-114300000D02*
X175260000Y-76192000D01*
X175260000Y-76192000D02*
X175260000Y-48266000D01*
X93980000Y-215650000D02*
X93980000Y-208280000D01*
X93980000Y-113030000D02*
X93980000Y-208280000D01*
X93980000Y-76192000D02*
X93980000Y-113030000D01*
X167640000Y-154940000D02*
X167640000Y-165100000D01*
X167640000Y-114300000D02*
X167640000Y-124460000D01*
X167640000Y-154940000D02*
X167640000Y-144780000D01*
X167640000Y-134620000D02*
X167640000Y-144780000D01*
X167640000Y-134620000D02*
X167640000Y-124460000D01*
X167640000Y-134620000D02*
X167640000Y-123196000D01*
X167640000Y-123196000D02*
X167626000Y-123182000D01*
X167640000Y-175260000D02*
X167640000Y-185420000D01*
X167640000Y-195580000D02*
X167640000Y-185420000D01*
X167640000Y-205740000D02*
X167640000Y-195580000D01*
X167640000Y-215900000D02*
X167640000Y-205740000D01*
X167640000Y-226060000D02*
X167640000Y-215900000D01*
X167640000Y-236220000D02*
X167640000Y-226060000D01*
X167640000Y-246380000D02*
X167640000Y-236220000D01*
X167640000Y-256540000D02*
X167640000Y-246380000D01*
X167640000Y-266700000D02*
X167640000Y-256540000D01*
X167640000Y-266700000D02*
X167640000Y-276610000D01*
X86360000Y-236220000D02*
X86360000Y-226060000D01*
X86360000Y-246380000D02*
X86360000Y-236220000D01*
X86360000Y-256540000D02*
X86360000Y-246380000D01*
X86360000Y-266700000D02*
X86360000Y-256540000D01*
X86360000Y-276610000D02*
X86360000Y-266700000D01*
X86360000Y-154940000D02*
X86360000Y-165100000D01*
X86360000Y-215900000D02*
X86360000Y-226060000D01*
X86360000Y-205740000D02*
X86360000Y-215900000D01*
X86360000Y-195580000D02*
X86360000Y-205740000D01*
X86360000Y-185420000D02*
X86360000Y-195580000D01*
X86360000Y-175260000D02*
X86360000Y-185420000D01*
X86360000Y-165100000D02*
X86360000Y-175260000D01*
X86360000Y-124460000D02*
X86360000Y-114300000D01*
X86360000Y-134620000D02*
X86360000Y-124460000D01*
X86360000Y-144780000D02*
X86360000Y-134620000D01*
X86360000Y-154940000D02*
X86360000Y-144780000D01*
X86360000Y-208280000D02*
X86360000Y-113030000D01*
X86360000Y-83820000D02*
X86360000Y-113030000D01*
X86360000Y-208280000D02*
X86360000Y-215650000D01*
X86360000Y-215900000D02*
X86360000Y-276610000D01*
X167640000Y-276610000D02*
X167640000Y-209169000D01*
X167640000Y-209169000D02*
X167640000Y-113919000D01*
X167640000Y-114300000D02*
X167640000Y-83820000D01*
X149606000Y-49530000D02*
X149606000Y-83820000D01*
X125476000Y-34290000D02*
X125476000Y-57150000D01*
X122936000Y-57150000D02*
X122936000Y-71660000D01*
X149860000Y-165100000D02*
X149860000Y-175260000D01*
X149860000Y-165100000D02*
X149860000Y-154940000D01*
X149860000Y-134620000D02*
X149860000Y-144780000D01*
X149860000Y-144780000D02*
X149860000Y-154940000D01*
X149860000Y-124460000D02*
X149860000Y-134620000D01*
X149860000Y-114300000D02*
X149860000Y-124460000D01*
X149860000Y-175260000D02*
X149860000Y-185420000D01*
X149860000Y-185420000D02*
X149860000Y-195580000D01*
X149860000Y-215900000D02*
X149860000Y-205740000D01*
X149860000Y-205740000D02*
X149860000Y-195580000D01*
X149860000Y-226060000D02*
X149860000Y-236220000D01*
X149860000Y-246380000D02*
X149860000Y-236220000D01*
X149860000Y-246380000D02*
X149860000Y-256540000D01*
X149860000Y-256540000D02*
X149860000Y-266700000D01*
X149860000Y-275582000D02*
X149860000Y-266700000D01*
X68580000Y-266700000D02*
X68580000Y-276610000D01*
X68580000Y-246380000D02*
X68580000Y-256540000D01*
X68580000Y-236220000D02*
X68580000Y-246380000D01*
X68580000Y-226060000D02*
X68580000Y-236220000D01*
X68580000Y-256540000D02*
X68580000Y-266700000D01*
X68580000Y-175260000D02*
X68580000Y-185420000D01*
X68580000Y-165100000D02*
X68580000Y-175260000D01*
X68580000Y-154940000D02*
X68580000Y-165100000D01*
X68580000Y-195580000D02*
X68580000Y-185420000D01*
X68580000Y-205740000D02*
X68580000Y-195580000D01*
X68580000Y-215900000D02*
X68580000Y-205740000D01*
X68580000Y-226060000D02*
X68580000Y-215900000D01*
X68580000Y-144780000D02*
X68580000Y-154940000D01*
X68580000Y-134620000D02*
X68580000Y-144780000D01*
X68580000Y-124460000D02*
X68580000Y-134620000D01*
X68580000Y-114300000D02*
X68580000Y-124460000D01*
X143256000Y-75152000D02*
X143256000Y-101600000D01*
X143256000Y-75660000D02*
X143256000Y-101600000D01*
X68580000Y-276610000D02*
X68580000Y-215900000D01*
X149860000Y-276610000D02*
X149860000Y-275582000D01*
X149860000Y-275582000D02*
X149860000Y-209169000D01*
X149860000Y-209169000D02*
X149860000Y-113919000D01*
X149860000Y-101600000D02*
X149860000Y-114300000D01*
X68580000Y-215650000D02*
X68580000Y-208280000D01*
X68580000Y-101600000D02*
X68580000Y-113030000D01*
X68580000Y-113030000D02*
X68580000Y-208280000D01*
X152400000Y-154940000D02*
X152400000Y-165100000D01*
X152400000Y-154940000D02*
X152400000Y-144780000D01*
X152400000Y-134620000D02*
X152400000Y-144780000D01*
X152400000Y-134620000D02*
X152400000Y-124460000D01*
X152400000Y-124460000D02*
X152400000Y-114300000D01*
X152400000Y-185420000D02*
X152400000Y-175260000D01*
X152400000Y-195580000D02*
X152400000Y-185420000D01*
X152400000Y-205740000D02*
X152400000Y-215900000D01*
X152400000Y-195580000D02*
X152400000Y-205740000D01*
X152400000Y-226060000D02*
X152400000Y-215900000D01*
X152400000Y-226060000D02*
X152400000Y-236220000D01*
X152400000Y-236220000D02*
X152400000Y-246380000D01*
X152400000Y-256540000D02*
X152400000Y-266700000D01*
X152400000Y-256540000D02*
X152400000Y-246380000D01*
X152400000Y-266700000D02*
X152400000Y-276610000D01*
X71120000Y-246380000D02*
X71120000Y-256540000D01*
X71120000Y-226060000D02*
X71120000Y-236220000D01*
X71120000Y-276610000D02*
X71120000Y-266700000D01*
X71120000Y-256540000D02*
X71120000Y-266700000D01*
X71120000Y-154940000D02*
X71120000Y-165100000D01*
X71120000Y-215900000D02*
X71120000Y-226060000D01*
X71120000Y-205740000D02*
X71120000Y-215900000D01*
X71120000Y-195580000D02*
X71120000Y-205740000D01*
X71120000Y-185420000D02*
X71120000Y-195580000D01*
X71120000Y-175260000D02*
X71120000Y-185420000D01*
X71120000Y-165100000D02*
X71120000Y-175260000D01*
X71120000Y-124460000D02*
X71120000Y-114300000D01*
X71120000Y-134620000D02*
X71120000Y-124460000D01*
X71120000Y-144780000D02*
X71120000Y-134620000D01*
X71120000Y-154940000D02*
X71120000Y-144780000D01*
X140716000Y-75152000D02*
X140716000Y-99060000D01*
X140716000Y-99060000D02*
X140716000Y-75660000D01*
X152400000Y-114300000D02*
X152400000Y-99060000D01*
X71120000Y-215900000D02*
X71120000Y-276610000D01*
X152400000Y-276610000D02*
X152400000Y-209169000D01*
X152400000Y-209169000D02*
X152400000Y-113919000D01*
X71120000Y-208280000D02*
X71120000Y-113030000D01*
X71120000Y-208280000D02*
X71120000Y-215650000D01*
X71120000Y-113030000D02*
X71120000Y-99060000D01*
X154940000Y-165100000D02*
X154940000Y-154940000D01*
X154940000Y-134620000D02*
X154940000Y-144780000D01*
X154926000Y-144766000D02*
X154926000Y-133342000D01*
X154940000Y-133356000D02*
X154940000Y-144780000D01*
X154940000Y-133356000D02*
X154926000Y-133342000D01*
X154940000Y-144780000D02*
X154940000Y-154940000D01*
X154940000Y-124460000D02*
X154940000Y-134620000D01*
X154940000Y-114300000D02*
X154940000Y-124460000D01*
X154940000Y-175260000D02*
X154940000Y-185420000D01*
X154940000Y-185420000D02*
X154940000Y-195580000D01*
X154940000Y-215900000D02*
X154940000Y-205740000D01*
X154940000Y-205740000D02*
X154940000Y-195580000D01*
X154940000Y-215900000D02*
X154940000Y-226060000D01*
X154940000Y-236220000D02*
X154940000Y-226060000D01*
X154940000Y-246380000D02*
X154940000Y-236220000D01*
X154940000Y-266700000D02*
X154940000Y-256540000D01*
X154940000Y-246380000D02*
X154940000Y-256540000D01*
X154940000Y-276610000D02*
X154940000Y-266700000D01*
X73660000Y-276610000D02*
X73660000Y-266700000D01*
X73660000Y-256540000D02*
X73660000Y-266700000D01*
X73660000Y-246380000D02*
X73660000Y-256540000D01*
X73660000Y-236220000D02*
X73660000Y-246380000D01*
X73660000Y-226060000D02*
X73660000Y-236220000D01*
X73660000Y-154940000D02*
X73660000Y-165100000D01*
X73660000Y-175260000D02*
X73660000Y-165100000D01*
X73660000Y-185420000D02*
X73660000Y-175260000D01*
X73660000Y-195580000D02*
X73660000Y-185420000D01*
X73660000Y-204462000D02*
X73660000Y-195580000D01*
X73660000Y-215900000D02*
X73660000Y-205740000D01*
X73660000Y-226060000D02*
X73660000Y-215900000D01*
X73660000Y-144780000D02*
X73660000Y-154940000D01*
X73660000Y-134620000D02*
X73660000Y-144780000D01*
X73660000Y-124460000D02*
X73660000Y-134620000D01*
X73660000Y-114300000D02*
X73660000Y-124460000D01*
X138176000Y-75152000D02*
X138176000Y-96520000D01*
X154940000Y-114300000D02*
X154940000Y-96520000D01*
X138176000Y-75660000D02*
X138176000Y-96520000D01*
X73660000Y-276610000D02*
X73660000Y-215900000D01*
X154940000Y-276610000D02*
X154940000Y-209169000D01*
X154940000Y-209169000D02*
X154940000Y-113919000D01*
X73660000Y-215650000D02*
X73660000Y-208280000D01*
X73660000Y-96520000D02*
X73660000Y-113030000D01*
X73660000Y-113030000D02*
X73660000Y-204462000D01*
X73660000Y-204462000D02*
X73660000Y-208280000D01*
X157480000Y-175260000D02*
X157480000Y-165100000D01*
X157480000Y-154940000D02*
X157480000Y-165100000D01*
X157480000Y-154940000D02*
X157480000Y-144780000D01*
X157480000Y-134620000D02*
X157480000Y-144780000D01*
X157480000Y-124460000D02*
X157480000Y-114300000D01*
X157480000Y-195580000D02*
X157480000Y-185420000D01*
X157480000Y-205740000D02*
X157480000Y-215900000D01*
X157480000Y-195580000D02*
X157480000Y-205740000D01*
X157480000Y-226060000D02*
X157480000Y-215900000D01*
X157480000Y-226060000D02*
X157480000Y-236220000D01*
X157480000Y-236220000D02*
X157480000Y-246380000D01*
X157480000Y-256540000D02*
X157480000Y-246380000D01*
X157480000Y-256540000D02*
X157480000Y-245116000D01*
X157466000Y-245102000D02*
X157480000Y-245102000D01*
X157480000Y-245116000D02*
X157466000Y-245102000D01*
X157480000Y-266700000D02*
X157480000Y-256540000D01*
X157480000Y-266700000D02*
X157480000Y-276610000D01*
X76200000Y-236220000D02*
X76200000Y-226060000D01*
X76200000Y-246380000D02*
X76200000Y-236220000D01*
X76200000Y-256540000D02*
X76200000Y-246380000D01*
X76200000Y-266700000D02*
X76200000Y-256540000D01*
X76200000Y-276610000D02*
X76200000Y-266700000D01*
X76200000Y-154940000D02*
X76200000Y-165100000D01*
X157480000Y-134620000D02*
X157480000Y-124460000D01*
X76200000Y-215900000D02*
X76200000Y-226060000D01*
X76200000Y-205740000D02*
X76200000Y-215900000D01*
X76200000Y-195580000D02*
X76200000Y-205740000D01*
X76200000Y-185420000D02*
X76200000Y-195580000D01*
X76200000Y-175260000D02*
X76200000Y-185420000D01*
X76200000Y-165100000D02*
X76200000Y-175260000D01*
X76200000Y-124460000D02*
X76200000Y-114300000D01*
X76200000Y-134620000D02*
X76200000Y-124460000D01*
X76200000Y-144780000D02*
X76200000Y-134620000D01*
X76200000Y-154940000D02*
X76200000Y-144780000D01*
X135636000Y-75152000D02*
X135636000Y-93980000D01*
X135636000Y-93980000D02*
X135636000Y-75660000D01*
X76200000Y-215900000D02*
X76200000Y-276610000D01*
X157480000Y-276610000D02*
X157480000Y-245102000D01*
X157480000Y-245102000D02*
X157480000Y-209169000D01*
X157480000Y-209169000D02*
X157480000Y-113919000D01*
X157480000Y-114300000D02*
X157480000Y-93980000D01*
X76200000Y-208280000D02*
X76200000Y-215650000D01*
X76200000Y-93980000D02*
X76200000Y-113030000D01*
X76200000Y-208280000D02*
X76200000Y-113030000D01*
X160020000Y-165100000D02*
X160020000Y-175260000D01*
X160020000Y-165100000D02*
X160020000Y-154940000D01*
X160020000Y-144780000D02*
X160020000Y-154940000D01*
X160020000Y-144780000D02*
X160020000Y-134620000D01*
X160020000Y-124460000D02*
X160020000Y-134620000D01*
X160020000Y-114300000D02*
X160020000Y-124460000D01*
X160020000Y-185420000D02*
X160020000Y-175260000D01*
X160020000Y-195580000D02*
X160020000Y-185420000D01*
X160020000Y-205740000D02*
X160020000Y-195580000D01*
X160020000Y-215900000D02*
X160020000Y-226060000D01*
X160020000Y-236220000D02*
X160020000Y-226060000D01*
X160020000Y-246380000D02*
X160020000Y-236220000D01*
X160020000Y-246380000D02*
X160020000Y-256540000D01*
X160020000Y-256540000D02*
X160020000Y-266700000D01*
X160020000Y-276610000D02*
X160020000Y-266700000D01*
X78740000Y-266700000D02*
X78740000Y-276610000D01*
X78740000Y-256540000D02*
X78740000Y-266700000D01*
X78740000Y-246380000D02*
X78740000Y-256540000D01*
X78740000Y-236220000D02*
X78740000Y-246380000D01*
X78740000Y-226060000D02*
X78740000Y-236220000D01*
X78740000Y-165100000D02*
X78740000Y-154940000D01*
X78740000Y-165100000D02*
X78740000Y-175260000D01*
X78740000Y-175260000D02*
X78740000Y-185420000D01*
X78740000Y-185420000D02*
X78740000Y-195580000D01*
X78740000Y-205740000D02*
X78740000Y-195580000D01*
X78740000Y-215900000D02*
X78740000Y-205740000D01*
X78740000Y-226060000D02*
X78740000Y-215900000D01*
X78740000Y-144780000D02*
X78740000Y-154940000D01*
X78740000Y-134620000D02*
X78740000Y-144780000D01*
X78740000Y-124460000D02*
X78740000Y-134620000D01*
X78740000Y-114300000D02*
X78740000Y-124460000D01*
X133096000Y-75152000D02*
X133096000Y-91440000D01*
X133096000Y-91440000D02*
X133096000Y-75660000D01*
X78740000Y-276610000D02*
X78740000Y-215900000D01*
X160020000Y-276610000D02*
X160020000Y-209169000D01*
X160020000Y-209169000D02*
X160020000Y-113919000D01*
X78740000Y-91440000D02*
X78740000Y-113030000D01*
X78740000Y-215650000D02*
X78740000Y-208280000D01*
X78740000Y-113030000D02*
X78740000Y-208280000D01*
X160020000Y-91440000D02*
X160020000Y-114300000D01*
X162560000Y-175260000D02*
X162560000Y-165100000D01*
X162560000Y-154940000D02*
X162560000Y-165100000D01*
X162560000Y-154940000D02*
X162560000Y-144780000D01*
X162560000Y-134620000D02*
X162560000Y-144780000D01*
X162560000Y-134620000D02*
X162560000Y-124460000D01*
X162560000Y-124460000D02*
X162560000Y-114300000D01*
X162560000Y-175260000D02*
X162560000Y-185420000D01*
X162560000Y-185420000D02*
X162560000Y-195580000D01*
X162560000Y-215900000D02*
X162560000Y-205740000D01*
X162560000Y-195580000D02*
X162560000Y-205740000D01*
X162560000Y-226060000D02*
X162560000Y-215900000D01*
X162560000Y-226060000D02*
X162560000Y-236220000D01*
X162560000Y-256540000D02*
X162560000Y-246380000D01*
X162560000Y-266700000D02*
X162560000Y-256540000D01*
X162560000Y-266700000D02*
X162560000Y-276610000D01*
X81280000Y-236220000D02*
X81280000Y-226060000D01*
X81280000Y-246380000D02*
X81280000Y-236220000D01*
X81280000Y-256540000D02*
X81280000Y-246380000D01*
X81280000Y-266700000D02*
X81280000Y-256540000D01*
X81280000Y-276610000D02*
X81280000Y-266700000D01*
X81280000Y-154940000D02*
X81280000Y-165100000D01*
X81280000Y-215900000D02*
X81280000Y-226060000D01*
X81280000Y-205740000D02*
X81280000Y-215900000D01*
X81280000Y-195580000D02*
X81280000Y-205740000D01*
X81280000Y-185420000D02*
X81280000Y-195580000D01*
X81280000Y-175260000D02*
X81280000Y-185420000D01*
X81280000Y-165100000D02*
X81280000Y-175260000D01*
X81280000Y-124460000D02*
X81280000Y-114300000D01*
X81280000Y-134620000D02*
X81280000Y-124460000D01*
X81280000Y-144780000D02*
X81280000Y-134620000D01*
X81280000Y-154940000D02*
X81280000Y-144780000D01*
X130556000Y-75152000D02*
X130556000Y-88900000D01*
X130556000Y-88900000D02*
X130556000Y-75660000D01*
X81280000Y-215900000D02*
X81280000Y-276610000D01*
X162560000Y-276610000D02*
X162560000Y-209169000D01*
X162560000Y-209169000D02*
X162560000Y-113919000D01*
X162560000Y-114300000D02*
X162560000Y-88900000D01*
X81280000Y-208280000D02*
X81280000Y-113030000D01*
X81280000Y-208280000D02*
X81280000Y-215650000D01*
X81280000Y-88900000D02*
X81280000Y-113030000D01*
X165100000Y-165100000D02*
X165100000Y-175260000D01*
X165100000Y-165100000D02*
X165100000Y-154940000D01*
X165100000Y-144780000D02*
X165100000Y-154940000D01*
X165100000Y-144780000D02*
X165100000Y-134620000D01*
X165100000Y-124460000D02*
X165100000Y-134620000D01*
X165100000Y-114300000D02*
X165100000Y-124460000D01*
X165100000Y-185420000D02*
X165100000Y-175260000D01*
X165100000Y-205740000D02*
X165100000Y-215900000D01*
X165100000Y-205740000D02*
X165100000Y-195580000D01*
X165100000Y-215900000D02*
X165100000Y-226060000D01*
X165100000Y-236220000D02*
X165100000Y-246380000D01*
X165100000Y-246380000D02*
X165100000Y-256540000D01*
X165100000Y-256540000D02*
X165100000Y-266700000D01*
X165100000Y-276610000D02*
X165100000Y-266700000D01*
X83820000Y-266700000D02*
X83820000Y-276610000D01*
X83820000Y-256540000D02*
X83820000Y-266700000D01*
X83820000Y-246380000D02*
X83820000Y-256540000D01*
X83820000Y-236220000D02*
X83820000Y-246380000D01*
X83820000Y-226060000D02*
X83820000Y-236220000D01*
X83820000Y-165100000D02*
X83820000Y-154940000D01*
X165100000Y-195580000D02*
X165100000Y-185420000D01*
X83820000Y-175260000D02*
X83820000Y-165100000D01*
X83820000Y-185420000D02*
X83820000Y-175260000D01*
X83820000Y-195580000D02*
X83820000Y-185420000D01*
X83820000Y-205740000D02*
X83820000Y-195580000D01*
X83820000Y-215900000D02*
X83820000Y-205740000D01*
X83820000Y-226060000D02*
X83820000Y-215900000D01*
X83820000Y-144780000D02*
X83820000Y-154940000D01*
X83820000Y-134620000D02*
X83820000Y-144780000D01*
X83820000Y-124460000D02*
X83820000Y-134620000D01*
X83820000Y-114300000D02*
X83820000Y-124460000D01*
X128016000Y-75660000D02*
X128016000Y-86360000D01*
X83820000Y-276610000D02*
X83820000Y-215900000D01*
X165100000Y-276610000D02*
X165100000Y-209169000D01*
X165100000Y-209169000D02*
X165100000Y-113919000D01*
X165100000Y-86360000D02*
X165100000Y-114300000D01*
X83820000Y-215650000D02*
X83820000Y-208280000D01*
X83820000Y-86360000D02*
X83820000Y-113030000D01*
X83820000Y-113030000D02*
X83820000Y-208280000D01*
X170180000Y-165100000D02*
X170180000Y-175260000D01*
X170180000Y-154940000D02*
X170180000Y-165100000D01*
X170180000Y-144780000D02*
X170180000Y-154940000D01*
X170180000Y-144780000D02*
X170180000Y-134620000D01*
X170180000Y-124460000D02*
X170180000Y-134620000D01*
X170180000Y-185420000D02*
X170180000Y-175260000D01*
X170180000Y-185420000D02*
X170180000Y-195580000D01*
X170180000Y-205740000D02*
X170180000Y-215900000D01*
X170180000Y-215900000D02*
X170180000Y-226060000D01*
X170180000Y-226060000D02*
X170180000Y-236220000D01*
X170180000Y-236220000D02*
X170180000Y-246380000D01*
X170180000Y-246380000D02*
X170180000Y-256540000D01*
X170180000Y-256540000D02*
X170180000Y-266700000D01*
X170180000Y-276610000D02*
X170180000Y-266700000D01*
X88900000Y-266700000D02*
X88900000Y-276610000D01*
X88900000Y-256540000D02*
X88900000Y-266700000D01*
X88900000Y-246380000D02*
X88900000Y-256540000D01*
X88900000Y-236220000D02*
X88900000Y-246380000D01*
X88900000Y-226060000D02*
X88900000Y-236220000D01*
X88900000Y-165100000D02*
X88900000Y-154940000D01*
X170180000Y-124460000D02*
X170180000Y-114300000D01*
X88900000Y-175260000D02*
X88900000Y-165100000D01*
X88900000Y-185420000D02*
X88900000Y-175260000D01*
X88900000Y-195580000D02*
X88900000Y-185420000D01*
X88900000Y-205740000D02*
X88900000Y-195580000D01*
X88900000Y-215900000D02*
X88900000Y-205740000D01*
X88900000Y-226060000D02*
X88900000Y-215900000D01*
X88900000Y-144780000D02*
X88900000Y-154940000D01*
X88900000Y-134620000D02*
X88900000Y-144780000D01*
X88900000Y-124460000D02*
X88900000Y-134620000D01*
X88900000Y-114300000D02*
X88900000Y-124460000D01*
X122936000Y-81280000D02*
X122936000Y-75660000D01*
X88900000Y-276610000D02*
X88900000Y-215900000D01*
X170180000Y-276610000D02*
X170180000Y-209169000D01*
X170180000Y-209169000D02*
X170180000Y-113919000D01*
X170180000Y-81280000D02*
X170180000Y-114300000D01*
X88900000Y-215650000D02*
X88900000Y-208280000D01*
X88900000Y-113030000D02*
X88900000Y-81280000D01*
X88900000Y-113030000D02*
X88900000Y-208280000D01*
X172720000Y-154940000D02*
X172720000Y-144780000D01*
X172720000Y-134620000D02*
X172720000Y-144780000D01*
X172720000Y-165100000D02*
X172720000Y-154940000D01*
X172720000Y-175260000D02*
X172720000Y-165100000D01*
X172720000Y-134620000D02*
X172720000Y-124460000D01*
X172720000Y-124460000D02*
X172720000Y-114300000D01*
X172720000Y-175260000D02*
X172720000Y-185420000D01*
X172720000Y-195580000D02*
X172720000Y-185420000D01*
X172720000Y-215900000D02*
X172720000Y-205740000D01*
X172720000Y-226060000D02*
X172720000Y-215900000D01*
X172720000Y-236220000D02*
X172720000Y-226060000D01*
X172720000Y-246380000D02*
X172720000Y-236220000D01*
X172720000Y-256540000D02*
X172720000Y-266700000D01*
X172720000Y-256540000D02*
X172720000Y-246380000D01*
X172720000Y-266700000D02*
X172720000Y-276610000D01*
X91440000Y-226060000D02*
X91440000Y-236220000D01*
X91440000Y-246380000D02*
X91440000Y-236220000D01*
X91440000Y-256540000D02*
X91440000Y-246380000D01*
X91440000Y-266700000D02*
X91440000Y-256540000D01*
X91440000Y-276610000D02*
X91440000Y-266700000D01*
X91440000Y-154940000D02*
X91440000Y-165100000D01*
X91440000Y-215900000D02*
X91440000Y-226060000D01*
X91440000Y-205740000D02*
X91440000Y-215900000D01*
X91440000Y-195580000D02*
X91440000Y-205740000D01*
X91440000Y-185420000D02*
X91440000Y-195580000D01*
X91440000Y-175260000D02*
X91440000Y-185420000D01*
X91440000Y-165100000D02*
X91440000Y-175260000D01*
X91440000Y-124460000D02*
X91440000Y-114300000D01*
X91440000Y-134620000D02*
X91440000Y-124460000D01*
X91440000Y-144780000D02*
X91440000Y-134620000D01*
X91440000Y-154940000D02*
X91440000Y-144780000D01*
X120396000Y-75660000D02*
X120396000Y-78740000D01*
X91440000Y-215900000D02*
X91440000Y-276610000D01*
X172720000Y-276610000D02*
X172720000Y-209169000D01*
X172720000Y-209169000D02*
X172720000Y-113919000D01*
X172720000Y-114300000D02*
X172720000Y-78740000D01*
X91440000Y-208280000D02*
X91440000Y-215650000D01*
X91440000Y-113030000D02*
X91440000Y-78740000D01*
X91440000Y-208280000D02*
X91440000Y-113030000D01*
X120396000Y-57150000D02*
X120396000Y-71660000D01*
X143256000Y-57150000D02*
X143256000Y-71660000D01*
D30*
G36*
X180941000Y-280517600D02*
X21243000Y-280517600D01*
X21243000Y-96298745D01*
X32445861Y-96298745D01*
X32519995Y-96544864D01*
X33057223Y-96737965D01*
X33627454Y-96710778D01*
X34028005Y-96544864D01*
X34102139Y-96298745D01*
X45145861Y-96298745D01*
X45219995Y-96544864D01*
X45757223Y-96737965D01*
X46327454Y-96710778D01*
X46728005Y-96544864D01*
X46802139Y-96298745D01*
X45974000Y-95470605D01*
X45145861Y-96298745D01*
X34102139Y-96298745D01*
X33274000Y-95470605D01*
X32445861Y-96298745D01*
X21243000Y-96298745D01*
X21243000Y-92491000D01*
X31324921Y-92491000D01*
X31324921Y-94091000D01*
X31403506Y-94508641D01*
X31650331Y-94892219D01*
X31844715Y-95025036D01*
X31827035Y-95074223D01*
X31854222Y-95644454D01*
X32020136Y-96045005D01*
X32266255Y-96119139D01*
X33094395Y-95291000D01*
X33080253Y-95276858D01*
X33117031Y-95240079D01*
X33430969Y-95240079D01*
X33467748Y-95276858D01*
X33453605Y-95291000D01*
X34281745Y-96119139D01*
X34527864Y-96045005D01*
X34720965Y-95507777D01*
X34698121Y-95028628D01*
X34875219Y-94914669D01*
X35132548Y-94538056D01*
X35223079Y-94091000D01*
X35223079Y-92491000D01*
X35144494Y-92073359D01*
X34897669Y-91689781D01*
X34521056Y-91432452D01*
X34074000Y-91341921D01*
X32474000Y-91341921D01*
X32056359Y-91420506D01*
X31672781Y-91667331D01*
X31415452Y-92043944D01*
X31324921Y-92491000D01*
X21243000Y-92491000D01*
X21243000Y-70751000D01*
X29054921Y-70751000D01*
X29054921Y-84951000D01*
X29133506Y-85368641D01*
X29380331Y-85752219D01*
X29756944Y-86009548D01*
X30204000Y-86100079D01*
X43967179Y-86100079D01*
X44097000Y-86229900D01*
X44097000Y-92135063D01*
X44024921Y-92491000D01*
X44024921Y-94091000D01*
X44103506Y-94508641D01*
X44350331Y-94892219D01*
X44544715Y-95025036D01*
X44527035Y-95074223D01*
X44554222Y-95644454D01*
X44720136Y-96045005D01*
X44966255Y-96119139D01*
X45794395Y-95291000D01*
X45780253Y-95276858D01*
X45817031Y-95240079D01*
X46130969Y-95240079D01*
X46167748Y-95276858D01*
X46153605Y-95291000D01*
X46981745Y-96119139D01*
X47227864Y-96045005D01*
X47420965Y-95507777D01*
X47398121Y-95028628D01*
X47575219Y-94914669D01*
X47832548Y-94538056D01*
X47923079Y-94091000D01*
X47923079Y-92491000D01*
X47851000Y-92107935D01*
X47851000Y-89983900D01*
X48132050Y-90264950D01*
X48773435Y-90693510D01*
X49530000Y-90844000D01*
X50870100Y-90844000D01*
X58983000Y-98956900D01*
X58983000Y-108434709D01*
X58833370Y-108795057D01*
X58832632Y-109641230D01*
X58983000Y-110005148D01*
X58983000Y-113340971D01*
X58960921Y-113450000D01*
X58960921Y-115150000D01*
X58983000Y-115267339D01*
X58983000Y-123500971D01*
X58960921Y-123610000D01*
X58960921Y-125310000D01*
X58983000Y-125427339D01*
X58983000Y-133660971D01*
X58960921Y-133770000D01*
X58960921Y-135470000D01*
X58983000Y-135587339D01*
X58983000Y-143820971D01*
X58960921Y-143930000D01*
X58960921Y-145630000D01*
X58983000Y-145747339D01*
X58983000Y-153980971D01*
X58960921Y-154090000D01*
X58960921Y-155790000D01*
X58983000Y-155907339D01*
X58983000Y-164140971D01*
X58960921Y-164250000D01*
X58960921Y-165950000D01*
X58983000Y-166067339D01*
X58983000Y-174300971D01*
X58960921Y-174410000D01*
X58960921Y-176110000D01*
X58983000Y-176227339D01*
X58983000Y-184460971D01*
X58960921Y-184570000D01*
X58960921Y-186270000D01*
X58983000Y-186387339D01*
X58983000Y-194620971D01*
X58960921Y-194730000D01*
X58960921Y-196430000D01*
X58983000Y-196547339D01*
X58983000Y-204780971D01*
X58960921Y-204890000D01*
X58960921Y-206590000D01*
X58983000Y-206707339D01*
X58983000Y-214940971D01*
X58960921Y-215050000D01*
X58960921Y-216750000D01*
X58983000Y-216867339D01*
X58983000Y-225100971D01*
X58960921Y-225210000D01*
X58960921Y-226910000D01*
X58983000Y-227027339D01*
X58983000Y-235260971D01*
X58960921Y-235370000D01*
X58960921Y-237070000D01*
X58983000Y-237187339D01*
X58983000Y-245420971D01*
X58960921Y-245530000D01*
X58960921Y-247230000D01*
X58983000Y-247347339D01*
X58983000Y-255580971D01*
X58960921Y-255690000D01*
X58960921Y-257390000D01*
X58983000Y-257507339D01*
X58983000Y-265740971D01*
X58960921Y-265850000D01*
X58960921Y-267550000D01*
X58983000Y-267667339D01*
X58983000Y-276608847D01*
X58982657Y-277001524D01*
X59283003Y-277728418D01*
X59373000Y-277818572D01*
X59373000Y-278250000D01*
X59381685Y-278296159D01*
X59408965Y-278338553D01*
X59450590Y-278366994D01*
X59500000Y-278377000D01*
X60060117Y-278377000D01*
X60565025Y-278586656D01*
X61351524Y-278587343D01*
X61860594Y-278377000D01*
X62600117Y-278377000D01*
X63105025Y-278586656D01*
X63891524Y-278587343D01*
X64400594Y-278377000D01*
X65140117Y-278377000D01*
X65645025Y-278586656D01*
X66431524Y-278587343D01*
X66940594Y-278377000D01*
X67680117Y-278377000D01*
X68185025Y-278586656D01*
X68971524Y-278587343D01*
X69480594Y-278377000D01*
X70220117Y-278377000D01*
X70725025Y-278586656D01*
X71511524Y-278587343D01*
X72020594Y-278377000D01*
X72760117Y-278377000D01*
X73265025Y-278586656D01*
X74051524Y-278587343D01*
X74560594Y-278377000D01*
X75300117Y-278377000D01*
X75805025Y-278586656D01*
X76591524Y-278587343D01*
X77100594Y-278377000D01*
X77840117Y-278377000D01*
X78345025Y-278586656D01*
X79131524Y-278587343D01*
X79640594Y-278377000D01*
X80380117Y-278377000D01*
X80885025Y-278586656D01*
X81671524Y-278587343D01*
X82180594Y-278377000D01*
X82920117Y-278377000D01*
X83425025Y-278586656D01*
X84211524Y-278587343D01*
X84720594Y-278377000D01*
X85460117Y-278377000D01*
X85965025Y-278586656D01*
X86751524Y-278587343D01*
X87260594Y-278377000D01*
X88000117Y-278377000D01*
X88505025Y-278586656D01*
X89291524Y-278587343D01*
X89800594Y-278377000D01*
X90540117Y-278377000D01*
X91045025Y-278586656D01*
X91831524Y-278587343D01*
X92340594Y-278377000D01*
X93080117Y-278377000D01*
X93585025Y-278586656D01*
X94371524Y-278587343D01*
X94880594Y-278377000D01*
X95500000Y-278377000D01*
X95546159Y-278368315D01*
X95588553Y-278341035D01*
X95616994Y-278299410D01*
X95627000Y-278250000D01*
X95627000Y-277759336D01*
X95655042Y-277731343D01*
X95669355Y-277696873D01*
X95735920Y-277905259D01*
X96291279Y-278106718D01*
X96881458Y-278080315D01*
X97304080Y-277905259D01*
X97384353Y-277653958D01*
X96520000Y-276789605D01*
X96505858Y-276803748D01*
X96326253Y-276624143D01*
X96340395Y-276610000D01*
X96699605Y-276610000D01*
X97563958Y-277474353D01*
X97815259Y-277394080D01*
X98016718Y-276838721D01*
X97990315Y-276248542D01*
X97815259Y-275825920D01*
X97563958Y-275745647D01*
X96699605Y-276610000D01*
X96340395Y-276610000D01*
X96326253Y-276595858D01*
X96505858Y-276416253D01*
X96520000Y-276430395D01*
X97384353Y-275566042D01*
X97304080Y-275314741D01*
X96748721Y-275113282D01*
X96158542Y-275139685D01*
X95735920Y-275314741D01*
X95669650Y-275522205D01*
X95656997Y-275491582D01*
X95627000Y-275461533D01*
X95627000Y-275250000D01*
X95618315Y-275203841D01*
X95607000Y-275186257D01*
X95607000Y-267838521D01*
X95753076Y-267971645D01*
X96163110Y-268141476D01*
X96393000Y-268020155D01*
X96393000Y-266827000D01*
X96647000Y-266827000D01*
X96647000Y-268020155D01*
X96876890Y-268141476D01*
X97286924Y-267971645D01*
X97715183Y-267581358D01*
X97961486Y-267056892D01*
X97840819Y-266827000D01*
X96647000Y-266827000D01*
X96393000Y-266827000D01*
X96373000Y-266827000D01*
X96373000Y-266573000D01*
X96393000Y-266573000D01*
X96393000Y-265379845D01*
X96647000Y-265379845D01*
X96647000Y-266573000D01*
X97840819Y-266573000D01*
X97961486Y-266343108D01*
X97715183Y-265818642D01*
X97286924Y-265428355D01*
X96876890Y-265258524D01*
X96647000Y-265379845D01*
X96393000Y-265379845D01*
X96163110Y-265258524D01*
X95753076Y-265428355D01*
X95607000Y-265561479D01*
X95607000Y-257678521D01*
X95753076Y-257811645D01*
X96163110Y-257981476D01*
X96393000Y-257860155D01*
X96393000Y-256667000D01*
X96647000Y-256667000D01*
X96647000Y-257860155D01*
X96876890Y-257981476D01*
X97286924Y-257811645D01*
X97715183Y-257421358D01*
X97961486Y-256896892D01*
X97840819Y-256667000D01*
X96647000Y-256667000D01*
X96393000Y-256667000D01*
X96373000Y-256667000D01*
X96373000Y-256413000D01*
X96393000Y-256413000D01*
X96393000Y-255219845D01*
X96647000Y-255219845D01*
X96647000Y-256413000D01*
X97840819Y-256413000D01*
X97961486Y-256183108D01*
X97715183Y-255658642D01*
X97286924Y-255268355D01*
X96876890Y-255098524D01*
X96647000Y-255219845D01*
X96393000Y-255219845D01*
X96163110Y-255098524D01*
X95753076Y-255268355D01*
X95607000Y-255401479D01*
X95607000Y-247518521D01*
X95753076Y-247651645D01*
X96163110Y-247821476D01*
X96393000Y-247700155D01*
X96393000Y-246507000D01*
X96647000Y-246507000D01*
X96647000Y-247700155D01*
X96876890Y-247821476D01*
X97286924Y-247651645D01*
X97715183Y-247261358D01*
X97961486Y-246736892D01*
X97840819Y-246507000D01*
X96647000Y-246507000D01*
X96393000Y-246507000D01*
X96373000Y-246507000D01*
X96373000Y-246253000D01*
X96393000Y-246253000D01*
X96393000Y-245059845D01*
X96647000Y-245059845D01*
X96647000Y-246253000D01*
X97840819Y-246253000D01*
X97961486Y-246023108D01*
X97715183Y-245498642D01*
X97286924Y-245108355D01*
X96876890Y-244938524D01*
X96647000Y-245059845D01*
X96393000Y-245059845D01*
X96163110Y-244938524D01*
X95753076Y-245108355D01*
X95607000Y-245241479D01*
X95607000Y-237358521D01*
X95753076Y-237491645D01*
X96163110Y-237661476D01*
X96393000Y-237540155D01*
X96393000Y-236347000D01*
X96647000Y-236347000D01*
X96647000Y-237540155D01*
X96876890Y-237661476D01*
X97286924Y-237491645D01*
X97715183Y-237101358D01*
X97961486Y-236576892D01*
X97840819Y-236347000D01*
X96647000Y-236347000D01*
X96393000Y-236347000D01*
X96373000Y-236347000D01*
X96373000Y-236093000D01*
X96393000Y-236093000D01*
X96393000Y-234899845D01*
X96647000Y-234899845D01*
X96647000Y-236093000D01*
X97840819Y-236093000D01*
X97961486Y-235863108D01*
X97715183Y-235338642D01*
X97286924Y-234948355D01*
X96876890Y-234778524D01*
X96647000Y-234899845D01*
X96393000Y-234899845D01*
X96163110Y-234778524D01*
X95753076Y-234948355D01*
X95607000Y-235081479D01*
X95607000Y-227198521D01*
X95753076Y-227331645D01*
X96163110Y-227501476D01*
X96393000Y-227380155D01*
X96393000Y-226187000D01*
X96647000Y-226187000D01*
X96647000Y-227380155D01*
X96876890Y-227501476D01*
X97286924Y-227331645D01*
X97715183Y-226941358D01*
X97961486Y-226416892D01*
X97840819Y-226187000D01*
X96647000Y-226187000D01*
X96393000Y-226187000D01*
X96373000Y-226187000D01*
X96373000Y-225933000D01*
X96393000Y-225933000D01*
X96393000Y-224739845D01*
X96647000Y-224739845D01*
X96647000Y-225933000D01*
X97840819Y-225933000D01*
X97961486Y-225703108D01*
X97715183Y-225178642D01*
X97286924Y-224788355D01*
X96876890Y-224618524D01*
X96647000Y-224739845D01*
X96393000Y-224739845D01*
X96163110Y-224618524D01*
X95753076Y-224788355D01*
X95607000Y-224921479D01*
X95607000Y-217038521D01*
X95753076Y-217171645D01*
X96163110Y-217341476D01*
X96393000Y-217220155D01*
X96393000Y-216027000D01*
X96647000Y-216027000D01*
X96647000Y-217220155D01*
X96876890Y-217341476D01*
X97286924Y-217171645D01*
X97715183Y-216781358D01*
X97961486Y-216256892D01*
X97840819Y-216027000D01*
X96647000Y-216027000D01*
X96393000Y-216027000D01*
X96373000Y-216027000D01*
X96373000Y-215773000D01*
X96393000Y-215773000D01*
X96393000Y-214579845D01*
X96647000Y-214579845D01*
X96647000Y-215773000D01*
X97840819Y-215773000D01*
X97961486Y-215543108D01*
X97715183Y-215018642D01*
X97286924Y-214628355D01*
X96876890Y-214458524D01*
X96647000Y-214579845D01*
X96393000Y-214579845D01*
X96163110Y-214458524D01*
X95753076Y-214628355D01*
X95607000Y-214761479D01*
X95607000Y-206878521D01*
X95753076Y-207011645D01*
X96163110Y-207181476D01*
X96393000Y-207060155D01*
X96393000Y-205867000D01*
X96647000Y-205867000D01*
X96647000Y-207060155D01*
X96876890Y-207181476D01*
X97286924Y-207011645D01*
X97715183Y-206621358D01*
X97961486Y-206096892D01*
X97840819Y-205867000D01*
X96647000Y-205867000D01*
X96393000Y-205867000D01*
X96373000Y-205867000D01*
X96373000Y-205613000D01*
X96393000Y-205613000D01*
X96393000Y-204419845D01*
X96647000Y-204419845D01*
X96647000Y-205613000D01*
X97840819Y-205613000D01*
X97961486Y-205383108D01*
X97715183Y-204858642D01*
X97286924Y-204468355D01*
X96876890Y-204298524D01*
X96647000Y-204419845D01*
X96393000Y-204419845D01*
X96163110Y-204298524D01*
X95753076Y-204468355D01*
X95607000Y-204601479D01*
X95607000Y-196718521D01*
X95753076Y-196851645D01*
X96163110Y-197021476D01*
X96393000Y-196900155D01*
X96393000Y-195707000D01*
X96647000Y-195707000D01*
X96647000Y-196900155D01*
X96876890Y-197021476D01*
X97286924Y-196851645D01*
X97715183Y-196461358D01*
X97961486Y-195936892D01*
X97840819Y-195707000D01*
X96647000Y-195707000D01*
X96393000Y-195707000D01*
X96373000Y-195707000D01*
X96373000Y-195453000D01*
X96393000Y-195453000D01*
X96393000Y-194259845D01*
X96647000Y-194259845D01*
X96647000Y-195453000D01*
X97840819Y-195453000D01*
X97961486Y-195223108D01*
X97715183Y-194698642D01*
X97286924Y-194308355D01*
X96876890Y-194138524D01*
X96647000Y-194259845D01*
X96393000Y-194259845D01*
X96163110Y-194138524D01*
X95753076Y-194308355D01*
X95607000Y-194441479D01*
X95607000Y-186558521D01*
X95753076Y-186691645D01*
X96163110Y-186861476D01*
X96393000Y-186740155D01*
X96393000Y-185547000D01*
X96647000Y-185547000D01*
X96647000Y-186740155D01*
X96876890Y-186861476D01*
X97286924Y-186691645D01*
X97715183Y-186301358D01*
X97961486Y-185776892D01*
X97840819Y-185547000D01*
X96647000Y-185547000D01*
X96393000Y-185547000D01*
X96373000Y-185547000D01*
X96373000Y-185293000D01*
X96393000Y-185293000D01*
X96393000Y-184099845D01*
X96647000Y-184099845D01*
X96647000Y-185293000D01*
X97840819Y-185293000D01*
X97961486Y-185063108D01*
X97715183Y-184538642D01*
X97286924Y-184148355D01*
X96876890Y-183978524D01*
X96647000Y-184099845D01*
X96393000Y-184099845D01*
X96163110Y-183978524D01*
X95753076Y-184148355D01*
X95607000Y-184281479D01*
X95607000Y-176398521D01*
X95753076Y-176531645D01*
X96163110Y-176701476D01*
X96393000Y-176580155D01*
X96393000Y-175387000D01*
X96647000Y-175387000D01*
X96647000Y-176580155D01*
X96876890Y-176701476D01*
X97286924Y-176531645D01*
X97715183Y-176141358D01*
X97961486Y-175616892D01*
X97840819Y-175387000D01*
X96647000Y-175387000D01*
X96393000Y-175387000D01*
X96373000Y-175387000D01*
X96373000Y-175133000D01*
X96393000Y-175133000D01*
X96393000Y-173939845D01*
X96647000Y-173939845D01*
X96647000Y-175133000D01*
X97840819Y-175133000D01*
X97961486Y-174903108D01*
X97715183Y-174378642D01*
X97286924Y-173988355D01*
X96876890Y-173818524D01*
X96647000Y-173939845D01*
X96393000Y-173939845D01*
X96163110Y-173818524D01*
X95753076Y-173988355D01*
X95607000Y-174121479D01*
X95607000Y-166238521D01*
X95753076Y-166371645D01*
X96163110Y-166541476D01*
X96393000Y-166420155D01*
X96393000Y-165227000D01*
X96647000Y-165227000D01*
X96647000Y-166420155D01*
X96876890Y-166541476D01*
X97286924Y-166371645D01*
X97715183Y-165981358D01*
X97961486Y-165456892D01*
X97840819Y-165227000D01*
X96647000Y-165227000D01*
X96393000Y-165227000D01*
X96373000Y-165227000D01*
X96373000Y-164973000D01*
X96393000Y-164973000D01*
X96393000Y-163779845D01*
X96647000Y-163779845D01*
X96647000Y-164973000D01*
X97840819Y-164973000D01*
X97961486Y-164743108D01*
X97715183Y-164218642D01*
X97286924Y-163828355D01*
X96876890Y-163658524D01*
X96647000Y-163779845D01*
X96393000Y-163779845D01*
X96163110Y-163658524D01*
X95753076Y-163828355D01*
X95607000Y-163961479D01*
X95607000Y-156078521D01*
X95753076Y-156211645D01*
X96163110Y-156381476D01*
X96393000Y-156260155D01*
X96393000Y-155067000D01*
X96647000Y-155067000D01*
X96647000Y-156260155D01*
X96876890Y-156381476D01*
X97286924Y-156211645D01*
X97715183Y-155821358D01*
X97961486Y-155296892D01*
X97840819Y-155067000D01*
X96647000Y-155067000D01*
X96393000Y-155067000D01*
X96373000Y-155067000D01*
X96373000Y-154813000D01*
X96393000Y-154813000D01*
X96393000Y-153619845D01*
X96647000Y-153619845D01*
X96647000Y-154813000D01*
X97840819Y-154813000D01*
X97961486Y-154583108D01*
X97715183Y-154058642D01*
X97286924Y-153668355D01*
X96876890Y-153498524D01*
X96647000Y-153619845D01*
X96393000Y-153619845D01*
X96163110Y-153498524D01*
X95753076Y-153668355D01*
X95607000Y-153801479D01*
X95607000Y-145918521D01*
X95753076Y-146051645D01*
X96163110Y-146221476D01*
X96393000Y-146100155D01*
X96393000Y-144907000D01*
X96647000Y-144907000D01*
X96647000Y-146100155D01*
X96876890Y-146221476D01*
X97286924Y-146051645D01*
X97715183Y-145661358D01*
X97961486Y-145136892D01*
X97840819Y-144907000D01*
X96647000Y-144907000D01*
X96393000Y-144907000D01*
X96373000Y-144907000D01*
X96373000Y-144653000D01*
X96393000Y-144653000D01*
X96393000Y-143459845D01*
X96647000Y-143459845D01*
X96647000Y-144653000D01*
X97840819Y-144653000D01*
X97961486Y-144423108D01*
X97715183Y-143898642D01*
X97286924Y-143508355D01*
X96876890Y-143338524D01*
X96647000Y-143459845D01*
X96393000Y-143459845D01*
X96163110Y-143338524D01*
X95753076Y-143508355D01*
X95607000Y-143641479D01*
X95607000Y-135758521D01*
X95753076Y-135891645D01*
X96163110Y-136061476D01*
X96393000Y-135940155D01*
X96393000Y-134747000D01*
X96647000Y-134747000D01*
X96647000Y-135940155D01*
X96876890Y-136061476D01*
X97286924Y-135891645D01*
X97715183Y-135501358D01*
X97961486Y-134976892D01*
X97840819Y-134747000D01*
X96647000Y-134747000D01*
X96393000Y-134747000D01*
X96373000Y-134747000D01*
X96373000Y-134493000D01*
X96393000Y-134493000D01*
X96393000Y-133299845D01*
X96647000Y-133299845D01*
X96647000Y-134493000D01*
X97840819Y-134493000D01*
X97961486Y-134263108D01*
X97715183Y-133738642D01*
X97286924Y-133348355D01*
X96876890Y-133178524D01*
X96647000Y-133299845D01*
X96393000Y-133299845D01*
X96163110Y-133178524D01*
X95753076Y-133348355D01*
X95607000Y-133481479D01*
X95607000Y-125598521D01*
X95753076Y-125731645D01*
X96163110Y-125901476D01*
X96393000Y-125780155D01*
X96393000Y-124587000D01*
X96647000Y-124587000D01*
X96647000Y-125780155D01*
X96876890Y-125901476D01*
X97286924Y-125731645D01*
X97715183Y-125341358D01*
X97961486Y-124816892D01*
X97840819Y-124587000D01*
X96647000Y-124587000D01*
X96393000Y-124587000D01*
X96373000Y-124587000D01*
X96373000Y-124333000D01*
X96393000Y-124333000D01*
X96393000Y-123139845D01*
X96647000Y-123139845D01*
X96647000Y-124333000D01*
X97840819Y-124333000D01*
X97961486Y-124103108D01*
X97715183Y-123578642D01*
X97286924Y-123188355D01*
X96876890Y-123018524D01*
X96647000Y-123139845D01*
X96393000Y-123139845D01*
X96163110Y-123018524D01*
X95753076Y-123188355D01*
X95607000Y-123321479D01*
X95607000Y-115438521D01*
X95753076Y-115571645D01*
X96163110Y-115741476D01*
X96393000Y-115620155D01*
X96393000Y-114427000D01*
X96647000Y-114427000D01*
X96647000Y-115620155D01*
X96876890Y-115741476D01*
X97286924Y-115571645D01*
X97715183Y-115181358D01*
X97961486Y-114656892D01*
X97840819Y-114427000D01*
X96647000Y-114427000D01*
X96393000Y-114427000D01*
X96373000Y-114427000D01*
X96373000Y-114173000D01*
X96393000Y-114173000D01*
X96393000Y-112979845D01*
X96647000Y-112979845D01*
X96647000Y-114173000D01*
X97840819Y-114173000D01*
X97961486Y-113943108D01*
X97715183Y-113418642D01*
X97286924Y-113028355D01*
X96876890Y-112858524D01*
X96647000Y-112979845D01*
X96393000Y-112979845D01*
X96163110Y-112858524D01*
X95753076Y-113028355D01*
X95607000Y-113161479D01*
X95607000Y-109641230D01*
X140112632Y-109641230D01*
X140263000Y-110005148D01*
X140263000Y-113340971D01*
X140240921Y-113450000D01*
X140240921Y-115150000D01*
X140263000Y-115267339D01*
X140263000Y-123500971D01*
X140240921Y-123610000D01*
X140240921Y-125310000D01*
X140263000Y-125427339D01*
X140263000Y-133660971D01*
X140240921Y-133770000D01*
X140240921Y-135470000D01*
X140263000Y-135587339D01*
X140263000Y-143820971D01*
X140240921Y-143930000D01*
X140240921Y-145630000D01*
X140263000Y-145747339D01*
X140263000Y-153980971D01*
X140240921Y-154090000D01*
X140240921Y-155790000D01*
X140263000Y-155907339D01*
X140263000Y-164140971D01*
X140240921Y-164250000D01*
X140240921Y-165950000D01*
X140263000Y-166067339D01*
X140263000Y-174300971D01*
X140240921Y-174410000D01*
X140240921Y-176110000D01*
X140263000Y-176227339D01*
X140263000Y-184460971D01*
X140240921Y-184570000D01*
X140240921Y-186270000D01*
X140263000Y-186387339D01*
X140263000Y-194620971D01*
X140240921Y-194730000D01*
X140240921Y-196430000D01*
X140263000Y-196547339D01*
X140263000Y-204780971D01*
X140240921Y-204890000D01*
X140240921Y-206590000D01*
X140263000Y-206707339D01*
X140263000Y-214940971D01*
X140240921Y-215050000D01*
X140240921Y-216750000D01*
X140263000Y-216867339D01*
X140263000Y-225100971D01*
X140240921Y-225210000D01*
X140240921Y-226910000D01*
X140263000Y-227027339D01*
X140263000Y-235260971D01*
X140240921Y-235370000D01*
X140240921Y-237070000D01*
X140263000Y-237187339D01*
X140263000Y-245420971D01*
X140240921Y-245530000D01*
X140240921Y-247230000D01*
X140263000Y-247347339D01*
X140263000Y-255580971D01*
X140240921Y-255690000D01*
X140240921Y-257390000D01*
X140263000Y-257507339D01*
X140263000Y-265740971D01*
X140240921Y-265850000D01*
X140240921Y-267550000D01*
X140263000Y-267667339D01*
X140263000Y-276608847D01*
X140262657Y-277001524D01*
X140563003Y-277728418D01*
X140623000Y-277788520D01*
X140623000Y-278250000D01*
X140631685Y-278296159D01*
X140658965Y-278338553D01*
X140700590Y-278366994D01*
X140750000Y-278377000D01*
X141340117Y-278377000D01*
X141845025Y-278586656D01*
X142631524Y-278587343D01*
X143140594Y-278377000D01*
X143880117Y-278377000D01*
X144385025Y-278586656D01*
X145171524Y-278587343D01*
X145680594Y-278377000D01*
X146420117Y-278377000D01*
X146925025Y-278586656D01*
X147711524Y-278587343D01*
X148220594Y-278377000D01*
X148960117Y-278377000D01*
X149465025Y-278586656D01*
X150251524Y-278587343D01*
X150760594Y-278377000D01*
X151500117Y-278377000D01*
X152005025Y-278586656D01*
X152791524Y-278587343D01*
X153300594Y-278377000D01*
X154040117Y-278377000D01*
X154545025Y-278586656D01*
X155331524Y-278587343D01*
X155840594Y-278377000D01*
X156580117Y-278377000D01*
X157085025Y-278586656D01*
X157871524Y-278587343D01*
X158380594Y-278377000D01*
X159120117Y-278377000D01*
X159625025Y-278586656D01*
X160411524Y-278587343D01*
X160920594Y-278377000D01*
X161660117Y-278377000D01*
X162165025Y-278586656D01*
X162951524Y-278587343D01*
X163460594Y-278377000D01*
X164200117Y-278377000D01*
X164705025Y-278586656D01*
X165491524Y-278587343D01*
X166000594Y-278377000D01*
X166740117Y-278377000D01*
X167245025Y-278586656D01*
X168031524Y-278587343D01*
X168540594Y-278377000D01*
X169280117Y-278377000D01*
X169785025Y-278586656D01*
X170571524Y-278587343D01*
X171080594Y-278377000D01*
X171820117Y-278377000D01*
X172325025Y-278586656D01*
X173111524Y-278587343D01*
X173620594Y-278377000D01*
X174360117Y-278377000D01*
X174865025Y-278586656D01*
X175651524Y-278587343D01*
X176160594Y-278377000D01*
X176750000Y-278377000D01*
X176796159Y-278368315D01*
X176838553Y-278341035D01*
X176866994Y-278299410D01*
X176877000Y-278250000D01*
X176877000Y-277789284D01*
X176935042Y-277731343D01*
X176949355Y-277696873D01*
X177015920Y-277905259D01*
X177571279Y-278106718D01*
X178161458Y-278080315D01*
X178584080Y-277905259D01*
X178664353Y-277653958D01*
X177800000Y-276789605D01*
X177785858Y-276803748D01*
X177606253Y-276624143D01*
X177620395Y-276610000D01*
X177979605Y-276610000D01*
X178843958Y-277474353D01*
X179095259Y-277394080D01*
X179296718Y-276838721D01*
X179270315Y-276248542D01*
X179095259Y-275825920D01*
X178843958Y-275745647D01*
X177979605Y-276610000D01*
X177620395Y-276610000D01*
X177606253Y-276595858D01*
X177785858Y-276416253D01*
X177800000Y-276430395D01*
X178664353Y-275566042D01*
X178584080Y-275314741D01*
X178028721Y-275113282D01*
X177438542Y-275139685D01*
X177015920Y-275314741D01*
X176949650Y-275522205D01*
X176936997Y-275491582D01*
X176887000Y-275441498D01*
X176887000Y-267838521D01*
X177033076Y-267971645D01*
X177443110Y-268141476D01*
X177673000Y-268020155D01*
X177673000Y-266827000D01*
X177927000Y-266827000D01*
X177927000Y-268020155D01*
X178156890Y-268141476D01*
X178566924Y-267971645D01*
X178995183Y-267581358D01*
X179241486Y-267056892D01*
X179120819Y-266827000D01*
X177927000Y-266827000D01*
X177673000Y-266827000D01*
X177653000Y-266827000D01*
X177653000Y-266573000D01*
X177673000Y-266573000D01*
X177673000Y-265379845D01*
X177927000Y-265379845D01*
X177927000Y-266573000D01*
X179120819Y-266573000D01*
X179241486Y-266343108D01*
X178995183Y-265818642D01*
X178566924Y-265428355D01*
X178156890Y-265258524D01*
X177927000Y-265379845D01*
X177673000Y-265379845D01*
X177443110Y-265258524D01*
X177033076Y-265428355D01*
X176887000Y-265561479D01*
X176887000Y-257678521D01*
X177033076Y-257811645D01*
X177443110Y-257981476D01*
X177673000Y-257860155D01*
X177673000Y-256667000D01*
X177927000Y-256667000D01*
X177927000Y-257860155D01*
X178156890Y-257981476D01*
X178566924Y-257811645D01*
X178995183Y-257421358D01*
X179241486Y-256896892D01*
X179120819Y-256667000D01*
X177927000Y-256667000D01*
X177673000Y-256667000D01*
X177653000Y-256667000D01*
X177653000Y-256413000D01*
X177673000Y-256413000D01*
X177673000Y-255219845D01*
X177927000Y-255219845D01*
X177927000Y-256413000D01*
X179120819Y-256413000D01*
X179241486Y-256183108D01*
X178995183Y-255658642D01*
X178566924Y-255268355D01*
X178156890Y-255098524D01*
X177927000Y-255219845D01*
X177673000Y-255219845D01*
X177443110Y-255098524D01*
X177033076Y-255268355D01*
X176887000Y-255401479D01*
X176887000Y-247518521D01*
X177033076Y-247651645D01*
X177443110Y-247821476D01*
X177673000Y-247700155D01*
X177673000Y-246507000D01*
X177927000Y-246507000D01*
X177927000Y-247700155D01*
X178156890Y-247821476D01*
X178566924Y-247651645D01*
X178995183Y-247261358D01*
X179241486Y-246736892D01*
X179120819Y-246507000D01*
X177927000Y-246507000D01*
X177673000Y-246507000D01*
X177653000Y-246507000D01*
X177653000Y-246253000D01*
X177673000Y-246253000D01*
X177673000Y-245059845D01*
X177927000Y-245059845D01*
X177927000Y-246253000D01*
X179120819Y-246253000D01*
X179241486Y-246023108D01*
X178995183Y-245498642D01*
X178566924Y-245108355D01*
X178156890Y-244938524D01*
X177927000Y-245059845D01*
X177673000Y-245059845D01*
X177443110Y-244938524D01*
X177033076Y-245108355D01*
X176887000Y-245241479D01*
X176887000Y-237358521D01*
X177033076Y-237491645D01*
X177443110Y-237661476D01*
X177673000Y-237540155D01*
X177673000Y-236347000D01*
X177927000Y-236347000D01*
X177927000Y-237540155D01*
X178156890Y-237661476D01*
X178566924Y-237491645D01*
X178995183Y-237101358D01*
X179241486Y-236576892D01*
X179120819Y-236347000D01*
X177927000Y-236347000D01*
X177673000Y-236347000D01*
X177653000Y-236347000D01*
X177653000Y-236093000D01*
X177673000Y-236093000D01*
X177673000Y-234899845D01*
X177927000Y-234899845D01*
X177927000Y-236093000D01*
X179120819Y-236093000D01*
X179241486Y-235863108D01*
X178995183Y-235338642D01*
X178566924Y-234948355D01*
X178156890Y-234778524D01*
X177927000Y-234899845D01*
X177673000Y-234899845D01*
X177443110Y-234778524D01*
X177033076Y-234948355D01*
X176887000Y-235081479D01*
X176887000Y-227198521D01*
X177033076Y-227331645D01*
X177443110Y-227501476D01*
X177673000Y-227380155D01*
X177673000Y-226187000D01*
X177927000Y-226187000D01*
X177927000Y-227380155D01*
X178156890Y-227501476D01*
X178566924Y-227331645D01*
X178995183Y-226941358D01*
X179241486Y-226416892D01*
X179120819Y-226187000D01*
X177927000Y-226187000D01*
X177673000Y-226187000D01*
X177653000Y-226187000D01*
X177653000Y-225933000D01*
X177673000Y-225933000D01*
X177673000Y-224739845D01*
X177927000Y-224739845D01*
X177927000Y-225933000D01*
X179120819Y-225933000D01*
X179241486Y-225703108D01*
X178995183Y-225178642D01*
X178566924Y-224788355D01*
X178156890Y-224618524D01*
X177927000Y-224739845D01*
X177673000Y-224739845D01*
X177443110Y-224618524D01*
X177033076Y-224788355D01*
X176887000Y-224921479D01*
X176887000Y-217038521D01*
X177033076Y-217171645D01*
X177443110Y-217341476D01*
X177673000Y-217220155D01*
X177673000Y-216027000D01*
X177927000Y-216027000D01*
X177927000Y-217220155D01*
X178156890Y-217341476D01*
X178566924Y-217171645D01*
X178995183Y-216781358D01*
X179241486Y-216256892D01*
X179120819Y-216027000D01*
X177927000Y-216027000D01*
X177673000Y-216027000D01*
X177653000Y-216027000D01*
X177653000Y-215773000D01*
X177673000Y-215773000D01*
X177673000Y-214579845D01*
X177927000Y-214579845D01*
X177927000Y-215773000D01*
X179120819Y-215773000D01*
X179241486Y-215543108D01*
X178995183Y-215018642D01*
X178566924Y-214628355D01*
X178156890Y-214458524D01*
X177927000Y-214579845D01*
X177673000Y-214579845D01*
X177443110Y-214458524D01*
X177033076Y-214628355D01*
X176887000Y-214761479D01*
X176887000Y-206878521D01*
X177033076Y-207011645D01*
X177443110Y-207181476D01*
X177673000Y-207060155D01*
X177673000Y-205867000D01*
X177927000Y-205867000D01*
X177927000Y-207060155D01*
X178156890Y-207181476D01*
X178566924Y-207011645D01*
X178995183Y-206621358D01*
X179241486Y-206096892D01*
X179120819Y-205867000D01*
X177927000Y-205867000D01*
X177673000Y-205867000D01*
X177653000Y-205867000D01*
X177653000Y-205613000D01*
X177673000Y-205613000D01*
X177673000Y-204419845D01*
X177927000Y-204419845D01*
X177927000Y-205613000D01*
X179120819Y-205613000D01*
X179241486Y-205383108D01*
X178995183Y-204858642D01*
X178566924Y-204468355D01*
X178156890Y-204298524D01*
X177927000Y-204419845D01*
X177673000Y-204419845D01*
X177443110Y-204298524D01*
X177033076Y-204468355D01*
X176887000Y-204601479D01*
X176887000Y-196718521D01*
X177033076Y-196851645D01*
X177443110Y-197021476D01*
X177673000Y-196900155D01*
X177673000Y-195707000D01*
X177927000Y-195707000D01*
X177927000Y-196900155D01*
X178156890Y-197021476D01*
X178566924Y-196851645D01*
X178995183Y-196461358D01*
X179241486Y-195936892D01*
X179120819Y-195707000D01*
X177927000Y-195707000D01*
X177673000Y-195707000D01*
X177653000Y-195707000D01*
X177653000Y-195453000D01*
X177673000Y-195453000D01*
X177673000Y-194259845D01*
X177927000Y-194259845D01*
X177927000Y-195453000D01*
X179120819Y-195453000D01*
X179241486Y-195223108D01*
X178995183Y-194698642D01*
X178566924Y-194308355D01*
X178156890Y-194138524D01*
X177927000Y-194259845D01*
X177673000Y-194259845D01*
X177443110Y-194138524D01*
X177033076Y-194308355D01*
X176887000Y-194441479D01*
X176887000Y-186558521D01*
X177033076Y-186691645D01*
X177443110Y-186861476D01*
X177673000Y-186740155D01*
X177673000Y-185547000D01*
X177927000Y-185547000D01*
X177927000Y-186740155D01*
X178156890Y-186861476D01*
X178566924Y-186691645D01*
X178995183Y-186301358D01*
X179241486Y-185776892D01*
X179120819Y-185547000D01*
X177927000Y-185547000D01*
X177673000Y-185547000D01*
X177653000Y-185547000D01*
X177653000Y-185293000D01*
X177673000Y-185293000D01*
X177673000Y-184099845D01*
X177927000Y-184099845D01*
X177927000Y-185293000D01*
X179120819Y-185293000D01*
X179241486Y-185063108D01*
X178995183Y-184538642D01*
X178566924Y-184148355D01*
X178156890Y-183978524D01*
X177927000Y-184099845D01*
X177673000Y-184099845D01*
X177443110Y-183978524D01*
X177033076Y-184148355D01*
X176887000Y-184281479D01*
X176887000Y-176398521D01*
X177033076Y-176531645D01*
X177443110Y-176701476D01*
X177673000Y-176580155D01*
X177673000Y-175387000D01*
X177927000Y-175387000D01*
X177927000Y-176580155D01*
X178156890Y-176701476D01*
X178566924Y-176531645D01*
X178995183Y-176141358D01*
X179241486Y-175616892D01*
X179120819Y-175387000D01*
X177927000Y-175387000D01*
X177673000Y-175387000D01*
X177653000Y-175387000D01*
X177653000Y-175133000D01*
X177673000Y-175133000D01*
X177673000Y-173939845D01*
X177927000Y-173939845D01*
X177927000Y-175133000D01*
X179120819Y-175133000D01*
X179241486Y-174903108D01*
X178995183Y-174378642D01*
X178566924Y-173988355D01*
X178156890Y-173818524D01*
X177927000Y-173939845D01*
X177673000Y-173939845D01*
X177443110Y-173818524D01*
X177033076Y-173988355D01*
X176887000Y-174121479D01*
X176887000Y-166238521D01*
X177033076Y-166371645D01*
X177443110Y-166541476D01*
X177673000Y-166420155D01*
X177673000Y-165227000D01*
X177927000Y-165227000D01*
X177927000Y-166420155D01*
X178156890Y-166541476D01*
X178566924Y-166371645D01*
X178995183Y-165981358D01*
X179241486Y-165456892D01*
X179120819Y-165227000D01*
X177927000Y-165227000D01*
X177673000Y-165227000D01*
X177653000Y-165227000D01*
X177653000Y-164973000D01*
X177673000Y-164973000D01*
X177673000Y-163779845D01*
X177927000Y-163779845D01*
X177927000Y-164973000D01*
X179120819Y-164973000D01*
X179241486Y-164743108D01*
X178995183Y-164218642D01*
X178566924Y-163828355D01*
X178156890Y-163658524D01*
X177927000Y-163779845D01*
X177673000Y-163779845D01*
X177443110Y-163658524D01*
X177033076Y-163828355D01*
X176887000Y-163961479D01*
X176887000Y-156078521D01*
X177033076Y-156211645D01*
X177443110Y-156381476D01*
X177673000Y-156260155D01*
X177673000Y-155067000D01*
X177927000Y-155067000D01*
X177927000Y-156260155D01*
X178156890Y-156381476D01*
X178566924Y-156211645D01*
X178995183Y-155821358D01*
X179241486Y-155296892D01*
X179120819Y-155067000D01*
X177927000Y-155067000D01*
X177673000Y-155067000D01*
X177653000Y-155067000D01*
X177653000Y-154813000D01*
X177673000Y-154813000D01*
X177673000Y-153619845D01*
X177927000Y-153619845D01*
X177927000Y-154813000D01*
X179120819Y-154813000D01*
X179241486Y-154583108D01*
X178995183Y-154058642D01*
X178566924Y-153668355D01*
X178156890Y-153498524D01*
X177927000Y-153619845D01*
X177673000Y-153619845D01*
X177443110Y-153498524D01*
X177033076Y-153668355D01*
X176887000Y-153801479D01*
X176887000Y-145918521D01*
X177033076Y-146051645D01*
X177443110Y-146221476D01*
X177673000Y-146100155D01*
X177673000Y-144907000D01*
X177927000Y-144907000D01*
X177927000Y-146100155D01*
X178156890Y-146221476D01*
X178566924Y-146051645D01*
X178995183Y-145661358D01*
X179241486Y-145136892D01*
X179120819Y-144907000D01*
X177927000Y-144907000D01*
X177673000Y-144907000D01*
X177653000Y-144907000D01*
X177653000Y-144653000D01*
X177673000Y-144653000D01*
X177673000Y-143459845D01*
X177927000Y-143459845D01*
X177927000Y-144653000D01*
X179120819Y-144653000D01*
X179241486Y-144423108D01*
X178995183Y-143898642D01*
X178566924Y-143508355D01*
X178156890Y-143338524D01*
X177927000Y-143459845D01*
X177673000Y-143459845D01*
X177443110Y-143338524D01*
X177033076Y-143508355D01*
X176887000Y-143641479D01*
X176887000Y-135758521D01*
X177033076Y-135891645D01*
X177443110Y-136061476D01*
X177673000Y-135940155D01*
X177673000Y-134747000D01*
X177927000Y-134747000D01*
X177927000Y-135940155D01*
X178156890Y-136061476D01*
X178566924Y-135891645D01*
X178995183Y-135501358D01*
X179241486Y-134976892D01*
X179120819Y-134747000D01*
X177927000Y-134747000D01*
X177673000Y-134747000D01*
X177653000Y-134747000D01*
X177653000Y-134493000D01*
X177673000Y-134493000D01*
X177673000Y-133299845D01*
X177927000Y-133299845D01*
X177927000Y-134493000D01*
X179120819Y-134493000D01*
X179241486Y-134263108D01*
X178995183Y-133738642D01*
X178566924Y-133348355D01*
X178156890Y-133178524D01*
X177927000Y-133299845D01*
X177673000Y-133299845D01*
X177443110Y-133178524D01*
X177033076Y-133348355D01*
X176887000Y-133481479D01*
X176887000Y-125598521D01*
X177033076Y-125731645D01*
X177443110Y-125901476D01*
X177673000Y-125780155D01*
X177673000Y-124587000D01*
X177927000Y-124587000D01*
X177927000Y-125780155D01*
X178156890Y-125901476D01*
X178566924Y-125731645D01*
X178995183Y-125341358D01*
X179241486Y-124816892D01*
X179120819Y-124587000D01*
X177927000Y-124587000D01*
X177673000Y-124587000D01*
X177653000Y-124587000D01*
X177653000Y-124333000D01*
X177673000Y-124333000D01*
X177673000Y-123139845D01*
X177927000Y-123139845D01*
X177927000Y-124333000D01*
X179120819Y-124333000D01*
X179241486Y-124103108D01*
X178995183Y-123578642D01*
X178566924Y-123188355D01*
X178156890Y-123018524D01*
X177927000Y-123139845D01*
X177673000Y-123139845D01*
X177443110Y-123018524D01*
X177033076Y-123188355D01*
X176887000Y-123321479D01*
X176887000Y-115438521D01*
X177033076Y-115571645D01*
X177443110Y-115741476D01*
X177673000Y-115620155D01*
X177673000Y-114427000D01*
X177927000Y-114427000D01*
X177927000Y-115620155D01*
X178156890Y-115741476D01*
X178566924Y-115571645D01*
X178995183Y-115181358D01*
X179241486Y-114656892D01*
X179120819Y-114427000D01*
X177927000Y-114427000D01*
X177673000Y-114427000D01*
X177653000Y-114427000D01*
X177653000Y-114173000D01*
X177673000Y-114173000D01*
X177673000Y-112979845D01*
X177927000Y-112979845D01*
X177927000Y-114173000D01*
X179120819Y-114173000D01*
X179241486Y-113943108D01*
X178995183Y-113418642D01*
X178566924Y-113028355D01*
X178156890Y-112858524D01*
X177927000Y-112979845D01*
X177673000Y-112979845D01*
X177443110Y-112858524D01*
X177033076Y-113028355D01*
X176887000Y-113161479D01*
X176887000Y-77559272D01*
X177048131Y-77398422D01*
X177372630Y-76616943D01*
X177373368Y-75770770D01*
X177050234Y-74988726D01*
X176887000Y-74825207D01*
X176887000Y-48266005D01*
X176887001Y-48266000D01*
X176763152Y-47643374D01*
X176637236Y-47454927D01*
X176410463Y-47115537D01*
X176410460Y-47115535D01*
X172586463Y-43291537D01*
X172058626Y-42938848D01*
X171436000Y-42815000D01*
X151789925Y-42815000D01*
X151449526Y-42474600D01*
X153587100Y-42474600D01*
X153633259Y-42465915D01*
X153675653Y-42438635D01*
X153704094Y-42397010D01*
X153714100Y-42347600D01*
X153714100Y-41125656D01*
X154111092Y-40531516D01*
X154273000Y-39717548D01*
X154273000Y-39022452D01*
X154111092Y-38208484D01*
X153714100Y-37614344D01*
X153714100Y-36347600D01*
X153705415Y-36301441D01*
X153678135Y-36259047D01*
X153636510Y-36230606D01*
X153587100Y-36220600D01*
X145587100Y-36220600D01*
X145540941Y-36229285D01*
X145498547Y-36256565D01*
X145470106Y-36298190D01*
X145460100Y-36347600D01*
X145460100Y-37120647D01*
X145264781Y-37246331D01*
X145007452Y-37622944D01*
X144916921Y-38070000D01*
X144916921Y-40670000D01*
X144995506Y-41087641D01*
X145242331Y-41471219D01*
X145460100Y-41620014D01*
X145460100Y-42347600D01*
X145468785Y-42393759D01*
X145496065Y-42436153D01*
X145537690Y-42464594D01*
X145587100Y-42474600D01*
X147979000Y-42474600D01*
X147979000Y-42932000D01*
X148102848Y-43554626D01*
X148455537Y-44082463D01*
X149965535Y-45592460D01*
X149965537Y-45592463D01*
X150493374Y-45945152D01*
X151116000Y-46069000D01*
X170762074Y-46069000D01*
X173633000Y-48939925D01*
X173633000Y-74796777D01*
X173443869Y-74985578D01*
X173119370Y-75767057D01*
X173118632Y-76613230D01*
X173118680Y-76613347D01*
X172298770Y-76612632D01*
X171516726Y-76935766D01*
X170917869Y-77533578D01*
X170593370Y-78315057D01*
X170592639Y-79153359D01*
X169758770Y-79152632D01*
X168976726Y-79475766D01*
X168377869Y-80073578D01*
X168053370Y-80855057D01*
X168052639Y-81693359D01*
X167218770Y-81692632D01*
X166436726Y-82015766D01*
X165837869Y-82613578D01*
X165513370Y-83395057D01*
X165512639Y-84233359D01*
X164678770Y-84232632D01*
X163896726Y-84555766D01*
X163297869Y-85153578D01*
X162973370Y-85935057D01*
X162972639Y-86773359D01*
X162138770Y-86772632D01*
X161356726Y-87095766D01*
X160757869Y-87693578D01*
X160433370Y-88475057D01*
X160432639Y-89313359D01*
X159598770Y-89312632D01*
X158816726Y-89635766D01*
X158217869Y-90233578D01*
X157893370Y-91015057D01*
X157892639Y-91853359D01*
X157058770Y-91852632D01*
X156276726Y-92175766D01*
X155677869Y-92773578D01*
X155353370Y-93555057D01*
X155352639Y-94393359D01*
X154518770Y-94392632D01*
X153736726Y-94715766D01*
X153137869Y-95313578D01*
X152813370Y-96095057D01*
X152812639Y-96933359D01*
X151978770Y-96932632D01*
X151196726Y-97255766D01*
X150597869Y-97853578D01*
X150273370Y-98635057D01*
X150272639Y-99473359D01*
X149438770Y-99472632D01*
X148656726Y-99795766D01*
X148057869Y-100393578D01*
X147733370Y-101175057D01*
X147732639Y-102013359D01*
X146898770Y-102012632D01*
X146116726Y-102335766D01*
X145517869Y-102933578D01*
X145193370Y-103715057D01*
X145192639Y-104553359D01*
X144358770Y-104552632D01*
X143576726Y-104875766D01*
X142977869Y-105473578D01*
X142653370Y-106255057D01*
X142652639Y-107093359D01*
X141818770Y-107092632D01*
X141036726Y-107415766D01*
X140437869Y-108013578D01*
X140113370Y-108795057D01*
X140112632Y-109641230D01*
X95607000Y-109641230D01*
X95607000Y-77573247D01*
X95782131Y-77398422D01*
X96106630Y-76616943D01*
X96107368Y-75770770D01*
X95784234Y-74988726D01*
X95186422Y-74389869D01*
X94404943Y-74065370D01*
X93558770Y-74064632D01*
X92776726Y-74387766D01*
X92177869Y-74985578D01*
X92134300Y-75090504D01*
X92134300Y-70695545D01*
X95336261Y-70695545D01*
X95410395Y-70941664D01*
X95947623Y-71134765D01*
X96517854Y-71107578D01*
X96918405Y-70941664D01*
X96992539Y-70695545D01*
X96164400Y-69867405D01*
X95336261Y-70695545D01*
X92134300Y-70695545D01*
X92134300Y-66312179D01*
X94215321Y-68393200D01*
X94215321Y-68487800D01*
X94293906Y-68905441D01*
X94540731Y-69289019D01*
X94735115Y-69421836D01*
X94717435Y-69471023D01*
X94744622Y-70041254D01*
X94910536Y-70441805D01*
X95156655Y-70515939D01*
X95984795Y-69687800D01*
X95970653Y-69673658D01*
X96007431Y-69636879D01*
X96321369Y-69636879D01*
X96358148Y-69673658D01*
X96344005Y-69687800D01*
X97172145Y-70515939D01*
X97418264Y-70441805D01*
X97611365Y-69904577D01*
X97588521Y-69425428D01*
X97765619Y-69311469D01*
X98022948Y-68934856D01*
X98113479Y-68487800D01*
X98113479Y-66887800D01*
X98034894Y-66470159D01*
X97788069Y-66086581D01*
X97411456Y-65829252D01*
X96964400Y-65738721D01*
X96869800Y-65738721D01*
X92134300Y-61003222D01*
X92134300Y-60496879D01*
X96694400Y-60496879D01*
X97112041Y-60418294D01*
X97495619Y-60171469D01*
X97752948Y-59794856D01*
X97843479Y-59347800D01*
X97843479Y-57506892D01*
X116414514Y-57506892D01*
X116660817Y-58031358D01*
X117089076Y-58421645D01*
X117499110Y-58591476D01*
X117729000Y-58470155D01*
X117729000Y-57277000D01*
X116535181Y-57277000D01*
X116414514Y-57506892D01*
X97843479Y-57506892D01*
X97843479Y-56793108D01*
X116414514Y-56793108D01*
X116535181Y-57023000D01*
X117729000Y-57023000D01*
X117729000Y-55829845D01*
X117983000Y-55829845D01*
X117983000Y-57023000D01*
X118003000Y-57023000D01*
X118003000Y-57277000D01*
X117983000Y-57277000D01*
X117983000Y-58470155D01*
X118212890Y-58591476D01*
X118622924Y-58421645D01*
X118769000Y-58288521D01*
X118769000Y-69312747D01*
X118744781Y-69328331D01*
X118487452Y-69704944D01*
X118396921Y-70152000D01*
X118396921Y-72152000D01*
X118475506Y-72569641D01*
X118722331Y-72953219D01*
X119015949Y-73153840D01*
X118744781Y-73328331D01*
X118487452Y-73704944D01*
X118396921Y-74152000D01*
X118396921Y-76152000D01*
X118475506Y-76569641D01*
X118722331Y-76953219D01*
X118769000Y-76985107D01*
X118769000Y-77358753D01*
X118593869Y-77533578D01*
X118269370Y-78315057D01*
X118268632Y-79161230D01*
X118591766Y-79943274D01*
X119189578Y-80542131D01*
X119971057Y-80866630D01*
X120809359Y-80867361D01*
X120808632Y-81701230D01*
X121131766Y-82483274D01*
X121729578Y-83082131D01*
X122511057Y-83406630D01*
X123357230Y-83407368D01*
X124139274Y-83084234D01*
X124738131Y-82486422D01*
X125062630Y-81704943D01*
X125063368Y-80858770D01*
X124740234Y-80076726D01*
X124563000Y-79899182D01*
X124563000Y-76991253D01*
X124587219Y-76975669D01*
X124844548Y-76599056D01*
X124852660Y-76559000D01*
X126093504Y-76559000D01*
X126095506Y-76569641D01*
X126342331Y-76953219D01*
X126389000Y-76985107D01*
X126389000Y-84978753D01*
X126213869Y-85153578D01*
X125889370Y-85935057D01*
X125888632Y-86781230D01*
X126211766Y-87563274D01*
X126809578Y-88162131D01*
X127591057Y-88486630D01*
X128429359Y-88487361D01*
X128428632Y-89321230D01*
X128751766Y-90103274D01*
X129349578Y-90702131D01*
X130131057Y-91026630D01*
X130969359Y-91027361D01*
X130968632Y-91861230D01*
X131291766Y-92643274D01*
X131889578Y-93242131D01*
X132671057Y-93566630D01*
X133509359Y-93567361D01*
X133508632Y-94401230D01*
X133831766Y-95183274D01*
X134429578Y-95782131D01*
X135211057Y-96106630D01*
X136049359Y-96107361D01*
X136048632Y-96941230D01*
X136371766Y-97723274D01*
X136969578Y-98322131D01*
X137751057Y-98646630D01*
X138589359Y-98647361D01*
X138588632Y-99481230D01*
X138911766Y-100263274D01*
X139509578Y-100862131D01*
X140291057Y-101186630D01*
X141129359Y-101187361D01*
X141128632Y-102021230D01*
X141451766Y-102803274D01*
X142049578Y-103402131D01*
X142831057Y-103726630D01*
X143677230Y-103727368D01*
X144459274Y-103404234D01*
X145058131Y-102806422D01*
X145382630Y-102024943D01*
X145383368Y-101178770D01*
X145060234Y-100396726D01*
X144883000Y-100219182D01*
X144883000Y-76991253D01*
X144907219Y-76975669D01*
X145164548Y-76599056D01*
X145255079Y-76152000D01*
X145255079Y-74152000D01*
X145176494Y-73734359D01*
X144929669Y-73350781D01*
X144636051Y-73150160D01*
X144907219Y-72975669D01*
X145164548Y-72599056D01*
X145255079Y-72152000D01*
X145255079Y-70152000D01*
X145176494Y-69734359D01*
X144929669Y-69350781D01*
X144883000Y-69318893D01*
X144883000Y-59136321D01*
X144946000Y-59149079D01*
X146646000Y-59149079D01*
X147063641Y-59070494D01*
X147447219Y-58823669D01*
X147704548Y-58447056D01*
X147795079Y-58000000D01*
X147795079Y-56300000D01*
X147716494Y-55882359D01*
X147469669Y-55498781D01*
X147093056Y-55241452D01*
X146646000Y-55150921D01*
X144946000Y-55150921D01*
X144528359Y-55229506D01*
X144223482Y-55425688D01*
X144012565Y-55284758D01*
X143256000Y-55134268D01*
X142499435Y-55284758D01*
X142343000Y-55389285D01*
X142343000Y-50829253D01*
X142367219Y-50813669D01*
X142624548Y-50437056D01*
X142715079Y-49990000D01*
X142715079Y-48230000D01*
X144916921Y-48230000D01*
X144916921Y-50830000D01*
X144995506Y-51247641D01*
X145242331Y-51631219D01*
X145491200Y-51801264D01*
X145491200Y-52590700D01*
X145499885Y-52636859D01*
X145527165Y-52679253D01*
X145568790Y-52707694D01*
X145618200Y-52717700D01*
X147979000Y-52717700D01*
X147979000Y-82438753D01*
X147803869Y-82613578D01*
X147479370Y-83395057D01*
X147478632Y-84241230D01*
X147801766Y-85023274D01*
X148399578Y-85622131D01*
X149181057Y-85946630D01*
X150027230Y-85947368D01*
X150809274Y-85624234D01*
X151408131Y-85026422D01*
X151732630Y-84244943D01*
X151733368Y-83398770D01*
X151410234Y-82616726D01*
X151233000Y-82439182D01*
X151233000Y-51197506D01*
X151250258Y-51171677D01*
X151637645Y-51389144D01*
X151765566Y-51420124D01*
X152019000Y-51300777D01*
X152019000Y-49657000D01*
X152273000Y-49657000D01*
X152273000Y-51300777D01*
X152526434Y-51420124D01*
X152654355Y-51389144D01*
X153212317Y-51075922D01*
X153607942Y-50573020D01*
X153781000Y-49957000D01*
X153781000Y-49657000D01*
X152273000Y-49657000D01*
X152019000Y-49657000D01*
X151999000Y-49657000D01*
X151999000Y-49403000D01*
X152019000Y-49403000D01*
X152019000Y-47759223D01*
X152273000Y-47759223D01*
X152273000Y-49403000D01*
X153781000Y-49403000D01*
X153781000Y-49103000D01*
X153607942Y-48486980D01*
X153212317Y-47984078D01*
X152654355Y-47670856D01*
X152526434Y-47639876D01*
X152273000Y-47759223D01*
X152019000Y-47759223D01*
X151765566Y-47639876D01*
X151637645Y-47670856D01*
X151250258Y-47888323D01*
X151110016Y-47678436D01*
X150977600Y-47589958D01*
X150977600Y-46431200D01*
X150968915Y-46385041D01*
X150941635Y-46342647D01*
X150900010Y-46314206D01*
X150850600Y-46304200D01*
X145618200Y-46304200D01*
X145572041Y-46312885D01*
X145529647Y-46340165D01*
X145501206Y-46381790D01*
X145491200Y-46431200D01*
X145491200Y-47260635D01*
X145264781Y-47406331D01*
X145007452Y-47782944D01*
X144916921Y-48230000D01*
X142715079Y-48230000D01*
X142715079Y-47990000D01*
X142636494Y-47572359D01*
X142389669Y-47188781D01*
X142096051Y-46988160D01*
X142367219Y-46813669D01*
X142624548Y-46437056D01*
X142715079Y-45990000D01*
X142715079Y-43990000D01*
X142636494Y-43572359D01*
X142389669Y-43188781D01*
X142343000Y-43156893D01*
X142343000Y-35135895D01*
X142542682Y-34655007D01*
X142543316Y-33928182D01*
X142265758Y-33256440D01*
X141752264Y-32742048D01*
X141081007Y-32463318D01*
X140354182Y-32462684D01*
X139682440Y-32740242D01*
X139446038Y-32976231D01*
X139212264Y-32742048D01*
X138541007Y-32463318D01*
X137814182Y-32462684D01*
X137142440Y-32740242D01*
X136906038Y-32976231D01*
X136672264Y-32742048D01*
X136001007Y-32463318D01*
X135274182Y-32462684D01*
X134602440Y-32740242D01*
X134366038Y-32976231D01*
X134132264Y-32742048D01*
X133461007Y-32463318D01*
X132734182Y-32462684D01*
X132062440Y-32740242D01*
X131826038Y-32976231D01*
X131592264Y-32742048D01*
X130921007Y-32463318D01*
X130194182Y-32462684D01*
X129522440Y-32740242D01*
X129286038Y-32976231D01*
X129052264Y-32742048D01*
X128381007Y-32463318D01*
X127654182Y-32462684D01*
X126982440Y-32740242D01*
X126746038Y-32976231D01*
X126512264Y-32742048D01*
X125841007Y-32463318D01*
X125114182Y-32462684D01*
X124442440Y-32740242D01*
X123928048Y-33253736D01*
X123649318Y-33924993D01*
X123648684Y-34651818D01*
X123849000Y-35136620D01*
X123849000Y-55389285D01*
X123692565Y-55284758D01*
X122936000Y-55134268D01*
X122179435Y-55284758D01*
X121666000Y-55627824D01*
X121152565Y-55284758D01*
X120396000Y-55134268D01*
X119639435Y-55284758D01*
X118998050Y-55713318D01*
X118787537Y-56028373D01*
X118622924Y-55878355D01*
X118212890Y-55708524D01*
X117983000Y-55829845D01*
X117729000Y-55829845D01*
X117499110Y-55708524D01*
X117089076Y-55878355D01*
X116660817Y-56268642D01*
X116414514Y-56793108D01*
X97843479Y-56793108D01*
X97843479Y-45147800D01*
X97764894Y-44730159D01*
X97518069Y-44346581D01*
X97141456Y-44089252D01*
X96694400Y-43998721D01*
X95123000Y-43998721D01*
X95123000Y-43688000D01*
X95114315Y-43641841D01*
X95087035Y-43599447D01*
X95045410Y-43571006D01*
X94996000Y-43561000D01*
X90521400Y-43561000D01*
X90521400Y-39691879D01*
X91984400Y-39691879D01*
X92402041Y-39613294D01*
X92785619Y-39366469D01*
X93042948Y-38989856D01*
X93133479Y-38542800D01*
X93133479Y-36742800D01*
X93054894Y-36325159D01*
X92808069Y-35941581D01*
X92431456Y-35684252D01*
X91984400Y-35593721D01*
X90184400Y-35593721D01*
X89766759Y-35672306D01*
X89484899Y-35853678D01*
X89359810Y-35770096D01*
X88584111Y-35615800D01*
X88504689Y-35615800D01*
X87728990Y-35770096D01*
X87473215Y-35941000D01*
X87075585Y-35941000D01*
X86819810Y-35770096D01*
X86044111Y-35615800D01*
X85964689Y-35615800D01*
X85188990Y-35770096D01*
X84933215Y-35941000D01*
X84582000Y-35941000D01*
X84535841Y-35949685D01*
X84493447Y-35976965D01*
X84465006Y-36018590D01*
X84455000Y-36068000D01*
X84455000Y-36323812D01*
X84091985Y-36867101D01*
X83937689Y-37642800D01*
X84091985Y-38418499D01*
X84455000Y-38961788D01*
X84455000Y-39116000D01*
X84463685Y-39162159D01*
X84490965Y-39204553D01*
X84532590Y-39232994D01*
X84582000Y-39243000D01*
X84781160Y-39243000D01*
X85188990Y-39515504D01*
X85964689Y-39669800D01*
X86044111Y-39669800D01*
X86567400Y-39565711D01*
X86567400Y-43561000D01*
X81788000Y-43561000D01*
X81741841Y-43569685D01*
X81699447Y-43596965D01*
X81671006Y-43638590D01*
X81661000Y-43688000D01*
X81661000Y-43998721D01*
X80394400Y-43998721D01*
X79976759Y-44077306D01*
X79593181Y-44324131D01*
X79335852Y-44700744D01*
X79245321Y-45147800D01*
X79245321Y-59347800D01*
X79323906Y-59765441D01*
X79570731Y-60149019D01*
X79947344Y-60406348D01*
X80394400Y-60496879D01*
X84878300Y-60496879D01*
X84878300Y-65943252D01*
X84711456Y-65829252D01*
X84264400Y-65738721D01*
X82664400Y-65738721D01*
X82246759Y-65817306D01*
X81863181Y-66064131D01*
X81605852Y-66440744D01*
X81515321Y-66887800D01*
X81515321Y-68487800D01*
X81593906Y-68905441D01*
X81840731Y-69289019D01*
X82035115Y-69421836D01*
X82017435Y-69471023D01*
X82044622Y-70041254D01*
X82210536Y-70441805D01*
X82456655Y-70515939D01*
X83284795Y-69687800D01*
X83270653Y-69673658D01*
X83307431Y-69636879D01*
X83621369Y-69636879D01*
X83658148Y-69673658D01*
X83644005Y-69687800D01*
X84472145Y-70515939D01*
X84718264Y-70441805D01*
X84878300Y-69996567D01*
X84878300Y-77629000D01*
X65477000Y-97030300D01*
X65477000Y-75877145D01*
X70723661Y-75877145D01*
X70797795Y-76123264D01*
X71335023Y-76316365D01*
X71905254Y-76289178D01*
X72305805Y-76123264D01*
X72379939Y-75877145D01*
X71551800Y-75049005D01*
X70723661Y-75877145D01*
X65477000Y-75877145D01*
X65477000Y-72706000D01*
X66409250Y-71773750D01*
X66837810Y-71132365D01*
X66891312Y-70863391D01*
X69602721Y-73574800D01*
X69602721Y-73669400D01*
X69681306Y-74087041D01*
X69928131Y-74470619D01*
X70122515Y-74603436D01*
X70104835Y-74652623D01*
X70132022Y-75222854D01*
X70297936Y-75623405D01*
X70544055Y-75697539D01*
X71372195Y-74869400D01*
X71358053Y-74855258D01*
X71394831Y-74818479D01*
X71708769Y-74818479D01*
X71745548Y-74855258D01*
X71731405Y-74869400D01*
X72559545Y-75697539D01*
X72805664Y-75623405D01*
X72998765Y-75086177D01*
X72975921Y-74607028D01*
X73153019Y-74493069D01*
X73410348Y-74116456D01*
X73500879Y-73669400D01*
X73500879Y-72069400D01*
X73422294Y-71651759D01*
X73175469Y-71268181D01*
X72798856Y-71010852D01*
X72351800Y-70920321D01*
X72257200Y-70920321D01*
X72032424Y-70695545D01*
X82636261Y-70695545D01*
X82710395Y-70941664D01*
X83247623Y-71134765D01*
X83817854Y-71107578D01*
X84218405Y-70941664D01*
X84292539Y-70695545D01*
X83464400Y-69867405D01*
X82636261Y-70695545D01*
X72032424Y-70695545D01*
X67015357Y-65678479D01*
X72081800Y-65678479D01*
X72499441Y-65599894D01*
X72883019Y-65353069D01*
X73140348Y-64976456D01*
X73230879Y-64529400D01*
X73230879Y-50329400D01*
X73152294Y-49911759D01*
X72905469Y-49528181D01*
X72528856Y-49270852D01*
X72081800Y-49180321D01*
X70485000Y-49180321D01*
X70485000Y-48768000D01*
X70476315Y-48721841D01*
X70449035Y-48679447D01*
X70407410Y-48651006D01*
X70358000Y-48641000D01*
X65908800Y-48641000D01*
X65908800Y-44873479D01*
X67371800Y-44873479D01*
X67789441Y-44794894D01*
X68173019Y-44548069D01*
X68430348Y-44171456D01*
X68520879Y-43724400D01*
X68520879Y-41924400D01*
X68442294Y-41506759D01*
X68195469Y-41123181D01*
X67818856Y-40865852D01*
X67371800Y-40775321D01*
X65571800Y-40775321D01*
X65154159Y-40853906D01*
X64872299Y-41035278D01*
X64747210Y-40951696D01*
X63971511Y-40797400D01*
X63892089Y-40797400D01*
X63116390Y-40951696D01*
X62661800Y-41255444D01*
X62207210Y-40951696D01*
X61431511Y-40797400D01*
X61352089Y-40797400D01*
X60576390Y-40951696D01*
X60092532Y-41275000D01*
X59944000Y-41275000D01*
X59897841Y-41283685D01*
X59855447Y-41310965D01*
X59827006Y-41352590D01*
X59817000Y-41402000D01*
X59817000Y-41543425D01*
X59479385Y-42048701D01*
X59325089Y-42824400D01*
X59479385Y-43600099D01*
X59817000Y-44105375D01*
X59817000Y-44450000D01*
X59825685Y-44496159D01*
X59852965Y-44538553D01*
X59894590Y-44566994D01*
X59944000Y-44577000D01*
X60396642Y-44577000D01*
X60576390Y-44697104D01*
X61352089Y-44851400D01*
X61431511Y-44851400D01*
X61954800Y-44747311D01*
X61954800Y-48641000D01*
X57150000Y-48641000D01*
X57103841Y-48649685D01*
X57061447Y-48676965D01*
X57033006Y-48718590D01*
X57023000Y-48768000D01*
X57023000Y-49180321D01*
X55781800Y-49180321D01*
X55364159Y-49258906D01*
X54980581Y-49505731D01*
X54723252Y-49882344D01*
X54632721Y-50329400D01*
X54632721Y-64529400D01*
X54711306Y-64947041D01*
X54958131Y-65330619D01*
X55334744Y-65587948D01*
X55781800Y-65678479D01*
X59986300Y-65678479D01*
X59986300Y-70350400D01*
X60120631Y-71025731D01*
X60098856Y-71010852D01*
X59651800Y-70920321D01*
X58051800Y-70920321D01*
X57634159Y-70998906D01*
X57250581Y-71245731D01*
X56993252Y-71622344D01*
X56902721Y-72069400D01*
X56902721Y-73669400D01*
X56981306Y-74087041D01*
X57228131Y-74470619D01*
X57422515Y-74603436D01*
X57404835Y-74652623D01*
X57432022Y-75222854D01*
X57597936Y-75623405D01*
X57844055Y-75697539D01*
X58672195Y-74869400D01*
X58658053Y-74855258D01*
X58694831Y-74818479D01*
X59008769Y-74818479D01*
X59045548Y-74855258D01*
X59031405Y-74869400D01*
X59859545Y-75697539D01*
X60105664Y-75623405D01*
X60298765Y-75086177D01*
X60275921Y-74607028D01*
X60453019Y-74493069D01*
X60710348Y-74116456D01*
X60800879Y-73669400D01*
X60800879Y-72069400D01*
X60781057Y-71964057D01*
X61523000Y-72706000D01*
X61523000Y-95905100D01*
X53526300Y-87908400D01*
X53526300Y-86352400D01*
X53375810Y-85595835D01*
X52947250Y-84954450D01*
X47653079Y-79660279D01*
X47653079Y-75877145D01*
X58023661Y-75877145D01*
X58097795Y-76123264D01*
X58635023Y-76316365D01*
X59205254Y-76289178D01*
X59605805Y-76123264D01*
X59679939Y-75877145D01*
X58851800Y-75049005D01*
X58023661Y-75877145D01*
X47653079Y-75877145D01*
X47653079Y-70751000D01*
X47574494Y-70333359D01*
X47327669Y-69949781D01*
X46951056Y-69692452D01*
X46504000Y-69601921D01*
X45085000Y-69601921D01*
X45085000Y-69342000D01*
X45076315Y-69295841D01*
X45049035Y-69253447D01*
X45007410Y-69225006D01*
X44958000Y-69215000D01*
X40331000Y-69215000D01*
X40331000Y-65295079D01*
X41794000Y-65295079D01*
X42211641Y-65216494D01*
X42595219Y-64969669D01*
X42852548Y-64593056D01*
X42943079Y-64146000D01*
X42943079Y-62346000D01*
X42864494Y-61928359D01*
X42617669Y-61544781D01*
X42241056Y-61287452D01*
X41794000Y-61196921D01*
X40331000Y-61196921D01*
X40331000Y-56896000D01*
X40180510Y-56139435D01*
X39981000Y-55840847D01*
X39981000Y-55473605D01*
X39981001Y-55473600D01*
X39857152Y-54850974D01*
X39798047Y-54762517D01*
X39504463Y-54323137D01*
X39504460Y-54323135D01*
X37878863Y-52697537D01*
X37351026Y-52344848D01*
X36728400Y-52221000D01*
X32900695Y-52221000D01*
X32419807Y-52021318D01*
X31692982Y-52020684D01*
X31021240Y-52298242D01*
X30506848Y-52811736D01*
X30228118Y-53482993D01*
X30227484Y-54209818D01*
X30505042Y-54881560D01*
X31018536Y-55395952D01*
X31689793Y-55674682D01*
X32416618Y-55675316D01*
X32901420Y-55475000D01*
X36054474Y-55475000D01*
X36604162Y-56024687D01*
X36527490Y-56139435D01*
X36377000Y-56896000D01*
X36377000Y-61323089D01*
X35853711Y-61219000D01*
X35774289Y-61219000D01*
X34998590Y-61373296D01*
X34666787Y-61595000D01*
X34290000Y-61595000D01*
X34243841Y-61603685D01*
X34201447Y-61630965D01*
X34173006Y-61672590D01*
X34163000Y-61722000D01*
X34163000Y-62079066D01*
X33901585Y-62470301D01*
X33747289Y-63246000D01*
X33901585Y-64021699D01*
X34163000Y-64412934D01*
X34163000Y-64770000D01*
X34171685Y-64816159D01*
X34198965Y-64858553D01*
X34240590Y-64886994D01*
X34290000Y-64897000D01*
X34666787Y-64897000D01*
X34998590Y-65118704D01*
X35774289Y-65273000D01*
X35853711Y-65273000D01*
X36377000Y-65168911D01*
X36377000Y-69215000D01*
X31750000Y-69215000D01*
X31703841Y-69223685D01*
X31661447Y-69250965D01*
X31633006Y-69292590D01*
X31623000Y-69342000D01*
X31623000Y-69601921D01*
X30204000Y-69601921D01*
X29786359Y-69680506D01*
X29402781Y-69927331D01*
X29145452Y-70303944D01*
X29054921Y-70751000D01*
X21243000Y-70751000D01*
X21243000Y-47634532D01*
X38397073Y-47634532D01*
X38495736Y-47901387D01*
X39105461Y-48127908D01*
X39755460Y-48103856D01*
X40244264Y-47901387D01*
X40342927Y-47634532D01*
X39370000Y-46661605D01*
X38397073Y-47634532D01*
X21243000Y-47634532D01*
X21243000Y-46217461D01*
X37724092Y-46217461D01*
X37748144Y-46867460D01*
X37950613Y-47356264D01*
X38217468Y-47454927D01*
X39190395Y-46482000D01*
X39549605Y-46482000D01*
X40522532Y-47454927D01*
X40789387Y-47356264D01*
X41015908Y-46746539D01*
X40991856Y-46096540D01*
X40789387Y-45607736D01*
X40522532Y-45509073D01*
X39549605Y-46482000D01*
X39190395Y-46482000D01*
X38217468Y-45509073D01*
X37950613Y-45607736D01*
X37724092Y-46217461D01*
X21243000Y-46217461D01*
X21243000Y-45329468D01*
X38397073Y-45329468D01*
X39370000Y-46302395D01*
X40342927Y-45329468D01*
X40244264Y-45062613D01*
X39634539Y-44836092D01*
X38984540Y-44860144D01*
X38495736Y-45062613D01*
X38397073Y-45329468D01*
X21243000Y-45329468D01*
X21243000Y-36489230D01*
X25914232Y-36489230D01*
X26237366Y-37271274D01*
X26835178Y-37870131D01*
X27616657Y-38194630D01*
X28462830Y-38195368D01*
X29244874Y-37872234D01*
X29422418Y-37695000D01*
X34798000Y-37695000D01*
X35420626Y-37571152D01*
X35873000Y-37268886D01*
X35873000Y-44000000D01*
X35881685Y-44046159D01*
X35908965Y-44088553D01*
X35950590Y-44116994D01*
X36000000Y-44127000D01*
X42000000Y-44127000D01*
X42046159Y-44118315D01*
X42088553Y-44091035D01*
X42116994Y-44049410D01*
X42127000Y-44000000D01*
X42127000Y-35205800D01*
X52290905Y-35205800D01*
X52771793Y-35405482D01*
X53498618Y-35406116D01*
X54170360Y-35128558D01*
X54684752Y-34615064D01*
X54963482Y-33943807D01*
X54964116Y-33216982D01*
X54686558Y-32545240D01*
X54173064Y-32030848D01*
X53501807Y-31752118D01*
X52774982Y-31751484D01*
X52290180Y-31951800D01*
X42127000Y-31951800D01*
X42127000Y-28500000D01*
X42118315Y-28453841D01*
X42091035Y-28411447D01*
X42049410Y-28383006D01*
X42000000Y-28373000D01*
X36000000Y-28373000D01*
X35953841Y-28381685D01*
X35911447Y-28408965D01*
X35883006Y-28450590D01*
X35873000Y-28500000D01*
X35873000Y-32692075D01*
X34124074Y-34441000D01*
X29422847Y-34441000D01*
X29248022Y-34265869D01*
X28466543Y-33941370D01*
X27620370Y-33940632D01*
X26838326Y-34263766D01*
X26239469Y-34861578D01*
X25914970Y-35643057D01*
X25914232Y-36489230D01*
X21243000Y-36489230D01*
X21243000Y-23529000D01*
X180941000Y-23529000D01*
X180941000Y-280517600D01*
X180941000Y-280517600D01*
G37*
X180941000Y-280517600D02*
X21243000Y-280517600D01*
X21243000Y-96298745D01*
X32445861Y-96298745D01*
X32519995Y-96544864D01*
X33057223Y-96737965D01*
X33627454Y-96710778D01*
X34028005Y-96544864D01*
X34102139Y-96298745D01*
X45145861Y-96298745D01*
X45219995Y-96544864D01*
X45757223Y-96737965D01*
X46327454Y-96710778D01*
X46728005Y-96544864D01*
X46802139Y-96298745D01*
X45974000Y-95470605D01*
X45145861Y-96298745D01*
X34102139Y-96298745D01*
X33274000Y-95470605D01*
X32445861Y-96298745D01*
X21243000Y-96298745D01*
X21243000Y-92491000D01*
X31324921Y-92491000D01*
X31324921Y-94091000D01*
X31403506Y-94508641D01*
X31650331Y-94892219D01*
X31844715Y-95025036D01*
X31827035Y-95074223D01*
X31854222Y-95644454D01*
X32020136Y-96045005D01*
X32266255Y-96119139D01*
X33094395Y-95291000D01*
X33080253Y-95276858D01*
X33117031Y-95240079D01*
X33430969Y-95240079D01*
X33467748Y-95276858D01*
X33453605Y-95291000D01*
X34281745Y-96119139D01*
X34527864Y-96045005D01*
X34720965Y-95507777D01*
X34698121Y-95028628D01*
X34875219Y-94914669D01*
X35132548Y-94538056D01*
X35223079Y-94091000D01*
X35223079Y-92491000D01*
X35144494Y-92073359D01*
X34897669Y-91689781D01*
X34521056Y-91432452D01*
X34074000Y-91341921D01*
X32474000Y-91341921D01*
X32056359Y-91420506D01*
X31672781Y-91667331D01*
X31415452Y-92043944D01*
X31324921Y-92491000D01*
X21243000Y-92491000D01*
X21243000Y-70751000D01*
X29054921Y-70751000D01*
X29054921Y-84951000D01*
X29133506Y-85368641D01*
X29380331Y-85752219D01*
X29756944Y-86009548D01*
X30204000Y-86100079D01*
X43967179Y-86100079D01*
X44097000Y-86229900D01*
X44097000Y-92135063D01*
X44024921Y-92491000D01*
X44024921Y-94091000D01*
X44103506Y-94508641D01*
X44350331Y-94892219D01*
X44544715Y-95025036D01*
X44527035Y-95074223D01*
X44554222Y-95644454D01*
X44720136Y-96045005D01*
X44966255Y-96119139D01*
X45794395Y-95291000D01*
X45780253Y-95276858D01*
X45817031Y-95240079D01*
X46130969Y-95240079D01*
X46167748Y-95276858D01*
X46153605Y-95291000D01*
X46981745Y-96119139D01*
X47227864Y-96045005D01*
X47420965Y-95507777D01*
X47398121Y-95028628D01*
X47575219Y-94914669D01*
X47832548Y-94538056D01*
X47923079Y-94091000D01*
X47923079Y-92491000D01*
X47851000Y-92107935D01*
X47851000Y-89983900D01*
X48132050Y-90264950D01*
X48773435Y-90693510D01*
X49530000Y-90844000D01*
X50870100Y-90844000D01*
X58983000Y-98956900D01*
X58983000Y-108434709D01*
X58833370Y-108795057D01*
X58832632Y-109641230D01*
X58983000Y-110005148D01*
X58983000Y-113340971D01*
X58960921Y-113450000D01*
X58960921Y-115150000D01*
X58983000Y-115267339D01*
X58983000Y-123500971D01*
X58960921Y-123610000D01*
X58960921Y-125310000D01*
X58983000Y-125427339D01*
X58983000Y-133660971D01*
X58960921Y-133770000D01*
X58960921Y-135470000D01*
X58983000Y-135587339D01*
X58983000Y-143820971D01*
X58960921Y-143930000D01*
X58960921Y-145630000D01*
X58983000Y-145747339D01*
X58983000Y-153980971D01*
X58960921Y-154090000D01*
X58960921Y-155790000D01*
X58983000Y-155907339D01*
X58983000Y-164140971D01*
X58960921Y-164250000D01*
X58960921Y-165950000D01*
X58983000Y-166067339D01*
X58983000Y-174300971D01*
X58960921Y-174410000D01*
X58960921Y-176110000D01*
X58983000Y-176227339D01*
X58983000Y-184460971D01*
X58960921Y-184570000D01*
X58960921Y-186270000D01*
X58983000Y-186387339D01*
X58983000Y-194620971D01*
X58960921Y-194730000D01*
X58960921Y-196430000D01*
X58983000Y-196547339D01*
X58983000Y-204780971D01*
X58960921Y-204890000D01*
X58960921Y-206590000D01*
X58983000Y-206707339D01*
X58983000Y-214940971D01*
X58960921Y-215050000D01*
X58960921Y-216750000D01*
X58983000Y-216867339D01*
X58983000Y-225100971D01*
X58960921Y-225210000D01*
X58960921Y-226910000D01*
X58983000Y-227027339D01*
X58983000Y-235260971D01*
X58960921Y-235370000D01*
X58960921Y-237070000D01*
X58983000Y-237187339D01*
X58983000Y-245420971D01*
X58960921Y-245530000D01*
X58960921Y-247230000D01*
X58983000Y-247347339D01*
X58983000Y-255580971D01*
X58960921Y-255690000D01*
X58960921Y-257390000D01*
X58983000Y-257507339D01*
X58983000Y-265740971D01*
X58960921Y-265850000D01*
X58960921Y-267550000D01*
X58983000Y-267667339D01*
X58983000Y-276608847D01*
X58982657Y-277001524D01*
X59283003Y-277728418D01*
X59373000Y-277818572D01*
X59373000Y-278250000D01*
X59381685Y-278296159D01*
X59408965Y-278338553D01*
X59450590Y-278366994D01*
X59500000Y-278377000D01*
X60060117Y-278377000D01*
X60565025Y-278586656D01*
X61351524Y-278587343D01*
X61860594Y-278377000D01*
X62600117Y-278377000D01*
X63105025Y-278586656D01*
X63891524Y-278587343D01*
X64400594Y-278377000D01*
X65140117Y-278377000D01*
X65645025Y-278586656D01*
X66431524Y-278587343D01*
X66940594Y-278377000D01*
X67680117Y-278377000D01*
X68185025Y-278586656D01*
X68971524Y-278587343D01*
X69480594Y-278377000D01*
X70220117Y-278377000D01*
X70725025Y-278586656D01*
X71511524Y-278587343D01*
X72020594Y-278377000D01*
X72760117Y-278377000D01*
X73265025Y-278586656D01*
X74051524Y-278587343D01*
X74560594Y-278377000D01*
X75300117Y-278377000D01*
X75805025Y-278586656D01*
X76591524Y-278587343D01*
X77100594Y-278377000D01*
X77840117Y-278377000D01*
X78345025Y-278586656D01*
X79131524Y-278587343D01*
X79640594Y-278377000D01*
X80380117Y-278377000D01*
X80885025Y-278586656D01*
X81671524Y-278587343D01*
X82180594Y-278377000D01*
X82920117Y-278377000D01*
X83425025Y-278586656D01*
X84211524Y-278587343D01*
X84720594Y-278377000D01*
X85460117Y-278377000D01*
X85965025Y-278586656D01*
X86751524Y-278587343D01*
X87260594Y-278377000D01*
X88000117Y-278377000D01*
X88505025Y-278586656D01*
X89291524Y-278587343D01*
X89800594Y-278377000D01*
X90540117Y-278377000D01*
X91045025Y-278586656D01*
X91831524Y-278587343D01*
X92340594Y-278377000D01*
X93080117Y-278377000D01*
X93585025Y-278586656D01*
X94371524Y-278587343D01*
X94880594Y-278377000D01*
X95500000Y-278377000D01*
X95546159Y-278368315D01*
X95588553Y-278341035D01*
X95616994Y-278299410D01*
X95627000Y-278250000D01*
X95627000Y-277759336D01*
X95655042Y-277731343D01*
X95669355Y-277696873D01*
X95735920Y-277905259D01*
X96291279Y-278106718D01*
X96881458Y-278080315D01*
X97304080Y-277905259D01*
X97384353Y-277653958D01*
X96520000Y-276789605D01*
X96505858Y-276803748D01*
X96326253Y-276624143D01*
X96340395Y-276610000D01*
X96699605Y-276610000D01*
X97563958Y-277474353D01*
X97815259Y-277394080D01*
X98016718Y-276838721D01*
X97990315Y-276248542D01*
X97815259Y-275825920D01*
X97563958Y-275745647D01*
X96699605Y-276610000D01*
X96340395Y-276610000D01*
X96326253Y-276595858D01*
X96505858Y-276416253D01*
X96520000Y-276430395D01*
X97384353Y-275566042D01*
X97304080Y-275314741D01*
X96748721Y-275113282D01*
X96158542Y-275139685D01*
X95735920Y-275314741D01*
X95669650Y-275522205D01*
X95656997Y-275491582D01*
X95627000Y-275461533D01*
X95627000Y-275250000D01*
X95618315Y-275203841D01*
X95607000Y-275186257D01*
X95607000Y-267838521D01*
X95753076Y-267971645D01*
X96163110Y-268141476D01*
X96393000Y-268020155D01*
X96393000Y-266827000D01*
X96647000Y-266827000D01*
X96647000Y-268020155D01*
X96876890Y-268141476D01*
X97286924Y-267971645D01*
X97715183Y-267581358D01*
X97961486Y-267056892D01*
X97840819Y-266827000D01*
X96647000Y-266827000D01*
X96393000Y-266827000D01*
X96373000Y-266827000D01*
X96373000Y-266573000D01*
X96393000Y-266573000D01*
X96393000Y-265379845D01*
X96647000Y-265379845D01*
X96647000Y-266573000D01*
X97840819Y-266573000D01*
X97961486Y-266343108D01*
X97715183Y-265818642D01*
X97286924Y-265428355D01*
X96876890Y-265258524D01*
X96647000Y-265379845D01*
X96393000Y-265379845D01*
X96163110Y-265258524D01*
X95753076Y-265428355D01*
X95607000Y-265561479D01*
X95607000Y-257678521D01*
X95753076Y-257811645D01*
X96163110Y-257981476D01*
X96393000Y-257860155D01*
X96393000Y-256667000D01*
X96647000Y-256667000D01*
X96647000Y-257860155D01*
X96876890Y-257981476D01*
X97286924Y-257811645D01*
X97715183Y-257421358D01*
X97961486Y-256896892D01*
X97840819Y-256667000D01*
X96647000Y-256667000D01*
X96393000Y-256667000D01*
X96373000Y-256667000D01*
X96373000Y-256413000D01*
X96393000Y-256413000D01*
X96393000Y-255219845D01*
X96647000Y-255219845D01*
X96647000Y-256413000D01*
X97840819Y-256413000D01*
X97961486Y-256183108D01*
X97715183Y-255658642D01*
X97286924Y-255268355D01*
X96876890Y-255098524D01*
X96647000Y-255219845D01*
X96393000Y-255219845D01*
X96163110Y-255098524D01*
X95753076Y-255268355D01*
X95607000Y-255401479D01*
X95607000Y-247518521D01*
X95753076Y-247651645D01*
X96163110Y-247821476D01*
X96393000Y-247700155D01*
X96393000Y-246507000D01*
X96647000Y-246507000D01*
X96647000Y-247700155D01*
X96876890Y-247821476D01*
X97286924Y-247651645D01*
X97715183Y-247261358D01*
X97961486Y-246736892D01*
X97840819Y-246507000D01*
X96647000Y-246507000D01*
X96393000Y-246507000D01*
X96373000Y-246507000D01*
X96373000Y-246253000D01*
X96393000Y-246253000D01*
X96393000Y-245059845D01*
X96647000Y-245059845D01*
X96647000Y-246253000D01*
X97840819Y-246253000D01*
X97961486Y-246023108D01*
X97715183Y-245498642D01*
X97286924Y-245108355D01*
X96876890Y-244938524D01*
X96647000Y-245059845D01*
X96393000Y-245059845D01*
X96163110Y-244938524D01*
X95753076Y-245108355D01*
X95607000Y-245241479D01*
X95607000Y-237358521D01*
X95753076Y-237491645D01*
X96163110Y-237661476D01*
X96393000Y-237540155D01*
X96393000Y-236347000D01*
X96647000Y-236347000D01*
X96647000Y-237540155D01*
X96876890Y-237661476D01*
X97286924Y-237491645D01*
X97715183Y-237101358D01*
X97961486Y-236576892D01*
X97840819Y-236347000D01*
X96647000Y-236347000D01*
X96393000Y-236347000D01*
X96373000Y-236347000D01*
X96373000Y-236093000D01*
X96393000Y-236093000D01*
X96393000Y-234899845D01*
X96647000Y-234899845D01*
X96647000Y-236093000D01*
X97840819Y-236093000D01*
X97961486Y-235863108D01*
X97715183Y-235338642D01*
X97286924Y-234948355D01*
X96876890Y-234778524D01*
X96647000Y-234899845D01*
X96393000Y-234899845D01*
X96163110Y-234778524D01*
X95753076Y-234948355D01*
X95607000Y-235081479D01*
X95607000Y-227198521D01*
X95753076Y-227331645D01*
X96163110Y-227501476D01*
X96393000Y-227380155D01*
X96393000Y-226187000D01*
X96647000Y-226187000D01*
X96647000Y-227380155D01*
X96876890Y-227501476D01*
X97286924Y-227331645D01*
X97715183Y-226941358D01*
X97961486Y-226416892D01*
X97840819Y-226187000D01*
X96647000Y-226187000D01*
X96393000Y-226187000D01*
X96373000Y-226187000D01*
X96373000Y-225933000D01*
X96393000Y-225933000D01*
X96393000Y-224739845D01*
X96647000Y-224739845D01*
X96647000Y-225933000D01*
X97840819Y-225933000D01*
X97961486Y-225703108D01*
X97715183Y-225178642D01*
X97286924Y-224788355D01*
X96876890Y-224618524D01*
X96647000Y-224739845D01*
X96393000Y-224739845D01*
X96163110Y-224618524D01*
X95753076Y-224788355D01*
X95607000Y-224921479D01*
X95607000Y-217038521D01*
X95753076Y-217171645D01*
X96163110Y-217341476D01*
X96393000Y-217220155D01*
X96393000Y-216027000D01*
X96647000Y-216027000D01*
X96647000Y-217220155D01*
X96876890Y-217341476D01*
X97286924Y-217171645D01*
X97715183Y-216781358D01*
X97961486Y-216256892D01*
X97840819Y-216027000D01*
X96647000Y-216027000D01*
X96393000Y-216027000D01*
X96373000Y-216027000D01*
X96373000Y-215773000D01*
X96393000Y-215773000D01*
X96393000Y-214579845D01*
X96647000Y-214579845D01*
X96647000Y-215773000D01*
X97840819Y-215773000D01*
X97961486Y-215543108D01*
X97715183Y-215018642D01*
X97286924Y-214628355D01*
X96876890Y-214458524D01*
X96647000Y-214579845D01*
X96393000Y-214579845D01*
X96163110Y-214458524D01*
X95753076Y-214628355D01*
X95607000Y-214761479D01*
X95607000Y-206878521D01*
X95753076Y-207011645D01*
X96163110Y-207181476D01*
X96393000Y-207060155D01*
X96393000Y-205867000D01*
X96647000Y-205867000D01*
X96647000Y-207060155D01*
X96876890Y-207181476D01*
X97286924Y-207011645D01*
X97715183Y-206621358D01*
X97961486Y-206096892D01*
X97840819Y-205867000D01*
X96647000Y-205867000D01*
X96393000Y-205867000D01*
X96373000Y-205867000D01*
X96373000Y-205613000D01*
X96393000Y-205613000D01*
X96393000Y-204419845D01*
X96647000Y-204419845D01*
X96647000Y-205613000D01*
X97840819Y-205613000D01*
X97961486Y-205383108D01*
X97715183Y-204858642D01*
X97286924Y-204468355D01*
X96876890Y-204298524D01*
X96647000Y-204419845D01*
X96393000Y-204419845D01*
X96163110Y-204298524D01*
X95753076Y-204468355D01*
X95607000Y-204601479D01*
X95607000Y-196718521D01*
X95753076Y-196851645D01*
X96163110Y-197021476D01*
X96393000Y-196900155D01*
X96393000Y-195707000D01*
X96647000Y-195707000D01*
X96647000Y-196900155D01*
X96876890Y-197021476D01*
X97286924Y-196851645D01*
X97715183Y-196461358D01*
X97961486Y-195936892D01*
X97840819Y-195707000D01*
X96647000Y-195707000D01*
X96393000Y-195707000D01*
X96373000Y-195707000D01*
X96373000Y-195453000D01*
X96393000Y-195453000D01*
X96393000Y-194259845D01*
X96647000Y-194259845D01*
X96647000Y-195453000D01*
X97840819Y-195453000D01*
X97961486Y-195223108D01*
X97715183Y-194698642D01*
X97286924Y-194308355D01*
X96876890Y-194138524D01*
X96647000Y-194259845D01*
X96393000Y-194259845D01*
X96163110Y-194138524D01*
X95753076Y-194308355D01*
X95607000Y-194441479D01*
X95607000Y-186558521D01*
X95753076Y-186691645D01*
X96163110Y-186861476D01*
X96393000Y-186740155D01*
X96393000Y-185547000D01*
X96647000Y-185547000D01*
X96647000Y-186740155D01*
X96876890Y-186861476D01*
X97286924Y-186691645D01*
X97715183Y-186301358D01*
X97961486Y-185776892D01*
X97840819Y-185547000D01*
X96647000Y-185547000D01*
X96393000Y-185547000D01*
X96373000Y-185547000D01*
X96373000Y-185293000D01*
X96393000Y-185293000D01*
X96393000Y-184099845D01*
X96647000Y-184099845D01*
X96647000Y-185293000D01*
X97840819Y-185293000D01*
X97961486Y-185063108D01*
X97715183Y-184538642D01*
X97286924Y-184148355D01*
X96876890Y-183978524D01*
X96647000Y-184099845D01*
X96393000Y-184099845D01*
X96163110Y-183978524D01*
X95753076Y-184148355D01*
X95607000Y-184281479D01*
X95607000Y-176398521D01*
X95753076Y-176531645D01*
X96163110Y-176701476D01*
X96393000Y-176580155D01*
X96393000Y-175387000D01*
X96647000Y-175387000D01*
X96647000Y-176580155D01*
X96876890Y-176701476D01*
X97286924Y-176531645D01*
X97715183Y-176141358D01*
X97961486Y-175616892D01*
X97840819Y-175387000D01*
X96647000Y-175387000D01*
X96393000Y-175387000D01*
X96373000Y-175387000D01*
X96373000Y-175133000D01*
X96393000Y-175133000D01*
X96393000Y-173939845D01*
X96647000Y-173939845D01*
X96647000Y-175133000D01*
X97840819Y-175133000D01*
X97961486Y-174903108D01*
X97715183Y-174378642D01*
X97286924Y-173988355D01*
X96876890Y-173818524D01*
X96647000Y-173939845D01*
X96393000Y-173939845D01*
X96163110Y-173818524D01*
X95753076Y-173988355D01*
X95607000Y-174121479D01*
X95607000Y-166238521D01*
X95753076Y-166371645D01*
X96163110Y-166541476D01*
X96393000Y-166420155D01*
X96393000Y-165227000D01*
X96647000Y-165227000D01*
X96647000Y-166420155D01*
X96876890Y-166541476D01*
X97286924Y-166371645D01*
X97715183Y-165981358D01*
X97961486Y-165456892D01*
X97840819Y-165227000D01*
X96647000Y-165227000D01*
X96393000Y-165227000D01*
X96373000Y-165227000D01*
X96373000Y-164973000D01*
X96393000Y-164973000D01*
X96393000Y-163779845D01*
X96647000Y-163779845D01*
X96647000Y-164973000D01*
X97840819Y-164973000D01*
X97961486Y-164743108D01*
X97715183Y-164218642D01*
X97286924Y-163828355D01*
X96876890Y-163658524D01*
X96647000Y-163779845D01*
X96393000Y-163779845D01*
X96163110Y-163658524D01*
X95753076Y-163828355D01*
X95607000Y-163961479D01*
X95607000Y-156078521D01*
X95753076Y-156211645D01*
X96163110Y-156381476D01*
X96393000Y-156260155D01*
X96393000Y-155067000D01*
X96647000Y-155067000D01*
X96647000Y-156260155D01*
X96876890Y-156381476D01*
X97286924Y-156211645D01*
X97715183Y-155821358D01*
X97961486Y-155296892D01*
X97840819Y-155067000D01*
X96647000Y-155067000D01*
X96393000Y-155067000D01*
X96373000Y-155067000D01*
X96373000Y-154813000D01*
X96393000Y-154813000D01*
X96393000Y-153619845D01*
X96647000Y-153619845D01*
X96647000Y-154813000D01*
X97840819Y-154813000D01*
X97961486Y-154583108D01*
X97715183Y-154058642D01*
X97286924Y-153668355D01*
X96876890Y-153498524D01*
X96647000Y-153619845D01*
X96393000Y-153619845D01*
X96163110Y-153498524D01*
X95753076Y-153668355D01*
X95607000Y-153801479D01*
X95607000Y-145918521D01*
X95753076Y-146051645D01*
X96163110Y-146221476D01*
X96393000Y-146100155D01*
X96393000Y-144907000D01*
X96647000Y-144907000D01*
X96647000Y-146100155D01*
X96876890Y-146221476D01*
X97286924Y-146051645D01*
X97715183Y-145661358D01*
X97961486Y-145136892D01*
X97840819Y-144907000D01*
X96647000Y-144907000D01*
X96393000Y-144907000D01*
X96373000Y-144907000D01*
X96373000Y-144653000D01*
X96393000Y-144653000D01*
X96393000Y-143459845D01*
X96647000Y-143459845D01*
X96647000Y-144653000D01*
X97840819Y-144653000D01*
X97961486Y-144423108D01*
X97715183Y-143898642D01*
X97286924Y-143508355D01*
X96876890Y-143338524D01*
X96647000Y-143459845D01*
X96393000Y-143459845D01*
X96163110Y-143338524D01*
X95753076Y-143508355D01*
X95607000Y-143641479D01*
X95607000Y-135758521D01*
X95753076Y-135891645D01*
X96163110Y-136061476D01*
X96393000Y-135940155D01*
X96393000Y-134747000D01*
X96647000Y-134747000D01*
X96647000Y-135940155D01*
X96876890Y-136061476D01*
X97286924Y-135891645D01*
X97715183Y-135501358D01*
X97961486Y-134976892D01*
X97840819Y-134747000D01*
X96647000Y-134747000D01*
X96393000Y-134747000D01*
X96373000Y-134747000D01*
X96373000Y-134493000D01*
X96393000Y-134493000D01*
X96393000Y-133299845D01*
X96647000Y-133299845D01*
X96647000Y-134493000D01*
X97840819Y-134493000D01*
X97961486Y-134263108D01*
X97715183Y-133738642D01*
X97286924Y-133348355D01*
X96876890Y-133178524D01*
X96647000Y-133299845D01*
X96393000Y-133299845D01*
X96163110Y-133178524D01*
X95753076Y-133348355D01*
X95607000Y-133481479D01*
X95607000Y-125598521D01*
X95753076Y-125731645D01*
X96163110Y-125901476D01*
X96393000Y-125780155D01*
X96393000Y-124587000D01*
X96647000Y-124587000D01*
X96647000Y-125780155D01*
X96876890Y-125901476D01*
X97286924Y-125731645D01*
X97715183Y-125341358D01*
X97961486Y-124816892D01*
X97840819Y-124587000D01*
X96647000Y-124587000D01*
X96393000Y-124587000D01*
X96373000Y-124587000D01*
X96373000Y-124333000D01*
X96393000Y-124333000D01*
X96393000Y-123139845D01*
X96647000Y-123139845D01*
X96647000Y-124333000D01*
X97840819Y-124333000D01*
X97961486Y-124103108D01*
X97715183Y-123578642D01*
X97286924Y-123188355D01*
X96876890Y-123018524D01*
X96647000Y-123139845D01*
X96393000Y-123139845D01*
X96163110Y-123018524D01*
X95753076Y-123188355D01*
X95607000Y-123321479D01*
X95607000Y-115438521D01*
X95753076Y-115571645D01*
X96163110Y-115741476D01*
X96393000Y-115620155D01*
X96393000Y-114427000D01*
X96647000Y-114427000D01*
X96647000Y-115620155D01*
X96876890Y-115741476D01*
X97286924Y-115571645D01*
X97715183Y-115181358D01*
X97961486Y-114656892D01*
X97840819Y-114427000D01*
X96647000Y-114427000D01*
X96393000Y-114427000D01*
X96373000Y-114427000D01*
X96373000Y-114173000D01*
X96393000Y-114173000D01*
X96393000Y-112979845D01*
X96647000Y-112979845D01*
X96647000Y-114173000D01*
X97840819Y-114173000D01*
X97961486Y-113943108D01*
X97715183Y-113418642D01*
X97286924Y-113028355D01*
X96876890Y-112858524D01*
X96647000Y-112979845D01*
X96393000Y-112979845D01*
X96163110Y-112858524D01*
X95753076Y-113028355D01*
X95607000Y-113161479D01*
X95607000Y-109641230D01*
X140112632Y-109641230D01*
X140263000Y-110005148D01*
X140263000Y-113340971D01*
X140240921Y-113450000D01*
X140240921Y-115150000D01*
X140263000Y-115267339D01*
X140263000Y-123500971D01*
X140240921Y-123610000D01*
X140240921Y-125310000D01*
X140263000Y-125427339D01*
X140263000Y-133660971D01*
X140240921Y-133770000D01*
X140240921Y-135470000D01*
X140263000Y-135587339D01*
X140263000Y-143820971D01*
X140240921Y-143930000D01*
X140240921Y-145630000D01*
X140263000Y-145747339D01*
X140263000Y-153980971D01*
X140240921Y-154090000D01*
X140240921Y-155790000D01*
X140263000Y-155907339D01*
X140263000Y-164140971D01*
X140240921Y-164250000D01*
X140240921Y-165950000D01*
X140263000Y-166067339D01*
X140263000Y-174300971D01*
X140240921Y-174410000D01*
X140240921Y-176110000D01*
X140263000Y-176227339D01*
X140263000Y-184460971D01*
X140240921Y-184570000D01*
X140240921Y-186270000D01*
X140263000Y-186387339D01*
X140263000Y-194620971D01*
X140240921Y-194730000D01*
X140240921Y-196430000D01*
X140263000Y-196547339D01*
X140263000Y-204780971D01*
X140240921Y-204890000D01*
X140240921Y-206590000D01*
X140263000Y-206707339D01*
X140263000Y-214940971D01*
X140240921Y-215050000D01*
X140240921Y-216750000D01*
X140263000Y-216867339D01*
X140263000Y-225100971D01*
X140240921Y-225210000D01*
X140240921Y-226910000D01*
X140263000Y-227027339D01*
X140263000Y-235260971D01*
X140240921Y-235370000D01*
X140240921Y-237070000D01*
X140263000Y-237187339D01*
X140263000Y-245420971D01*
X140240921Y-245530000D01*
X140240921Y-247230000D01*
X140263000Y-247347339D01*
X140263000Y-255580971D01*
X140240921Y-255690000D01*
X140240921Y-257390000D01*
X140263000Y-257507339D01*
X140263000Y-265740971D01*
X140240921Y-265850000D01*
X140240921Y-267550000D01*
X140263000Y-267667339D01*
X140263000Y-276608847D01*
X140262657Y-277001524D01*
X140563003Y-277728418D01*
X140623000Y-277788520D01*
X140623000Y-278250000D01*
X140631685Y-278296159D01*
X140658965Y-278338553D01*
X140700590Y-278366994D01*
X140750000Y-278377000D01*
X141340117Y-278377000D01*
X141845025Y-278586656D01*
X142631524Y-278587343D01*
X143140594Y-278377000D01*
X143880117Y-278377000D01*
X144385025Y-278586656D01*
X145171524Y-278587343D01*
X145680594Y-278377000D01*
X146420117Y-278377000D01*
X146925025Y-278586656D01*
X147711524Y-278587343D01*
X148220594Y-278377000D01*
X148960117Y-278377000D01*
X149465025Y-278586656D01*
X150251524Y-278587343D01*
X150760594Y-278377000D01*
X151500117Y-278377000D01*
X152005025Y-278586656D01*
X152791524Y-278587343D01*
X153300594Y-278377000D01*
X154040117Y-278377000D01*
X154545025Y-278586656D01*
X155331524Y-278587343D01*
X155840594Y-278377000D01*
X156580117Y-278377000D01*
X157085025Y-278586656D01*
X157871524Y-278587343D01*
X158380594Y-278377000D01*
X159120117Y-278377000D01*
X159625025Y-278586656D01*
X160411524Y-278587343D01*
X160920594Y-278377000D01*
X161660117Y-278377000D01*
X162165025Y-278586656D01*
X162951524Y-278587343D01*
X163460594Y-278377000D01*
X164200117Y-278377000D01*
X164705025Y-278586656D01*
X165491524Y-278587343D01*
X166000594Y-278377000D01*
X166740117Y-278377000D01*
X167245025Y-278586656D01*
X168031524Y-278587343D01*
X168540594Y-278377000D01*
X169280117Y-278377000D01*
X169785025Y-278586656D01*
X170571524Y-278587343D01*
X171080594Y-278377000D01*
X171820117Y-278377000D01*
X172325025Y-278586656D01*
X173111524Y-278587343D01*
X173620594Y-278377000D01*
X174360117Y-278377000D01*
X174865025Y-278586656D01*
X175651524Y-278587343D01*
X176160594Y-278377000D01*
X176750000Y-278377000D01*
X176796159Y-278368315D01*
X176838553Y-278341035D01*
X176866994Y-278299410D01*
X176877000Y-278250000D01*
X176877000Y-277789284D01*
X176935042Y-277731343D01*
X176949355Y-277696873D01*
X177015920Y-277905259D01*
X177571279Y-278106718D01*
X178161458Y-278080315D01*
X178584080Y-277905259D01*
X178664353Y-277653958D01*
X177800000Y-276789605D01*
X177785858Y-276803748D01*
X177606253Y-276624143D01*
X177620395Y-276610000D01*
X177979605Y-276610000D01*
X178843958Y-277474353D01*
X179095259Y-277394080D01*
X179296718Y-276838721D01*
X179270315Y-276248542D01*
X179095259Y-275825920D01*
X178843958Y-275745647D01*
X177979605Y-276610000D01*
X177620395Y-276610000D01*
X177606253Y-276595858D01*
X177785858Y-276416253D01*
X177800000Y-276430395D01*
X178664353Y-275566042D01*
X178584080Y-275314741D01*
X178028721Y-275113282D01*
X177438542Y-275139685D01*
X177015920Y-275314741D01*
X176949650Y-275522205D01*
X176936997Y-275491582D01*
X176887000Y-275441498D01*
X176887000Y-267838521D01*
X177033076Y-267971645D01*
X177443110Y-268141476D01*
X177673000Y-268020155D01*
X177673000Y-266827000D01*
X177927000Y-266827000D01*
X177927000Y-268020155D01*
X178156890Y-268141476D01*
X178566924Y-267971645D01*
X178995183Y-267581358D01*
X179241486Y-267056892D01*
X179120819Y-266827000D01*
X177927000Y-266827000D01*
X177673000Y-266827000D01*
X177653000Y-266827000D01*
X177653000Y-266573000D01*
X177673000Y-266573000D01*
X177673000Y-265379845D01*
X177927000Y-265379845D01*
X177927000Y-266573000D01*
X179120819Y-266573000D01*
X179241486Y-266343108D01*
X178995183Y-265818642D01*
X178566924Y-265428355D01*
X178156890Y-265258524D01*
X177927000Y-265379845D01*
X177673000Y-265379845D01*
X177443110Y-265258524D01*
X177033076Y-265428355D01*
X176887000Y-265561479D01*
X176887000Y-257678521D01*
X177033076Y-257811645D01*
X177443110Y-257981476D01*
X177673000Y-257860155D01*
X177673000Y-256667000D01*
X177927000Y-256667000D01*
X177927000Y-257860155D01*
X178156890Y-257981476D01*
X178566924Y-257811645D01*
X178995183Y-257421358D01*
X179241486Y-256896892D01*
X179120819Y-256667000D01*
X177927000Y-256667000D01*
X177673000Y-256667000D01*
X177653000Y-256667000D01*
X177653000Y-256413000D01*
X177673000Y-256413000D01*
X177673000Y-255219845D01*
X177927000Y-255219845D01*
X177927000Y-256413000D01*
X179120819Y-256413000D01*
X179241486Y-256183108D01*
X178995183Y-255658642D01*
X178566924Y-255268355D01*
X178156890Y-255098524D01*
X177927000Y-255219845D01*
X177673000Y-255219845D01*
X177443110Y-255098524D01*
X177033076Y-255268355D01*
X176887000Y-255401479D01*
X176887000Y-247518521D01*
X177033076Y-247651645D01*
X177443110Y-247821476D01*
X177673000Y-247700155D01*
X177673000Y-246507000D01*
X177927000Y-246507000D01*
X177927000Y-247700155D01*
X178156890Y-247821476D01*
X178566924Y-247651645D01*
X178995183Y-247261358D01*
X179241486Y-246736892D01*
X179120819Y-246507000D01*
X177927000Y-246507000D01*
X177673000Y-246507000D01*
X177653000Y-246507000D01*
X177653000Y-246253000D01*
X177673000Y-246253000D01*
X177673000Y-245059845D01*
X177927000Y-245059845D01*
X177927000Y-246253000D01*
X179120819Y-246253000D01*
X179241486Y-246023108D01*
X178995183Y-245498642D01*
X178566924Y-245108355D01*
X178156890Y-244938524D01*
X177927000Y-245059845D01*
X177673000Y-245059845D01*
X177443110Y-244938524D01*
X177033076Y-245108355D01*
X176887000Y-245241479D01*
X176887000Y-237358521D01*
X177033076Y-237491645D01*
X177443110Y-237661476D01*
X177673000Y-237540155D01*
X177673000Y-236347000D01*
X177927000Y-236347000D01*
X177927000Y-237540155D01*
X178156890Y-237661476D01*
X178566924Y-237491645D01*
X178995183Y-237101358D01*
X179241486Y-236576892D01*
X179120819Y-236347000D01*
X177927000Y-236347000D01*
X177673000Y-236347000D01*
X177653000Y-236347000D01*
X177653000Y-236093000D01*
X177673000Y-236093000D01*
X177673000Y-234899845D01*
X177927000Y-234899845D01*
X177927000Y-236093000D01*
X179120819Y-236093000D01*
X179241486Y-235863108D01*
X178995183Y-235338642D01*
X178566924Y-234948355D01*
X178156890Y-234778524D01*
X177927000Y-234899845D01*
X177673000Y-234899845D01*
X177443110Y-234778524D01*
X177033076Y-234948355D01*
X176887000Y-235081479D01*
X176887000Y-227198521D01*
X177033076Y-227331645D01*
X177443110Y-227501476D01*
X177673000Y-227380155D01*
X177673000Y-226187000D01*
X177927000Y-226187000D01*
X177927000Y-227380155D01*
X178156890Y-227501476D01*
X178566924Y-227331645D01*
X178995183Y-226941358D01*
X179241486Y-226416892D01*
X179120819Y-226187000D01*
X177927000Y-226187000D01*
X177673000Y-226187000D01*
X177653000Y-226187000D01*
X177653000Y-225933000D01*
X177673000Y-225933000D01*
X177673000Y-224739845D01*
X177927000Y-224739845D01*
X177927000Y-225933000D01*
X179120819Y-225933000D01*
X179241486Y-225703108D01*
X178995183Y-225178642D01*
X178566924Y-224788355D01*
X178156890Y-224618524D01*
X177927000Y-224739845D01*
X177673000Y-224739845D01*
X177443110Y-224618524D01*
X177033076Y-224788355D01*
X176887000Y-224921479D01*
X176887000Y-217038521D01*
X177033076Y-217171645D01*
X177443110Y-217341476D01*
X177673000Y-217220155D01*
X177673000Y-216027000D01*
X177927000Y-216027000D01*
X177927000Y-217220155D01*
X178156890Y-217341476D01*
X178566924Y-217171645D01*
X178995183Y-216781358D01*
X179241486Y-216256892D01*
X179120819Y-216027000D01*
X177927000Y-216027000D01*
X177673000Y-216027000D01*
X177653000Y-216027000D01*
X177653000Y-215773000D01*
X177673000Y-215773000D01*
X177673000Y-214579845D01*
X177927000Y-214579845D01*
X177927000Y-215773000D01*
X179120819Y-215773000D01*
X179241486Y-215543108D01*
X178995183Y-215018642D01*
X178566924Y-214628355D01*
X178156890Y-214458524D01*
X177927000Y-214579845D01*
X177673000Y-214579845D01*
X177443110Y-214458524D01*
X177033076Y-214628355D01*
X176887000Y-214761479D01*
X176887000Y-206878521D01*
X177033076Y-207011645D01*
X177443110Y-207181476D01*
X177673000Y-207060155D01*
X177673000Y-205867000D01*
X177927000Y-205867000D01*
X177927000Y-207060155D01*
X178156890Y-207181476D01*
X178566924Y-207011645D01*
X178995183Y-206621358D01*
X179241486Y-206096892D01*
X179120819Y-205867000D01*
X177927000Y-205867000D01*
X177673000Y-205867000D01*
X177653000Y-205867000D01*
X177653000Y-205613000D01*
X177673000Y-205613000D01*
X177673000Y-204419845D01*
X177927000Y-204419845D01*
X177927000Y-205613000D01*
X179120819Y-205613000D01*
X179241486Y-205383108D01*
X178995183Y-204858642D01*
X178566924Y-204468355D01*
X178156890Y-204298524D01*
X177927000Y-204419845D01*
X177673000Y-204419845D01*
X177443110Y-204298524D01*
X177033076Y-204468355D01*
X176887000Y-204601479D01*
X176887000Y-196718521D01*
X177033076Y-196851645D01*
X177443110Y-197021476D01*
X177673000Y-196900155D01*
X177673000Y-195707000D01*
X177927000Y-195707000D01*
X177927000Y-196900155D01*
X178156890Y-197021476D01*
X178566924Y-196851645D01*
X178995183Y-196461358D01*
X179241486Y-195936892D01*
X179120819Y-195707000D01*
X177927000Y-195707000D01*
X177673000Y-195707000D01*
X177653000Y-195707000D01*
X177653000Y-195453000D01*
X177673000Y-195453000D01*
X177673000Y-194259845D01*
X177927000Y-194259845D01*
X177927000Y-195453000D01*
X179120819Y-195453000D01*
X179241486Y-195223108D01*
X178995183Y-194698642D01*
X178566924Y-194308355D01*
X178156890Y-194138524D01*
X177927000Y-194259845D01*
X177673000Y-194259845D01*
X177443110Y-194138524D01*
X177033076Y-194308355D01*
X176887000Y-194441479D01*
X176887000Y-186558521D01*
X177033076Y-186691645D01*
X177443110Y-186861476D01*
X177673000Y-186740155D01*
X177673000Y-185547000D01*
X177927000Y-185547000D01*
X177927000Y-186740155D01*
X178156890Y-186861476D01*
X178566924Y-186691645D01*
X178995183Y-186301358D01*
X179241486Y-185776892D01*
X179120819Y-185547000D01*
X177927000Y-185547000D01*
X177673000Y-185547000D01*
X177653000Y-185547000D01*
X177653000Y-185293000D01*
X177673000Y-185293000D01*
X177673000Y-184099845D01*
X177927000Y-184099845D01*
X177927000Y-185293000D01*
X179120819Y-185293000D01*
X179241486Y-185063108D01*
X178995183Y-184538642D01*
X178566924Y-184148355D01*
X178156890Y-183978524D01*
X177927000Y-184099845D01*
X177673000Y-184099845D01*
X177443110Y-183978524D01*
X177033076Y-184148355D01*
X176887000Y-184281479D01*
X176887000Y-176398521D01*
X177033076Y-176531645D01*
X177443110Y-176701476D01*
X177673000Y-176580155D01*
X177673000Y-175387000D01*
X177927000Y-175387000D01*
X177927000Y-176580155D01*
X178156890Y-176701476D01*
X178566924Y-176531645D01*
X178995183Y-176141358D01*
X179241486Y-175616892D01*
X179120819Y-175387000D01*
X177927000Y-175387000D01*
X177673000Y-175387000D01*
X177653000Y-175387000D01*
X177653000Y-175133000D01*
X177673000Y-175133000D01*
X177673000Y-173939845D01*
X177927000Y-173939845D01*
X177927000Y-175133000D01*
X179120819Y-175133000D01*
X179241486Y-174903108D01*
X178995183Y-174378642D01*
X178566924Y-173988355D01*
X178156890Y-173818524D01*
X177927000Y-173939845D01*
X177673000Y-173939845D01*
X177443110Y-173818524D01*
X177033076Y-173988355D01*
X176887000Y-174121479D01*
X176887000Y-166238521D01*
X177033076Y-166371645D01*
X177443110Y-166541476D01*
X177673000Y-166420155D01*
X177673000Y-165227000D01*
X177927000Y-165227000D01*
X177927000Y-166420155D01*
X178156890Y-166541476D01*
X178566924Y-166371645D01*
X178995183Y-165981358D01*
X179241486Y-165456892D01*
X179120819Y-165227000D01*
X177927000Y-165227000D01*
X177673000Y-165227000D01*
X177653000Y-165227000D01*
X177653000Y-164973000D01*
X177673000Y-164973000D01*
X177673000Y-163779845D01*
X177927000Y-163779845D01*
X177927000Y-164973000D01*
X179120819Y-164973000D01*
X179241486Y-164743108D01*
X178995183Y-164218642D01*
X178566924Y-163828355D01*
X178156890Y-163658524D01*
X177927000Y-163779845D01*
X177673000Y-163779845D01*
X177443110Y-163658524D01*
X177033076Y-163828355D01*
X176887000Y-163961479D01*
X176887000Y-156078521D01*
X177033076Y-156211645D01*
X177443110Y-156381476D01*
X177673000Y-156260155D01*
X177673000Y-155067000D01*
X177927000Y-155067000D01*
X177927000Y-156260155D01*
X178156890Y-156381476D01*
X178566924Y-156211645D01*
X178995183Y-155821358D01*
X179241486Y-155296892D01*
X179120819Y-155067000D01*
X177927000Y-155067000D01*
X177673000Y-155067000D01*
X177653000Y-155067000D01*
X177653000Y-154813000D01*
X177673000Y-154813000D01*
X177673000Y-153619845D01*
X177927000Y-153619845D01*
X177927000Y-154813000D01*
X179120819Y-154813000D01*
X179241486Y-154583108D01*
X178995183Y-154058642D01*
X178566924Y-153668355D01*
X178156890Y-153498524D01*
X177927000Y-153619845D01*
X177673000Y-153619845D01*
X177443110Y-153498524D01*
X177033076Y-153668355D01*
X176887000Y-153801479D01*
X176887000Y-145918521D01*
X177033076Y-146051645D01*
X177443110Y-146221476D01*
X177673000Y-146100155D01*
X177673000Y-144907000D01*
X177927000Y-144907000D01*
X177927000Y-146100155D01*
X178156890Y-146221476D01*
X178566924Y-146051645D01*
X178995183Y-145661358D01*
X179241486Y-145136892D01*
X179120819Y-144907000D01*
X177927000Y-144907000D01*
X177673000Y-144907000D01*
X177653000Y-144907000D01*
X177653000Y-144653000D01*
X177673000Y-144653000D01*
X177673000Y-143459845D01*
X177927000Y-143459845D01*
X177927000Y-144653000D01*
X179120819Y-144653000D01*
X179241486Y-144423108D01*
X178995183Y-143898642D01*
X178566924Y-143508355D01*
X178156890Y-143338524D01*
X177927000Y-143459845D01*
X177673000Y-143459845D01*
X177443110Y-143338524D01*
X177033076Y-143508355D01*
X176887000Y-143641479D01*
X176887000Y-135758521D01*
X177033076Y-135891645D01*
X177443110Y-136061476D01*
X177673000Y-135940155D01*
X177673000Y-134747000D01*
X177927000Y-134747000D01*
X177927000Y-135940155D01*
X178156890Y-136061476D01*
X178566924Y-135891645D01*
X178995183Y-135501358D01*
X179241486Y-134976892D01*
X179120819Y-134747000D01*
X177927000Y-134747000D01*
X177673000Y-134747000D01*
X177653000Y-134747000D01*
X177653000Y-134493000D01*
X177673000Y-134493000D01*
X177673000Y-133299845D01*
X177927000Y-133299845D01*
X177927000Y-134493000D01*
X179120819Y-134493000D01*
X179241486Y-134263108D01*
X178995183Y-133738642D01*
X178566924Y-133348355D01*
X178156890Y-133178524D01*
X177927000Y-133299845D01*
X177673000Y-133299845D01*
X177443110Y-133178524D01*
X177033076Y-133348355D01*
X176887000Y-133481479D01*
X176887000Y-125598521D01*
X177033076Y-125731645D01*
X177443110Y-125901476D01*
X177673000Y-125780155D01*
X177673000Y-124587000D01*
X177927000Y-124587000D01*
X177927000Y-125780155D01*
X178156890Y-125901476D01*
X178566924Y-125731645D01*
X178995183Y-125341358D01*
X179241486Y-124816892D01*
X179120819Y-124587000D01*
X177927000Y-124587000D01*
X177673000Y-124587000D01*
X177653000Y-124587000D01*
X177653000Y-124333000D01*
X177673000Y-124333000D01*
X177673000Y-123139845D01*
X177927000Y-123139845D01*
X177927000Y-124333000D01*
X179120819Y-124333000D01*
X179241486Y-124103108D01*
X178995183Y-123578642D01*
X178566924Y-123188355D01*
X178156890Y-123018524D01*
X177927000Y-123139845D01*
X177673000Y-123139845D01*
X177443110Y-123018524D01*
X177033076Y-123188355D01*
X176887000Y-123321479D01*
X176887000Y-115438521D01*
X177033076Y-115571645D01*
X177443110Y-115741476D01*
X177673000Y-115620155D01*
X177673000Y-114427000D01*
X177927000Y-114427000D01*
X177927000Y-115620155D01*
X178156890Y-115741476D01*
X178566924Y-115571645D01*
X178995183Y-115181358D01*
X179241486Y-114656892D01*
X179120819Y-114427000D01*
X177927000Y-114427000D01*
X177673000Y-114427000D01*
X177653000Y-114427000D01*
X177653000Y-114173000D01*
X177673000Y-114173000D01*
X177673000Y-112979845D01*
X177927000Y-112979845D01*
X177927000Y-114173000D01*
X179120819Y-114173000D01*
X179241486Y-113943108D01*
X178995183Y-113418642D01*
X178566924Y-113028355D01*
X178156890Y-112858524D01*
X177927000Y-112979845D01*
X177673000Y-112979845D01*
X177443110Y-112858524D01*
X177033076Y-113028355D01*
X176887000Y-113161479D01*
X176887000Y-77559272D01*
X177048131Y-77398422D01*
X177372630Y-76616943D01*
X177373368Y-75770770D01*
X177050234Y-74988726D01*
X176887000Y-74825207D01*
X176887000Y-48266005D01*
X176887001Y-48266000D01*
X176763152Y-47643374D01*
X176637236Y-47454927D01*
X176410463Y-47115537D01*
X176410460Y-47115535D01*
X172586463Y-43291537D01*
X172058626Y-42938848D01*
X171436000Y-42815000D01*
X151789925Y-42815000D01*
X151449526Y-42474600D01*
X153587100Y-42474600D01*
X153633259Y-42465915D01*
X153675653Y-42438635D01*
X153704094Y-42397010D01*
X153714100Y-42347600D01*
X153714100Y-41125656D01*
X154111092Y-40531516D01*
X154273000Y-39717548D01*
X154273000Y-39022452D01*
X154111092Y-38208484D01*
X153714100Y-37614344D01*
X153714100Y-36347600D01*
X153705415Y-36301441D01*
X153678135Y-36259047D01*
X153636510Y-36230606D01*
X153587100Y-36220600D01*
X145587100Y-36220600D01*
X145540941Y-36229285D01*
X145498547Y-36256565D01*
X145470106Y-36298190D01*
X145460100Y-36347600D01*
X145460100Y-37120647D01*
X145264781Y-37246331D01*
X145007452Y-37622944D01*
X144916921Y-38070000D01*
X144916921Y-40670000D01*
X144995506Y-41087641D01*
X145242331Y-41471219D01*
X145460100Y-41620014D01*
X145460100Y-42347600D01*
X145468785Y-42393759D01*
X145496065Y-42436153D01*
X145537690Y-42464594D01*
X145587100Y-42474600D01*
X147979000Y-42474600D01*
X147979000Y-42932000D01*
X148102848Y-43554626D01*
X148455537Y-44082463D01*
X149965535Y-45592460D01*
X149965537Y-45592463D01*
X150493374Y-45945152D01*
X151116000Y-46069000D01*
X170762074Y-46069000D01*
X173633000Y-48939925D01*
X173633000Y-74796777D01*
X173443869Y-74985578D01*
X173119370Y-75767057D01*
X173118632Y-76613230D01*
X173118680Y-76613347D01*
X172298770Y-76612632D01*
X171516726Y-76935766D01*
X170917869Y-77533578D01*
X170593370Y-78315057D01*
X170592639Y-79153359D01*
X169758770Y-79152632D01*
X168976726Y-79475766D01*
X168377869Y-80073578D01*
X168053370Y-80855057D01*
X168052639Y-81693359D01*
X167218770Y-81692632D01*
X166436726Y-82015766D01*
X165837869Y-82613578D01*
X165513370Y-83395057D01*
X165512639Y-84233359D01*
X164678770Y-84232632D01*
X163896726Y-84555766D01*
X163297869Y-85153578D01*
X162973370Y-85935057D01*
X162972639Y-86773359D01*
X162138770Y-86772632D01*
X161356726Y-87095766D01*
X160757869Y-87693578D01*
X160433370Y-88475057D01*
X160432639Y-89313359D01*
X159598770Y-89312632D01*
X158816726Y-89635766D01*
X158217869Y-90233578D01*
X157893370Y-91015057D01*
X157892639Y-91853359D01*
X157058770Y-91852632D01*
X156276726Y-92175766D01*
X155677869Y-92773578D01*
X155353370Y-93555057D01*
X155352639Y-94393359D01*
X154518770Y-94392632D01*
X153736726Y-94715766D01*
X153137869Y-95313578D01*
X152813370Y-96095057D01*
X152812639Y-96933359D01*
X151978770Y-96932632D01*
X151196726Y-97255766D01*
X150597869Y-97853578D01*
X150273370Y-98635057D01*
X150272639Y-99473359D01*
X149438770Y-99472632D01*
X148656726Y-99795766D01*
X148057869Y-100393578D01*
X147733370Y-101175057D01*
X147732639Y-102013359D01*
X146898770Y-102012632D01*
X146116726Y-102335766D01*
X145517869Y-102933578D01*
X145193370Y-103715057D01*
X145192639Y-104553359D01*
X144358770Y-104552632D01*
X143576726Y-104875766D01*
X142977869Y-105473578D01*
X142653370Y-106255057D01*
X142652639Y-107093359D01*
X141818770Y-107092632D01*
X141036726Y-107415766D01*
X140437869Y-108013578D01*
X140113370Y-108795057D01*
X140112632Y-109641230D01*
X95607000Y-109641230D01*
X95607000Y-77573247D01*
X95782131Y-77398422D01*
X96106630Y-76616943D01*
X96107368Y-75770770D01*
X95784234Y-74988726D01*
X95186422Y-74389869D01*
X94404943Y-74065370D01*
X93558770Y-74064632D01*
X92776726Y-74387766D01*
X92177869Y-74985578D01*
X92134300Y-75090504D01*
X92134300Y-70695545D01*
X95336261Y-70695545D01*
X95410395Y-70941664D01*
X95947623Y-71134765D01*
X96517854Y-71107578D01*
X96918405Y-70941664D01*
X96992539Y-70695545D01*
X96164400Y-69867405D01*
X95336261Y-70695545D01*
X92134300Y-70695545D01*
X92134300Y-66312179D01*
X94215321Y-68393200D01*
X94215321Y-68487800D01*
X94293906Y-68905441D01*
X94540731Y-69289019D01*
X94735115Y-69421836D01*
X94717435Y-69471023D01*
X94744622Y-70041254D01*
X94910536Y-70441805D01*
X95156655Y-70515939D01*
X95984795Y-69687800D01*
X95970653Y-69673658D01*
X96007431Y-69636879D01*
X96321369Y-69636879D01*
X96358148Y-69673658D01*
X96344005Y-69687800D01*
X97172145Y-70515939D01*
X97418264Y-70441805D01*
X97611365Y-69904577D01*
X97588521Y-69425428D01*
X97765619Y-69311469D01*
X98022948Y-68934856D01*
X98113479Y-68487800D01*
X98113479Y-66887800D01*
X98034894Y-66470159D01*
X97788069Y-66086581D01*
X97411456Y-65829252D01*
X96964400Y-65738721D01*
X96869800Y-65738721D01*
X92134300Y-61003222D01*
X92134300Y-60496879D01*
X96694400Y-60496879D01*
X97112041Y-60418294D01*
X97495619Y-60171469D01*
X97752948Y-59794856D01*
X97843479Y-59347800D01*
X97843479Y-57506892D01*
X116414514Y-57506892D01*
X116660817Y-58031358D01*
X117089076Y-58421645D01*
X117499110Y-58591476D01*
X117729000Y-58470155D01*
X117729000Y-57277000D01*
X116535181Y-57277000D01*
X116414514Y-57506892D01*
X97843479Y-57506892D01*
X97843479Y-56793108D01*
X116414514Y-56793108D01*
X116535181Y-57023000D01*
X117729000Y-57023000D01*
X117729000Y-55829845D01*
X117983000Y-55829845D01*
X117983000Y-57023000D01*
X118003000Y-57023000D01*
X118003000Y-57277000D01*
X117983000Y-57277000D01*
X117983000Y-58470155D01*
X118212890Y-58591476D01*
X118622924Y-58421645D01*
X118769000Y-58288521D01*
X118769000Y-69312747D01*
X118744781Y-69328331D01*
X118487452Y-69704944D01*
X118396921Y-70152000D01*
X118396921Y-72152000D01*
X118475506Y-72569641D01*
X118722331Y-72953219D01*
X119015949Y-73153840D01*
X118744781Y-73328331D01*
X118487452Y-73704944D01*
X118396921Y-74152000D01*
X118396921Y-76152000D01*
X118475506Y-76569641D01*
X118722331Y-76953219D01*
X118769000Y-76985107D01*
X118769000Y-77358753D01*
X118593869Y-77533578D01*
X118269370Y-78315057D01*
X118268632Y-79161230D01*
X118591766Y-79943274D01*
X119189578Y-80542131D01*
X119971057Y-80866630D01*
X120809359Y-80867361D01*
X120808632Y-81701230D01*
X121131766Y-82483274D01*
X121729578Y-83082131D01*
X122511057Y-83406630D01*
X123357230Y-83407368D01*
X124139274Y-83084234D01*
X124738131Y-82486422D01*
X125062630Y-81704943D01*
X125063368Y-80858770D01*
X124740234Y-80076726D01*
X124563000Y-79899182D01*
X124563000Y-76991253D01*
X124587219Y-76975669D01*
X124844548Y-76599056D01*
X124852660Y-76559000D01*
X126093504Y-76559000D01*
X126095506Y-76569641D01*
X126342331Y-76953219D01*
X126389000Y-76985107D01*
X126389000Y-84978753D01*
X126213869Y-85153578D01*
X125889370Y-85935057D01*
X125888632Y-86781230D01*
X126211766Y-87563274D01*
X126809578Y-88162131D01*
X127591057Y-88486630D01*
X128429359Y-88487361D01*
X128428632Y-89321230D01*
X128751766Y-90103274D01*
X129349578Y-90702131D01*
X130131057Y-91026630D01*
X130969359Y-91027361D01*
X130968632Y-91861230D01*
X131291766Y-92643274D01*
X131889578Y-93242131D01*
X132671057Y-93566630D01*
X133509359Y-93567361D01*
X133508632Y-94401230D01*
X133831766Y-95183274D01*
X134429578Y-95782131D01*
X135211057Y-96106630D01*
X136049359Y-96107361D01*
X136048632Y-96941230D01*
X136371766Y-97723274D01*
X136969578Y-98322131D01*
X137751057Y-98646630D01*
X138589359Y-98647361D01*
X138588632Y-99481230D01*
X138911766Y-100263274D01*
X139509578Y-100862131D01*
X140291057Y-101186630D01*
X141129359Y-101187361D01*
X141128632Y-102021230D01*
X141451766Y-102803274D01*
X142049578Y-103402131D01*
X142831057Y-103726630D01*
X143677230Y-103727368D01*
X144459274Y-103404234D01*
X145058131Y-102806422D01*
X145382630Y-102024943D01*
X145383368Y-101178770D01*
X145060234Y-100396726D01*
X144883000Y-100219182D01*
X144883000Y-76991253D01*
X144907219Y-76975669D01*
X145164548Y-76599056D01*
X145255079Y-76152000D01*
X145255079Y-74152000D01*
X145176494Y-73734359D01*
X144929669Y-73350781D01*
X144636051Y-73150160D01*
X144907219Y-72975669D01*
X145164548Y-72599056D01*
X145255079Y-72152000D01*
X145255079Y-70152000D01*
X145176494Y-69734359D01*
X144929669Y-69350781D01*
X144883000Y-69318893D01*
X144883000Y-59136321D01*
X144946000Y-59149079D01*
X146646000Y-59149079D01*
X147063641Y-59070494D01*
X147447219Y-58823669D01*
X147704548Y-58447056D01*
X147795079Y-58000000D01*
X147795079Y-56300000D01*
X147716494Y-55882359D01*
X147469669Y-55498781D01*
X147093056Y-55241452D01*
X146646000Y-55150921D01*
X144946000Y-55150921D01*
X144528359Y-55229506D01*
X144223482Y-55425688D01*
X144012565Y-55284758D01*
X143256000Y-55134268D01*
X142499435Y-55284758D01*
X142343000Y-55389285D01*
X142343000Y-50829253D01*
X142367219Y-50813669D01*
X142624548Y-50437056D01*
X142715079Y-49990000D01*
X142715079Y-48230000D01*
X144916921Y-48230000D01*
X144916921Y-50830000D01*
X144995506Y-51247641D01*
X145242331Y-51631219D01*
X145491200Y-51801264D01*
X145491200Y-52590700D01*
X145499885Y-52636859D01*
X145527165Y-52679253D01*
X145568790Y-52707694D01*
X145618200Y-52717700D01*
X147979000Y-52717700D01*
X147979000Y-82438753D01*
X147803869Y-82613578D01*
X147479370Y-83395057D01*
X147478632Y-84241230D01*
X147801766Y-85023274D01*
X148399578Y-85622131D01*
X149181057Y-85946630D01*
X150027230Y-85947368D01*
X150809274Y-85624234D01*
X151408131Y-85026422D01*
X151732630Y-84244943D01*
X151733368Y-83398770D01*
X151410234Y-82616726D01*
X151233000Y-82439182D01*
X151233000Y-51197506D01*
X151250258Y-51171677D01*
X151637645Y-51389144D01*
X151765566Y-51420124D01*
X152019000Y-51300777D01*
X152019000Y-49657000D01*
X152273000Y-49657000D01*
X152273000Y-51300777D01*
X152526434Y-51420124D01*
X152654355Y-51389144D01*
X153212317Y-51075922D01*
X153607942Y-50573020D01*
X153781000Y-49957000D01*
X153781000Y-49657000D01*
X152273000Y-49657000D01*
X152019000Y-49657000D01*
X151999000Y-49657000D01*
X151999000Y-49403000D01*
X152019000Y-49403000D01*
X152019000Y-47759223D01*
X152273000Y-47759223D01*
X152273000Y-49403000D01*
X153781000Y-49403000D01*
X153781000Y-49103000D01*
X153607942Y-48486980D01*
X153212317Y-47984078D01*
X152654355Y-47670856D01*
X152526434Y-47639876D01*
X152273000Y-47759223D01*
X152019000Y-47759223D01*
X151765566Y-47639876D01*
X151637645Y-47670856D01*
X151250258Y-47888323D01*
X151110016Y-47678436D01*
X150977600Y-47589958D01*
X150977600Y-46431200D01*
X150968915Y-46385041D01*
X150941635Y-46342647D01*
X150900010Y-46314206D01*
X150850600Y-46304200D01*
X145618200Y-46304200D01*
X145572041Y-46312885D01*
X145529647Y-46340165D01*
X145501206Y-46381790D01*
X145491200Y-46431200D01*
X145491200Y-47260635D01*
X145264781Y-47406331D01*
X145007452Y-47782944D01*
X144916921Y-48230000D01*
X142715079Y-48230000D01*
X142715079Y-47990000D01*
X142636494Y-47572359D01*
X142389669Y-47188781D01*
X142096051Y-46988160D01*
X142367219Y-46813669D01*
X142624548Y-46437056D01*
X142715079Y-45990000D01*
X142715079Y-43990000D01*
X142636494Y-43572359D01*
X142389669Y-43188781D01*
X142343000Y-43156893D01*
X142343000Y-35135895D01*
X142542682Y-34655007D01*
X142543316Y-33928182D01*
X142265758Y-33256440D01*
X141752264Y-32742048D01*
X141081007Y-32463318D01*
X140354182Y-32462684D01*
X139682440Y-32740242D01*
X139446038Y-32976231D01*
X139212264Y-32742048D01*
X138541007Y-32463318D01*
X137814182Y-32462684D01*
X137142440Y-32740242D01*
X136906038Y-32976231D01*
X136672264Y-32742048D01*
X136001007Y-32463318D01*
X135274182Y-32462684D01*
X134602440Y-32740242D01*
X134366038Y-32976231D01*
X134132264Y-32742048D01*
X133461007Y-32463318D01*
X132734182Y-32462684D01*
X132062440Y-32740242D01*
X131826038Y-32976231D01*
X131592264Y-32742048D01*
X130921007Y-32463318D01*
X130194182Y-32462684D01*
X129522440Y-32740242D01*
X129286038Y-32976231D01*
X129052264Y-32742048D01*
X128381007Y-32463318D01*
X127654182Y-32462684D01*
X126982440Y-32740242D01*
X126746038Y-32976231D01*
X126512264Y-32742048D01*
X125841007Y-32463318D01*
X125114182Y-32462684D01*
X124442440Y-32740242D01*
X123928048Y-33253736D01*
X123649318Y-33924993D01*
X123648684Y-34651818D01*
X123849000Y-35136620D01*
X123849000Y-55389285D01*
X123692565Y-55284758D01*
X122936000Y-55134268D01*
X122179435Y-55284758D01*
X121666000Y-55627824D01*
X121152565Y-55284758D01*
X120396000Y-55134268D01*
X119639435Y-55284758D01*
X118998050Y-55713318D01*
X118787537Y-56028373D01*
X118622924Y-55878355D01*
X118212890Y-55708524D01*
X117983000Y-55829845D01*
X117729000Y-55829845D01*
X117499110Y-55708524D01*
X117089076Y-55878355D01*
X116660817Y-56268642D01*
X116414514Y-56793108D01*
X97843479Y-56793108D01*
X97843479Y-45147800D01*
X97764894Y-44730159D01*
X97518069Y-44346581D01*
X97141456Y-44089252D01*
X96694400Y-43998721D01*
X95123000Y-43998721D01*
X95123000Y-43688000D01*
X95114315Y-43641841D01*
X95087035Y-43599447D01*
X95045410Y-43571006D01*
X94996000Y-43561000D01*
X90521400Y-43561000D01*
X90521400Y-39691879D01*
X91984400Y-39691879D01*
X92402041Y-39613294D01*
X92785619Y-39366469D01*
X93042948Y-38989856D01*
X93133479Y-38542800D01*
X93133479Y-36742800D01*
X93054894Y-36325159D01*
X92808069Y-35941581D01*
X92431456Y-35684252D01*
X91984400Y-35593721D01*
X90184400Y-35593721D01*
X89766759Y-35672306D01*
X89484899Y-35853678D01*
X89359810Y-35770096D01*
X88584111Y-35615800D01*
X88504689Y-35615800D01*
X87728990Y-35770096D01*
X87473215Y-35941000D01*
X87075585Y-35941000D01*
X86819810Y-35770096D01*
X86044111Y-35615800D01*
X85964689Y-35615800D01*
X85188990Y-35770096D01*
X84933215Y-35941000D01*
X84582000Y-35941000D01*
X84535841Y-35949685D01*
X84493447Y-35976965D01*
X84465006Y-36018590D01*
X84455000Y-36068000D01*
X84455000Y-36323812D01*
X84091985Y-36867101D01*
X83937689Y-37642800D01*
X84091985Y-38418499D01*
X84455000Y-38961788D01*
X84455000Y-39116000D01*
X84463685Y-39162159D01*
X84490965Y-39204553D01*
X84532590Y-39232994D01*
X84582000Y-39243000D01*
X84781160Y-39243000D01*
X85188990Y-39515504D01*
X85964689Y-39669800D01*
X86044111Y-39669800D01*
X86567400Y-39565711D01*
X86567400Y-43561000D01*
X81788000Y-43561000D01*
X81741841Y-43569685D01*
X81699447Y-43596965D01*
X81671006Y-43638590D01*
X81661000Y-43688000D01*
X81661000Y-43998721D01*
X80394400Y-43998721D01*
X79976759Y-44077306D01*
X79593181Y-44324131D01*
X79335852Y-44700744D01*
X79245321Y-45147800D01*
X79245321Y-59347800D01*
X79323906Y-59765441D01*
X79570731Y-60149019D01*
X79947344Y-60406348D01*
X80394400Y-60496879D01*
X84878300Y-60496879D01*
X84878300Y-65943252D01*
X84711456Y-65829252D01*
X84264400Y-65738721D01*
X82664400Y-65738721D01*
X82246759Y-65817306D01*
X81863181Y-66064131D01*
X81605852Y-66440744D01*
X81515321Y-66887800D01*
X81515321Y-68487800D01*
X81593906Y-68905441D01*
X81840731Y-69289019D01*
X82035115Y-69421836D01*
X82017435Y-69471023D01*
X82044622Y-70041254D01*
X82210536Y-70441805D01*
X82456655Y-70515939D01*
X83284795Y-69687800D01*
X83270653Y-69673658D01*
X83307431Y-69636879D01*
X83621369Y-69636879D01*
X83658148Y-69673658D01*
X83644005Y-69687800D01*
X84472145Y-70515939D01*
X84718264Y-70441805D01*
X84878300Y-69996567D01*
X84878300Y-77629000D01*
X65477000Y-97030300D01*
X65477000Y-75877145D01*
X70723661Y-75877145D01*
X70797795Y-76123264D01*
X71335023Y-76316365D01*
X71905254Y-76289178D01*
X72305805Y-76123264D01*
X72379939Y-75877145D01*
X71551800Y-75049005D01*
X70723661Y-75877145D01*
X65477000Y-75877145D01*
X65477000Y-72706000D01*
X66409250Y-71773750D01*
X66837810Y-71132365D01*
X66891312Y-70863391D01*
X69602721Y-73574800D01*
X69602721Y-73669400D01*
X69681306Y-74087041D01*
X69928131Y-74470619D01*
X70122515Y-74603436D01*
X70104835Y-74652623D01*
X70132022Y-75222854D01*
X70297936Y-75623405D01*
X70544055Y-75697539D01*
X71372195Y-74869400D01*
X71358053Y-74855258D01*
X71394831Y-74818479D01*
X71708769Y-74818479D01*
X71745548Y-74855258D01*
X71731405Y-74869400D01*
X72559545Y-75697539D01*
X72805664Y-75623405D01*
X72998765Y-75086177D01*
X72975921Y-74607028D01*
X73153019Y-74493069D01*
X73410348Y-74116456D01*
X73500879Y-73669400D01*
X73500879Y-72069400D01*
X73422294Y-71651759D01*
X73175469Y-71268181D01*
X72798856Y-71010852D01*
X72351800Y-70920321D01*
X72257200Y-70920321D01*
X72032424Y-70695545D01*
X82636261Y-70695545D01*
X82710395Y-70941664D01*
X83247623Y-71134765D01*
X83817854Y-71107578D01*
X84218405Y-70941664D01*
X84292539Y-70695545D01*
X83464400Y-69867405D01*
X82636261Y-70695545D01*
X72032424Y-70695545D01*
X67015357Y-65678479D01*
X72081800Y-65678479D01*
X72499441Y-65599894D01*
X72883019Y-65353069D01*
X73140348Y-64976456D01*
X73230879Y-64529400D01*
X73230879Y-50329400D01*
X73152294Y-49911759D01*
X72905469Y-49528181D01*
X72528856Y-49270852D01*
X72081800Y-49180321D01*
X70485000Y-49180321D01*
X70485000Y-48768000D01*
X70476315Y-48721841D01*
X70449035Y-48679447D01*
X70407410Y-48651006D01*
X70358000Y-48641000D01*
X65908800Y-48641000D01*
X65908800Y-44873479D01*
X67371800Y-44873479D01*
X67789441Y-44794894D01*
X68173019Y-44548069D01*
X68430348Y-44171456D01*
X68520879Y-43724400D01*
X68520879Y-41924400D01*
X68442294Y-41506759D01*
X68195469Y-41123181D01*
X67818856Y-40865852D01*
X67371800Y-40775321D01*
X65571800Y-40775321D01*
X65154159Y-40853906D01*
X64872299Y-41035278D01*
X64747210Y-40951696D01*
X63971511Y-40797400D01*
X63892089Y-40797400D01*
X63116390Y-40951696D01*
X62661800Y-41255444D01*
X62207210Y-40951696D01*
X61431511Y-40797400D01*
X61352089Y-40797400D01*
X60576390Y-40951696D01*
X60092532Y-41275000D01*
X59944000Y-41275000D01*
X59897841Y-41283685D01*
X59855447Y-41310965D01*
X59827006Y-41352590D01*
X59817000Y-41402000D01*
X59817000Y-41543425D01*
X59479385Y-42048701D01*
X59325089Y-42824400D01*
X59479385Y-43600099D01*
X59817000Y-44105375D01*
X59817000Y-44450000D01*
X59825685Y-44496159D01*
X59852965Y-44538553D01*
X59894590Y-44566994D01*
X59944000Y-44577000D01*
X60396642Y-44577000D01*
X60576390Y-44697104D01*
X61352089Y-44851400D01*
X61431511Y-44851400D01*
X61954800Y-44747311D01*
X61954800Y-48641000D01*
X57150000Y-48641000D01*
X57103841Y-48649685D01*
X57061447Y-48676965D01*
X57033006Y-48718590D01*
X57023000Y-48768000D01*
X57023000Y-49180321D01*
X55781800Y-49180321D01*
X55364159Y-49258906D01*
X54980581Y-49505731D01*
X54723252Y-49882344D01*
X54632721Y-50329400D01*
X54632721Y-64529400D01*
X54711306Y-64947041D01*
X54958131Y-65330619D01*
X55334744Y-65587948D01*
X55781800Y-65678479D01*
X59986300Y-65678479D01*
X59986300Y-70350400D01*
X60120631Y-71025731D01*
X60098856Y-71010852D01*
X59651800Y-70920321D01*
X58051800Y-70920321D01*
X57634159Y-70998906D01*
X57250581Y-71245731D01*
X56993252Y-71622344D01*
X56902721Y-72069400D01*
X56902721Y-73669400D01*
X56981306Y-74087041D01*
X57228131Y-74470619D01*
X57422515Y-74603436D01*
X57404835Y-74652623D01*
X57432022Y-75222854D01*
X57597936Y-75623405D01*
X57844055Y-75697539D01*
X58672195Y-74869400D01*
X58658053Y-74855258D01*
X58694831Y-74818479D01*
X59008769Y-74818479D01*
X59045548Y-74855258D01*
X59031405Y-74869400D01*
X59859545Y-75697539D01*
X60105664Y-75623405D01*
X60298765Y-75086177D01*
X60275921Y-74607028D01*
X60453019Y-74493069D01*
X60710348Y-74116456D01*
X60800879Y-73669400D01*
X60800879Y-72069400D01*
X60781057Y-71964057D01*
X61523000Y-72706000D01*
X61523000Y-95905100D01*
X53526300Y-87908400D01*
X53526300Y-86352400D01*
X53375810Y-85595835D01*
X52947250Y-84954450D01*
X47653079Y-79660279D01*
X47653079Y-75877145D01*
X58023661Y-75877145D01*
X58097795Y-76123264D01*
X58635023Y-76316365D01*
X59205254Y-76289178D01*
X59605805Y-76123264D01*
X59679939Y-75877145D01*
X58851800Y-75049005D01*
X58023661Y-75877145D01*
X47653079Y-75877145D01*
X47653079Y-70751000D01*
X47574494Y-70333359D01*
X47327669Y-69949781D01*
X46951056Y-69692452D01*
X46504000Y-69601921D01*
X45085000Y-69601921D01*
X45085000Y-69342000D01*
X45076315Y-69295841D01*
X45049035Y-69253447D01*
X45007410Y-69225006D01*
X44958000Y-69215000D01*
X40331000Y-69215000D01*
X40331000Y-65295079D01*
X41794000Y-65295079D01*
X42211641Y-65216494D01*
X42595219Y-64969669D01*
X42852548Y-64593056D01*
X42943079Y-64146000D01*
X42943079Y-62346000D01*
X42864494Y-61928359D01*
X42617669Y-61544781D01*
X42241056Y-61287452D01*
X41794000Y-61196921D01*
X40331000Y-61196921D01*
X40331000Y-56896000D01*
X40180510Y-56139435D01*
X39981000Y-55840847D01*
X39981000Y-55473605D01*
X39981001Y-55473600D01*
X39857152Y-54850974D01*
X39798047Y-54762517D01*
X39504463Y-54323137D01*
X39504460Y-54323135D01*
X37878863Y-52697537D01*
X37351026Y-52344848D01*
X36728400Y-52221000D01*
X32900695Y-52221000D01*
X32419807Y-52021318D01*
X31692982Y-52020684D01*
X31021240Y-52298242D01*
X30506848Y-52811736D01*
X30228118Y-53482993D01*
X30227484Y-54209818D01*
X30505042Y-54881560D01*
X31018536Y-55395952D01*
X31689793Y-55674682D01*
X32416618Y-55675316D01*
X32901420Y-55475000D01*
X36054474Y-55475000D01*
X36604162Y-56024687D01*
X36527490Y-56139435D01*
X36377000Y-56896000D01*
X36377000Y-61323089D01*
X35853711Y-61219000D01*
X35774289Y-61219000D01*
X34998590Y-61373296D01*
X34666787Y-61595000D01*
X34290000Y-61595000D01*
X34243841Y-61603685D01*
X34201447Y-61630965D01*
X34173006Y-61672590D01*
X34163000Y-61722000D01*
X34163000Y-62079066D01*
X33901585Y-62470301D01*
X33747289Y-63246000D01*
X33901585Y-64021699D01*
X34163000Y-64412934D01*
X34163000Y-64770000D01*
X34171685Y-64816159D01*
X34198965Y-64858553D01*
X34240590Y-64886994D01*
X34290000Y-64897000D01*
X34666787Y-64897000D01*
X34998590Y-65118704D01*
X35774289Y-65273000D01*
X35853711Y-65273000D01*
X36377000Y-65168911D01*
X36377000Y-69215000D01*
X31750000Y-69215000D01*
X31703841Y-69223685D01*
X31661447Y-69250965D01*
X31633006Y-69292590D01*
X31623000Y-69342000D01*
X31623000Y-69601921D01*
X30204000Y-69601921D01*
X29786359Y-69680506D01*
X29402781Y-69927331D01*
X29145452Y-70303944D01*
X29054921Y-70751000D01*
X21243000Y-70751000D01*
X21243000Y-47634532D01*
X38397073Y-47634532D01*
X38495736Y-47901387D01*
X39105461Y-48127908D01*
X39755460Y-48103856D01*
X40244264Y-47901387D01*
X40342927Y-47634532D01*
X39370000Y-46661605D01*
X38397073Y-47634532D01*
X21243000Y-47634532D01*
X21243000Y-46217461D01*
X37724092Y-46217461D01*
X37748144Y-46867460D01*
X37950613Y-47356264D01*
X38217468Y-47454927D01*
X39190395Y-46482000D01*
X39549605Y-46482000D01*
X40522532Y-47454927D01*
X40789387Y-47356264D01*
X41015908Y-46746539D01*
X40991856Y-46096540D01*
X40789387Y-45607736D01*
X40522532Y-45509073D01*
X39549605Y-46482000D01*
X39190395Y-46482000D01*
X38217468Y-45509073D01*
X37950613Y-45607736D01*
X37724092Y-46217461D01*
X21243000Y-46217461D01*
X21243000Y-45329468D01*
X38397073Y-45329468D01*
X39370000Y-46302395D01*
X40342927Y-45329468D01*
X40244264Y-45062613D01*
X39634539Y-44836092D01*
X38984540Y-44860144D01*
X38495736Y-45062613D01*
X38397073Y-45329468D01*
X21243000Y-45329468D01*
X21243000Y-36489230D01*
X25914232Y-36489230D01*
X26237366Y-37271274D01*
X26835178Y-37870131D01*
X27616657Y-38194630D01*
X28462830Y-38195368D01*
X29244874Y-37872234D01*
X29422418Y-37695000D01*
X34798000Y-37695000D01*
X35420626Y-37571152D01*
X35873000Y-37268886D01*
X35873000Y-44000000D01*
X35881685Y-44046159D01*
X35908965Y-44088553D01*
X35950590Y-44116994D01*
X36000000Y-44127000D01*
X42000000Y-44127000D01*
X42046159Y-44118315D01*
X42088553Y-44091035D01*
X42116994Y-44049410D01*
X42127000Y-44000000D01*
X42127000Y-35205800D01*
X52290905Y-35205800D01*
X52771793Y-35405482D01*
X53498618Y-35406116D01*
X54170360Y-35128558D01*
X54684752Y-34615064D01*
X54963482Y-33943807D01*
X54964116Y-33216982D01*
X54686558Y-32545240D01*
X54173064Y-32030848D01*
X53501807Y-31752118D01*
X52774982Y-31751484D01*
X52290180Y-31951800D01*
X42127000Y-31951800D01*
X42127000Y-28500000D01*
X42118315Y-28453841D01*
X42091035Y-28411447D01*
X42049410Y-28383006D01*
X42000000Y-28373000D01*
X36000000Y-28373000D01*
X35953841Y-28381685D01*
X35911447Y-28408965D01*
X35883006Y-28450590D01*
X35873000Y-28500000D01*
X35873000Y-32692075D01*
X34124074Y-34441000D01*
X29422847Y-34441000D01*
X29248022Y-34265869D01*
X28466543Y-33941370D01*
X27620370Y-33940632D01*
X26838326Y-34263766D01*
X26239469Y-34861578D01*
X25914970Y-35643057D01*
X25914232Y-36489230D01*
X21243000Y-36489230D01*
X21243000Y-23529000D01*
X180941000Y-23529000D01*
X180941000Y-280517600D01*
M02*
