M48
INCH,TZ
T1C0.016
T2C0.031
T3C0.039
T4C0.042
T5C0.047
T6C0.049
T7C0.051
T8C0.136
T9C0.138
%
G90
G05
T1
X9980Y-36200
X9980Y-41200
X10000Y-16000
X10000Y-21000
X10000Y-26000
X10000Y-31000
X10000Y-51000
X10000Y-56000
X10000Y-66000
X10000Y-71000
X10000Y-81000
X10000Y-86000
X10000Y-96000
X10000Y-101000
X10000Y-106000
X10579Y-23987
X12354Y-12202
X12354Y-18202
X12850Y-28150
X12850Y-29150
X12850Y-30150
X12850Y-31150
X12850Y-32150
X12850Y-33150
X13394Y-13197
X13394Y-15197
X13394Y-17197
X13600Y-28150
X13600Y-29150
X13600Y-32150
X13600Y-33150
X14600Y-28150
X14600Y-29150
X14600Y-33150
X14980Y-36200
X14980Y-41200
X15000Y-46000
X15000Y-51000
X15000Y-56000
X15000Y-61000
X15000Y-66000
X15000Y-71000
X15000Y-76000
X15000Y-81000
X15000Y-86000
X15000Y-91000
X15000Y-96000
X15000Y-101000
X15000Y-106000
X15600Y-28150
X15600Y-29150
X15600Y-33150
X16600Y-28150
X16600Y-29150
X16600Y-32150
X16600Y-33150
X17350Y-28150
X17350Y-29150
X17350Y-30150
X17350Y-31150
X17350Y-32150
X17350Y-33150
X17494Y-18297
X19389Y-20152
X19500Y-23187
X19500Y-29687
X19980Y-36270
X19980Y-41270
X20000Y-46000
X20000Y-51000
X20000Y-56000
X20000Y-61000
X20000Y-66000
X20000Y-71000
X20000Y-76000
X20000Y-81000
X20000Y-86000
X20000Y-91000
X20000Y-96000
X20000Y-101000
X20000Y-106000
X20129Y-21152
X20139Y-22382
X20500Y-28063
X20804Y-15927
X21704Y-16927
X22920Y-20110
X22920Y-21110
X22920Y-22110
X22920Y-23110
X22920Y-24110
X22920Y-25110
X23000Y-34000
X23670Y-20110
X23670Y-21110
X23670Y-24110
X23670Y-25110
X24670Y-20110
X24670Y-21110
X24670Y-25110
X25670Y-20110
X25670Y-21110
X25670Y-25110
X26670Y-20110
X26670Y-21110
X26670Y-24110
X26670Y-25110
X27000Y-34000
X27420Y-20110
X27420Y-21110
X27420Y-22110
X27420Y-23110
X27420Y-24110
X27420Y-25110
X29360Y-15212
X29360Y-22212
X29970Y-15577
X30427Y-13220
X30427Y-14360
X31000Y-30187
X32610Y-18070
X32610Y-19070
X32610Y-20070
X32610Y-21070
X32610Y-22070
X32610Y-23070
X33360Y-18070
X33360Y-19070
X33360Y-22070
X33360Y-23070
X34360Y-18070
X34360Y-19070
X34360Y-23070
X35360Y-18070
X35360Y-19070
X35360Y-23070
X36360Y-18070
X36360Y-19070
X36360Y-22070
X36360Y-23070
X37110Y-18070
X37110Y-19070
X37110Y-20070
X37110Y-21070
X37110Y-22070
X37110Y-23070
X38000Y-47000
X38000Y-51000
X38000Y-55000
X38000Y-59000
X38000Y-63000
X38000Y-67000
X38000Y-71000
X38000Y-75000
X38000Y-79000
X38000Y-83000
X38000Y-87000
X38000Y-91000
X38000Y-95000
X38000Y-99000
X38000Y-103000
X38000Y-107000
X39107Y-10140
X39107Y-13320
X39500Y-25750
X39560Y-19537
X40107Y-11140
X40107Y-12320
X40810Y-18537
X41000Y-46000
X41000Y-51000
X41000Y-56000
X41000Y-61000
X41000Y-66000
X41000Y-71000
X41000Y-76000
X41000Y-81000
X41000Y-86000
X41000Y-91000
X41000Y-96000
X41000Y-101000
X41000Y-106000
X42060Y-17537
X43000Y-11000
X43000Y-16000
X45400Y-22500
X46000Y-25750
X46000Y-46000
X46000Y-51000
X46000Y-56000
X46000Y-61000
X46000Y-66000
X46000Y-71000
X46000Y-76000
X46000Y-81000
X46000Y-86000
X46000Y-91000
X46000Y-96000
X46000Y-101000
X46000Y-106000
X46400Y-21500
X46400Y-23500
X47000Y-11000
X49400Y-25787
X51000Y-51000
X51000Y-56000
X51000Y-66000
X51000Y-71000
X51000Y-81000
X51000Y-86000
X51000Y-96000
X51000Y-101000
X51000Y-106000
X56400Y-15650
X57400Y-25787
X59900Y-21000
X60900Y-19500
X64400Y-11000
X64400Y-16000
X64400Y-21000
X64400Y-26000
X70000Y-16000
X70000Y-21000
X70000Y-26000
X70000Y-31000
X70000Y-36000
X70000Y-41000
X70000Y-43000
X70000Y-47000
X70000Y-51000
X70000Y-55000
X70000Y-59000
X70000Y-63000
X70000Y-67000
X70000Y-71000
X70000Y-75000
X70000Y-79000
X70000Y-83000
X70000Y-87000
X70000Y-91000
X70000Y-95000
X70000Y-99000
X70000Y-103000
X70000Y-107000
T2
X13100Y-36729
X13100Y-37516
X18100Y-36729
X18100Y-37516
X23170Y-28689
X23170Y-29476
X28170Y-28689
X28170Y-29476
X32860Y-26649
X32860Y-27436
X37860Y-26649
X37860Y-27436
T3
X11040Y-14200
X12620Y-21200
X14100Y-24900
X15100Y-24900
X16100Y-24900
X20920Y-13220
X24000Y-45000
X24000Y-49000
X24000Y-53000
X24000Y-57000
X24000Y-61000
X24000Y-65000
X24000Y-69000
X24000Y-73000
X24000Y-77000
X24000Y-81000
X24000Y-85000
X24000Y-89000
X24000Y-93000
X24000Y-97000
X24000Y-101000
X24000Y-105000
X24170Y-16860
X25000Y-45000
X25000Y-49000
X25000Y-53000
X25000Y-57000
X25000Y-61000
X25000Y-65000
X25000Y-69000
X25000Y-73000
X25000Y-77000
X25000Y-81000
X25000Y-85000
X25000Y-89000
X25000Y-93000
X25000Y-97000
X25000Y-101000
X25000Y-105000
X25170Y-16860
X26000Y-45000
X26000Y-49000
X26000Y-53000
X26000Y-57000
X26000Y-61000
X26000Y-65000
X26000Y-69000
X26000Y-73000
X26000Y-77000
X26000Y-81000
X26000Y-85000
X26000Y-89000
X26000Y-93000
X26000Y-97000
X26000Y-101000
X26000Y-105000
X26170Y-16860
X27000Y-40000
X27000Y-45000
X27000Y-49000
X27000Y-53000
X27000Y-57000
X27000Y-61000
X27000Y-65000
X27000Y-69000
X27000Y-73000
X27000Y-77000
X27000Y-81000
X27000Y-85000
X27000Y-89000
X27000Y-93000
X27000Y-97000
X27000Y-101000
X27000Y-105000
X28000Y-39000
X28000Y-45000
X28000Y-49000
X28000Y-53000
X28000Y-57000
X28000Y-61000
X28000Y-65000
X28000Y-69000
X28000Y-73000
X28000Y-77000
X28000Y-81000
X28000Y-85000
X28000Y-89000
X28000Y-93000
X28000Y-97000
X28000Y-101000
X28000Y-105000
X29000Y-38000
X29000Y-45000
X29000Y-49000
X29000Y-53000
X29000Y-57000
X29000Y-61000
X29000Y-65000
X29000Y-69000
X29000Y-73000
X29000Y-77000
X29000Y-81000
X29000Y-85000
X29000Y-89000
X29000Y-93000
X29000Y-97000
X29000Y-101000
X29000Y-105000
X30000Y-37000
X30000Y-45000
X30000Y-49000
X30000Y-53000
X30000Y-57000
X30000Y-61000
X30000Y-65000
X30000Y-69000
X30000Y-73000
X30000Y-77000
X30000Y-81000
X30000Y-85000
X30000Y-89000
X30000Y-93000
X30000Y-97000
X30000Y-101000
X30000Y-105000
X31000Y-36000
X31000Y-45000
X31000Y-49000
X31000Y-53000
X31000Y-57000
X31000Y-61000
X31000Y-65000
X31000Y-69000
X31000Y-73000
X31000Y-77000
X31000Y-81000
X31000Y-85000
X31000Y-89000
X31000Y-93000
X31000Y-97000
X31000Y-101000
X31000Y-105000
X32000Y-35000
X32000Y-45000
X32000Y-49000
X32000Y-53000
X32000Y-57000
X32000Y-61000
X32000Y-65000
X32000Y-69000
X32000Y-73000
X32000Y-77000
X32000Y-81000
X32000Y-85000
X32000Y-89000
X32000Y-93000
X32000Y-97000
X32000Y-101000
X32000Y-105000
X33000Y-34000
X33000Y-45000
X33000Y-49000
X33000Y-53000
X33000Y-57000
X33000Y-61000
X33000Y-65000
X33000Y-69000
X33000Y-73000
X33000Y-77000
X33000Y-81000
X33000Y-85000
X33000Y-89000
X33000Y-93000
X33000Y-97000
X33000Y-101000
X33000Y-105000
X33860Y-14820
X34000Y-33000
X34000Y-45000
X34000Y-49000
X34000Y-53000
X34000Y-57000
X34000Y-61000
X34000Y-65000
X34000Y-69000
X34000Y-73000
X34000Y-77000
X34000Y-81000
X34000Y-85000
X34000Y-89000
X34000Y-93000
X34000Y-97000
X34000Y-101000
X34000Y-105000
X34860Y-14820
X35000Y-32000
X35000Y-45000
X35000Y-49000
X35000Y-53000
X35000Y-57000
X35000Y-61000
X35000Y-65000
X35000Y-69000
X35000Y-73000
X35000Y-77000
X35000Y-81000
X35000Y-85000
X35000Y-89000
X35000Y-93000
X35000Y-97000
X35000Y-101000
X35000Y-105000
X35860Y-14820
X36000Y-31000
X36000Y-45000
X36000Y-49000
X36000Y-53000
X36000Y-57000
X36000Y-61000
X36000Y-65000
X36000Y-69000
X36000Y-73000
X36000Y-77000
X36000Y-81000
X36000Y-85000
X36000Y-89000
X36000Y-93000
X36000Y-97000
X36000Y-101000
X36000Y-105000
X37000Y-29997
X37000Y-45000
X37000Y-49000
X37000Y-53000
X37000Y-57000
X37000Y-61000
X37000Y-65000
X37000Y-69000
X37000Y-73000
X37000Y-77000
X37000Y-81000
X37000Y-85000
X37000Y-89000
X37000Y-93000
X37000Y-97000
X37000Y-101000
X37000Y-105000
X38000Y-45000
X38000Y-49000
X38000Y-53000
X38000Y-57000
X38000Y-61000
X38000Y-65000
X38000Y-69000
X38000Y-73000
X38000Y-77000
X38000Y-81000
X38000Y-85000
X38000Y-89000
X38000Y-93000
X38000Y-97000
X38000Y-101000
X38000Y-105000
X46400Y-22500
X47400Y-22500
X47400Y-31000
X48400Y-22500
X48400Y-32000
X49400Y-13500
X49400Y-22500
X50400Y-13500
X50400Y-22500
X50400Y-34000
X51400Y-13500
X51400Y-22500
X51400Y-35000
X52400Y-13500
X52400Y-22500
X52400Y-36000
X53400Y-13500
X53400Y-22500
X53400Y-37000
X54400Y-13500
X54400Y-22500
X54400Y-38000
X55400Y-13500
X55400Y-22500
X55400Y-39000
X56000Y-45000
X56000Y-49000
X56000Y-53000
X56000Y-57000
X56000Y-61000
X56000Y-65000
X56000Y-69000
X56000Y-73000
X56000Y-77000
X56000Y-81000
X56000Y-85000
X56000Y-89000
X56000Y-93000
X56000Y-97000
X56000Y-101000
X56000Y-105000
X56400Y-22500
X56400Y-40000
X57000Y-45000
X57000Y-49000
X57000Y-53000
X57000Y-57000
X57000Y-61000
X57000Y-65000
X57000Y-69000
X57000Y-73000
X57000Y-77000
X57000Y-81000
X57000Y-85000
X57000Y-89000
X57000Y-93000
X57000Y-97000
X57000Y-101000
X57000Y-105000
X57400Y-22500
X58000Y-45000
X58000Y-49000
X58000Y-53000
X58000Y-57000
X58000Y-61000
X58000Y-65000
X58000Y-69000
X58000Y-73000
X58000Y-77000
X58000Y-81000
X58000Y-85000
X58000Y-89000
X58000Y-93000
X58000Y-97000
X58000Y-101000
X58000Y-105000
X58900Y-33000
X59000Y-40000
X59000Y-45000
X59000Y-49000
X59000Y-53000
X59000Y-57000
X59000Y-61000
X59000Y-65000
X59000Y-69000
X59000Y-73000
X59000Y-77000
X59000Y-81000
X59000Y-85000
X59000Y-89000
X59000Y-93000
X59000Y-97000
X59000Y-101000
X59000Y-105000
X60000Y-39000
X60000Y-45000
X60000Y-49000
X60000Y-53000
X60000Y-57000
X60000Y-61000
X60000Y-65000
X60000Y-69000
X60000Y-73000
X60000Y-77000
X60000Y-81000
X60000Y-85000
X60000Y-89000
X60000Y-93000
X60000Y-97000
X60000Y-101000
X60000Y-105000
X61000Y-38000
X61000Y-45000
X61000Y-49000
X61000Y-53000
X61000Y-57000
X61000Y-61000
X61000Y-65000
X61000Y-69000
X61000Y-73000
X61000Y-77000
X61000Y-81000
X61000Y-85000
X61000Y-89000
X61000Y-93000
X61000Y-97000
X61000Y-101000
X61000Y-105000
X62000Y-37000
X62000Y-45000
X62000Y-49000
X62000Y-53000
X62000Y-57000
X62000Y-61000
X62000Y-65000
X62000Y-69000
X62000Y-73000
X62000Y-77000
X62000Y-81000
X62000Y-85000
X62000Y-89000
X62000Y-93000
X62000Y-97000
X62000Y-101000
X62000Y-105000
X63000Y-36000
X63000Y-45000
X63000Y-49000
X63000Y-53000
X63000Y-57000
X63000Y-61000
X63000Y-65000
X63000Y-69000
X63000Y-73000
X63000Y-77000
X63000Y-81000
X63000Y-85000
X63000Y-89000
X63000Y-93000
X63000Y-97000
X63000Y-101000
X63000Y-105000
X64000Y-35000
X64000Y-45000
X64000Y-49000
X64000Y-53000
X64000Y-57000
X64000Y-61000
X64000Y-65000
X64000Y-69000
X64000Y-73000
X64000Y-77000
X64000Y-81000
X64000Y-85000
X64000Y-89000
X64000Y-93000
X64000Y-97000
X64000Y-101000
X64000Y-105000
X65000Y-34000
X65000Y-45000
X65000Y-49000
X65000Y-53000
X65000Y-57000
X65000Y-61000
X65000Y-65000
X65000Y-69000
X65000Y-73000
X65000Y-77000
X65000Y-81000
X65000Y-85000
X65000Y-89000
X65000Y-93000
X65000Y-97000
X65000Y-101000
X65000Y-105000
X66000Y-33000
X66000Y-45000
X66000Y-49000
X66000Y-53000
X66000Y-57000
X66000Y-61000
X66000Y-65000
X66000Y-69000
X66000Y-73000
X66000Y-77000
X66000Y-81000
X66000Y-85000
X66000Y-89000
X66000Y-93000
X66000Y-97000
X66000Y-101000
X66000Y-105000
X67000Y-32000
X67000Y-45000
X67000Y-49000
X67000Y-53000
X67000Y-57000
X67000Y-61000
X67000Y-65000
X67000Y-69000
X67000Y-73000
X67000Y-77000
X67000Y-81000
X67000Y-85000
X67000Y-89000
X67000Y-93000
X67000Y-97000
X67000Y-101000
X67000Y-105000
X68000Y-31000
X68000Y-45000
X68000Y-49000
X68000Y-53000
X68000Y-57000
X68000Y-61000
X68000Y-65000
X68000Y-69000
X68000Y-73000
X68000Y-77000
X68000Y-81000
X68000Y-85000
X68000Y-89000
X68000Y-93000
X68000Y-97000
X68000Y-101000
X68000Y-105000
X68994Y-29997
X69000Y-45000
X69000Y-49000
X69000Y-53000
X69000Y-57000
X69000Y-61000
X69000Y-65000
X69000Y-69000
X69000Y-73000
X69000Y-77000
X69000Y-81000
X69000Y-85000
X69000Y-89000
X69000Y-93000
X69000Y-97000
X69000Y-101000
X69000Y-105000
X70000Y-45000
X70000Y-49000
X70000Y-53000
X70000Y-57000
X70000Y-61000
X70000Y-65000
X70000Y-69000
X70000Y-73000
X70000Y-77000
X70000Y-81000
X70000Y-85000
X70000Y-89000
X70000Y-93000
X70000Y-97000
X70000Y-101000
X70000Y-105000
T4
X24000Y-108902
X25000Y-108902
X26000Y-108902
X27000Y-108902
X28000Y-108902
X29000Y-108902
X30000Y-108902
X31000Y-108902
X32000Y-108902
X33000Y-108902
X34000Y-108902
X35000Y-108902
X36000Y-108902
X37000Y-108902
X38000Y-108902
X56000Y-108902
X57000Y-108902
X58000Y-108902
X59000Y-108902
X60000Y-108902
X61000Y-108902
X62000Y-108902
X63000Y-108902
X64000Y-108902
X65000Y-108902
X66000Y-108902
X67000Y-108902
X68000Y-108902
X69000Y-108902
X70000Y-108902
T5
X57900Y-15500
X57900Y-19500
X58900Y-15500
X58900Y-19500
X59900Y-15500
X59900Y-19500
T6
X24000Y-43000
X25000Y-42000
X26000Y-41000
X56000Y-43000
X57000Y-42000
X58000Y-41000
T7
X15500Y-12300
X15500Y-14300
X15500Y-16300
X15500Y-18300
T8
X10000Y-11000
X10000Y-46000
X10000Y-61000
X10000Y-76000
X10000Y-91000
X10000Y-109000
X42810Y-25974
X51000Y-46000
X51000Y-61000
X51000Y-76000
X51000Y-91000
X51000Y-109000
X70000Y-11000
T9
X15100Y-31459
X25170Y-23419
X34860Y-21379
T0
M30
