%TF.GenerationSoftware,KiCad,Pcbnew,4.0.5*%
%TF.CreationDate,2018-01-19T20:33:35-07:00*%
%TF.ProjectId,MRI-RF-Amplifier,4D52492D52462D416D706C6966696572,6*%
%TF.FileFunction,Legend,Bot*%
%FSLAX46Y46*%
G04 Gerber Fmt 4.6, Leading zero omitted, Abs format (unit mm)*
G04 Created by KiCad (PCBNEW 4.0.5) date 01/19/18 20:33:35*
%MOMM*%
%LPD*%
G01*
G04 APERTURE LIST*
%ADD10C,0.100000*%
%ADD11C,0.250000*%
%ADD12C,0.120000*%
%ADD13C,0.150000*%
G04 APERTURE END LIST*
D10*
D11*
X117807239Y-73763143D02*
X117854858Y-73810762D01*
X117997715Y-73858381D01*
X118092953Y-73858381D01*
X118235811Y-73810762D01*
X118331049Y-73715524D01*
X118378668Y-73620286D01*
X118426287Y-73429810D01*
X118426287Y-73286952D01*
X118378668Y-73096476D01*
X118331049Y-73001238D01*
X118235811Y-72906000D01*
X118092953Y-72858381D01*
X117997715Y-72858381D01*
X117854858Y-72906000D01*
X117807239Y-72953619D01*
X116950096Y-73191714D02*
X116950096Y-73858381D01*
X117378668Y-73191714D02*
X117378668Y-73715524D01*
X117331049Y-73810762D01*
X117235811Y-73858381D01*
X117092953Y-73858381D01*
X116997715Y-73810762D01*
X116950096Y-73763143D01*
X116473906Y-73858381D02*
X116473906Y-73191714D01*
X116473906Y-73382190D02*
X116426287Y-73286952D01*
X116378668Y-73239333D01*
X116283430Y-73191714D01*
X116188191Y-73191714D01*
X115854858Y-73858381D02*
X115854858Y-73191714D01*
X115854858Y-73382190D02*
X115807239Y-73286952D01*
X115759620Y-73239333D01*
X115664382Y-73191714D01*
X115569143Y-73191714D01*
X114854857Y-73810762D02*
X114950095Y-73858381D01*
X115140572Y-73858381D01*
X115235810Y-73810762D01*
X115283429Y-73715524D01*
X115283429Y-73334571D01*
X115235810Y-73239333D01*
X115140572Y-73191714D01*
X114950095Y-73191714D01*
X114854857Y-73239333D01*
X114807238Y-73334571D01*
X114807238Y-73429810D01*
X115283429Y-73525048D01*
X114378667Y-73191714D02*
X114378667Y-73858381D01*
X114378667Y-73286952D02*
X114331048Y-73239333D01*
X114235810Y-73191714D01*
X114092952Y-73191714D01*
X113997714Y-73239333D01*
X113950095Y-73334571D01*
X113950095Y-73858381D01*
X113616762Y-73191714D02*
X113235810Y-73191714D01*
X113473905Y-72858381D02*
X113473905Y-73715524D01*
X113426286Y-73810762D01*
X113331048Y-73858381D01*
X113235810Y-73858381D01*
X111664380Y-73858381D02*
X112140571Y-73858381D01*
X112140571Y-72858381D01*
X111331047Y-73858381D02*
X111331047Y-73191714D01*
X111331047Y-72858381D02*
X111378666Y-72906000D01*
X111331047Y-72953619D01*
X111283428Y-72906000D01*
X111331047Y-72858381D01*
X111331047Y-72953619D01*
X110854857Y-73858381D02*
X110854857Y-73191714D01*
X110854857Y-73286952D02*
X110807238Y-73239333D01*
X110712000Y-73191714D01*
X110569142Y-73191714D01*
X110473904Y-73239333D01*
X110426285Y-73334571D01*
X110426285Y-73858381D01*
X110426285Y-73334571D02*
X110378666Y-73239333D01*
X110283428Y-73191714D01*
X110140571Y-73191714D01*
X110045333Y-73239333D01*
X109997714Y-73334571D01*
X109997714Y-73858381D01*
X109521524Y-73858381D02*
X109521524Y-73191714D01*
X109521524Y-72858381D02*
X109569143Y-72906000D01*
X109521524Y-72953619D01*
X109473905Y-72906000D01*
X109521524Y-72858381D01*
X109521524Y-72953619D01*
X109188191Y-73191714D02*
X108807239Y-73191714D01*
X109045334Y-72858381D02*
X109045334Y-73715524D01*
X108997715Y-73810762D01*
X108902477Y-73858381D01*
X108807239Y-73858381D01*
X108473905Y-73858381D02*
X108473905Y-73191714D01*
X108473905Y-72858381D02*
X108521524Y-72906000D01*
X108473905Y-72953619D01*
X108426286Y-72906000D01*
X108473905Y-72858381D01*
X108473905Y-72953619D01*
X107997715Y-73191714D02*
X107997715Y-73858381D01*
X107997715Y-73286952D02*
X107950096Y-73239333D01*
X107854858Y-73191714D01*
X107712000Y-73191714D01*
X107616762Y-73239333D01*
X107569143Y-73334571D01*
X107569143Y-73858381D01*
X106664381Y-73191714D02*
X106664381Y-74001238D01*
X106712000Y-74096476D01*
X106759619Y-74144095D01*
X106854858Y-74191714D01*
X106997715Y-74191714D01*
X107092953Y-74144095D01*
X106664381Y-73810762D02*
X106759619Y-73858381D01*
X106950096Y-73858381D01*
X107045334Y-73810762D01*
X107092953Y-73763143D01*
X107140572Y-73667905D01*
X107140572Y-73382190D01*
X107092953Y-73286952D01*
X107045334Y-73239333D01*
X106950096Y-73191714D01*
X106759619Y-73191714D01*
X106664381Y-73239333D01*
X104854857Y-73858381D02*
X105188191Y-73382190D01*
X105426286Y-73858381D02*
X105426286Y-72858381D01*
X105045333Y-72858381D01*
X104950095Y-72906000D01*
X104902476Y-72953619D01*
X104854857Y-73048857D01*
X104854857Y-73191714D01*
X104902476Y-73286952D01*
X104950095Y-73334571D01*
X105045333Y-73382190D01*
X105426286Y-73382190D01*
X104045333Y-73810762D02*
X104140571Y-73858381D01*
X104331048Y-73858381D01*
X104426286Y-73810762D01*
X104473905Y-73715524D01*
X104473905Y-73334571D01*
X104426286Y-73239333D01*
X104331048Y-73191714D01*
X104140571Y-73191714D01*
X104045333Y-73239333D01*
X103997714Y-73334571D01*
X103997714Y-73429810D01*
X104473905Y-73525048D01*
X103616762Y-73810762D02*
X103521524Y-73858381D01*
X103331048Y-73858381D01*
X103235809Y-73810762D01*
X103188190Y-73715524D01*
X103188190Y-73667905D01*
X103235809Y-73572667D01*
X103331048Y-73525048D01*
X103473905Y-73525048D01*
X103569143Y-73477429D01*
X103616762Y-73382190D01*
X103616762Y-73334571D01*
X103569143Y-73239333D01*
X103473905Y-73191714D01*
X103331048Y-73191714D01*
X103235809Y-73239333D01*
X102759619Y-73858381D02*
X102759619Y-73191714D01*
X102759619Y-72858381D02*
X102807238Y-72906000D01*
X102759619Y-72953619D01*
X102712000Y-72906000D01*
X102759619Y-72858381D01*
X102759619Y-72953619D01*
X102331048Y-73810762D02*
X102235810Y-73858381D01*
X102045334Y-73858381D01*
X101950095Y-73810762D01*
X101902476Y-73715524D01*
X101902476Y-73667905D01*
X101950095Y-73572667D01*
X102045334Y-73525048D01*
X102188191Y-73525048D01*
X102283429Y-73477429D01*
X102331048Y-73382190D01*
X102331048Y-73334571D01*
X102283429Y-73239333D01*
X102188191Y-73191714D01*
X102045334Y-73191714D01*
X101950095Y-73239333D01*
X101616762Y-73191714D02*
X101235810Y-73191714D01*
X101473905Y-72858381D02*
X101473905Y-73715524D01*
X101426286Y-73810762D01*
X101331048Y-73858381D01*
X101235810Y-73858381D01*
X100759619Y-73858381D02*
X100854857Y-73810762D01*
X100902476Y-73763143D01*
X100950095Y-73667905D01*
X100950095Y-73382190D01*
X100902476Y-73286952D01*
X100854857Y-73239333D01*
X100759619Y-73191714D01*
X100616761Y-73191714D01*
X100521523Y-73239333D01*
X100473904Y-73286952D01*
X100426285Y-73382190D01*
X100426285Y-73667905D01*
X100473904Y-73763143D01*
X100521523Y-73810762D01*
X100616761Y-73858381D01*
X100759619Y-73858381D01*
X99997714Y-73858381D02*
X99997714Y-73191714D01*
X99997714Y-73382190D02*
X99950095Y-73286952D01*
X99902476Y-73239333D01*
X99807238Y-73191714D01*
X99711999Y-73191714D01*
X99426285Y-73810762D02*
X99331047Y-73858381D01*
X99140571Y-73858381D01*
X99045332Y-73810762D01*
X98997713Y-73715524D01*
X98997713Y-73667905D01*
X99045332Y-73572667D01*
X99140571Y-73525048D01*
X99283428Y-73525048D01*
X99378666Y-73477429D01*
X99426285Y-73382190D01*
X99426285Y-73334571D01*
X99378666Y-73239333D01*
X99283428Y-73191714D01*
X99140571Y-73191714D01*
X99045332Y-73239333D01*
X124997078Y-47696381D02*
X125473269Y-47696381D01*
X125473269Y-46696381D01*
X124663745Y-47172571D02*
X124330411Y-47172571D01*
X124187554Y-47696381D02*
X124663745Y-47696381D01*
X124663745Y-46696381D01*
X124187554Y-46696381D01*
X123758983Y-47696381D02*
X123758983Y-46696381D01*
X123520888Y-46696381D01*
X123378030Y-46744000D01*
X123282792Y-46839238D01*
X123235173Y-46934476D01*
X123187554Y-47124952D01*
X123187554Y-47267810D01*
X123235173Y-47458286D01*
X123282792Y-47553524D01*
X123378030Y-47648762D01*
X123520888Y-47696381D01*
X123758983Y-47696381D01*
X121997078Y-47696381D02*
X121997078Y-46696381D01*
X121758983Y-46696381D01*
X121616125Y-46744000D01*
X121520887Y-46839238D01*
X121473268Y-46934476D01*
X121425649Y-47124952D01*
X121425649Y-47267810D01*
X121473268Y-47458286D01*
X121520887Y-47553524D01*
X121616125Y-47648762D01*
X121758983Y-47696381D01*
X121997078Y-47696381D01*
X120997078Y-47696381D02*
X120997078Y-47029714D01*
X120997078Y-47220190D02*
X120949459Y-47124952D01*
X120901840Y-47077333D01*
X120806602Y-47029714D01*
X120711363Y-47029714D01*
X120378030Y-47696381D02*
X120378030Y-47029714D01*
X120378030Y-46696381D02*
X120425649Y-46744000D01*
X120378030Y-46791619D01*
X120330411Y-46744000D01*
X120378030Y-46696381D01*
X120378030Y-46791619D01*
X119997078Y-47029714D02*
X119758983Y-47696381D01*
X119520887Y-47029714D01*
X118758982Y-47648762D02*
X118854220Y-47696381D01*
X119044697Y-47696381D01*
X119139935Y-47648762D01*
X119187554Y-47553524D01*
X119187554Y-47172571D01*
X119139935Y-47077333D01*
X119044697Y-47029714D01*
X118854220Y-47029714D01*
X118758982Y-47077333D01*
X118711363Y-47172571D01*
X118711363Y-47267810D01*
X119187554Y-47363048D01*
X118282792Y-47696381D02*
X118282792Y-47029714D01*
X118282792Y-47220190D02*
X118235173Y-47124952D01*
X118187554Y-47077333D01*
X118092316Y-47029714D01*
X117997077Y-47029714D01*
X117711363Y-47648762D02*
X117616125Y-47696381D01*
X117425649Y-47696381D01*
X117330410Y-47648762D01*
X117282791Y-47553524D01*
X117282791Y-47505905D01*
X117330410Y-47410667D01*
X117425649Y-47363048D01*
X117568506Y-47363048D01*
X117663744Y-47315429D01*
X117711363Y-47220190D01*
X117711363Y-47172571D01*
X117663744Y-47077333D01*
X117568506Y-47029714D01*
X117425649Y-47029714D01*
X117330410Y-47077333D01*
D12*
X144326000Y-74152000D02*
X144326000Y-72152000D01*
X142186000Y-72152000D02*
X142186000Y-74152000D01*
X141786000Y-74152000D02*
X141786000Y-72152000D01*
X139646000Y-72152000D02*
X139646000Y-74152000D01*
X139246000Y-74152000D02*
X139246000Y-72152000D01*
X137106000Y-72152000D02*
X137106000Y-74152000D01*
X136706000Y-74152000D02*
X136706000Y-72152000D01*
X134566000Y-72152000D02*
X134566000Y-74152000D01*
X134166000Y-74152000D02*
X134166000Y-72152000D01*
X132026000Y-72152000D02*
X132026000Y-74152000D01*
X131626000Y-74152000D02*
X131626000Y-72152000D01*
X129486000Y-72152000D02*
X129486000Y-74152000D01*
X129086000Y-74152000D02*
X129086000Y-72152000D01*
X126946000Y-72152000D02*
X126946000Y-74152000D01*
X141786000Y-47990000D02*
X141786000Y-45990000D01*
X139646000Y-45990000D02*
X139646000Y-47990000D01*
X139246000Y-47990000D02*
X139246000Y-45990000D01*
X137106000Y-45990000D02*
X137106000Y-47990000D01*
X136706000Y-47990000D02*
X136706000Y-45990000D01*
X134566000Y-45990000D02*
X134566000Y-47990000D01*
X134166000Y-47990000D02*
X134166000Y-45990000D01*
X132026000Y-45990000D02*
X132026000Y-47990000D01*
X131626000Y-47990000D02*
X131626000Y-45990000D01*
X129486000Y-45990000D02*
X129486000Y-47990000D01*
X129086000Y-47990000D02*
X129086000Y-45990000D01*
X126946000Y-45990000D02*
X126946000Y-47990000D01*
X124006000Y-74152000D02*
X124006000Y-72152000D01*
X121866000Y-72152000D02*
X121866000Y-74152000D01*
X121466000Y-74152000D02*
X121466000Y-72152000D01*
X119326000Y-72152000D02*
X119326000Y-74152000D01*
D13*
X143708381Y-67683143D02*
X143232190Y-67349809D01*
X143708381Y-67111714D02*
X142708381Y-67111714D01*
X142708381Y-67492667D01*
X142756000Y-67587905D01*
X142803619Y-67635524D01*
X142898857Y-67683143D01*
X143041714Y-67683143D01*
X143136952Y-67635524D01*
X143184571Y-67587905D01*
X143232190Y-67492667D01*
X143232190Y-67111714D01*
X143708381Y-68635524D02*
X143708381Y-68064095D01*
X143708381Y-68349809D02*
X142708381Y-68349809D01*
X142851238Y-68254571D01*
X142946476Y-68159333D01*
X142994095Y-68064095D01*
X142708381Y-69254571D02*
X142708381Y-69349810D01*
X142756000Y-69445048D01*
X142803619Y-69492667D01*
X142898857Y-69540286D01*
X143089333Y-69587905D01*
X143327429Y-69587905D01*
X143517905Y-69540286D01*
X143613143Y-69492667D01*
X143660762Y-69445048D01*
X143708381Y-69349810D01*
X143708381Y-69254571D01*
X143660762Y-69159333D01*
X143613143Y-69111714D01*
X143517905Y-69064095D01*
X143327429Y-69016476D01*
X143089333Y-69016476D01*
X142898857Y-69064095D01*
X142803619Y-69111714D01*
X142756000Y-69159333D01*
X142708381Y-69254571D01*
X141168381Y-67683143D02*
X140692190Y-67349809D01*
X141168381Y-67111714D02*
X140168381Y-67111714D01*
X140168381Y-67492667D01*
X140216000Y-67587905D01*
X140263619Y-67635524D01*
X140358857Y-67683143D01*
X140501714Y-67683143D01*
X140596952Y-67635524D01*
X140644571Y-67587905D01*
X140692190Y-67492667D01*
X140692190Y-67111714D01*
X141168381Y-68635524D02*
X141168381Y-68064095D01*
X141168381Y-68349809D02*
X140168381Y-68349809D01*
X140311238Y-68254571D01*
X140406476Y-68159333D01*
X140454095Y-68064095D01*
X141168381Y-69587905D02*
X141168381Y-69016476D01*
X141168381Y-69302190D02*
X140168381Y-69302190D01*
X140311238Y-69206952D01*
X140406476Y-69111714D01*
X140454095Y-69016476D01*
X138628381Y-67683143D02*
X138152190Y-67349809D01*
X138628381Y-67111714D02*
X137628381Y-67111714D01*
X137628381Y-67492667D01*
X137676000Y-67587905D01*
X137723619Y-67635524D01*
X137818857Y-67683143D01*
X137961714Y-67683143D01*
X138056952Y-67635524D01*
X138104571Y-67587905D01*
X138152190Y-67492667D01*
X138152190Y-67111714D01*
X138628381Y-68635524D02*
X138628381Y-68064095D01*
X138628381Y-68349809D02*
X137628381Y-68349809D01*
X137771238Y-68254571D01*
X137866476Y-68159333D01*
X137914095Y-68064095D01*
X137723619Y-69016476D02*
X137676000Y-69064095D01*
X137628381Y-69159333D01*
X137628381Y-69397429D01*
X137676000Y-69492667D01*
X137723619Y-69540286D01*
X137818857Y-69587905D01*
X137914095Y-69587905D01*
X138056952Y-69540286D01*
X138628381Y-68968857D01*
X138628381Y-69587905D01*
X136088381Y-67683143D02*
X135612190Y-67349809D01*
X136088381Y-67111714D02*
X135088381Y-67111714D01*
X135088381Y-67492667D01*
X135136000Y-67587905D01*
X135183619Y-67635524D01*
X135278857Y-67683143D01*
X135421714Y-67683143D01*
X135516952Y-67635524D01*
X135564571Y-67587905D01*
X135612190Y-67492667D01*
X135612190Y-67111714D01*
X136088381Y-68635524D02*
X136088381Y-68064095D01*
X136088381Y-68349809D02*
X135088381Y-68349809D01*
X135231238Y-68254571D01*
X135326476Y-68159333D01*
X135374095Y-68064095D01*
X135088381Y-68968857D02*
X135088381Y-69587905D01*
X135469333Y-69254571D01*
X135469333Y-69397429D01*
X135516952Y-69492667D01*
X135564571Y-69540286D01*
X135659810Y-69587905D01*
X135897905Y-69587905D01*
X135993143Y-69540286D01*
X136040762Y-69492667D01*
X136088381Y-69397429D01*
X136088381Y-69111714D01*
X136040762Y-69016476D01*
X135993143Y-68968857D01*
X133548381Y-67683143D02*
X133072190Y-67349809D01*
X133548381Y-67111714D02*
X132548381Y-67111714D01*
X132548381Y-67492667D01*
X132596000Y-67587905D01*
X132643619Y-67635524D01*
X132738857Y-67683143D01*
X132881714Y-67683143D01*
X132976952Y-67635524D01*
X133024571Y-67587905D01*
X133072190Y-67492667D01*
X133072190Y-67111714D01*
X133548381Y-68635524D02*
X133548381Y-68064095D01*
X133548381Y-68349809D02*
X132548381Y-68349809D01*
X132691238Y-68254571D01*
X132786476Y-68159333D01*
X132834095Y-68064095D01*
X132881714Y-69492667D02*
X133548381Y-69492667D01*
X132500762Y-69254571D02*
X133215048Y-69016476D01*
X133215048Y-69635524D01*
X131008381Y-67683143D02*
X130532190Y-67349809D01*
X131008381Y-67111714D02*
X130008381Y-67111714D01*
X130008381Y-67492667D01*
X130056000Y-67587905D01*
X130103619Y-67635524D01*
X130198857Y-67683143D01*
X130341714Y-67683143D01*
X130436952Y-67635524D01*
X130484571Y-67587905D01*
X130532190Y-67492667D01*
X130532190Y-67111714D01*
X131008381Y-68635524D02*
X131008381Y-68064095D01*
X131008381Y-68349809D02*
X130008381Y-68349809D01*
X130151238Y-68254571D01*
X130246476Y-68159333D01*
X130294095Y-68064095D01*
X130008381Y-69540286D02*
X130008381Y-69064095D01*
X130484571Y-69016476D01*
X130436952Y-69064095D01*
X130389333Y-69159333D01*
X130389333Y-69397429D01*
X130436952Y-69492667D01*
X130484571Y-69540286D01*
X130579810Y-69587905D01*
X130817905Y-69587905D01*
X130913143Y-69540286D01*
X130960762Y-69492667D01*
X131008381Y-69397429D01*
X131008381Y-69159333D01*
X130960762Y-69064095D01*
X130913143Y-69016476D01*
X128468381Y-67683143D02*
X127992190Y-67349809D01*
X128468381Y-67111714D02*
X127468381Y-67111714D01*
X127468381Y-67492667D01*
X127516000Y-67587905D01*
X127563619Y-67635524D01*
X127658857Y-67683143D01*
X127801714Y-67683143D01*
X127896952Y-67635524D01*
X127944571Y-67587905D01*
X127992190Y-67492667D01*
X127992190Y-67111714D01*
X128468381Y-68635524D02*
X128468381Y-68064095D01*
X128468381Y-68349809D02*
X127468381Y-68349809D01*
X127611238Y-68254571D01*
X127706476Y-68159333D01*
X127754095Y-68064095D01*
X127468381Y-69492667D02*
X127468381Y-69302190D01*
X127516000Y-69206952D01*
X127563619Y-69159333D01*
X127706476Y-69064095D01*
X127896952Y-69016476D01*
X128277905Y-69016476D01*
X128373143Y-69064095D01*
X128420762Y-69111714D01*
X128468381Y-69206952D01*
X128468381Y-69397429D01*
X128420762Y-69492667D01*
X128373143Y-69540286D01*
X128277905Y-69587905D01*
X128039810Y-69587905D01*
X127944571Y-69540286D01*
X127896952Y-69492667D01*
X127849333Y-69397429D01*
X127849333Y-69206952D01*
X127896952Y-69111714D01*
X127944571Y-69064095D01*
X128039810Y-69016476D01*
X141168381Y-41521143D02*
X140692190Y-41187809D01*
X141168381Y-40949714D02*
X140168381Y-40949714D01*
X140168381Y-41330667D01*
X140216000Y-41425905D01*
X140263619Y-41473524D01*
X140358857Y-41521143D01*
X140501714Y-41521143D01*
X140596952Y-41473524D01*
X140644571Y-41425905D01*
X140692190Y-41330667D01*
X140692190Y-40949714D01*
X141168381Y-42473524D02*
X141168381Y-41902095D01*
X141168381Y-42187809D02*
X140168381Y-42187809D01*
X140311238Y-42092571D01*
X140406476Y-41997333D01*
X140454095Y-41902095D01*
X141168381Y-42949714D02*
X141168381Y-43140190D01*
X141120762Y-43235429D01*
X141073143Y-43283048D01*
X140930286Y-43378286D01*
X140739810Y-43425905D01*
X140358857Y-43425905D01*
X140263619Y-43378286D01*
X140216000Y-43330667D01*
X140168381Y-43235429D01*
X140168381Y-43044952D01*
X140216000Y-42949714D01*
X140263619Y-42902095D01*
X140358857Y-42854476D01*
X140596952Y-42854476D01*
X140692190Y-42902095D01*
X140739810Y-42949714D01*
X140787429Y-43044952D01*
X140787429Y-43235429D01*
X140739810Y-43330667D01*
X140692190Y-43378286D01*
X140596952Y-43425905D01*
X138628381Y-41521143D02*
X138152190Y-41187809D01*
X138628381Y-40949714D02*
X137628381Y-40949714D01*
X137628381Y-41330667D01*
X137676000Y-41425905D01*
X137723619Y-41473524D01*
X137818857Y-41521143D01*
X137961714Y-41521143D01*
X138056952Y-41473524D01*
X138104571Y-41425905D01*
X138152190Y-41330667D01*
X138152190Y-40949714D01*
X137723619Y-41902095D02*
X137676000Y-41949714D01*
X137628381Y-42044952D01*
X137628381Y-42283048D01*
X137676000Y-42378286D01*
X137723619Y-42425905D01*
X137818857Y-42473524D01*
X137914095Y-42473524D01*
X138056952Y-42425905D01*
X138628381Y-41854476D01*
X138628381Y-42473524D01*
X137628381Y-43092571D02*
X137628381Y-43187810D01*
X137676000Y-43283048D01*
X137723619Y-43330667D01*
X137818857Y-43378286D01*
X138009333Y-43425905D01*
X138247429Y-43425905D01*
X138437905Y-43378286D01*
X138533143Y-43330667D01*
X138580762Y-43283048D01*
X138628381Y-43187810D01*
X138628381Y-43092571D01*
X138580762Y-42997333D01*
X138533143Y-42949714D01*
X138437905Y-42902095D01*
X138247429Y-42854476D01*
X138009333Y-42854476D01*
X137818857Y-42902095D01*
X137723619Y-42949714D01*
X137676000Y-42997333D01*
X137628381Y-43092571D01*
X136088381Y-41521143D02*
X135612190Y-41187809D01*
X136088381Y-40949714D02*
X135088381Y-40949714D01*
X135088381Y-41330667D01*
X135136000Y-41425905D01*
X135183619Y-41473524D01*
X135278857Y-41521143D01*
X135421714Y-41521143D01*
X135516952Y-41473524D01*
X135564571Y-41425905D01*
X135612190Y-41330667D01*
X135612190Y-40949714D01*
X135183619Y-41902095D02*
X135136000Y-41949714D01*
X135088381Y-42044952D01*
X135088381Y-42283048D01*
X135136000Y-42378286D01*
X135183619Y-42425905D01*
X135278857Y-42473524D01*
X135374095Y-42473524D01*
X135516952Y-42425905D01*
X136088381Y-41854476D01*
X136088381Y-42473524D01*
X136088381Y-43425905D02*
X136088381Y-42854476D01*
X136088381Y-43140190D02*
X135088381Y-43140190D01*
X135231238Y-43044952D01*
X135326476Y-42949714D01*
X135374095Y-42854476D01*
X133548381Y-41521143D02*
X133072190Y-41187809D01*
X133548381Y-40949714D02*
X132548381Y-40949714D01*
X132548381Y-41330667D01*
X132596000Y-41425905D01*
X132643619Y-41473524D01*
X132738857Y-41521143D01*
X132881714Y-41521143D01*
X132976952Y-41473524D01*
X133024571Y-41425905D01*
X133072190Y-41330667D01*
X133072190Y-40949714D01*
X132643619Y-41902095D02*
X132596000Y-41949714D01*
X132548381Y-42044952D01*
X132548381Y-42283048D01*
X132596000Y-42378286D01*
X132643619Y-42425905D01*
X132738857Y-42473524D01*
X132834095Y-42473524D01*
X132976952Y-42425905D01*
X133548381Y-41854476D01*
X133548381Y-42473524D01*
X132643619Y-42854476D02*
X132596000Y-42902095D01*
X132548381Y-42997333D01*
X132548381Y-43235429D01*
X132596000Y-43330667D01*
X132643619Y-43378286D01*
X132738857Y-43425905D01*
X132834095Y-43425905D01*
X132976952Y-43378286D01*
X133548381Y-42806857D01*
X133548381Y-43425905D01*
X131008381Y-41521143D02*
X130532190Y-41187809D01*
X131008381Y-40949714D02*
X130008381Y-40949714D01*
X130008381Y-41330667D01*
X130056000Y-41425905D01*
X130103619Y-41473524D01*
X130198857Y-41521143D01*
X130341714Y-41521143D01*
X130436952Y-41473524D01*
X130484571Y-41425905D01*
X130532190Y-41330667D01*
X130532190Y-40949714D01*
X130103619Y-41902095D02*
X130056000Y-41949714D01*
X130008381Y-42044952D01*
X130008381Y-42283048D01*
X130056000Y-42378286D01*
X130103619Y-42425905D01*
X130198857Y-42473524D01*
X130294095Y-42473524D01*
X130436952Y-42425905D01*
X131008381Y-41854476D01*
X131008381Y-42473524D01*
X130008381Y-42806857D02*
X130008381Y-43425905D01*
X130389333Y-43092571D01*
X130389333Y-43235429D01*
X130436952Y-43330667D01*
X130484571Y-43378286D01*
X130579810Y-43425905D01*
X130817905Y-43425905D01*
X130913143Y-43378286D01*
X130960762Y-43330667D01*
X131008381Y-43235429D01*
X131008381Y-42949714D01*
X130960762Y-42854476D01*
X130913143Y-42806857D01*
X128468381Y-41521143D02*
X127992190Y-41187809D01*
X128468381Y-40949714D02*
X127468381Y-40949714D01*
X127468381Y-41330667D01*
X127516000Y-41425905D01*
X127563619Y-41473524D01*
X127658857Y-41521143D01*
X127801714Y-41521143D01*
X127896952Y-41473524D01*
X127944571Y-41425905D01*
X127992190Y-41330667D01*
X127992190Y-40949714D01*
X127563619Y-41902095D02*
X127516000Y-41949714D01*
X127468381Y-42044952D01*
X127468381Y-42283048D01*
X127516000Y-42378286D01*
X127563619Y-42425905D01*
X127658857Y-42473524D01*
X127754095Y-42473524D01*
X127896952Y-42425905D01*
X128468381Y-41854476D01*
X128468381Y-42473524D01*
X127801714Y-43330667D02*
X128468381Y-43330667D01*
X127420762Y-43092571D02*
X128135048Y-42854476D01*
X128135048Y-43473524D01*
X123388381Y-67683143D02*
X122912190Y-67349809D01*
X123388381Y-67111714D02*
X122388381Y-67111714D01*
X122388381Y-67492667D01*
X122436000Y-67587905D01*
X122483619Y-67635524D01*
X122578857Y-67683143D01*
X122721714Y-67683143D01*
X122816952Y-67635524D01*
X122864571Y-67587905D01*
X122912190Y-67492667D01*
X122912190Y-67111714D01*
X122483619Y-68064095D02*
X122436000Y-68111714D01*
X122388381Y-68206952D01*
X122388381Y-68445048D01*
X122436000Y-68540286D01*
X122483619Y-68587905D01*
X122578857Y-68635524D01*
X122674095Y-68635524D01*
X122816952Y-68587905D01*
X123388381Y-68016476D01*
X123388381Y-68635524D01*
X122388381Y-69540286D02*
X122388381Y-69064095D01*
X122864571Y-69016476D01*
X122816952Y-69064095D01*
X122769333Y-69159333D01*
X122769333Y-69397429D01*
X122816952Y-69492667D01*
X122864571Y-69540286D01*
X122959810Y-69587905D01*
X123197905Y-69587905D01*
X123293143Y-69540286D01*
X123340762Y-69492667D01*
X123388381Y-69397429D01*
X123388381Y-69159333D01*
X123340762Y-69064095D01*
X123293143Y-69016476D01*
X120848381Y-67683143D02*
X120372190Y-67349809D01*
X120848381Y-67111714D02*
X119848381Y-67111714D01*
X119848381Y-67492667D01*
X119896000Y-67587905D01*
X119943619Y-67635524D01*
X120038857Y-67683143D01*
X120181714Y-67683143D01*
X120276952Y-67635524D01*
X120324571Y-67587905D01*
X120372190Y-67492667D01*
X120372190Y-67111714D01*
X119943619Y-68064095D02*
X119896000Y-68111714D01*
X119848381Y-68206952D01*
X119848381Y-68445048D01*
X119896000Y-68540286D01*
X119943619Y-68587905D01*
X120038857Y-68635524D01*
X120134095Y-68635524D01*
X120276952Y-68587905D01*
X120848381Y-68016476D01*
X120848381Y-68635524D01*
X119848381Y-69492667D02*
X119848381Y-69302190D01*
X119896000Y-69206952D01*
X119943619Y-69159333D01*
X120086476Y-69064095D01*
X120276952Y-69016476D01*
X120657905Y-69016476D01*
X120753143Y-69064095D01*
X120800762Y-69111714D01*
X120848381Y-69206952D01*
X120848381Y-69397429D01*
X120800762Y-69492667D01*
X120753143Y-69540286D01*
X120657905Y-69587905D01*
X120419810Y-69587905D01*
X120324571Y-69540286D01*
X120276952Y-69492667D01*
X120229333Y-69397429D01*
X120229333Y-69206952D01*
X120276952Y-69111714D01*
X120324571Y-69064095D01*
X120419810Y-69016476D01*
M02*
