%TF.GenerationSoftware,KiCad,Pcbnew,4.0.5*%
%TF.CreationDate,2018-01-19T20:33:35-07:00*%
%TF.ProjectId,MRI-RF-Amplifier,4D52492D52462D416D706C6966696572,6*%
%TF.FileFunction,Soldermask,Top*%
%FSLAX46Y46*%
G04 Gerber Fmt 4.6, Leading zero omitted, Abs format (unit mm)*
G04 Created by KiCad (PCBNEW 4.0.5) date 01/19/18 20:33:35*
%MOMM*%
%LPD*%
G01*
G04 APERTURE LIST*
%ADD10C,0.100000*%
%ADD11C,4.500000*%
%ADD12R,1.800000X1.800000*%
%ADD13O,1.800000X1.800000*%
%ADD14R,2.300000X3.500000*%
%ADD15R,2.000000X1.600000*%
%ADD16R,1.500000X1.500000*%
%ADD17R,1.524000X2.155000*%
%ADD18R,2.000000X2.500000*%
%ADD19R,2.000000X2.600000*%
%ADD20O,2.000000X2.600000*%
%ADD21R,2.000000X1.700000*%
%ADD22R,1.700000X2.000000*%
%ADD23R,1.000000X1.000000*%
%ADD24C,2.000000*%
%ADD25R,1.700000X1.700000*%
%ADD26O,1.700000X1.700000*%
%ADD27C,1.700000*%
%ADD28R,1.600000X2.000000*%
%ADD29R,1.600000X1.600000*%
%ADD30C,1.600000*%
%ADD31C,0.800000*%
%ADD32R,1.400000X13.700000*%
%ADD33R,1.100000X4.600000*%
%ADD34R,10.800000X9.400000*%
G04 APERTURE END LIST*
D10*
D11*
X108737400Y-65974000D03*
X38354000Y-79906000D03*
D12*
X40894000Y-63246000D03*
D13*
X38354000Y-63246000D03*
X35814000Y-63246000D03*
D14*
X49530000Y-65880000D03*
X49530000Y-71280000D03*
D11*
X25400000Y-154940000D03*
X129540000Y-154940000D03*
X129540000Y-231140000D03*
X25400000Y-231140000D03*
X25400000Y-116840000D03*
X129540000Y-116840000D03*
D15*
X95332800Y-31292800D03*
X99332800Y-31292800D03*
X70694800Y-36474400D03*
X74694800Y-36474400D03*
X45244000Y-56845200D03*
X49244000Y-56845200D03*
D16*
X28068000Y-33528000D03*
X31368000Y-33528000D03*
X28068000Y-38608000D03*
X31368000Y-38608000D03*
X28068000Y-43688000D03*
X31368000Y-43688000D03*
X140716000Y-36450000D03*
X140716000Y-39750000D03*
X138176000Y-36450000D03*
X138176000Y-39750000D03*
X135636000Y-36450000D03*
X135636000Y-39750000D03*
X133096000Y-36450000D03*
X133096000Y-39750000D03*
X130556000Y-36450000D03*
X130556000Y-39750000D03*
X128016000Y-36450000D03*
X128016000Y-39750000D03*
D17*
X128016000Y-51440000D03*
X130556000Y-51440000D03*
X133096000Y-51440000D03*
X135636000Y-51440000D03*
X138176000Y-51440000D03*
X140716000Y-51440000D03*
X140716000Y-43180000D03*
X138176000Y-43180000D03*
X135636000Y-43180000D03*
X133096000Y-43180000D03*
X130556000Y-43180000D03*
X128016000Y-43180000D03*
D18*
X46260000Y-31242000D03*
X50260000Y-31242000D03*
X46260000Y-36322000D03*
X50260000Y-36322000D03*
X46260000Y-41402000D03*
X50260000Y-41402000D03*
D19*
X147066000Y-39370000D03*
D20*
X149606000Y-39370000D03*
X152146000Y-39370000D03*
D19*
X147066000Y-49530000D03*
D20*
X149606000Y-49530000D03*
X152146000Y-49530000D03*
D21*
X85566000Y-28295600D03*
X81566000Y-28295600D03*
X60928000Y-33578800D03*
X56928000Y-33578800D03*
X32022800Y-50952400D03*
X28022800Y-50952400D03*
D22*
X140716000Y-61500000D03*
X140716000Y-65500000D03*
X138176000Y-61500000D03*
X138176000Y-65500000D03*
X135636000Y-61500000D03*
X135636000Y-65500000D03*
X133096000Y-61500000D03*
X133096000Y-65500000D03*
X130556000Y-61500000D03*
X130556000Y-65500000D03*
X128016000Y-61500000D03*
X128016000Y-65500000D03*
X147066000Y-32480000D03*
X147066000Y-28480000D03*
X152146000Y-32480000D03*
X152146000Y-28480000D03*
D23*
X100482400Y-37379000D03*
X100482400Y-34879000D03*
X74574400Y-42267800D03*
X74574400Y-39767800D03*
X49530000Y-62685000D03*
X49530000Y-60185000D03*
D24*
X39370000Y-46482000D03*
X39370000Y-41402000D03*
X39370000Y-36322000D03*
X39370000Y-31242000D03*
D25*
X60960000Y-114300000D03*
D26*
X63500000Y-114300000D03*
X66040000Y-114300000D03*
X68580000Y-114300000D03*
X71120000Y-114300000D03*
X73660000Y-114300000D03*
X76200000Y-114300000D03*
X78740000Y-114300000D03*
X81280000Y-114300000D03*
X83820000Y-114300000D03*
X86360000Y-114300000D03*
X88900000Y-114300000D03*
X91440000Y-114300000D03*
X93980000Y-114300000D03*
X96520000Y-114300000D03*
D25*
X142240000Y-114300000D03*
D26*
X144780000Y-114300000D03*
X147320000Y-114300000D03*
X149860000Y-114300000D03*
X152400000Y-114300000D03*
X154940000Y-114300000D03*
X157480000Y-114300000D03*
X160020000Y-114300000D03*
X162560000Y-114300000D03*
X165100000Y-114300000D03*
X167640000Y-114300000D03*
X170180000Y-114300000D03*
X172720000Y-114300000D03*
X175260000Y-114300000D03*
X177800000Y-114300000D03*
D25*
X60960000Y-124460000D03*
D26*
X63500000Y-124460000D03*
X66040000Y-124460000D03*
X68580000Y-124460000D03*
X71120000Y-124460000D03*
X73660000Y-124460000D03*
X76200000Y-124460000D03*
X78740000Y-124460000D03*
X81280000Y-124460000D03*
X83820000Y-124460000D03*
X86360000Y-124460000D03*
X88900000Y-124460000D03*
X91440000Y-124460000D03*
X93980000Y-124460000D03*
X96520000Y-124460000D03*
D25*
X142240000Y-124460000D03*
D26*
X144780000Y-124460000D03*
X147320000Y-124460000D03*
X149860000Y-124460000D03*
X152400000Y-124460000D03*
X154940000Y-124460000D03*
X157480000Y-124460000D03*
X160020000Y-124460000D03*
X162560000Y-124460000D03*
X165100000Y-124460000D03*
X167640000Y-124460000D03*
X170180000Y-124460000D03*
X172720000Y-124460000D03*
X175260000Y-124460000D03*
X177800000Y-124460000D03*
D25*
X60960000Y-134620000D03*
D26*
X63500000Y-134620000D03*
X66040000Y-134620000D03*
X68580000Y-134620000D03*
X71120000Y-134620000D03*
X73660000Y-134620000D03*
X76200000Y-134620000D03*
X78740000Y-134620000D03*
X81280000Y-134620000D03*
X83820000Y-134620000D03*
X86360000Y-134620000D03*
X88900000Y-134620000D03*
X91440000Y-134620000D03*
X93980000Y-134620000D03*
X96520000Y-134620000D03*
D25*
X142240000Y-134620000D03*
D26*
X144780000Y-134620000D03*
X147320000Y-134620000D03*
X149860000Y-134620000D03*
X152400000Y-134620000D03*
X154940000Y-134620000D03*
X157480000Y-134620000D03*
X160020000Y-134620000D03*
X162560000Y-134620000D03*
X165100000Y-134620000D03*
X167640000Y-134620000D03*
X170180000Y-134620000D03*
X172720000Y-134620000D03*
X175260000Y-134620000D03*
X177800000Y-134620000D03*
D25*
X60960000Y-144780000D03*
D26*
X63500000Y-144780000D03*
X66040000Y-144780000D03*
X68580000Y-144780000D03*
X71120000Y-144780000D03*
X73660000Y-144780000D03*
X76200000Y-144780000D03*
X78740000Y-144780000D03*
X81280000Y-144780000D03*
X83820000Y-144780000D03*
X86360000Y-144780000D03*
X88900000Y-144780000D03*
X91440000Y-144780000D03*
X93980000Y-144780000D03*
X96520000Y-144780000D03*
D25*
X142240000Y-144780000D03*
D26*
X144780000Y-144780000D03*
X147320000Y-144780000D03*
X149860000Y-144780000D03*
X152400000Y-144780000D03*
X154940000Y-144780000D03*
X157480000Y-144780000D03*
X160020000Y-144780000D03*
X162560000Y-144780000D03*
X165100000Y-144780000D03*
X167640000Y-144780000D03*
X170180000Y-144780000D03*
X172720000Y-144780000D03*
X175260000Y-144780000D03*
X177800000Y-144780000D03*
D25*
X60960000Y-154940000D03*
D26*
X63500000Y-154940000D03*
X66040000Y-154940000D03*
X68580000Y-154940000D03*
X71120000Y-154940000D03*
X73660000Y-154940000D03*
X76200000Y-154940000D03*
X78740000Y-154940000D03*
X81280000Y-154940000D03*
X83820000Y-154940000D03*
X86360000Y-154940000D03*
X88900000Y-154940000D03*
X91440000Y-154940000D03*
X93980000Y-154940000D03*
X96520000Y-154940000D03*
D25*
X142240000Y-154940000D03*
D26*
X144780000Y-154940000D03*
X147320000Y-154940000D03*
X149860000Y-154940000D03*
X152400000Y-154940000D03*
X154940000Y-154940000D03*
X157480000Y-154940000D03*
X160020000Y-154940000D03*
X162560000Y-154940000D03*
X165100000Y-154940000D03*
X167640000Y-154940000D03*
X170180000Y-154940000D03*
X172720000Y-154940000D03*
X175260000Y-154940000D03*
X177800000Y-154940000D03*
D25*
X60960000Y-165100000D03*
D26*
X63500000Y-165100000D03*
X66040000Y-165100000D03*
X68580000Y-165100000D03*
X71120000Y-165100000D03*
X73660000Y-165100000D03*
X76200000Y-165100000D03*
X78740000Y-165100000D03*
X81280000Y-165100000D03*
X83820000Y-165100000D03*
X86360000Y-165100000D03*
X88900000Y-165100000D03*
X91440000Y-165100000D03*
X93980000Y-165100000D03*
X96520000Y-165100000D03*
D25*
X142240000Y-165100000D03*
D26*
X144780000Y-165100000D03*
X147320000Y-165100000D03*
X149860000Y-165100000D03*
X152400000Y-165100000D03*
X154940000Y-165100000D03*
X157480000Y-165100000D03*
X160020000Y-165100000D03*
X162560000Y-165100000D03*
X165100000Y-165100000D03*
X167640000Y-165100000D03*
X170180000Y-165100000D03*
X172720000Y-165100000D03*
X175260000Y-165100000D03*
X177800000Y-165100000D03*
D25*
X60960000Y-175260000D03*
D26*
X63500000Y-175260000D03*
X66040000Y-175260000D03*
X68580000Y-175260000D03*
X71120000Y-175260000D03*
X73660000Y-175260000D03*
X76200000Y-175260000D03*
X78740000Y-175260000D03*
X81280000Y-175260000D03*
X83820000Y-175260000D03*
X86360000Y-175260000D03*
X88900000Y-175260000D03*
X91440000Y-175260000D03*
X93980000Y-175260000D03*
X96520000Y-175260000D03*
D25*
X142240000Y-175260000D03*
D26*
X144780000Y-175260000D03*
X147320000Y-175260000D03*
X149860000Y-175260000D03*
X152400000Y-175260000D03*
X154940000Y-175260000D03*
X157480000Y-175260000D03*
X160020000Y-175260000D03*
X162560000Y-175260000D03*
X165100000Y-175260000D03*
X167640000Y-175260000D03*
X170180000Y-175260000D03*
X172720000Y-175260000D03*
X175260000Y-175260000D03*
X177800000Y-175260000D03*
D25*
X60960000Y-185420000D03*
D26*
X63500000Y-185420000D03*
X66040000Y-185420000D03*
X68580000Y-185420000D03*
X71120000Y-185420000D03*
X73660000Y-185420000D03*
X76200000Y-185420000D03*
X78740000Y-185420000D03*
X81280000Y-185420000D03*
X83820000Y-185420000D03*
X86360000Y-185420000D03*
X88900000Y-185420000D03*
X91440000Y-185420000D03*
X93980000Y-185420000D03*
X96520000Y-185420000D03*
D25*
X142240000Y-185420000D03*
D26*
X144780000Y-185420000D03*
X147320000Y-185420000D03*
X149860000Y-185420000D03*
X152400000Y-185420000D03*
X154940000Y-185420000D03*
X157480000Y-185420000D03*
X160020000Y-185420000D03*
X162560000Y-185420000D03*
X165100000Y-185420000D03*
X167640000Y-185420000D03*
X170180000Y-185420000D03*
X172720000Y-185420000D03*
X175260000Y-185420000D03*
X177800000Y-185420000D03*
D25*
X60960000Y-195580000D03*
D26*
X63500000Y-195580000D03*
X66040000Y-195580000D03*
X68580000Y-195580000D03*
X71120000Y-195580000D03*
X73660000Y-195580000D03*
X76200000Y-195580000D03*
X78740000Y-195580000D03*
X81280000Y-195580000D03*
X83820000Y-195580000D03*
X86360000Y-195580000D03*
X88900000Y-195580000D03*
X91440000Y-195580000D03*
X93980000Y-195580000D03*
X96520000Y-195580000D03*
D25*
X142240000Y-195580000D03*
D26*
X144780000Y-195580000D03*
X147320000Y-195580000D03*
X149860000Y-195580000D03*
X152400000Y-195580000D03*
X154940000Y-195580000D03*
X157480000Y-195580000D03*
X160020000Y-195580000D03*
X162560000Y-195580000D03*
X165100000Y-195580000D03*
X167640000Y-195580000D03*
X170180000Y-195580000D03*
X172720000Y-195580000D03*
X175260000Y-195580000D03*
X177800000Y-195580000D03*
D25*
X60960000Y-205740000D03*
D26*
X63500000Y-205740000D03*
X66040000Y-205740000D03*
X68580000Y-205740000D03*
X71120000Y-205740000D03*
X73660000Y-205740000D03*
X76200000Y-205740000D03*
X78740000Y-205740000D03*
X81280000Y-205740000D03*
X83820000Y-205740000D03*
X86360000Y-205740000D03*
X88900000Y-205740000D03*
X91440000Y-205740000D03*
X93980000Y-205740000D03*
X96520000Y-205740000D03*
D25*
X142240000Y-205740000D03*
D26*
X144780000Y-205740000D03*
X147320000Y-205740000D03*
X149860000Y-205740000D03*
X152400000Y-205740000D03*
X154940000Y-205740000D03*
X157480000Y-205740000D03*
X160020000Y-205740000D03*
X162560000Y-205740000D03*
X165100000Y-205740000D03*
X167640000Y-205740000D03*
X170180000Y-205740000D03*
X172720000Y-205740000D03*
X175260000Y-205740000D03*
X177800000Y-205740000D03*
D25*
X60960000Y-215900000D03*
D26*
X63500000Y-215900000D03*
X66040000Y-215900000D03*
X68580000Y-215900000D03*
X71120000Y-215900000D03*
X73660000Y-215900000D03*
X76200000Y-215900000D03*
X78740000Y-215900000D03*
X81280000Y-215900000D03*
X83820000Y-215900000D03*
X86360000Y-215900000D03*
X88900000Y-215900000D03*
X91440000Y-215900000D03*
X93980000Y-215900000D03*
X96520000Y-215900000D03*
D25*
X142240000Y-215900000D03*
D26*
X144780000Y-215900000D03*
X147320000Y-215900000D03*
X149860000Y-215900000D03*
X152400000Y-215900000D03*
X154940000Y-215900000D03*
X157480000Y-215900000D03*
X160020000Y-215900000D03*
X162560000Y-215900000D03*
X165100000Y-215900000D03*
X167640000Y-215900000D03*
X170180000Y-215900000D03*
X172720000Y-215900000D03*
X175260000Y-215900000D03*
X177800000Y-215900000D03*
D25*
X60960000Y-226060000D03*
D26*
X63500000Y-226060000D03*
X66040000Y-226060000D03*
X68580000Y-226060000D03*
X71120000Y-226060000D03*
X73660000Y-226060000D03*
X76200000Y-226060000D03*
X78740000Y-226060000D03*
X81280000Y-226060000D03*
X83820000Y-226060000D03*
X86360000Y-226060000D03*
X88900000Y-226060000D03*
X91440000Y-226060000D03*
X93980000Y-226060000D03*
X96520000Y-226060000D03*
D25*
X142240000Y-226060000D03*
D26*
X144780000Y-226060000D03*
X147320000Y-226060000D03*
X149860000Y-226060000D03*
X152400000Y-226060000D03*
X154940000Y-226060000D03*
X157480000Y-226060000D03*
X160020000Y-226060000D03*
X162560000Y-226060000D03*
X165100000Y-226060000D03*
X167640000Y-226060000D03*
X170180000Y-226060000D03*
X172720000Y-226060000D03*
X175260000Y-226060000D03*
X177800000Y-226060000D03*
D25*
X60960000Y-236220000D03*
D26*
X63500000Y-236220000D03*
X66040000Y-236220000D03*
X68580000Y-236220000D03*
X71120000Y-236220000D03*
X73660000Y-236220000D03*
X76200000Y-236220000D03*
X78740000Y-236220000D03*
X81280000Y-236220000D03*
X83820000Y-236220000D03*
X86360000Y-236220000D03*
X88900000Y-236220000D03*
X91440000Y-236220000D03*
X93980000Y-236220000D03*
X96520000Y-236220000D03*
D25*
X142240000Y-236220000D03*
D26*
X144780000Y-236220000D03*
X147320000Y-236220000D03*
X149860000Y-236220000D03*
X152400000Y-236220000D03*
X154940000Y-236220000D03*
X157480000Y-236220000D03*
X160020000Y-236220000D03*
X162560000Y-236220000D03*
X165100000Y-236220000D03*
X167640000Y-236220000D03*
X170180000Y-236220000D03*
X172720000Y-236220000D03*
X175260000Y-236220000D03*
X177800000Y-236220000D03*
D25*
X60960000Y-246380000D03*
D26*
X63500000Y-246380000D03*
X66040000Y-246380000D03*
X68580000Y-246380000D03*
X71120000Y-246380000D03*
X73660000Y-246380000D03*
X76200000Y-246380000D03*
X78740000Y-246380000D03*
X81280000Y-246380000D03*
X83820000Y-246380000D03*
X86360000Y-246380000D03*
X88900000Y-246380000D03*
X91440000Y-246380000D03*
X93980000Y-246380000D03*
X96520000Y-246380000D03*
D25*
X142240000Y-246380000D03*
D26*
X144780000Y-246380000D03*
X147320000Y-246380000D03*
X149860000Y-246380000D03*
X152400000Y-246380000D03*
X154940000Y-246380000D03*
X157480000Y-246380000D03*
X160020000Y-246380000D03*
X162560000Y-246380000D03*
X165100000Y-246380000D03*
X167640000Y-246380000D03*
X170180000Y-246380000D03*
X172720000Y-246380000D03*
X175260000Y-246380000D03*
X177800000Y-246380000D03*
D25*
X60960000Y-256540000D03*
D26*
X63500000Y-256540000D03*
X66040000Y-256540000D03*
X68580000Y-256540000D03*
X71120000Y-256540000D03*
X73660000Y-256540000D03*
X76200000Y-256540000D03*
X78740000Y-256540000D03*
X81280000Y-256540000D03*
X83820000Y-256540000D03*
X86360000Y-256540000D03*
X88900000Y-256540000D03*
X91440000Y-256540000D03*
X93980000Y-256540000D03*
X96520000Y-256540000D03*
D25*
X142240000Y-256540000D03*
D26*
X144780000Y-256540000D03*
X147320000Y-256540000D03*
X149860000Y-256540000D03*
X152400000Y-256540000D03*
X154940000Y-256540000D03*
X157480000Y-256540000D03*
X160020000Y-256540000D03*
X162560000Y-256540000D03*
X165100000Y-256540000D03*
X167640000Y-256540000D03*
X170180000Y-256540000D03*
X172720000Y-256540000D03*
X175260000Y-256540000D03*
X177800000Y-256540000D03*
D14*
X100482400Y-40574000D03*
X100482400Y-45974000D03*
X74574400Y-45937800D03*
X74574400Y-51337800D03*
D25*
X145796000Y-57150000D03*
D26*
X143256000Y-57150000D03*
X140716000Y-57150000D03*
X138176000Y-57150000D03*
X135636000Y-57150000D03*
X133096000Y-57150000D03*
X130556000Y-57150000D03*
X128016000Y-57150000D03*
X125476000Y-57150000D03*
X122936000Y-57150000D03*
X120396000Y-57150000D03*
X117856000Y-57150000D03*
D25*
X60960000Y-266700000D03*
D26*
X63500000Y-266700000D03*
X66040000Y-266700000D03*
X68580000Y-266700000D03*
X71120000Y-266700000D03*
X73660000Y-266700000D03*
X76200000Y-266700000D03*
X78740000Y-266700000D03*
X81280000Y-266700000D03*
X83820000Y-266700000D03*
X86360000Y-266700000D03*
X88900000Y-266700000D03*
X91440000Y-266700000D03*
X93980000Y-266700000D03*
X96520000Y-266700000D03*
D25*
X142240000Y-266700000D03*
D26*
X144780000Y-266700000D03*
X147320000Y-266700000D03*
X149860000Y-266700000D03*
X152400000Y-266700000D03*
X154940000Y-266700000D03*
X157480000Y-266700000D03*
X160020000Y-266700000D03*
X162560000Y-266700000D03*
X165100000Y-266700000D03*
X167640000Y-266700000D03*
X170180000Y-266700000D03*
X172720000Y-266700000D03*
X175260000Y-266700000D03*
X177800000Y-266700000D03*
D27*
X177800000Y-276610000D03*
X175260000Y-276610000D03*
X172720000Y-276610000D03*
X170180000Y-276610000D03*
X167640000Y-276610000D03*
X165100000Y-276610000D03*
X162560000Y-276610000D03*
X160020000Y-276610000D03*
X157480000Y-276610000D03*
X154940000Y-276610000D03*
X152400000Y-276610000D03*
X149860000Y-276610000D03*
X147320000Y-276610000D03*
X144780000Y-276610000D03*
X142240000Y-276610000D03*
X96520000Y-276610000D03*
X93980000Y-276610000D03*
X91440000Y-276610000D03*
X88900000Y-276610000D03*
X86360000Y-276610000D03*
X83820000Y-276610000D03*
X81280000Y-276610000D03*
X78740000Y-276610000D03*
X76200000Y-276610000D03*
X73660000Y-276610000D03*
X71120000Y-276610000D03*
X68580000Y-276610000D03*
X66040000Y-276610000D03*
X63500000Y-276610000D03*
X60960000Y-276610000D03*
D11*
X25400000Y-276860000D03*
X129540000Y-276860000D03*
X25400000Y-27940000D03*
X177800000Y-27940000D03*
X129540000Y-193040000D03*
X25400000Y-193040000D03*
D28*
X79552800Y-31324800D03*
X79552800Y-35324800D03*
D29*
X83464400Y-67687800D03*
D30*
X83464400Y-69687800D03*
D28*
X55118000Y-36455600D03*
X55118000Y-40455600D03*
D29*
X58851800Y-72869400D03*
D30*
X58851800Y-74869400D03*
D28*
X29413200Y-56928000D03*
X29413200Y-60928000D03*
D29*
X33274000Y-93291000D03*
D30*
X33274000Y-95291000D03*
D29*
X96164400Y-67687800D03*
D30*
X96164400Y-69687800D03*
D29*
X71551800Y-72869400D03*
D30*
X71551800Y-74869400D03*
D29*
X45974000Y-93291000D03*
D30*
X45974000Y-95291000D03*
D21*
X88576400Y-28295600D03*
X92576400Y-28295600D03*
X95332800Y-28295600D03*
X99332800Y-28295600D03*
X63938400Y-33578800D03*
X67938400Y-33578800D03*
X70745600Y-33578800D03*
X74745600Y-33578800D03*
X38259000Y-53721000D03*
X42259000Y-53721000D03*
X45244000Y-53721000D03*
X49244000Y-53721000D03*
D22*
X85699600Y-46062400D03*
X85699600Y-42062400D03*
X61087000Y-51244000D03*
X61087000Y-47244000D03*
X35534600Y-71640200D03*
X35534600Y-67640200D03*
D11*
X63931800Y-59484400D03*
D12*
X66471800Y-42824400D03*
D13*
X63931800Y-42824400D03*
X61391800Y-42824400D03*
D11*
X88544400Y-54302800D03*
D12*
X91084400Y-37642800D03*
D13*
X88544400Y-37642800D03*
X86004400Y-37642800D03*
D31*
X94259400Y-45897800D03*
X87274400Y-48437800D03*
X89814400Y-48437800D03*
X92354400Y-48437800D03*
X84734400Y-48437800D03*
X84734400Y-45897800D03*
X87274400Y-45897800D03*
X89814400Y-45897800D03*
X92354400Y-45897800D03*
X92354400Y-56057800D03*
X84734400Y-56057800D03*
X87274400Y-58597800D03*
X84734400Y-58597800D03*
X89814400Y-58597800D03*
X92354400Y-58597800D03*
X82829400Y-58597800D03*
X82829400Y-56057800D03*
X94259400Y-58597800D03*
X94259400Y-56057800D03*
X82829400Y-45897800D03*
X82829400Y-48437800D03*
X82829400Y-50977800D03*
X82829400Y-53517800D03*
X94259400Y-53517800D03*
X94259400Y-50977800D03*
X94259400Y-48437800D03*
D32*
X81444400Y-52247800D03*
X95644400Y-52247800D03*
D33*
X91084400Y-40757800D03*
X88544400Y-40757800D03*
X86004400Y-40757800D03*
D34*
X88544400Y-49907800D03*
D31*
X69646800Y-51079400D03*
X62661800Y-53619400D03*
X65201800Y-53619400D03*
X67741800Y-53619400D03*
X60121800Y-53619400D03*
X60121800Y-51079400D03*
X62661800Y-51079400D03*
X65201800Y-51079400D03*
X67741800Y-51079400D03*
X67741800Y-61239400D03*
X60121800Y-61239400D03*
X62661800Y-63779400D03*
X60121800Y-63779400D03*
X65201800Y-63779400D03*
X67741800Y-63779400D03*
X58216800Y-63779400D03*
X58216800Y-61239400D03*
X69646800Y-63779400D03*
X69646800Y-61239400D03*
X58216800Y-51079400D03*
X58216800Y-53619400D03*
X58216800Y-56159400D03*
X58216800Y-58699400D03*
X69646800Y-58699400D03*
X69646800Y-56159400D03*
X69646800Y-53619400D03*
D32*
X56831800Y-57429400D03*
X71031800Y-57429400D03*
D33*
X66471800Y-45939400D03*
X63931800Y-45939400D03*
X61391800Y-45939400D03*
D34*
X63931800Y-55089400D03*
D31*
X44069000Y-71501000D03*
X37084000Y-74041000D03*
X39624000Y-74041000D03*
X42164000Y-74041000D03*
X34544000Y-74041000D03*
X34544000Y-71501000D03*
X37084000Y-71501000D03*
X39624000Y-71501000D03*
X42164000Y-71501000D03*
X42164000Y-81661000D03*
X34544000Y-81661000D03*
X37084000Y-84201000D03*
X34544000Y-84201000D03*
X39624000Y-84201000D03*
X42164000Y-84201000D03*
X32639000Y-84201000D03*
X32639000Y-81661000D03*
X44069000Y-84201000D03*
X44069000Y-81661000D03*
X32639000Y-71501000D03*
X32639000Y-74041000D03*
X32639000Y-76581000D03*
X32639000Y-79121000D03*
X44069000Y-79121000D03*
X44069000Y-76581000D03*
X44069000Y-74041000D03*
D32*
X31254000Y-77851000D03*
X45454000Y-77851000D03*
D33*
X40894000Y-66361000D03*
X38354000Y-66361000D03*
X35814000Y-66361000D03*
D34*
X38354000Y-75511000D03*
M02*
